<?xml version="1.0" encoding="UTF-8" standalone="no"?>
<!DOCTYPE svg PUBLIC "-//W3C//DTD SVG 1.1//EN" "http://www.w3.org/Graphics/SVG/1.1/DTD/svg11.dtd">
<svg width="100%" height="100%" viewBox="0 0 1108 391" version="1.1" xmlns="http://www.w3.org/2000/svg" xmlns:xlink="http://www.w3.org/1999/xlink" xml:space="preserve" xmlns:serif="http://www.serif.com/" style="fill-rule:evenodd;clip-rule:evenodd;stroke-linejoin:round;stroke-miterlimit:2;">
    <rect id="Artboard2" x="0" y="0" width="1107.77" height="390.459" style="fill:none;"/>
    <clipPath id="_clip1">
        <rect id="Artboard21" serif:id="Artboard2" x="0" y="0" width="1107.77" height="390.459"/>
    </clipPath>
    <g clip-path="url(#_clip1)">
        <g transform="matrix(1,0,0,1,-135.602,-368.221)">
            <g transform="matrix(7.96947,0,0,7.96947,-5944.85,-4685.7)">
                <path d="M829.875,634.162L824.955,642.082L829.875,651.73L825.219,651.73L822.483,646.066L821.331,647.914L821.331,651.73L817.275,651.73L817.275,634.162L821.331,634.162L821.331,640.522L825.219,634.162L829.875,634.162Z" style="fill:white;fill-rule:nonzero;"/>
                <path d="M844.659,647.002C844.627,647.69 844.479,648.338 844.215,648.946C843.951,649.554 843.571,650.082 843.075,650.53C842.579,650.978 841.979,651.334 841.275,651.598C840.571,651.862 839.763,651.994 838.851,651.994L838.275,651.994C837.331,651.994 836.495,651.854 835.767,651.574C835.039,651.294 834.431,650.914 833.943,650.434C833.455,649.954 833.083,649.394 832.827,648.754C832.571,648.114 832.443,647.434 832.443,646.714L832.443,634.162L836.451,634.162L836.475,646.714C836.475,646.954 836.523,647.182 836.619,647.398C836.715,647.614 836.847,647.806 837.015,647.974C837.183,648.142 837.375,648.274 837.591,648.37C837.807,648.466 838.035,648.514 838.275,648.514L838.851,648.514C839.091,648.514 839.319,648.466 839.535,648.37C839.751,648.274 839.943,648.142 840.111,647.974C840.279,647.806 840.411,647.614 840.507,647.398C840.603,647.182 840.651,646.954 840.651,646.714L840.651,634.162L844.683,634.162L844.683,647.002L844.659,647.002Z" style="fill:white;fill-rule:nonzero;"/>
                <path d="M852.555,648.154L857.763,648.154L857.763,651.73L848.523,651.73L848.523,634.162L852.555,634.162L852.555,648.154Z" style="fill:white;fill-rule:nonzero;"/>
                <path d="M870.483,634.162L870.483,637.738L866.691,637.738L866.691,651.73L862.635,651.73L862.635,637.738L858.843,637.738L858.843,634.162L870.483,634.162Z" style="fill:white;fill-rule:nonzero;"/>
                <path d="M885.123,647.002C885.091,647.69 884.943,648.338 884.679,648.946C884.415,649.554 884.035,650.082 883.539,650.53C883.043,650.978 882.443,651.334 881.739,651.598C881.035,651.862 880.227,651.994 879.315,651.994L878.739,651.994C877.795,651.994 876.959,651.854 876.231,651.574C875.503,651.294 874.895,650.914 874.407,650.434C873.919,649.954 873.547,649.394 873.291,648.754C873.035,648.114 872.907,647.434 872.907,646.714L872.907,634.162L876.915,634.162L876.939,646.714C876.939,646.954 876.987,647.182 877.083,647.398C877.179,647.614 877.311,647.806 877.479,647.974C877.647,648.142 877.839,648.274 878.055,648.37C878.271,648.466 878.499,648.514 878.739,648.514L879.315,648.514C879.555,648.514 879.783,648.466 879.999,648.37C880.215,648.274 880.407,648.142 880.575,647.974C880.743,647.806 880.875,647.614 880.971,647.398C881.067,647.182 881.115,646.954 881.115,646.714L881.115,634.162L885.147,634.162L885.147,647.002L885.123,647.002Z" style="fill:white;fill-rule:nonzero;"/>
                <path d="M894.867,647.866L893.043,647.866L893.043,651.73L888.987,651.73L888.987,634.162L895.371,634.162C896.235,634.146 897.015,634.266 897.711,634.522C898.407,634.778 899.007,635.13 899.511,635.578C900.015,636.026 900.411,636.558 900.699,637.174C900.987,637.79 901.155,638.442 901.203,639.13L901.203,642.586C901.203,643.434 901.023,644.222 900.663,644.95C900.303,645.678 899.787,646.29 899.115,646.786L901.971,651.73L897.291,651.73L894.867,647.866ZM897.195,639.418C897.195,639.178 897.143,638.95 897.039,638.734C896.935,638.518 896.799,638.326 896.631,638.158C896.463,637.99 896.271,637.858 896.055,637.762C895.839,637.666 895.611,637.618 895.371,637.618L893.043,637.618L893.043,644.386L895.371,644.386C895.851,644.386 896.275,644.206 896.643,643.846C897.011,643.486 897.195,643.066 897.195,642.586L897.195,639.418Z" style="fill:white;fill-rule:nonzero;"/>
            </g>
            <g transform="matrix(5.2895,0,0,5.2895,-3749.25,-2830.43)">
                <path d="M822.987,641.026C823.755,641.026 824.471,641.17 825.135,641.458C825.799,641.746 826.383,642.138 826.887,642.634C827.391,643.13 827.787,643.71 828.075,644.374C828.363,645.038 828.507,645.754 828.507,646.522C828.507,647.274 828.363,647.986 828.075,648.658C827.787,649.33 827.391,649.914 826.887,650.41C826.383,650.906 825.799,651.298 825.135,651.586C824.471,651.874 823.755,652.018 822.987,652.018L821.763,652.018C820.995,652.018 820.279,651.874 819.615,651.586C818.951,651.298 818.371,650.906 817.875,650.41C817.379,649.914 816.987,649.33 816.699,648.658C816.411,647.986 816.267,647.274 816.267,646.522L819.963,646.522C819.963,647.018 820.135,647.442 820.479,647.794C820.823,648.146 821.251,648.322 821.763,648.322L822.987,648.322C823.499,648.322 823.931,648.146 824.283,647.794C824.635,647.442 824.811,647.018 824.811,646.522C824.811,646.01 824.635,645.578 824.283,645.226C823.931,644.874 823.499,644.698 822.987,644.698L821.763,644.698C820.995,644.698 820.279,644.566 819.615,644.302C818.951,644.038 818.371,643.674 817.875,643.21C817.379,642.746 816.987,642.194 816.699,641.554C816.411,640.914 816.267,640.21 816.267,639.442C816.267,638.69 816.411,637.978 816.699,637.306C816.987,636.634 817.379,636.05 817.875,635.554C818.371,635.058 818.951,634.666 819.615,634.378C820.279,634.09 820.995,633.946 821.763,633.946L822.987,633.946C823.755,633.946 824.471,634.09 825.135,634.378C825.799,634.666 826.383,635.058 826.887,635.554C827.391,636.05 827.787,636.634 828.075,637.306C828.363,637.978 828.507,638.69 828.507,639.442L824.811,639.442C824.811,638.946 824.635,638.522 824.283,638.17C823.931,637.818 823.499,637.642 822.987,637.642L821.763,637.642C821.251,637.642 820.823,637.818 820.479,638.17C820.135,638.522 819.963,638.946 819.963,639.442C819.963,639.954 820.135,640.346 820.479,640.618C820.823,640.89 821.251,641.026 821.763,641.026L822.987,641.026Z" style="fill:white;fill-rule:nonzero;"/>
                <path d="M844.131,642.61C844.131,643.33 843.991,644.018 843.711,644.674C843.431,645.33 843.035,645.902 842.523,646.39C842.011,646.878 841.399,647.258 840.687,647.53C839.975,647.802 839.179,647.922 838.299,647.89L835.443,647.89L835.443,651.73L831.387,651.73L831.387,634.162L838.299,634.162C839.131,634.114 839.895,634.218 840.591,634.474C841.287,634.73 841.891,635.086 842.403,635.542C842.915,635.998 843.319,636.542 843.615,637.174C843.911,637.806 844.083,638.466 844.131,639.154L844.131,642.61ZM838.299,644.41C838.779,644.41 839.203,644.23 839.571,643.87C839.939,643.51 840.123,643.09 840.123,642.61L840.123,639.442C840.123,638.962 839.939,638.542 839.571,638.182C839.203,637.822 838.779,637.642 838.299,637.642L835.443,637.642L835.443,644.41L838.299,644.41Z" style="fill:white;fill-rule:nonzero;"/>
                <path d="M857.139,637.618L851.091,637.618L851.091,641.026L856.083,641.026L856.083,644.482L851.091,644.482L851.091,648.25L857.139,648.25L857.139,651.73L847.035,651.73L847.035,634.162L857.139,634.162L857.139,637.618Z" style="fill:white;fill-rule:nonzero;"/>
                <path d="M873.555,634.162L868.635,642.082L873.555,651.73L868.899,651.73L866.163,646.066L865.011,647.914L865.011,651.73L860.955,651.73L860.955,634.162L865.011,634.162L865.011,640.522L868.899,634.162L873.555,634.162Z" style="fill:white;fill-rule:nonzero;"/>
                <path d="M886.395,634.162L886.395,637.738L882.603,637.738L882.603,651.73L878.547,651.73L878.547,637.738L874.755,637.738L874.755,634.162L886.395,634.162Z" style="fill:white;fill-rule:nonzero;"/>
                <path d="M898.827,651.706L898.323,649.786L892.203,649.786L891.699,651.706L887.499,651.706L892.227,634.162L898.299,634.162L903.027,651.706L898.827,651.706ZM893.139,646.354L897.387,646.354L895.251,638.434L893.139,646.354Z" style="fill:white;fill-rule:nonzero;"/>
                <path d="M918.171,634.162L913.251,642.082L918.171,651.73L913.515,651.73L910.779,646.066L909.627,647.914L909.627,651.73L905.571,651.73L905.571,634.162L909.627,634.162L909.627,640.522L913.515,634.162L918.171,634.162Z" style="fill:white;fill-rule:nonzero;"/>
                <path d="M930.819,637.618L924.771,637.618L924.771,641.026L929.763,641.026L929.763,644.482L924.771,644.482L924.771,648.25L930.819,648.25L930.819,651.73L920.715,651.73L920.715,634.162L930.819,634.162L930.819,637.618Z" style="fill:white;fill-rule:nonzero;"/>
                <path d="M938.667,648.154L943.875,648.154L943.875,651.73L934.635,651.73L934.635,634.162L938.667,634.162L938.667,648.154Z" style="fill:white;fill-rule:nonzero;"/>
            </g>
            <g transform="matrix(7.03458,0,0,7.03458,-5174.21,-3828.16)">
                <path d="M822.195,642.514L828.579,642.514L828.579,646.738C828.579,647.474 828.451,648.162 828.195,648.802C827.939,649.442 827.567,650.002 827.079,650.482C826.591,650.962 825.983,651.342 825.255,651.622C824.527,651.902 823.691,652.042 822.747,652.042L822.195,652.042C821.251,652.042 820.415,651.902 819.687,651.622C818.959,651.342 818.347,650.962 817.851,650.482C817.355,650.002 816.979,649.442 816.723,648.802C816.467,648.162 816.339,647.474 816.339,646.738L816.339,638.962L816.363,638.962C816.395,638.274 816.547,637.626 816.819,637.018C817.091,636.41 817.471,635.878 817.959,635.422C818.447,634.966 819.047,634.61 819.759,634.354C820.471,634.098 821.283,633.97 822.195,633.97L822.747,633.97C823.691,633.97 824.527,634.106 825.255,634.378C825.983,634.65 826.591,635.026 827.079,635.506C827.567,635.986 827.939,636.546 828.195,637.186C828.451,637.826 828.579,638.514 828.579,639.25L824.547,639.25C824.547,638.77 824.367,638.35 824.007,637.99C823.647,637.63 823.227,637.45 822.747,637.45L822.195,637.45C821.715,637.45 821.291,637.63 820.923,637.99C820.555,638.35 820.371,638.77 820.371,639.25L820.371,646.738C820.371,647.218 820.555,647.642 820.923,648.01C821.291,648.378 821.715,648.562 822.195,648.562L822.747,648.562C823.227,648.562 823.647,648.378 824.007,648.01C824.367,647.642 824.547,647.218 824.547,646.738L824.547,645.97L822.195,645.97L822.195,642.514Z" style="fill:none;fill-rule:nonzero;stroke:white;stroke-width:0.57px;"/>
                <path d="M841.491,651.706L840.987,649.786L834.867,649.786L834.363,651.706L830.163,651.706L834.891,634.162L840.963,634.162L845.691,651.706L841.491,651.706ZM835.803,646.354L840.051,646.354L837.915,638.434L835.803,646.354Z" style="fill:none;fill-rule:nonzero;stroke:white;stroke-width:0.57px;"/>
                <path d="M860.475,647.002C860.443,647.69 860.295,648.338 860.031,648.946C859.767,649.554 859.387,650.082 858.891,650.53C858.395,650.978 857.795,651.334 857.091,651.598C856.387,651.862 855.579,651.994 854.667,651.994L854.091,651.994C853.147,651.994 852.311,651.854 851.583,651.574C850.855,651.294 850.247,650.914 849.759,650.434C849.271,649.954 848.899,649.394 848.643,648.754C848.387,648.114 848.259,647.434 848.259,646.714L848.259,634.162L852.267,634.162L852.291,646.714C852.291,646.954 852.339,647.182 852.435,647.398C852.531,647.614 852.663,647.806 852.831,647.974C852.999,648.142 853.191,648.274 853.407,648.37C853.623,648.466 853.851,648.514 854.091,648.514L854.667,648.514C854.907,648.514 855.135,648.466 855.351,648.37C855.567,648.274 855.759,648.142 855.927,647.974C856.095,647.806 856.227,647.614 856.323,647.398C856.419,647.182 856.467,646.954 856.467,646.714L856.467,634.162L860.499,634.162L860.499,647.002L860.475,647.002Z" style="fill:none;fill-rule:nonzero;stroke:white;stroke-width:0.57px;"/>
                <path d="M874.635,634.162L874.635,637.738L870.843,637.738L870.843,651.73L866.787,651.73L866.787,637.738L862.995,637.738L862.995,634.162L874.635,634.162Z" style="fill:none;fill-rule:nonzero;stroke:white;stroke-width:0.57px;"/>
                <rect x="877.035" y="634.162" width="4.032" height="17.568" style="fill:none;fill-rule:nonzero;stroke:white;stroke-width:0.57px;"/>
                <path d="M893.115,634.162L897.171,634.162L897.171,651.73L893.115,651.73L888.963,643.258L888.963,651.73L884.907,651.73L884.907,634.162L888.987,634.162L893.115,642.994L893.115,634.162Z" style="fill:none;fill-rule:nonzero;stroke:white;stroke-width:0.57px;"/>
                <path d="M905.907,642.514L912.291,642.514L912.291,646.738C912.291,647.474 912.163,648.162 911.907,648.802C911.651,649.442 911.279,650.002 910.791,650.482C910.303,650.962 909.695,651.342 908.967,651.622C908.239,651.902 907.403,652.042 906.459,652.042L905.907,652.042C904.963,652.042 904.127,651.902 903.399,651.622C902.671,651.342 902.059,650.962 901.563,650.482C901.067,650.002 900.691,649.442 900.435,648.802C900.179,648.162 900.051,647.474 900.051,646.738L900.051,638.962L900.075,638.962C900.107,638.274 900.259,637.626 900.531,637.018C900.803,636.41 901.183,635.878 901.671,635.422C902.159,634.966 902.759,634.61 903.471,634.354C904.183,634.098 904.995,633.97 905.907,633.97L906.459,633.97C907.403,633.97 908.239,634.106 908.967,634.378C909.695,634.65 910.303,635.026 910.791,635.506C911.279,635.986 911.651,636.546 911.907,637.186C912.163,637.826 912.291,638.514 912.291,639.25L908.259,639.25C908.259,638.77 908.079,638.35 907.719,637.99C907.359,637.63 906.939,637.45 906.459,637.45L905.907,637.45C905.427,637.45 905.003,637.63 904.635,637.99C904.267,638.35 904.083,638.77 904.083,639.25L904.083,646.738C904.083,647.218 904.267,647.642 904.635,648.01C905.003,648.378 905.427,648.562 905.907,648.562L906.459,648.562C906.939,648.562 907.359,648.378 907.719,648.01C908.079,647.642 908.259,647.218 908.259,646.738L908.259,645.97L905.907,645.97L905.907,642.514Z" style="fill:none;fill-rule:nonzero;stroke:white;stroke-width:0.57px;"/>
            </g>
        </g>
        <g transform="matrix(0.407133,0,0,0.407133,22.1983,22.1983)">
            <rect x="0" y="0" width="850" height="850" style="fill:white;"/>
        </g>
        <g transform="matrix(0.459364,0,0,0.459364,0,4.20997e-13)">
            <path d="M0,0L0,850L850,850L850,0L0,0ZM661.3,674.5L486.5,674.5L344.1,508.5L344.1,674.5L203.2,674.5L203.2,175.5L344.3,175.5L344.3,339.4L475.4,175.5L644.2,175.5L644.2,184L441.8,420L661.3,665.8L661.3,674.5Z" style="fill:rgb(224,46,45);fill-rule:nonzero;"/>
        </g>
    </g>
</svg>
