<?xml version="1.0" encoding="utf-8"?>
<!-- Generator: Adobe Illustrator 27.3.1, SVG Export Plug-In . SVG Version: 6.00 Build 0)  -->
<svg version="1.1" id="Ebene_1" xmlns="http://www.w3.org/2000/svg" xmlns:xlink="http://www.w3.org/1999/xlink" x="0px" y="0px"
	 viewBox="0 0 283.5 128.5" style="enable-background:new 0 0 283.5 128.5;" xml:space="preserve">
<style type="text/css">
	.st0{fill:#FFFFFF;}
	.st1{fill:#009EE4;}
</style>
<path class="st0" d="M64.3,32.1c-17.7,0-32.1,14.4-32.1,32.1c0,17.7,14.4,32.1,32.1,32.1C82,96.4,96.4,82,96.4,64.2
	C96.4,46.5,82,32.1,64.3,32.1z M49.7,61.8h-3.9v-2.9h3.9V61.8z M55.3,61.8h-3.9V52h3.9V61.8z M60.8,61.8h-3.9V45.5h3.9V61.8z
	 M66.2,61.8h-3.9V38.1h3.9V61.8z M71.7,61.8h-3.9V45.5h3.9V61.8z M77.2,61.8h-3.9V52h3.9V61.8z M82.7,61.8h-3.9v-2.9h3.9V61.8z"/>
<rect x="62.3" y="65.5" class="st1" width="3.9" height="23.7"/>
<rect x="56.9" y="65.5" class="st1" width="3.9" height="16.3"/>
<rect x="51.4" y="65.5" class="st1" width="3.9" height="9.8"/>
<rect x="45.8" y="65.5" class="st1" width="4" height="2.9"/>
<rect x="67.8" y="65.5" class="st1" width="3.9" height="16.3"/>
<rect x="73.3" y="65.5" class="st1" width="3.9" height="9.8"/>
<rect x="78.8" y="65.6" class="st1" width="3.9" height="2.9"/>
<path class="st0" d="M162.3,80.2c0.9,0.1,1.7,0.1,2.2,0.1c4.3,0,8-1.6,11.1-4.8c3.2-3.2,4.7-6.9,4.7-11.3c0-4.5-1.5-8.3-4.7-11.4
	c-3.2-3.1-7-4.6-11.7-4.6c-2.3,0-4.6,0.5-6.8,1.5c-2.2,1-4,2.4-5.4,4.1c-2.5,3-3.7,6.9-3.7,11.6v23.9h10.3V65.9
	c0-6.3,3.1-7.6,5.8-7.6c1.6,0,3,0.6,4.1,1.7c1.1,1.1,1.7,2.5,1.7,4.1c0,1.6-0.6,2.9-1.7,4.1c-1.1,1.1-2.5,1.7-4,1.7
	c-0.7,0-1.3-0.1-2-0.4l0,0c0,0,0,0,0,0c-0.4-0.2-0.7-0.4-1.1-0.7v11.4C161.6,80.1,162,80.2,162.3,80.2L162.3,80.2z"/>
<path class="st0" d="M197.3,48.4v11.4c0.4-0.2,0.7-0.4,1-0.6l0,0c0.7-0.3,1.4-0.5,2.1-0.5c1.6,0,2.9,0.6,4,1.7
	c1.1,1.1,1.6,2.5,1.6,4.1c0,1.6-0.6,3-1.7,4.1c-1.1,1.1-2.5,1.7-4.1,1.7c-2.6,0-5.8-1.3-5.8-7.6V38.2h-10.3v24.9
	c0,4.8,1.3,8.7,3.7,11.7c1.4,1.7,3.2,3.1,5.4,4.1c2.2,1,4.5,1.5,6.8,1.5c4.7,0,8.5-1.5,11.7-4.7c3.2-3.1,4.8-6.9,4.8-11.5
	c0-4.5-1.5-8.2-4.7-11.4c-3.1-3.2-6.8-4.7-11.2-4.7c-0.5,0-1.3,0-2.3,0.1l0,0"/>
<polygon class="st0" points="137.3,48 130.7,66.2 124.1,48 112.2,48 125.5,80.3 125.6,80.3 135.8,80.3 135.8,80.3 149.1,48 "/>
<polygon class="st0" points="251.1,48 239.3,48 232.7,61.1 226.1,48 214.2,48 227.5,71.2 227.6,71.2 227.6,80.4 237.8,80.4 
	237.8,71.2 237.8,71.2 "/>
</svg>
