<?xml version="1.0" encoding="UTF-8" standalone="no"?>
<!DOCTYPE svg PUBLIC "-//W3C//DTD SVG 1.1//EN" "http://www.w3.org/Graphics/SVG/1.1/DTD/svg11.dtd">
<svg width="100%" height="100%" viewBox="0 0 500 500" version="1.1" xmlns="http://www.w3.org/2000/svg" xmlns:xlink="http://www.w3.org/1999/xlink" xml:space="preserve" xmlns:serif="http://www.serif.com/" style="fill-rule:evenodd;clip-rule:evenodd;stroke-linejoin:round;stroke-miterlimit:2;">
    <g id="Background-Complete" serif:id="Background Complete">
        <g transform="matrix(1,0,0,1,92.6367,304.459)">
            <path d="M0,12.686L-0.142,6.311C-0.187,4.207 -0.254,2.125 -0.273,0.053L0,0.326C-4.983,0.377 -9.966,0.485 -14.948,0.49L-29.896,0.552L-29.397,0.053L-29.451,12.686L-29.896,12.241C-27.43,12.258 -24.969,12.249 -22.497,12.295L-15.063,12.408L0,12.686ZM0,12.686L-14.833,12.965L-22.348,13.077C-24.858,13.124 -27.38,13.115 -29.896,13.132L-30.34,13.135L-30.342,12.686L-30.396,0.053L-30.398,-0.449L-29.896,-0.447L-14.948,-0.383C-9.966,-0.378 -4.983,-0.271 0,-0.22L0.275,-0.217L0.273,0.053C0.254,2.193 0.187,4.321 0.142,6.428L0,12.686Z" style="fill:rgb(221,217,212);fill-rule:nonzero;"/>
        </g>
        <g transform="matrix(1,0,0,1,75.9595,320.389)">
            <path d="M0,12.685L-0.142,6.31C-0.187,4.206 -0.254,2.124 -0.273,0.052L0,0.326C-4.983,0.376 -9.965,0.484 -14.948,0.489L-29.896,0.551L-29.397,0.052L-29.451,12.685L-29.896,12.24C-27.43,12.257 -24.969,12.248 -22.497,12.294L-15.063,12.407L0,12.685ZM0,12.685L-14.833,12.964L-22.348,13.077C-24.858,13.123 -27.38,13.114 -29.896,13.131L-30.34,13.134L-30.342,12.685L-30.396,0.052L-30.398,-0.449L-29.896,-0.447L-14.948,-0.384C-9.965,-0.379 -4.983,-0.272 0,-0.22L0.275,-0.217L0.273,0.052C0.254,2.192 0.187,4.32 0.142,6.428L0,12.685Z" style="fill:rgb(221,217,212);fill-rule:nonzero;"/>
        </g>
        <g transform="matrix(1,0,0,1,75.9595,47.0279)">
            <path d="M0,12.686L-0.142,6.311C-0.187,4.207 -0.254,2.125 -0.273,0.053L0,0.326C-4.983,0.377 -9.965,0.484 -14.948,0.489L-29.896,0.552L-29.397,0.053L-29.451,12.686L-29.896,12.24C-27.43,12.258 -24.969,12.248 -22.497,12.295L-15.063,12.407L0,12.686ZM0,12.686L-14.833,12.965L-22.348,13.077C-24.858,13.124 -27.38,13.114 -29.896,13.132L-30.34,13.135L-30.342,12.686L-30.396,0.053L-30.398,-0.449L-29.896,-0.446L-14.948,-0.384C-9.965,-0.379 -4.983,-0.271 0,-0.22L0.275,-0.217L0.273,0.053C0.254,2.192 0.187,4.321 0.142,6.428L0,12.686Z" style="fill:rgb(221,217,212);fill-rule:nonzero;"/>
        </g>
        <g transform="matrix(1,0,0,1,453.936,47.0279)">
            <path d="M0,12.686L-0.142,6.311C-0.187,4.207 -0.254,2.125 -0.272,0.053L0,0.326C-4.982,0.377 -9.965,0.484 -14.947,0.489L-29.896,0.552L-29.396,0.053L-29.45,12.686L-29.896,12.24C-27.43,12.258 -24.969,12.248 -22.496,12.295L-15.063,12.407L0,12.686ZM0,12.686L-14.832,12.965L-22.348,13.077C-24.857,13.124 -27.38,13.114 -29.896,13.132L-30.34,13.135L-30.342,12.686L-30.396,0.053L-30.397,-0.449L-29.896,-0.446L-14.947,-0.384C-9.965,-0.379 -4.982,-0.271 0,-0.22L0.275,-0.217L0.273,0.053C0.255,2.192 0.187,4.321 0.143,6.428L0,12.686Z" style="fill:rgb(221,217,212);fill-rule:nonzero;"/>
        </g>
        <g transform="matrix(1,0,0,1,437.26,62.957)">
            <path d="M0,12.687L-0.142,6.312C-0.187,4.208 -0.254,2.125 -0.272,0.054L0,0.327C-4.982,0.377 -9.966,0.485 -14.948,0.49L-29.896,0.553L-29.397,0.054L-29.45,12.687L-29.896,12.241C-27.43,12.259 -24.969,12.249 -22.497,12.296L-15.063,12.408L0,12.687ZM0,12.687L-14.833,12.965L-22.348,13.078C-24.858,13.124 -27.38,13.115 -29.896,13.132L-30.34,13.135L-30.342,12.687L-30.396,0.054L-30.398,-0.448L-29.896,-0.446L-14.948,-0.383C-9.966,-0.378 -4.982,-0.271 0,-0.219L0.275,-0.216L0.272,0.054C0.254,2.193 0.187,4.321 0.142,6.429L0,12.687Z" style="fill:rgb(221,217,212);fill-rule:nonzero;"/>
        </g>
        <g transform="matrix(1,0,0,1,360.691,210.751)">
            <path d="M0,12.686L-0.142,6.311C-0.187,4.207 -0.254,2.124 -0.272,0.053L0,0.326C-4.982,0.377 -9.965,0.484 -14.948,0.489L-29.896,0.552L-29.396,0.053L-29.45,12.686L-29.896,12.24C-27.43,12.258 -24.969,12.248 -22.496,12.295L-15.063,12.407L0,12.686ZM0,12.686L-14.832,12.965L-22.348,13.077C-24.857,13.123 -27.38,13.114 -29.896,13.132L-30.34,13.135L-30.342,12.686L-30.396,0.053L-30.397,-0.449L-29.896,-0.447L-14.948,-0.384C-9.965,-0.379 -4.982,-0.272 0,-0.22L0.275,-0.217L0.273,0.053C0.254,2.192 0.187,4.321 0.143,6.428L0,12.686Z" style="fill:rgb(221,217,212);fill-rule:nonzero;"/>
        </g>
        <g transform="matrix(1,0,0,1,344.015,226.681)">
            <path d="M0,12.686L-0.143,6.311C-0.187,4.207 -0.254,2.125 -0.273,0.053L0,0.326C-4.983,0.377 -9.966,0.484 -14.948,0.49L-29.896,0.552L-29.397,0.053L-29.451,12.686L-29.896,12.24C-27.43,12.258 -24.97,12.249 -22.497,12.295L-15.063,12.407L0,12.686ZM0,12.686L-14.833,12.965L-22.348,13.077C-24.858,13.124 -27.38,13.114 -29.896,13.132L-30.34,13.135L-30.342,12.686L-30.396,0.053L-30.398,-0.449L-29.896,-0.446L-14.948,-0.384C-9.966,-0.378 -4.983,-0.271 0,-0.22L0.275,-0.217L0.272,0.053C0.254,2.192 0.187,4.321 0.142,6.428L0,12.686Z" style="fill:rgb(221,217,212);fill-rule:nonzero;"/>
        </g>
        <g transform="matrix(1,0,0,1,327.403,210.751)">
            <path d="M0,12.686L-0.143,6.311C-0.187,4.207 -0.255,2.124 -0.273,0.053L0,0.326C-4.983,0.377 -9.966,0.484 -14.948,0.489L-29.896,0.552L-29.397,0.053L-29.451,12.686L-29.896,12.24C-27.431,12.258 -24.97,12.248 -22.497,12.295L-15.063,12.407L0,12.686ZM0,12.686L-14.833,12.965L-22.348,13.077C-24.858,13.123 -27.381,13.114 -29.896,13.132L-30.341,13.135L-30.343,12.686L-30.396,0.053L-30.398,-0.449L-29.896,-0.447L-14.948,-0.384C-9.966,-0.379 -4.983,-0.272 0,-0.22L0.275,-0.217L0.272,0.053C0.254,2.192 0.187,4.321 0.142,6.428L0,12.686Z" style="fill:rgb(221,217,212);fill-rule:nonzero;"/>
        </g>
        <g transform="matrix(1,0,0,1,453.936,320.389)">
            <path d="M0,12.685L-0.142,6.31C-0.187,4.206 -0.254,2.124 -0.272,0.052L0,0.326C-4.982,0.376 -9.965,0.484 -14.948,0.489L-29.896,0.551L-29.396,0.052L-29.45,12.685L-29.896,12.24C-27.43,12.257 -24.969,12.248 -22.496,12.294L-15.063,12.407L0,12.685ZM0,12.685L-14.832,12.964L-22.348,13.077C-24.857,13.123 -27.38,13.114 -29.896,13.131L-30.34,13.134L-30.342,12.685L-30.396,0.052L-30.397,-0.449L-29.896,-0.447L-14.948,-0.384C-9.965,-0.379 -4.982,-0.272 0,-0.22L0.275,-0.217L0.273,0.052C0.255,2.192 0.187,4.32 0.143,6.428L0,12.685Z" style="fill:rgb(221,217,212);fill-rule:nonzero;"/>
        </g>
        <g transform="matrix(1,0,0,1,199.926,84.5953)">
            <path d="M0,12.686L-0.142,6.311C-0.187,4.207 -0.254,2.124 -0.272,0.053L0,0.326C-4.982,0.377 -9.965,0.484 -14.948,0.489L-29.896,0.552L-29.397,0.053L-29.451,12.686L-29.896,12.24C-27.43,12.258 -24.969,12.248 -22.497,12.295L-15.063,12.407L0,12.686ZM0,12.686L-14.833,12.965L-22.348,13.077C-24.858,13.124 -27.38,13.114 -29.896,13.132L-30.34,13.135L-30.342,12.686L-30.396,0.053L-30.398,-0.449L-29.896,-0.447L-14.948,-0.384C-9.965,-0.379 -4.982,-0.271 0,-0.22L0.275,-0.217L0.273,0.053C0.254,2.192 0.187,4.321 0.142,6.428L0,12.686Z" style="fill:rgb(221,217,212);fill-rule:nonzero;"/>
        </g>
        <g transform="matrix(1,0,0,1,413.773,157.798)">
            <path d="M0,16.125C-4.451,18.513 -9.992,16.84 -12.379,12.388C-14.767,7.936 -13.1,2.388 -8.646,0C-4.194,-2.387 1.357,-0.711 3.745,3.741C6.133,8.193 4.453,13.737 0,16.125M9.452,23.173L15.339,13.683L12.433,11.882C11.577,11.353 11.114,10.386 11.2,9.384C11.247,8.831 11.266,8.273 11.253,7.714C11.23,6.712 11.755,5.779 12.639,5.305L15.651,3.689L10.371,-6.156L7.358,-4.541C6.475,-4.067 5.407,-4.147 4.585,-4.72C4.126,-5.039 3.652,-5.333 3.165,-5.599C2.282,-6.082 1.733,-7.003 1.766,-8.008L1.874,-11.425L-9.289,-11.772L-9.393,-8.342C-9.423,-7.336 -10.039,-6.461 -10.949,-6.032C-11.196,-5.916 -11.44,-5.792 -11.684,-5.662C-11.926,-5.532 -12.164,-5.396 -12.397,-5.255C-13.255,-4.737 -14.319,-4.707 -15.171,-5.234L-18.099,-7.048L-23.985,2.443L-21.073,4.25C-20.219,4.781 -19.757,5.748 -19.844,6.75C-19.892,7.302 -19.91,7.856 -19.898,8.413C-19.877,9.415 -20.401,10.347 -21.284,10.82L-24.298,12.436L-19.018,22.282L-16.004,20.666C-15.121,20.192 -14.055,20.271 -13.232,20.843C-12.775,21.16 -12.303,21.452 -11.816,21.717C-10.934,22.199 -10.384,23.12 -10.415,24.125L-10.521,27.551L0.643,27.897L0.749,24.471C0.78,23.468 1.395,22.596 2.302,22.168C2.55,22.051 2.796,21.926 3.041,21.795C3.284,21.665 3.522,21.529 3.756,21.388C4.617,20.868 5.687,20.838 6.543,21.369L9.452,23.173Z" style="fill:rgb(221,217,212);fill-rule:nonzero;"/>
        </g>
        <g transform="matrix(1,0,0,1,92.0781,265.337)">
            <path d="M0,16.125C-4.452,18.513 -9.992,16.841 -12.379,12.389C-14.767,7.937 -13.1,2.389 -8.647,0.001C-4.195,-2.387 1.357,-0.711 3.745,3.741C6.132,8.193 4.452,13.737 0,16.125M9.452,23.173L15.339,13.683L12.432,11.882C11.577,11.353 11.114,10.386 11.2,9.384C11.247,8.83 11.265,8.273 11.252,7.715C11.23,6.712 11.754,5.778 12.638,5.305L15.651,3.689L10.371,-6.156L7.358,-4.541C6.475,-4.066 5.407,-4.146 4.584,-4.72C4.126,-5.039 3.652,-5.332 3.164,-5.599C2.282,-6.082 1.733,-7.003 1.765,-8.008L1.874,-11.426L-9.29,-11.772L-9.393,-8.343C-9.423,-7.337 -10.04,-6.461 -10.949,-6.031C-11.196,-5.915 -11.441,-5.792 -11.684,-5.661C-11.926,-5.531 -12.165,-5.396 -12.398,-5.255C-13.255,-4.737 -14.32,-4.707 -15.171,-5.234L-18.099,-7.048L-23.986,2.443L-21.074,4.25C-20.219,4.78 -19.757,5.748 -19.844,6.75C-19.892,7.302 -19.91,7.856 -19.898,8.413C-19.878,9.415 -20.401,10.347 -21.284,10.82L-24.298,12.437L-19.018,22.281L-16.004,20.666C-15.122,20.192 -14.055,20.271 -13.232,20.843C-12.775,21.16 -12.303,21.452 -11.817,21.718C-10.934,22.199 -10.384,23.12 -10.415,24.125L-10.521,27.551L0.642,27.897L0.749,24.471C0.78,23.468 1.395,22.597 2.301,22.168C2.549,22.051 2.796,21.927 3.041,21.795C3.284,21.665 3.522,21.529 3.756,21.388C4.617,20.867 5.687,20.838 6.542,21.368L9.452,23.173Z" style="fill:rgb(221,217,212);fill-rule:nonzero;"/>
        </g>
        <g transform="matrix(1,0,0,1,208.388,110.24)">
            <path d="M0,0C0,3.54 -2.867,6.406 -6.406,6.406C-9.945,6.406 -12.818,3.54 -12.818,0C-12.818,-3.539 -9.945,-6.412 -6.406,-6.412C-2.867,-6.412 0,-3.539 0,0M7.48,-3.501L3.57,-10.278L1.497,-9.08C0.887,-8.728 0.136,-8.761 -0.454,-9.146C-0.78,-9.359 -1.118,-9.554 -1.467,-9.731C-2.093,-10.05 -2.496,-10.682 -2.496,-11.385L-2.496,-13.78L-10.322,-13.78L-10.322,-11.385C-10.322,-10.682 -10.725,-10.05 -11.351,-9.731C-11.7,-9.554 -12.039,-9.359 -12.365,-9.146C-12.955,-8.761 -13.705,-8.728 -14.314,-9.08L-16.389,-10.278L-20.299,-3.501L-18.215,-2.302C-17.605,-1.95 -17.269,-1.28 -17.305,-0.576C-17.314,-0.385 -17.319,-0.193 -17.319,0C-17.319,0.193 -17.314,0.385 -17.305,0.576C-17.269,1.277 -17.603,1.944 -18.21,2.295L-20.299,3.501L-16.389,10.278L-14.309,9.079C-13.699,8.727 -12.948,8.762 -12.358,9.147C-12.034,9.36 -11.697,9.555 -11.35,9.732C-10.725,10.051 -10.322,10.683 -10.322,11.384L-10.322,13.78L-2.496,13.78L-2.496,11.384C-2.496,10.683 -2.094,10.051 -1.469,9.732C-1.121,9.555 -0.785,9.36 -0.46,9.147C0.13,8.762 0.88,8.727 1.491,9.079L3.57,10.278L7.48,3.501L5.4,2.301C4.792,1.95 4.457,1.282 4.493,0.581C4.502,0.389 4.507,0.195 4.507,0C4.507,-0.193 4.502,-0.385 4.493,-0.576C4.457,-1.28 4.792,-1.951 5.403,-2.303L7.48,-3.501Z" style="fill:rgb(221,217,212);fill-rule:nonzero;"/>
        </g>
    </g>
    <g id="Plant">
        <g transform="matrix(1,0,0,1,88.8354,353.931)">
            <path d="M0,-50.091C-13.068,-37.297 -15.262,-17.503 -12.508,-0.166C-12.437,0.227 -11.828,0.12 -11.828,-0.25C-11.828,-4.196 -11.948,-8.108 -11.936,-12.007C-11.864,-12.186 -11.805,-12.353 -11.733,-12.531C-8.323,-15.012 -5.187,-17.814 -3.243,-21.654C-1.062,-25.945 -0.203,-30.786 1.466,-35.27C1.622,-35.699 1.164,-35.573 0.864,-35.352C-7.085,-29.489 -9.619,-23.18 -11.9,-14.749C-11.793,-19.125 -11.459,-23.501 -10.517,-27.877C-8.8,-35.878 -5.401,-43.808 0.346,-49.745C0.561,-49.972 0.227,-50.318 0,-50.091" style="fill:rgb(9,3,36);fill-rule:nonzero;"/>
        </g>
        <g transform="matrix(1,0,0,1,91.2915,297.762)">
            <path d="M0,7.569C2.248,7.645 3.658,11.239 5.41,12.287C6.336,12.845 7.239,12.811 7.891,11.897C9.627,9.473 7.245,6.484 5.005,4.812C6.607,5.47 7.936,6.629 9.663,6.957C10.708,7.148 11.521,6.76 11.766,5.697C12.527,2.393 8.383,0.923 5.54,0.854C6.918,-0.104 10.869,-2.709 8.77,-3.99C6.643,-5.276 2.007,-1.551 0.495,-0.325C-1.727,1.478 -4.377,4.173 -4.478,6.994C-4.608,10.286 -1.73,8.259 0,7.569" style="fill:rgb(255,200,0);fill-rule:nonzero;"/>
        </g>
        <g opacity="0.1">
            <g transform="matrix(1,0,0,1,91.2915,297.762)">
                <path d="M0,7.569C2.248,7.645 3.658,11.239 5.41,12.287C6.336,12.845 7.239,12.811 7.891,11.897C9.627,9.473 7.245,6.484 5.005,4.812C6.607,5.47 7.936,6.629 9.663,6.957C10.708,7.148 11.521,6.76 11.766,5.697C12.527,2.393 8.383,0.923 5.54,0.854C6.918,-0.104 10.869,-2.709 8.77,-3.99C6.643,-5.276 2.007,-1.551 0.495,-0.325C-1.727,1.478 -4.377,4.173 -4.478,6.994C-4.608,10.286 -1.73,8.259 0,7.569" style="fill-rule:nonzero;"/>
            </g>
        </g>
        <g transform="matrix(1,0,0,1,90.6406,296.437)">
            <path d="M0,9.449C2.875,8.142 8.396,10.023 8.866,8.935C9.818,6.72 5.405,5.202 3.023,4.908C5.217,4.313 9.42,3.366 9.291,1.251C9.133,-1.332 2.844,0.889 -0.339,3.33C-4.349,6.405 -4.323,9.372 -3.66,9.966C-2.75,10.781 -0.474,9.665 0,9.449" style="fill:rgb(255,200,0);fill-rule:nonzero;"/>
        </g>
        <g transform="matrix(1,0,0,1,59.0732,352.164)">
            <path d="M0,-49.591C13.545,-37.303 16.491,-17.608 14.397,-0.178C14.341,0.218 13.729,0.134 13.715,-0.236C13.565,-4.18 13.536,-8.092 13.375,-11.988C13.297,-12.164 13.231,-12.328 13.153,-12.505C9.651,-14.854 6.411,-17.534 4.322,-21.297C1.979,-25.503 0.937,-30.308 -0.902,-34.725C-1.073,-35.148 -0.611,-35.039 -0.303,-34.829C7.863,-29.274 10.635,-23.065 13.235,-14.728C12.961,-19.096 12.461,-23.456 11.354,-27.793C9.334,-35.723 5.636,-43.517 -0.333,-49.233C-0.556,-49.45 -0.235,-49.809 0,-49.591" style="fill:rgb(9,3,36);fill-rule:nonzero;"/>
        </g>
        <g transform="matrix(1,0,0,1,56.6758,297.087)">
            <path d="M0,7.07C-2.244,7.231 -3.516,10.876 -5.227,11.99C-6.131,12.583 -7.035,12.583 -7.721,11.695C-9.548,9.34 -7.281,6.261 -5.106,4.506C-6.682,5.224 -7.966,6.431 -9.679,6.825C-10.717,7.056 -11.544,6.7 -11.829,5.646C-12.715,2.374 -8.63,0.748 -5.792,0.57C-7.205,-0.335 -11.252,-2.787 -9.204,-4.148C-7.127,-5.513 -2.353,-1.968 -0.795,-0.799C1.494,0.918 4.245,3.509 4.452,6.324C4.708,9.609 1.755,7.694 0,7.07" style="fill:rgb(255,200,0);fill-rule:nonzero;"/>
        </g>
        <g opacity="0.1">
            <g transform="matrix(1,0,0,1,56.6758,297.087)">
                <path d="M0,7.07C-2.244,7.231 -3.516,10.876 -5.227,11.99C-6.131,12.583 -7.035,12.583 -7.721,11.695C-9.548,9.34 -7.281,6.261 -5.106,4.506C-6.682,5.224 -7.966,6.431 -9.679,6.825C-10.717,7.056 -11.544,6.7 -11.829,5.646C-12.715,2.374 -8.63,0.748 -5.792,0.57C-7.205,-0.335 -11.252,-2.787 -9.204,-4.148C-7.127,-5.513 -2.353,-1.968 -0.795,-0.799C1.494,0.918 4.245,3.509 4.452,6.324C4.708,9.609 1.755,7.694 0,7.07" style="fill-rule:nonzero;"/>
            </g>
        </g>
        <g transform="matrix(1,0,0,1,57.3467,295.487)">
            <path d="M0,9.2C-2.922,8.004 -8.369,10.093 -8.879,9.023C-9.915,6.846 -5.563,5.161 -3.194,4.776C-5.409,4.266 -9.645,3.48 -9.596,1.361C-9.537,-1.227 -3.167,0.755 0.106,3.072C4.23,5.993 4.317,8.958 3.677,9.577C2.799,10.427 0.482,9.397 0,9.2" style="fill:rgb(255,200,0);fill-rule:nonzero;"/>
        </g>
        <g transform="matrix(1,0,0,1,72.9248,308.917)">
            <path d="M0,26.109C1,32.585 2.24,39.28 4.206,45.538C4.394,46.108 5.24,45.962 5.153,45.346C4.263,39.359 2.641,33.482 1.751,27.495C0.847,21.437 0.364,15.296 0.711,9.168C1.281,-0.921 4.021,-11.654 10.604,-19.548C10.749,-19.735 10.442,-19.999 10.293,-19.826C-2.888,-4.457 -0.791,14.385 -0.779,16.074C-2.645,9.712 -4.567,2.419 -11.626,-4.06C-11.93,-4.339 -12.168,-4.206 -12.117,-3.732C-10.855,8.069 -7.574,14.231 -0.732,20.54C-0.538,22.41 -0.297,24.271 0,26.109" style="fill:rgb(9,3,36);fill-rule:nonzero;"/>
        </g>
        <g transform="matrix(1,0,0,1,83.6484,279.603)">
            <path d="M0,11.535C2.371,10.481 5.642,13.501 7.988,13.707C9.23,13.819 10.149,13.329 10.365,12.054C10.947,8.665 6.971,6.762 3.805,6.154C5.799,6.031 7.76,6.563 9.717,6.035C10.899,5.707 11.547,4.895 11.265,3.67C10.392,-0.142 5.353,0.419 2.368,1.778C3.315,0.091 6.103,-4.601 3.281,-4.873C0.427,-5.137 -2.508,1.06 -3.46,3.095C-4.858,6.085 -6.251,10.215 -4.936,13.19C-3.414,16.672 -1.448,13.122 0,11.535" style="fill:rgb(255,200,0);fill-rule:nonzero;"/>
        </g>
        <g opacity="0.1">
            <g transform="matrix(1,0,0,1,83.6484,279.603)">
                <path d="M0,11.535C2.371,10.481 5.642,13.501 7.988,13.707C9.23,13.819 10.149,13.329 10.365,12.054C10.947,8.665 6.971,6.762 3.805,6.154C5.799,6.031 7.76,6.563 9.717,6.035C10.899,5.707 11.547,4.895 11.265,3.67C10.392,-0.142 5.353,0.419 2.368,1.778C3.315,0.091 6.103,-4.601 3.281,-4.873C0.427,-5.137 -2.508,1.06 -3.46,3.095C-4.858,6.085 -6.251,10.215 -4.936,13.19C-3.414,16.672 -1.448,13.122 0,11.535" style="fill-rule:nonzero;"/>
            </g>
        </g>
        <g transform="matrix(1,0,0,1,83.2524,279.023)">
            <path d="M0,13.017C2.325,10.214 9.001,9.386 8.94,8.021C8.813,5.245 3.47,5.889 0.851,6.783C2.828,5.062 6.712,1.964 5.513,-0.166C4.049,-2.767 -1.358,2.704 -3.432,6.838C-6.045,12.048 -4.524,15.113 -3.537,15.396C-2.183,15.784 -0.384,13.48 0,13.017" style="fill:rgb(255,200,0);fill-rule:nonzero;"/>
        </g>
        <g transform="matrix(-0.12977,0.991544,0.991544,0.12977,99.6627,351.865)">
            <path d="M-8.58,-36.835L36.215,-36.835L31.624,-1.76C27.816,-2.993 -11.518,-14.781 -11.518,-14.781L-8.58,-36.835Z" style="fill:rgb(255,200,0);fill-rule:nonzero;"/>
        </g>
    </g>
    <g transform="matrix(1,0,0,1,146.687,383.476)">
        <g id="Floor">
            <path d="M0,-0.664L-51.657,-0.576L-103.314,-0.332L-51.657,-0.089L0,-0.002L103.313,0.167L206.627,-0.001L258.282,-0.088L309.938,-0.332L258.282,-0.578L206.627,-0.666L103.313,-0.831L0,-0.664Z" style="fill:rgb(9,3,36);fill-rule:nonzero;"/>
        </g>
    </g>
    <g transform="matrix(0,-1,-1,0,250,299.984)">
        <g id="Shadow">
            <path d="M-149.057,-149.057C-160.696,-149.057 -170.131,-82.322 -170.131,0.001C-170.131,82.322 -160.696,149.057 -149.057,149.057C-137.417,149.057 -127.982,82.322 -127.982,0.001C-127.982,-82.322 -137.417,-149.057 -149.057,-149.057" style="fill:rgb(221,217,212);fill-rule:nonzero;"/>
        </g>
    </g>
    <g id="_404-Error" serif:id="404 Error">
        <g transform="matrix(1,0,0,1,123.975,140.759)">
            <path d="M0,42.107L24.251,35.944L16.23,4.381L0,42.107ZM33.599,86.913L27.39,62.483L-21.648,74.946L-28.129,49.446L11.06,-39.866L30.496,-44.806L49.395,29.554L65.087,25.565L71.613,51.244L55.921,55.232L62.13,79.662L33.599,86.913Z" style="fill:rgb(9,3,36);fill-rule:nonzero;"/>
        </g>
        <g transform="matrix(1,0,0,1,268.398,145.934)">
            <path d="M0,0.184C0,-8.4 -1.719,-15.363 -5.152,-20.699C-8.588,-26.034 -13.002,-28.702 -18.399,-28.702C-24.042,-28.702 -28.55,-26.034 -31.922,-20.699C-35.297,-15.363 -36.981,-8.4 -36.981,0.184C-36.981,8.771 -35.297,15.703 -31.922,20.975C-28.55,26.25 -24.042,28.886 -18.399,28.886C-13.002,28.886 -8.588,26.25 -5.152,20.975C-1.719,15.703 0,8.771 0,0.184M29.623,0.184C29.623,8.28 28.395,15.731 25.943,22.538C23.488,29.346 20.115,35.234 15.822,40.202C11.527,45.169 6.469,49.033 0.645,51.793C-5.184,54.553 -11.531,55.933 -18.399,55.933C-25.27,55.933 -31.646,54.553 -37.534,51.793C-43.421,49.033 -48.513,45.169 -52.805,40.202C-57.1,35.234 -60.44,29.346 -62.832,22.538C-65.224,15.731 -66.42,8.28 -66.42,0.184C-66.42,-7.911 -65.224,-15.363 -62.832,-22.17C-60.44,-28.978 -57.1,-34.866 -52.805,-39.834C-48.513,-44.801 -43.421,-48.693 -37.534,-51.517C-31.646,-54.337 -25.27,-55.749 -18.399,-55.749C-11.531,-55.749 -5.184,-54.337 0.645,-51.517C6.469,-48.693 11.527,-44.801 15.822,-39.834C20.115,-34.866 23.488,-28.978 25.943,-22.17C28.395,-15.363 29.623,-7.911 29.623,0.184" style="fill:rgb(9,3,36);fill-rule:nonzero;"/>
        </g>
        <g transform="matrix(1,0,0,1,337.862,156.881)">
            <path d="M0,11.605L24.7,15.607L29.908,-16.54L0,11.605ZM12.981,66.084L17.012,41.201L-32.934,33.11L-28.726,7.138L42.782,-59.187L62.578,-55.98L50.309,19.755L66.292,22.345L62.055,48.499L46.071,45.909L42.04,70.792L12.981,66.084Z" style="fill:rgb(9,3,36);fill-rule:nonzero;"/>
        </g>
    </g>
    <g id="Robot">
        <g transform="matrix(-1,0,0,1,505.691,130.6)">
            <rect x="235.089" y="183.245" width="35.513" height="2.91" style="fill:rgb(43,69,78);"/>
        </g>
        <g transform="matrix(-1,0,0,1,505.691,138.179)">
            <rect x="235.089" y="179.456" width="35.513" height="2.909" style="fill:rgb(43,69,78);"/>
        </g>
        <g transform="matrix(-1,0,0,1,505.691,145.757)">
            <rect x="235.089" y="175.667" width="35.513" height="2.909" style="fill:rgb(43,69,78);"/>
        </g>
        <g transform="matrix(-1,0,0,1,505.691,153.335)">
            <rect x="235.089" y="171.878" width="35.513" height="2.909" style="fill:rgb(43,69,78);"/>
        </g>
        <g transform="matrix(-1,0,0,1,505.691,160.913)">
            <rect x="235.089" y="168.089" width="35.513" height="2.909" style="fill:rgb(43,69,78);"/>
        </g>
        <g transform="matrix(-1,0,0,1,504.433,312.097)">
            <rect x="218.458" y="92.497" width="67.517" height="2.909" style="fill:rgb(43,69,78);"/>
        </g>
        <g transform="matrix(-1,0,0,1,504.433,319.675)">
            <rect x="218.458" y="88.708" width="67.517" height="2.909" style="fill:rgb(43,69,78);"/>
        </g>
        <g transform="matrix(-1,0,0,1,504.433,327.253)">
            <rect x="218.458" y="84.919" width="67.517" height="2.909" style="fill:rgb(43,69,78);"/>
        </g>
        <g transform="matrix(-1,0,0,1,504.433,334.831)">
            <rect x="218.458" y="81.13" width="67.517" height="2.909" style="fill:rgb(43,69,78);"/>
        </g>
        <g transform="matrix(-1,0,0,1,504.433,342.411)">
            <rect x="218.458" y="77.34" width="67.517" height="2.909" style="fill:rgb(43,69,78);"/>
        </g>
        <g transform="matrix(0.970778,-0.23998,-0.23998,-0.970778,195.956,287.831)">
            <path d="M-7.386,-0.202C-7.26,0.173 -20.447,8.542 -20.447,8.542L-7.386,57.732L12.69,57.11L-7.386,-0.202Z" style="fill:rgb(255,200,0);fill-rule:nonzero;"/>
        </g>
        <g opacity="0.2">
            <g transform="matrix(0.970778,-0.23998,-0.23998,-0.970778,195.956,287.831)">
                <path d="M-7.386,-0.202C-7.26,0.173 -20.447,8.542 -20.447,8.542L-7.386,57.732L12.69,57.11L-7.386,-0.202Z" style="fill-rule:nonzero;"/>
            </g>
        </g>
        <g transform="matrix(0.828898,0.5594,0.5594,-0.828898,310.85,295.688)">
            <path d="M19.185,-4.045C19.058,-3.671 32.246,4.7 32.246,4.7L19.185,53.889L-0.891,53.267L19.185,-4.045Z" style="fill:rgb(255,200,0);fill-rule:nonzero;"/>
        </g>
        <g opacity="0.2">
            <g transform="matrix(0.828898,0.5594,0.5594,-0.828898,310.85,295.688)">
                <path d="M19.185,-4.045C19.058,-3.671 32.246,4.7 32.246,4.7L19.185,53.889L-0.891,53.267L19.185,-4.045Z" style="fill-rule:nonzero;"/>
            </g>
        </g>
        <g transform="matrix(0.445642,0.895211,0.895211,-0.445642,191.072,210.506)">
            <path d="M85.489,-48.242C85.489,-48.242 14.263,-6.651 -7.828,9.725C-7.828,9.725 43.207,95.373 85.489,134.277C85.489,134.277 159.212,66.668 162.845,63.261C162.845,63.261 119.301,6.735 85.489,-48.242" style="fill:rgb(255,200,0);fill-rule:nonzero;"/>
        </g>
        <g opacity="0.1">
            <g transform="matrix(1,0,0,1,274.722,285.184)">
                <path d="M0,-75.029C-1.616,-65.12 -3.251,-55.214 -4.944,-45.318L-10.069,-15.639L-10.346,-16.059L22.966,-8.145L39.604,-4.112L56.223,0L39.516,-3.739L22.827,-7.558L-10.514,-15.346L-10.851,-15.425L-10.79,-15.766L-5.484,-45.413C-3.701,-55.293 -1.86,-65.162 0,-75.029" style="fill-rule:nonzero;"/>
            </g>
        </g>
        <g opacity="0.1">
            <g transform="matrix(1,0,0,1,271.067,215.802)">
                <path d="M0,0.001C-0.005,-0.457 -0.207,-0.907 -0.549,-1.196C-0.891,-1.485 -1.339,-1.603 -1.746,-1.556C-2.585,-1.459 -3.129,-0.707 -3.117,0.001C-3.13,0.708 -2.587,1.465 -1.746,1.56C-1.339,1.606 -0.89,1.489 -0.549,1.199C-0.207,0.909 -0.005,0.459 0,0.001M0,0.001C0.019,0.909 -0.706,1.843 -1.746,1.934C-2.25,1.981 -2.798,1.821 -3.208,1.463C-3.618,1.106 -3.863,0.557 -3.866,0.001C-3.864,-0.554 -3.62,-1.104 -3.209,-1.462C-2.8,-1.822 -2.25,-1.98 -1.746,-1.933C-0.705,-1.842 0.018,-0.907 0,0.001" style="fill-rule:nonzero;"/>
            </g>
        </g>
        <g opacity="0.1">
            <g transform="matrix(1,0,0,1,269.321,228.047)">
                <path d="M0,0.001C-0.004,-0.457 -0.207,-0.907 -0.549,-1.196C-0.891,-1.485 -1.339,-1.603 -1.746,-1.556C-2.585,-1.459 -3.129,-0.707 -3.117,0.001C-3.13,0.708 -2.587,1.465 -1.746,1.56C-1.339,1.606 -0.89,1.489 -0.548,1.199C-0.207,0.909 -0.005,0.459 0,0.001M0,0.001C0.019,0.909 -0.706,1.843 -1.746,1.934C-2.25,1.981 -2.798,1.821 -3.208,1.463C-3.618,1.106 -3.863,0.557 -3.866,0.001C-3.863,-0.554 -3.619,-1.104 -3.209,-1.462C-2.8,-1.822 -2.25,-1.98 -1.746,-1.933C-0.705,-1.842 0.019,-0.907 0,0.001" style="fill-rule:nonzero;"/>
            </g>
        </g>
        <g opacity="0.1">
            <g transform="matrix(1,0,0,1,267.171,240.985)">
                <path d="M0,0.002C-0.004,-0.456 -0.207,-0.906 -0.548,-1.195C-0.89,-1.484 -1.339,-1.602 -1.745,-1.556C-2.584,-1.458 -3.129,-0.706 -3.116,0.002C-3.13,0.709 -2.586,1.465 -1.745,1.561C-1.338,1.607 -0.889,1.489 -0.548,1.199C-0.206,0.91 -0.004,0.46 0,0.002M0,0.002C0.019,0.91 -0.705,1.843 -1.745,1.934C-2.249,1.981 -2.797,1.822 -3.207,1.464C-3.617,1.106 -3.862,0.557 -3.865,0.002C-3.863,-0.553 -3.619,-1.104 -3.208,-1.461C-2.799,-1.821 -2.249,-1.979 -1.745,-1.932C-0.704,-1.841 0.019,-0.906 0,0.002" style="fill-rule:nonzero;"/>
            </g>
        </g>
        <g opacity="0.1">
            <g transform="matrix(1,0,0,1,265.021,253.924)">
                <path d="M0,0.002C-0.004,-0.456 -0.207,-0.906 -0.549,-1.195C-0.891,-1.484 -1.339,-1.602 -1.746,-1.556C-2.585,-1.458 -3.129,-0.705 -3.117,0.002C-3.13,0.709 -2.587,1.466 -1.746,1.562C-1.339,1.607 -0.89,1.489 -0.548,1.199C-0.207,0.91 -0.005,0.46 0,0.002M0,0.002C0.019,0.91 -0.706,1.844 -1.746,1.935C-2.25,1.981 -2.798,1.822 -3.208,1.464C-3.618,1.107 -3.863,0.558 -3.866,0.002C-3.863,-0.553 -3.619,-1.103 -3.209,-1.461C-2.8,-1.82 -2.25,-1.979 -1.746,-1.932C-0.705,-1.841 0.019,-0.905 0,0.002" style="fill-rule:nonzero;"/>
            </g>
        </g>
        <g opacity="0.1">
            <g transform="matrix(1,0,0,1,272.347,274.56)">
                <path d="M0,0.001C-0.004,-0.457 -0.207,-0.907 -0.549,-1.196C-0.891,-1.485 -1.339,-1.603 -1.745,-1.556C-2.585,-1.459 -3.129,-0.706 -3.116,0.001C-3.13,0.708 -2.586,1.465 -1.745,1.561C-1.339,1.606 -0.89,1.488 -0.548,1.199C-0.207,0.909 -0.004,0.459 0,0.001M0,0.001C0.019,0.909 -0.706,1.843 -1.745,1.934C-2.25,1.981 -2.798,1.821 -3.208,1.463C-3.618,1.106 -3.863,0.557 -3.866,0.001C-3.863,-0.554 -3.619,-1.104 -3.209,-1.462C-2.8,-1.821 -2.25,-1.98 -1.745,-1.933C-0.704,-1.842 0.019,-0.906 0,0.001" style="fill-rule:nonzero;"/>
            </g>
        </g>
        <g opacity="0.1">
            <g transform="matrix(1,0,0,1,284.56,277.538)">
                <path d="M0,0.002C-0.005,-0.456 -0.207,-0.906 -0.549,-1.195C-0.891,-1.484 -1.339,-1.602 -1.746,-1.556C-2.585,-1.458 -3.129,-0.705 -3.117,0.002C-3.13,0.709 -2.587,1.466 -1.746,1.562C-1.339,1.607 -0.89,1.489 -0.549,1.199C-0.207,0.91 -0.005,0.46 0,0.002M0,0.002C0.019,0.91 -0.706,1.844 -1.746,1.935C-2.25,1.981 -2.798,1.822 -3.208,1.464C-3.618,1.106 -3.863,0.558 -3.866,0.002C-3.863,-0.553 -3.62,-1.103 -3.209,-1.461C-2.8,-1.82 -2.25,-1.979 -1.746,-1.932C-0.705,-1.841 0.018,-0.905 0,0.002" style="fill-rule:nonzero;"/>
            </g>
        </g>
        <g opacity="0.1">
            <g transform="matrix(1,0,0,1,296.773,280.517)">
                <path d="M0,0.002C-0.004,-0.456 -0.207,-0.906 -0.548,-1.195C-0.891,-1.484 -1.339,-1.602 -1.745,-1.556C-2.584,-1.459 -3.129,-0.706 -3.116,0.002C-3.13,0.709 -2.586,1.466 -1.745,1.561C-1.338,1.607 -0.89,1.489 -0.548,1.199C-0.207,0.91 -0.004,0.46 0,0.002M0,0.002C0.019,0.91 -0.706,1.844 -1.745,1.935C-2.25,1.981 -2.797,1.821 -3.207,1.464C-3.617,1.106 -3.863,0.558 -3.866,0.002C-3.863,-0.553 -3.619,-1.103 -3.209,-1.461C-2.799,-1.821 -2.25,-1.979 -1.745,-1.933C-0.704,-1.841 0.019,-0.906 0,0.002" style="fill-rule:nonzero;"/>
            </g>
        </g>
        <g opacity="0.1">
            <g transform="matrix(1,0,0,1,308.987,283.497)">
                <path d="M0,0.002C-0.005,-0.456 -0.207,-0.906 -0.549,-1.195C-0.891,-1.484 -1.339,-1.602 -1.746,-1.556C-2.585,-1.459 -3.129,-0.706 -3.117,0.002C-3.13,0.709 -2.587,1.465 -1.746,1.561C-1.339,1.607 -0.89,1.489 -0.548,1.199C-0.207,0.91 -0.005,0.46 0,0.002M0,0.002C0.019,0.91 -0.706,1.843 -1.746,1.934C-2.25,1.981 -2.798,1.821 -3.208,1.464C-3.618,1.106 -3.863,0.557 -3.866,0.002C-3.863,-0.554 -3.62,-1.104 -3.209,-1.462C-2.8,-1.821 -2.25,-1.979 -1.746,-1.933C-0.705,-1.841 0.019,-0.906 0,0.002" style="fill-rule:nonzero;"/>
            </g>
        </g>
        <g opacity="0.1">
            <g transform="matrix(1,0,0,1,321.195,286.265)">
                <path d="M0,0.347C0.031,-0.11 -0.137,-0.574 -0.455,-0.888C-0.773,-1.204 -1.211,-1.355 -1.621,-1.34C-2.465,-1.308 -3.065,-0.599 -3.107,0.108C-3.175,0.811 -2.691,1.608 -1.86,1.767C-1.458,1.845 -1.001,1.762 -0.639,1.499C-0.276,1.237 -0.039,0.803 0,0.347M0,0.347C-0.052,1.254 -0.846,2.129 -1.889,2.139C-2.396,2.148 -2.93,1.947 -3.311,1.558C-3.692,1.17 -3.895,0.604 -3.854,0.049C-3.81,-0.504 -3.523,-1.034 -3.087,-1.359C-2.651,-1.685 -2.091,-1.801 -1.592,-1.716C-0.561,-1.545 0.088,-0.556 0,0.347" style="fill-rule:nonzero;"/>
            </g>
        </g>
        <g opacity="0.1">
            <g transform="matrix(1,0,0,1,262.871,266.863)">
                <path d="M0,0.001C-0.004,-0.457 -0.207,-0.906 -0.548,-1.195C-0.891,-1.485 -1.339,-1.603 -1.745,-1.556C-2.584,-1.459 -3.129,-0.706 -3.116,0.001C-3.13,0.708 -2.586,1.465 -1.745,1.561C-1.338,1.606 -0.89,1.489 -0.548,1.199C-0.206,0.909 -0.004,0.459 0,0.001M0,0.001C0.019,0.909 -0.706,1.843 -1.745,1.934C-2.249,1.981 -2.797,1.821 -3.207,1.464C-3.618,1.106 -3.863,0.557 -3.866,0.001C-3.863,-0.554 -3.619,-1.104 -3.209,-1.462C-2.799,-1.821 -2.25,-1.98 -1.745,-1.933C-0.704,-1.841 0.019,-0.906 0,0.001" style="fill-rule:nonzero;"/>
            </g>
        </g>
        <g opacity="0.2">
            <g transform="matrix(0.159928,-0.987129,-0.987129,-0.159928,232.348,240.522)">
                <path d="M-27.868,-23.716C-43.46,-23.716 -56.099,-11.076 -56.1,4.515C-56.099,20.107 -43.46,32.746 -27.868,32.747C-12.277,32.747 0.363,20.107 0.363,4.515C0.363,-11.076 -12.276,-23.715 -27.868,-23.716" style="fill-rule:nonzero;"/>
            </g>
        </g>
        <g transform="matrix(0.159907,-0.987132,-0.987132,-0.159907,230.582,245.826)">
            <path d="M-22.35,-19.02C-34.855,-19.02 -44.991,-8.883 -44.991,3.622C-44.99,16.126 -34.853,26.262 -22.35,26.262C-9.845,26.262 0.292,16.124 0.292,3.621C0.292,-8.883 -9.845,-19.021 -22.35,-19.02" style="fill:rgb(9,3,36);fill-rule:nonzero;"/>
        </g>
        <g transform="matrix(-0.987144,-0.15983,-0.15983,0.987144,217.29,257.828)">
            <rect x="-4.899" y="0.394" width="5.362" height="5.362" style="fill:rgb(255,200,0);"/>
        </g>
        <g transform="matrix(-0.987144,-0.15983,-0.15983,0.987144,212.855,251.678)">
            <rect x="-4.899" y="0.394" width="5.362" height="5.362" style="fill:rgb(255,200,0);"/>
        </g>
        <g transform="matrix(-0.987144,-0.15983,-0.15983,0.987144,234.027,255.108)">
            <rect x="-4.899" y="0.394" width="5.362" height="5.362" style="fill:rgb(255,200,0);"/>
        </g>
        <g transform="matrix(-0.987144,-0.15983,-0.15983,0.987144,209.444,272.73)">
            <rect x="-4.899" y="0.394" width="5.362" height="5.362" style="fill:rgb(255,200,0);"/>
        </g>
        <g transform="matrix(-0.987144,-0.15983,-0.15983,0.987144,230.616,276.161)">
            <rect x="-4.899" y="0.394" width="5.362" height="5.362" style="fill:rgb(255,200,0);"/>
        </g>
        <g transform="matrix(-0.987144,-0.15983,-0.15983,0.987144,215.595,268.295)">
            <rect x="-4.899" y="0.394" width="5.362" height="5.362" style="fill:rgb(255,200,0);"/>
        </g>
        <g transform="matrix(-0.987144,-0.15983,-0.15983,0.987144,221.736,263.919)">
            <rect x="-4.898" y="0.394" width="5.361" height="5.362" style="fill:rgb(255,200,0);"/>
        </g>
        <g transform="matrix(-0.987144,-0.15983,-0.15983,0.987144,227.877,259.543)">
            <rect x="-4.899" y="0.394" width="5.362" height="5.363" style="fill:rgb(255,200,0);"/>
        </g>
        <g transform="matrix(-0.987115,-0.160012,-0.160012,0.987115,226.181,270.009)">
            <rect x="-4.9" y="0.395" width="5.363" height="5.362" style="fill:rgb(255,200,0);"/>
        </g>
        <g transform="matrix(0.231213,-0.972903,-0.972903,-0.231213,311.893,253.926)">
            <path d="M-27.467,-21.704C-43.059,-21.705 -55.698,-9.064 -55.698,6.527C-55.698,22.119 -43.058,34.759 -27.467,34.759C-11.875,34.758 0.765,22.119 0.764,6.527C0.765,-9.064 -11.876,-21.704 -27.467,-21.704" style="fill:rgb(255,200,0);fill-rule:nonzero;"/>
        </g>
        <g opacity="0.2">
            <g transform="matrix(0.231213,-0.972903,-0.972903,-0.231213,311.893,253.926)">
                <path d="M-27.467,-21.704C-43.059,-21.705 -55.698,-9.064 -55.698,6.527C-55.698,22.119 -43.058,34.759 -27.467,34.759C-11.875,34.758 0.765,22.119 0.764,6.527C0.765,-9.064 -11.876,-21.704 -27.467,-21.704" style="fill-rule:nonzero;"/>
            </g>
        </g>
        <g opacity="0.2">
            <g transform="matrix(1,0,0,1,326.66,249.699)">
                <path d="M0,35.973C-0.13,36.529 -0.278,37.066 -0.444,37.603L-55.473,25.866C-55.343,24.884 -55.167,23.902 -54.936,22.91C-51.332,7.745 -36.111,-1.63 -20.937,1.974C-5.771,5.577 3.604,20.798 0,35.973" style="fill-rule:nonzero;"/>
            </g>
        </g>
        <g transform="matrix(0.231217,-0.972902,-0.972902,-0.231217,309.378,258.92)">
            <path d="M-22.027,-17.406C-34.531,-17.406 -44.668,-7.269 -44.669,5.235C-44.668,17.74 -34.531,27.876 -22.027,27.877C-9.522,27.876 0.614,17.74 0.615,5.235C0.614,-7.269 -9.522,-17.406 -22.027,-17.406" style="fill:rgb(9,3,36);fill-rule:nonzero;"/>
        </g>
        <g transform="matrix(-0.972896,-0.231242,-0.231242,0.972896,302.801,266.016)">
            <rect x="-2.205" y="0.258" width="5.363" height="26.689" style="fill:rgb(255,200,0);"/>
        </g>
        <g transform="matrix(1,0,0,1,328.299,245.587)">
            <path d="M0,39.555L-57.802,25.818C-54.009,9.86 -37.992,0 -22.034,3.792C-6.076,7.585 3.792,23.597 0,39.555" style="fill:rgb(255,200,0);fill-rule:nonzero;"/>
        </g>
        <g opacity="0.2">
            <g transform="matrix(1,0,0,1,328.299,245.587)">
                <path d="M0,39.555L-57.802,25.818C-54.009,9.86 -37.992,0 -22.034,3.792C-6.076,7.585 3.792,23.597 0,39.555" style="fill-rule:nonzero;"/>
            </g>
        </g>
        <g opacity="0.1">
            <g transform="matrix(1,0,0,1,250.071,289.336)">
                <path d="M0,6.586C0.146,4.329 0.976,2.04 2.611,0.23C3.419,-0.683 4.495,-1.398 5.682,-1.835C6.873,-2.272 8.161,-2.35 9.382,-2.245C10.625,-2.101 11.895,-1.662 12.93,-0.879C13.946,-0.078 14.725,0.964 15.183,2.087C16.125,4.325 16.229,6.717 15.772,8.936C15.396,6.718 14.822,4.565 13.782,2.798C12.749,1.018 11.115,-0.09 9.168,-0.263C7.182,-0.51 5.244,0.024 3.684,1.343C2.122,2.658 0.931,4.542 0,6.586" style="fill-rule:nonzero;"/>
            </g>
        </g>
        <g transform="matrix(1,0,0,1,193.716,201.543)">
            <path d="M0,36.797C0.234,33.78 0.573,30.779 0.859,27.77C1.18,24.766 1.51,21.763 1.875,18.766C2.223,15.765 2.613,12.771 2.997,9.776C3.373,6.78 3.807,3.792 4.209,0.799L4.317,0L5.127,0.051C11.641,0.461 18.141,0.987 24.631,1.655C27.876,1.988 31.118,2.364 34.354,2.781C37.585,3.246 40.82,3.673 44.033,4.261L24.515,3.053L5.019,1.792L5.936,1.044C5.493,4.03 5.081,7.021 4.612,10.005C4.15,12.988 3.695,15.974 3.197,18.953C2.717,21.934 2.202,24.911 1.677,27.886C1.118,30.856 0.611,33.834 0,36.797" style="fill:white;fill-rule:nonzero;"/>
        </g>
        <g transform="matrix(1,0,0,1,198.412,240.576)">
            <path d="M0,20.58C0.655,16.954 2.303,13.498 4.517,10.49C5.067,9.733 5.695,9.034 6.298,8.314C6.951,7.641 7.63,6.989 8.3,6.327C9.031,5.733 9.769,5.144 10.519,4.573C11.316,4.067 12.103,3.54 12.913,3.056C13.767,2.646 14.614,2.223 15.475,1.834L18.158,0.906L20.934,0.333C21.865,0.196 22.812,0.168 23.748,0.098C27.512,0 31.216,0.804 34.617,2.181C30.998,1.503 27.392,1.126 23.836,1.466C20.291,1.796 16.845,2.856 13.764,4.592C10.659,6.287 7.909,8.625 5.585,11.341C3.271,14.071 1.356,17.163 0,20.58" style="fill:white;fill-rule:nonzero;"/>
        </g>
        <g transform="matrix(1,0,0,1,276.286,251.613)">
            <path d="M0,17.169C1.15,13.668 3.26,10.474 5.867,7.8C6.517,7.126 7.235,6.52 7.932,5.891C8.671,5.314 9.434,4.762 10.189,4.199C10.995,3.712 11.808,3.231 12.629,2.768C13.488,2.377 14.34,1.964 15.21,1.596C16.111,1.308 17.01,1.006 17.916,0.739L20.701,0.19L23.529,0.007C24.471,0 25.413,0.103 26.349,0.162C30.091,0.586 33.648,1.893 36.826,3.726C33.335,2.555 29.816,1.685 26.248,1.529C22.69,1.367 19.131,1.941 15.84,3.235C12.53,4.485 9.484,6.421 6.809,8.79C4.14,11.175 1.816,13.972 0,17.169" style="fill:white;fill-rule:nonzero;"/>
        </g>
        <g transform="matrix(1,0,0,1,189.142,294.252)">
            <path d="M0,65C-7.232,65 -23.064,63.374 -33.251,50.275C-46.286,33.518 -41.575,1.361 -41.368,0L-35.709,0.859C-35.756,1.169 -40.254,31.95 -28.734,46.762C-17.471,61.243 2.958,59.164 3.163,59.139L3.807,64.826C3.583,64.852 2.183,65 0,65" style="fill:rgb(255,200,0);fill-rule:nonzero;"/>
        </g>
        <g opacity="0.4">
            <g transform="matrix(1,0,0,1,189.142,294.252)">
                <path d="M0,65C-7.232,65 -23.064,63.374 -33.251,50.275C-46.286,33.518 -41.575,1.361 -41.368,0L-35.709,0.859C-35.756,1.169 -40.254,31.95 -28.734,46.762C-17.471,61.243 2.958,59.164 3.163,59.139L3.807,64.826C3.583,64.852 2.183,65 0,65" style="fill:white;fill-rule:nonzero;"/>
            </g>
        </g>
        <g transform="matrix(1,0,0,1,155.098,270.681)">
            <path d="M0,28.324C-1.032,28.324 -2.086,28.238 -3.159,28.064C-12.705,26.518 -16.931,20.805 -18.796,16.286C-20.665,11.756 -21.097,6.276 -20.08,0L-7.974,1.962C-8.604,5.85 -8.421,9.276 -7.458,11.609C-6.772,13.272 -5.44,15.27 -1.198,15.958C0.74,16.271 2.835,16.106 5.029,12.797C6.723,10.243 7.74,6.766 8.097,4.565L20.203,6.526C19.922,8.259 18.736,14.318 15.25,19.574C11.459,25.291 6.124,28.324 0,28.324" style="fill:rgb(255,200,0);fill-rule:nonzero;"/>
        </g>
        <g transform="matrix(0.918252,-0.395997,-0.395997,-0.918252,208.437,370.975)">
            <path d="M-8.581,-1.371C-8.497,-1.123 -17.248,4.431 -17.248,4.431L-8.581,37.074L4.74,36.66L-8.581,-1.371Z" style="fill:rgb(255,200,0);fill-rule:nonzero;"/>
        </g>
        <g opacity="0.2">
            <g transform="matrix(0.918252,-0.395997,-0.395997,-0.918252,208.437,370.975)">
                <path d="M-8.581,-1.371C-8.497,-1.123 -17.248,4.431 -17.248,4.431L-8.581,37.074L4.74,36.66L-8.581,-1.371Z" style="fill-rule:nonzero;"/>
            </g>
        </g>
        <g transform="matrix(0.909267,0.416214,0.416214,-0.909267,294.672,370.544)">
            <path d="M9.076,-1.51C8.993,-1.262 17.744,4.292 17.744,4.292L9.076,36.935L-4.246,36.521L9.076,-1.51Z" style="fill:rgb(255,200,0);fill-rule:nonzero;"/>
        </g>
        <g opacity="0.2">
            <g transform="matrix(0.909267,0.416214,0.416214,-0.909267,294.672,370.544)">
                <path d="M9.076,-1.51C8.993,-1.262 17.744,4.292 17.744,4.292L9.076,36.935L-4.246,36.521L9.076,-1.51Z" style="fill-rule:nonzero;"/>
            </g>
        </g>
        <g transform="matrix(-0.629803,0.776755,0.776755,0.629803,317.78,349.556)">
            <path d="M59.389,-107.544C59.389,-107.544 4.5,-45.47 -9.491,-20.813C-9.491,-20.813 57.903,23.26 59.389,23.893C59.389,23.893 111.082,-40.212 119.361,-50.072C119.361,-50.072 82.381,-89.039 59.389,-107.544" style="fill:rgb(255,200,0);fill-rule:nonzero;"/>
        </g>
        <g opacity="0.2">
            <g transform="matrix(-0.599471,0.800396,0.800396,0.599471,286.33,357.666)">
                <path d="M32.36,-56.152C32.36,-56.152 3.84,-21.049 -3.432,-7.422C-3.432,-7.422 31.588,13.205 32.36,13.481C32.36,13.481 59.22,-22.569 63.523,-28.127C63.523,-28.127 43.245,-47.171 32.36,-56.152" style="fill-rule:nonzero;"/>
            </g>
        </g>
        <g opacity="0.2">
            <g transform="matrix(0.98921,-0.146504,-0.146504,-0.98921,231.193,390.953)">
                <path d="M-3.096,-0.227C-4.12,-0.076 -4.933,0.031 -5.502,0.108C-5.502,0.108 -4.501,27.913 -3.096,41.956C-3.096,41.956 -2.073,41.845 -0.289,41.64L-3.096,-0.227Z" style="fill-rule:nonzero;"/>
            </g>
        </g>
        <g transform="matrix(1,0,0,1,244.074,363.19)">
            <path d="M0,2.536C-0.702,4.762 -3.07,5.996 -5.293,5.296C-7.517,4.595 -8.751,2.226 -8.05,0C-7.349,-2.223 -4.98,-3.457 -2.754,-2.756C-0.534,-2.056 0.701,0.313 0,2.536M-2.58,-3.317C-5.113,-4.114 -7.812,-2.708 -8.61,-0.177C-9.409,2.358 -8.001,5.055 -5.468,5.853C-2.937,6.651 -0.241,5.246 0.557,2.713C1.355,0.182 -0.049,-2.519 -2.58,-3.317M0,2.536C-0.702,4.762 -3.07,5.996 -5.293,5.296C-7.517,4.595 -8.751,2.226 -8.05,0C-7.349,-2.223 -4.98,-3.457 -2.754,-2.756C-0.534,-2.056 0.701,0.313 0,2.536M-2.58,-3.317C-5.113,-4.114 -7.812,-2.708 -8.61,-0.177C-9.409,2.358 -8.001,5.055 -5.468,5.853C-2.937,6.651 -0.241,5.246 0.557,2.713C1.355,0.182 -0.049,-2.519 -2.58,-3.317M0,2.536C-0.702,4.762 -3.07,5.996 -5.293,5.296C-7.517,4.595 -8.751,2.226 -8.05,0C-7.349,-2.223 -4.98,-3.457 -2.754,-2.756C-0.534,-2.056 0.701,0.313 0,2.536M0.557,2.713C1.355,0.182 -0.049,-2.519 -2.58,-3.317C-5.113,-4.114 -7.812,-2.708 -8.61,-0.177C-9.409,2.358 -8.001,5.055 -5.468,5.853C-2.937,6.651 -0.241,5.246 0.557,2.713M1.271,2.936C0.351,5.859 -2.773,7.487 -5.694,6.567C-8.614,5.646 -10.242,2.522 -9.321,-0.4C-8.4,-3.322 -5.274,-4.948 -2.354,-4.027C0.563,-3.108 2.192,0.016 1.271,2.936M-0.978,-8.395C-6.319,-10.076 -12.006,-7.11 -13.688,-1.776C-15.369,3.559 -12.408,9.251 -7.07,10.932C-1.736,12.612 3.956,9.648 5.636,4.312C7.318,-1.021 4.356,-6.715 -0.978,-8.395M0,2.536C-0.702,4.762 -3.07,5.996 -5.293,5.296C-7.517,4.595 -8.751,2.226 -8.05,0C-7.349,-2.223 -4.98,-3.457 -2.754,-2.756C-0.534,-2.056 0.701,0.313 0,2.536M-2.58,-3.317C-5.113,-4.114 -7.812,-2.708 -8.61,-0.177C-9.409,2.358 -8.001,5.055 -5.468,5.853C-2.937,6.651 -0.241,5.246 0.557,2.713C1.355,0.182 -0.049,-2.519 -2.58,-3.317M0,2.536C-0.702,4.762 -3.07,5.996 -5.293,5.296C-7.517,4.595 -8.751,2.226 -8.05,0C-7.349,-2.223 -4.98,-3.457 -2.754,-2.756C-0.534,-2.056 0.701,0.313 0,2.536M-2.58,-3.317C-5.113,-4.114 -7.812,-2.708 -8.61,-0.177C-9.409,2.358 -8.001,5.055 -5.468,5.853C-2.937,6.651 -0.241,5.246 0.557,2.713C1.355,0.182 -0.049,-2.519 -2.58,-3.317M0,2.536C-0.702,4.762 -3.07,5.996 -5.293,5.296C-7.517,4.595 -8.751,2.226 -8.05,0C-7.349,-2.223 -4.98,-3.457 -2.754,-2.756C-0.534,-2.056 0.701,0.313 0,2.536M-2.58,-3.317C-5.113,-4.114 -7.812,-2.708 -8.61,-0.177C-9.409,2.358 -8.001,5.055 -5.468,5.853C-2.937,6.651 -0.241,5.246 0.557,2.713C1.355,0.182 -0.049,-2.519 -2.58,-3.317" style="fill:rgb(255,200,0);fill-rule:nonzero;"/>
        </g>
        <g transform="matrix(-0.953838,-0.30032,-0.30032,0.953838,234.54,375.016)">
            <path d="M-4.029,-2.014L-0.134,-2.014L-0.348,0.742L-3.813,0.743L-4.029,-2.014Z" style="fill:rgb(255,200,0);fill-rule:nonzero;"/>
        </g>
        <g transform="matrix(-0.461838,-0.886964,-0.886964,0.461838,230.332,367.252)">
            <path d="M-4.083,-0.104L-0.187,-0.104L-0.403,2.654L-3.867,2.653L-4.083,-0.104Z" style="fill:rgb(255,200,0);fill-rule:nonzero;"/>
        </g>
        <g transform="matrix(0.300554,-0.953765,-0.953765,-0.300554,231.631,361.46)">
            <path d="M-2.557,0.853L1.339,0.853L1.124,3.61L-2.341,3.61L-2.557,0.853Z" style="fill:rgb(255,200,0);fill-rule:nonzero;"/>
        </g>
        <g transform="matrix(0.886964,-0.461838,-0.461838,-0.886964,234.621,357.278)">
            <path d="M-0.823,0.782L3.072,0.782L2.857,3.54L-0.609,3.54L-0.823,0.782Z" style="fill:rgb(255,200,0);fill-rule:nonzero;"/>
        </g>
        <g transform="matrix(0.953742,0.300628,0.300628,-0.953742,240.603,354.02)">
            <path d="M0.31,-0.62L4.205,-0.62L3.99,2.138L0.525,2.137L0.31,-0.62Z" style="fill:rgb(255,200,0);fill-rule:nonzero;"/>
        </g>
        <g transform="matrix(0.46204,0.886859,0.886859,-0.46204,249.557,356.984)">
            <path d="M0.063,-2.476L3.959,-2.476L3.744,0.281L0.279,0.281L0.063,-2.476Z" style="fill:rgb(255,200,0);fill-rule:nonzero;"/>
        </g>
        <g transform="matrix(-0.300628,0.953742,0.953742,0.300628,252.627,367.524)">
            <path d="M-1.163,-3.486L2.733,-3.486L2.518,-0.729L-0.948,-0.729L-1.163,-3.486Z" style="fill:rgb(255,200,0);fill-rule:nonzero;"/>
        </g>
        <g transform="matrix(-0.886859,0.46204,0.46204,0.886859,244.89,376.503)">
            <path d="M-3.196,-3.363L0.7,-3.363L0.485,-0.606L-2.98,-0.605L-3.196,-3.363Z" style="fill:rgb(255,200,0);fill-rule:nonzero;"/>
        </g>
        <g transform="matrix(1,0,0,1,258.449,375.172)">
            <path d="M0,3.102C-0.856,4.418 -2.616,4.79 -3.932,3.934C-5.246,3.078 -5.618,1.319 -4.761,0.001C-3.905,-1.313 -2.146,-1.685 -0.829,-0.829C0.484,0.028 0.856,1.787 0,3.102M-0.614,-1.16C-2.112,-2.136 -4.117,-1.711 -5.092,-0.214C-6.068,1.286 -5.644,3.289 -4.146,4.264C-2.648,5.24 -0.646,4.816 0.33,3.317C1.305,1.821 0.883,-0.185 -0.614,-1.16M0,3.102C-0.856,4.418 -2.616,4.79 -3.932,3.934C-5.246,3.078 -5.618,1.319 -4.761,0.001C-3.905,-1.313 -2.146,-1.685 -0.829,-0.829C0.484,0.028 0.856,1.787 0,3.102M-0.614,-1.16C-2.112,-2.136 -4.117,-1.711 -5.092,-0.214C-6.068,1.286 -5.644,3.289 -4.146,4.264C-2.648,5.24 -0.646,4.816 0.33,3.317C1.305,1.821 0.883,-0.185 -0.614,-1.16M0,3.102C-0.856,4.418 -2.616,4.79 -3.932,3.934C-5.246,3.078 -5.618,1.319 -4.761,0.001C-3.905,-1.313 -2.146,-1.685 -0.829,-0.829C0.484,0.028 0.856,1.787 0,3.102M0.33,3.317C1.305,1.821 0.883,-0.185 -0.614,-1.16C-2.112,-2.136 -4.117,-1.711 -5.092,-0.214C-6.068,1.286 -5.644,3.289 -4.146,4.264C-2.648,5.24 -0.646,4.816 0.33,3.317M0.753,3.591C-0.373,5.32 -2.693,5.811 -4.421,4.686C-6.148,3.561 -6.639,1.241 -5.514,-0.488C-4.388,-2.216 -2.066,-2.706 -0.339,-1.581C1.387,-0.457 1.878,1.864 0.753,3.591M1.343,-4.164C-1.816,-6.22 -6.041,-5.325 -8.097,-2.17C-10.151,0.987 -9.26,5.212 -6.103,7.268C-2.947,9.322 1.279,8.429 3.334,5.273C5.39,2.119 4.498,-2.11 1.343,-4.164M0,3.102C-0.856,4.418 -2.616,4.79 -3.932,3.934C-5.246,3.078 -5.618,1.319 -4.761,0.001C-3.905,-1.313 -2.146,-1.685 -0.829,-0.829C0.484,0.028 0.856,1.787 0,3.102M-0.614,-1.16C-2.112,-2.136 -4.117,-1.711 -5.092,-0.214C-6.068,1.286 -5.644,3.289 -4.146,4.264C-2.648,5.24 -0.646,4.816 0.33,3.317C1.305,1.821 0.883,-0.185 -0.614,-1.16M0,3.102C-0.856,4.418 -2.616,4.79 -3.932,3.934C-5.246,3.078 -5.618,1.319 -4.761,0.001C-3.905,-1.313 -2.146,-1.685 -0.829,-0.829C0.484,0.028 0.856,1.787 0,3.102M-0.614,-1.16C-2.112,-2.136 -4.117,-1.711 -5.092,-0.214C-6.068,1.286 -5.644,3.289 -4.146,4.264C-2.648,5.24 -0.646,4.816 0.33,3.317C1.305,1.821 0.883,-0.185 -0.614,-1.16M0,3.102C-0.856,4.418 -2.616,4.79 -3.932,3.934C-5.246,3.078 -5.618,1.319 -4.761,0.001C-3.905,-1.313 -2.146,-1.685 -0.829,-0.829C0.484,0.028 0.856,1.787 0,3.102M-0.614,-1.16C-2.112,-2.136 -4.117,-1.711 -5.092,-0.214C-6.068,1.286 -5.644,3.289 -4.146,4.264C-2.648,5.24 -0.646,4.816 0.33,3.317C1.305,1.821 0.883,-0.185 -0.614,-1.16" style="fill:rgb(221,217,212);fill-rule:nonzero;"/>
        </g>
        <g transform="matrix(-0.837929,-0.545779,-0.545779,0.837929,250.748,382.117)">
            <path d="M-2.826,-0.885L-0.204,-0.885L-0.349,0.972L-2.682,0.971L-2.826,-0.885Z" style="fill:rgb(221,217,212);fill-rule:nonzero;"/>
        </g>
        <g transform="matrix(-0.206664,-0.978412,-0.978412,0.206664,249.631,376.913)">
            <path d="M-2.542,0.263L0.081,0.263L-0.065,2.12L-2.397,2.119L-2.542,0.263Z" style="fill:rgb(221,217,212);fill-rule:nonzero;"/>
        </g>
        <g transform="matrix(0.545872,-0.837868,-0.837868,-0.545872,251.016,373.667)">
            <path d="M-1.305,0.683L1.319,0.683L1.173,2.54L-1.16,2.54L-1.305,0.683Z" style="fill:rgb(221,217,212);fill-rule:nonzero;"/>
        </g>
        <g transform="matrix(0.978319,-0.207106,-0.207106,-0.978319,253.463,370.902)">
            <path d="M-0.216,0.266L2.406,0.266L2.262,2.122L-0.07,2.123L-0.216,0.266Z" style="fill:rgb(221,217,212);fill-rule:nonzero;"/>
        </g>
        <g transform="matrix(0.837868,0.545872,0.545872,-0.837868,258.501,369.672)">
            <path d="M0.263,-0.839L2.886,-0.839L2.74,1.017L0.407,1.018L0.263,-0.839Z" style="fill:rgb(221,217,212);fill-rule:nonzero;"/>
        </g>
        <g transform="matrix(0.206741,0.978396,0.978396,-0.206741,264.024,373.766)">
            <path d="M-0.213,-2.06L2.409,-2.06L2.264,-0.204L-0.068,-0.203L-0.213,-2.06Z" style="fill:rgb(221,217,212);fill-rule:nonzero;"/>
        </g>
        <g transform="matrix(-0.545605,0.838043,0.838043,0.545605,263.461,381.418)">
            <path d="M-1.259,-2.407L1.364,-2.407L1.219,-0.55L-1.114,-0.55L-1.259,-2.407Z" style="fill:rgb(221,217,212);fill-rule:nonzero;"/>
        </g>
        <g transform="matrix(-0.978412,0.206664,0.206664,0.978412,256.608,385.294)">
            <path d="M-2.54,-2.063L0.082,-2.063L-0.062,-0.207L-2.395,-0.206L-2.54,-2.063Z" style="fill:rgb(221,217,212);fill-rule:nonzero;"/>
        </g>
        <g transform="matrix(0.98312,0.182963,0.182963,-0.98312,300.108,399.775)">
            <path d="M5.694,-0.608L8.93,-0.608L6.601,61.644L2.914,61.635L5.694,-0.608Z" style="fill:rgb(255,200,0);fill-rule:nonzero;"/>
        </g>
        <g transform="matrix(0.114022,-0.993478,-0.993478,-0.114022,314.519,391.408)">
            <path d="M-4.435,36.531L37.014,36.531L51.328,6.162C51.328,6.162 -11.62,7.65 -10.959,7.725L-4.435,36.531Z" style="fill:rgb(255,200,0);fill-rule:nonzero;"/>
        </g>
        <g opacity="0.4">
            <g transform="matrix(0.114022,-0.993478,-0.993478,-0.114022,314.519,391.408)">
                <path d="M-4.435,36.531L37.014,36.531L51.328,6.162C51.328,6.162 -11.62,7.65 -10.959,7.725L-4.435,36.531Z" style="fill:white;fill-rule:nonzero;"/>
            </g>
        </g>
        <g transform="matrix(1,0,0,1,200.64,329.202)">
            <path d="M0,22.937C-0.518,19.526 -0.798,16.087 -1.011,12.646C-1.108,10.924 -1.152,9.2 -1.19,7.476C-1.225,5.751 -1.255,4.026 -1.204,2.301L-1.19,1.848L-0.749,1.824C5.569,1.485 11.883,1.07 18.205,0.793C24.524,0.482 30.845,0.199 37.169,0C30.864,0.572 24.556,1.058 18.246,1.515C11.938,2.008 5.623,2.362 -0.688,2.792L-0.233,2.316L-0.259,7.465L-0.199,12.617C-0.19,14.335 -0.159,16.054 -0.109,17.773L0,22.937Z" style="fill:white;fill-rule:nonzero;"/>
        </g>
        <g transform="matrix(1,0,0,1,286.883,342.591)">
            <path d="M0,8.484C1.97,7.548 3.971,6.678 5.996,5.875C8.015,5.052 10.053,4.275 12.113,3.56C14.177,2.855 16.248,2.166 18.354,1.581C20.456,0.988 22.578,0.441 24.746,0.087L25.279,0L25.184,0.508C24.685,3.174 24.162,5.837 23.545,8.484C23.776,5.776 24.103,3.083 24.451,0.392L24.889,0.814C22.788,1.315 20.704,1.901 18.626,2.515C16.55,3.135 14.48,3.79 12.416,4.463L0,8.484Z" style="fill:white;fill-rule:nonzero;"/>
        </g>
        <g opacity="0.1">
            <g transform="matrix(1,0,0,1,214.403,410.566)">
                <path d="M0,-82.444L0.536,-72.144L0.994,-61.842L1.788,-41.235L2.409,-20.621L2.657,-10.311L2.828,0L2.291,-10.298L1.833,-20.601L1.04,-41.209L0.42,-61.823L0.171,-72.132L0,-82.444Z" style="fill-rule:nonzero;"/>
            </g>
        </g>
        <g opacity="0.1">
            <g transform="matrix(1,0,0,1,211.453,335.049)">
                <path d="M0,-0.719C-0.095,-1.167 -0.382,-1.568 -0.774,-1.783C-1.167,-1.999 -1.629,-2.027 -2.019,-1.901C-2.822,-1.639 -3.207,-0.794 -3.055,-0.103C-2.928,0.593 -2.246,1.227 -1.403,1.155C-0.995,1.12 -0.578,0.916 -0.301,0.563C-0.023,0.213 0.086,-0.269 0,-0.719M0,-0.719C0.198,0.168 -0.328,1.226 -1.329,1.52C-1.814,1.667 -2.383,1.618 -2.855,1.348C-3.328,1.08 -3.677,0.59 -3.79,0.046C-3.897,-0.499 -3.767,-1.087 -3.435,-1.519C-3.104,-1.952 -2.597,-2.216 -2.094,-2.27C-1.055,-2.386 -0.162,-1.613 0,-0.719" style="fill-rule:nonzero;"/>
            </g>
        </g>
        <g opacity="0.1">
            <g transform="matrix(1,0,0,1,212.162,347.398)">
                <path d="M0,-0.718C-0.094,-1.166 -0.382,-1.568 -0.774,-1.783C-1.167,-1.999 -1.629,-2.026 -2.019,-1.9C-2.822,-1.639 -3.207,-0.793 -3.055,-0.102C-2.928,0.594 -2.246,1.228 -1.403,1.155C-0.995,1.12 -0.578,0.916 -0.3,0.564C-0.023,0.213 0.086,-0.269 0,-0.718M0,-0.718C0.198,0.169 -0.328,1.226 -1.329,1.521C-1.814,1.667 -2.382,1.619 -2.855,1.349C-3.328,1.08 -3.677,0.59 -3.79,0.046C-3.896,-0.498 -3.767,-1.087 -3.435,-1.518C-3.104,-1.951 -2.597,-2.216 -2.093,-2.269C-1.055,-2.385 -0.161,-1.612 0,-0.718" style="fill-rule:nonzero;"/>
            </g>
        </g>
        <g opacity="0.1">
            <g transform="matrix(1,0,0,1,212.612,360.506)">
                <path d="M0,-0.718C-0.095,-1.166 -0.383,-1.568 -0.774,-1.783C-1.167,-1.999 -1.63,-2.026 -2.019,-1.9C-2.822,-1.639 -3.207,-0.793 -3.055,-0.102C-2.929,0.594 -2.246,1.228 -1.403,1.155C-0.995,1.12 -0.578,0.916 -0.301,0.564C-0.023,0.213 0.086,-0.269 0,-0.718M0,-0.718C0.198,0.169 -0.328,1.226 -1.33,1.521C-1.814,1.667 -2.383,1.619 -2.855,1.349C-3.328,1.08 -3.677,0.59 -3.79,0.046C-3.897,-0.498 -3.767,-1.087 -3.435,-1.518C-3.104,-1.951 -2.597,-2.216 -2.094,-2.269C-1.055,-2.385 -0.162,-1.612 0,-0.718" style="fill-rule:nonzero;"/>
            </g>
        </g>
        <g opacity="0.1">
            <g transform="matrix(1,0,0,1,213.062,373.615)">
                <path d="M0,-0.718C-0.095,-1.166 -0.382,-1.568 -0.774,-1.783C-1.167,-1.999 -1.629,-2.026 -2.019,-1.9C-2.822,-1.639 -3.207,-0.793 -3.055,-0.102C-2.928,0.594 -2.246,1.228 -1.403,1.155C-0.995,1.12 -0.578,0.916 -0.3,0.564C-0.023,0.213 0.086,-0.269 0,-0.718M0,-0.718C0.198,0.169 -0.328,1.226 -1.329,1.521C-1.814,1.667 -2.383,1.619 -2.855,1.349C-3.328,1.08 -3.677,0.59 -3.79,0.046C-3.897,-0.498 -3.767,-1.087 -3.435,-1.518C-3.104,-1.951 -2.597,-2.216 -2.093,-2.269C-1.055,-2.385 -0.161,-1.612 0,-0.718" style="fill-rule:nonzero;"/>
            </g>
        </g>
        <g opacity="0.1">
            <g transform="matrix(1,0,0,1,213.512,386.724)">
                <path d="M0,-0.719C-0.095,-1.167 -0.383,-1.569 -0.774,-1.784C-1.167,-2 -1.63,-2.027 -2.019,-1.901C-2.822,-1.64 -3.207,-0.794 -3.055,-0.103C-2.929,0.593 -2.246,1.227 -1.403,1.154C-0.995,1.119 -0.578,0.915 -0.301,0.563C-0.023,0.212 0.086,-0.27 0,-0.719M0,-0.719C0.197,0.168 -0.328,1.225 -1.33,1.52C-1.814,1.667 -2.383,1.618 -2.855,1.348C-3.328,1.079 -3.677,0.589 -3.79,0.045C-3.897,-0.499 -3.767,-1.088 -3.435,-1.519C-3.105,-1.952 -2.597,-2.217 -2.094,-2.27C-1.055,-2.386 -0.162,-1.613 0,-0.719" style="fill-rule:nonzero;"/>
            </g>
        </g>
        <g opacity="0.1">
            <g transform="matrix(1,0,0,1,213.962,399.832)">
                <path d="M0,-0.719C-0.095,-1.167 -0.382,-1.569 -0.774,-1.784C-1.167,-2 -1.629,-2.027 -2.019,-1.901C-2.822,-1.64 -3.207,-0.794 -3.055,-0.103C-2.928,0.593 -2.246,1.227 -1.403,1.154C-0.995,1.119 -0.578,0.915 -0.301,0.563C-0.023,0.212 0.086,-0.269 0,-0.719M0,-0.719C0.198,0.168 -0.328,1.225 -1.329,1.52C-1.814,1.667 -2.383,1.618 -2.855,1.348C-3.328,1.079 -3.677,0.589 -3.79,0.045C-3.897,-0.499 -3.767,-1.088 -3.435,-1.519C-3.104,-1.952 -2.597,-2.217 -2.094,-2.27C-1.055,-2.386 -0.162,-1.613 0,-0.719" style="fill-rule:nonzero;"/>
            </g>
        </g>
        <g transform="matrix(-0.290056,-0.95701,-0.95701,0.290056,211.397,447.778)">
            <rect x="19.748" y="-14.65" width="5.721" height="48.981" style="fill:rgb(255,200,0);"/>
        </g>
        <g opacity="0.4">
            <g transform="matrix(-0.290056,-0.95701,-0.95701,0.290056,211.397,447.778)">
                <rect x="19.748" y="-14.65" width="5.721" height="48.981" style="fill:white;"/>
            </g>
        </g>
        <g transform="matrix(-0.303141,-0.952946,-0.952946,0.303141,199.255,428.877)">
            <rect x="-2.812" y="2.056" width="8.5" height="5.723" style="fill:rgb(255,200,0);"/>
        </g>
        <g transform="matrix(-0.22501,-0.974356,-0.974356,0.22501,164.606,395.587)">
            <path d="M-51.721,3.917L2.036,3.917L1.818,41.438L-51.966,35.407L-51.721,3.917Z" style="fill:rgb(255,200,0);fill-rule:nonzero;"/>
        </g>
        <g transform="matrix(-0.949954,0.312391,0.312391,0.949954,153.488,401.48)">
            <path d="M-12.342,49.028L-3.815,49.028L-8.687,-4.508L-18.889,1.767L-12.342,49.028Z" style="fill:rgb(255,200,0);fill-rule:nonzero;"/>
        </g>
        <g opacity="0.2">
            <g transform="matrix(-0.949954,0.312391,0.312391,0.949954,153.488,401.48)">
                <path d="M-12.342,49.028L-3.815,49.028L-8.687,-4.508L-18.889,1.767L-12.342,49.028Z" style="fill-rule:nonzero;"/>
            </g>
        </g>
        <g transform="matrix(0,-1,-1,0,218.86,415.68)">
            <path d="M-6.215,-6.214C-9.647,-6.214 -12.429,-3.431 -12.429,0.001C-12.429,3.433 -9.647,6.215 -6.215,6.215C-2.782,6.215 0,3.433 0,0.001C0,-3.431 -2.782,-6.214 -6.215,-6.214" style="fill:rgb(255,200,0);fill-rule:nonzero;"/>
        </g>
        <g transform="matrix(-0.956409,-0.292031,-0.292031,0.956409,286.687,412.849)">
            <rect x="-47.077" y="7.027" width="48.981" height="5.722" style="fill:rgb(255,200,0);"/>
        </g>
        <g opacity="0.4">
            <g transform="matrix(-0.956409,-0.292031,-0.292031,0.956409,286.687,412.849)">
                <rect x="-47.077" y="7.027" width="48.981" height="5.722" style="fill:white;"/>
            </g>
        </g>
        <g transform="matrix(-0.952272,-0.305251,-0.305251,0.952272,306.832,423.783)">
            <rect x="-4.289" y="0.671" width="5.723" height="8.501" style="fill:rgb(255,200,0);"/>
        </g>
        <g transform="matrix(0.227072,-0.973878,-0.973878,-0.227072,369.073,453.154)">
            <path d="M-3.074,41.09L50.684,41.09L50.464,3.568L-3.32,9.6L-3.074,41.09Z" style="fill:rgb(255,200,0);fill-rule:nonzero;"/>
        </g>
        <g transform="matrix(0.949303,0.314363,0.314363,-0.949303,313.39,439.754)">
            <path d="M7.901,-2L16.429,-2L11.559,51.537L1.357,45.262L7.901,-2Z" style="fill:rgb(255,200,0);fill-rule:nonzero;"/>
        </g>
        <g opacity="0.2">
            <g transform="matrix(0.949303,0.314363,0.314363,-0.949303,313.39,439.754)">
                <path d="M7.901,-2L16.429,-2L11.559,51.537L1.357,45.262L7.901,-2Z" style="fill-rule:nonzero;"/>
            </g>
        </g>
        <g transform="matrix(-0.00209188,0.999998,0.999998,0.00209188,282.004,415.535)">
            <path d="M6.216,-6.228C9.648,-6.227 12.43,-3.445 12.431,-0.013C12.429,3.42 9.648,6.202 6.216,6.202C2.783,6.202 0.001,3.42 0,-0.012C0.001,-3.445 2.782,-6.227 6.216,-6.228" style="fill:rgb(255,200,0);fill-rule:nonzero;"/>
        </g>
        <g transform="matrix(1,0,0,1,322.662,359.771)">
            <path d="M0,-2.639C0.147,-2.777 15.204,-16.742 32.915,-11.965C51.027,-7.078 65.981,20.202 66.13,20.477L71.164,17.756C70.51,16.545 54.913,-11.968 34.405,-17.491C13.548,-23.116 -3.237,-7.457 -3.941,-6.787L0,-2.639Z" style="fill:rgb(255,200,0);fill-rule:nonzero;"/>
        </g>
        <g opacity="0.4">
            <g transform="matrix(1,0,0,1,322.662,359.771)">
                <path d="M0,-2.639C0.147,-2.777 15.204,-16.742 32.915,-11.965C51.027,-7.078 65.981,20.202 66.13,20.477L71.164,17.756C70.51,16.545 54.913,-11.968 34.405,-17.491C13.548,-23.116 -3.237,-7.457 -3.941,-6.787L0,-2.639Z" style="fill:white;fill-rule:nonzero;"/>
            </g>
        </g>
        <g transform="matrix(1,0,0,1,382.117,371.934)">
            <path d="M0,35.778L10.847,30.051C9.805,28.08 8.523,24.692 8.337,21.633C8.096,17.67 9.669,16.275 11.404,15.359C15.205,13.352 17.472,14.148 19.021,15.06C21.194,16.343 23.403,18.968 25.243,22.452L36.089,16.726C33.12,11.104 29.476,6.99 25.255,4.499C21.044,2.017 14.23,0 5.678,4.514C-0.988,8.034 -4.392,14.378 -3.904,22.379C-3.521,28.674 -0.818,34.225 0,35.778" style="fill:rgb(255,200,0);fill-rule:nonzero;"/>
        </g>
        <g transform="matrix(1,0,0,1,324.949,320.663)">
            <path d="M0,17.36C2.351,15.735 4.758,14.206 7.172,12.69C9.581,11.165 12.03,9.707 14.479,8.249C16.94,6.812 19.403,5.377 21.904,4.007L25.658,1.958C26.929,1.306 28.181,0.625 29.467,0C28.296,0.82 27.093,1.586 25.907,2.381L22.295,4.671C19.886,6.196 17.437,7.654 14.987,9.11C12.525,10.546 10.063,11.981 7.561,13.349C5.064,14.727 2.561,16.09 0,17.36" style="fill:rgb(9,3,36);fill-rule:nonzero;"/>
        </g>
        <g transform="matrix(-0.580657,0.814148,0.814148,0.580657,339.068,364.372)">
            <path d="M9.415,-18.278C9.022,-14.424 8.93,-10.57 8.915,-6.715C8.929,-2.861 9.019,0.994 9.414,4.849C9.81,0.995 9.9,-2.86 9.914,-6.715C9.898,-10.57 9.808,-14.424 9.415,-18.278" style="fill:rgb(9,3,36);fill-rule:nonzero;"/>
        </g>
        <g transform="matrix(1,0,0,1,324.249,370.324)">
            <path d="M0,-11.779C2.598,-10.99 5.156,-10.098 7.708,-9.191C10.264,-8.295 12.791,-7.325 15.319,-6.355C17.838,-5.363 20.355,-4.369 22.846,-3.303L26.58,-1.701C27.811,-1.133 29.055,-0.596 30.275,0C28.973,-0.385 27.693,-0.831 26.402,-1.244L22.567,-2.587C20.012,-3.483 17.483,-4.453 14.957,-5.424C12.438,-6.418 9.92,-7.411 7.431,-8.477C4.937,-9.534 2.448,-10.605 0,-11.779" style="fill:rgb(9,3,36);fill-rule:nonzero;"/>
        </g>
        <g transform="matrix(1,0,0,1,331.63,334.89)">
            <path d="M0,5.328C2.49,4.681 4.999,4.141 7.511,3.619C10.02,3.085 12.543,2.628 15.066,2.172C17.594,1.739 20.121,1.308 22.662,0.953L26.475,0.425C27.752,0.285 29.022,0.11 30.306,0C29.062,0.334 27.808,0.604 26.56,0.908L22.796,1.711C20.286,2.244 17.763,2.701 15.239,3.156C12.712,3.588 10.185,4.019 7.643,4.373C5.104,4.738 2.562,5.087 0,5.328" style="fill:rgb(9,3,36);fill-rule:nonzero;"/>
        </g>
    </g>
    <g id="Gears">
        <g transform="matrix(1,0,0,1,271.622,325.111)">
            <path d="M0,30.676C0.422,28.653 1.101,26.681 1.979,24.802C2.858,22.924 3.934,21.122 5.283,19.522C6.638,17.938 8.304,16.54 10.309,15.767C12.313,15.02 14.609,15.026 16.62,15.828C18.655,16.621 20.26,18.332 21.125,20.297C21.573,21.28 21.855,22.332 21.971,23.409C22.072,24.485 22.029,25.603 21.601,26.676C21.383,27.204 21.042,27.738 20.496,28.092C20.231,28.277 19.909,28.381 19.592,28.43C19.279,28.475 18.96,28.461 18.596,28.335C17.927,28.051 17.592,27.512 17.305,27.028C17.048,26.524 16.849,26.008 16.714,25.487C16.152,23.4 16.095,21.276 16.194,19.177C16.492,14.996 17.59,10.815 19.843,7.216C20.98,5.439 22.406,3.802 24.179,2.606C25.929,1.402 27.978,0.573 30.069,0.333C31.099,0.083 32.161,0.108 33.213,0.056C33.739,0 34.263,0.127 34.787,0.155C35.309,0.225 35.842,0.215 36.35,0.366C38.427,0.739 40.381,1.573 42.204,2.582C44.017,3.627 45.632,4.969 47.105,6.425C48.567,7.896 49.896,9.505 50.964,11.277C48.599,7.902 45.553,4.972 41.963,3.009C40.156,2.071 38.247,1.3 36.236,0.988C35.746,0.851 35.23,0.874 34.729,0.819C34.224,0.804 33.721,0.689 33.215,0.756C32.205,0.83 31.189,0.825 30.205,1.09C28.188,1.374 26.319,2.185 24.673,3.315C23.02,4.447 21.685,6 20.613,7.7C18.49,11.139 17.451,15.201 17.191,19.238C17.078,21.254 17.129,23.317 17.633,25.233C17.874,26.149 18.307,27.181 18.937,27.47C19.019,27.477 19.072,27.521 19.17,27.524C19.269,27.516 19.373,27.537 19.466,27.514C19.655,27.483 19.841,27.431 20,27.318C20.328,27.112 20.588,26.745 20.763,26.325C21.113,25.476 21.178,24.468 21.089,23.496C20.991,22.52 20.741,21.55 20.337,20.65C19.546,18.852 18.143,17.297 16.325,16.535C14.517,15.768 12.399,15.705 10.523,16.359C8.637,17.035 7.008,18.336 5.649,19.843C2.928,22.892 1.092,26.707 0,30.676" style="fill:rgb(9,3,36);fill-rule:nonzero;"/>
        </g>
        <g transform="matrix(1,0,0,1,179.217,384.565)">
            <path d="M0,-2.862C0.965,-4.68 2.384,-6.255 4.042,-7.499C5.696,-8.743 7.597,-9.708 9.642,-10.18C11.675,-10.668 13.86,-10.676 15.895,-10.058C17.931,-9.449 19.765,-8.255 21.233,-6.734C22.711,-5.215 23.815,-3.368 24.575,-1.405C25.32,0.562 25.767,2.669 25.609,4.825C25.501,5.884 25.287,7.029 24.448,7.946C24.032,8.397 23.39,8.695 22.764,8.704C22.162,8.699 21.592,8.61 21.04,8.315C20.492,8.033 20.051,7.54 19.8,6.995C19.545,6.451 19.45,5.873 19.424,5.316C19.385,4.196 19.626,3.132 19.956,2.12C20.626,0.093 21.729,-1.733 23.017,-3.388C24.312,-5.042 25.836,-6.513 27.543,-7.739C30.932,-10.2 35.247,-11.566 39.458,-11.015C41.536,-10.734 43.598,-10.134 45.417,-9.075C47.252,-8.049 48.842,-6.627 50.14,-5.001C51.436,-3.368 52.446,-1.533 53.224,0.379C54.002,2.292 54.576,4.289 54.858,6.327C54.018,2.321 52.37,-1.572 49.745,-4.677C48.445,-6.229 46.878,-7.561 45.1,-8.5C43.336,-9.473 41.359,-9.996 39.368,-10.218C35.368,-10.654 31.31,-9.378 28.083,-6.991C24.86,-4.62 22.223,-1.311 20.89,2.432C20.576,3.366 20.356,4.341 20.386,5.281C20.408,6.213 20.735,7.111 21.484,7.489C21.837,7.692 22.316,7.771 22.734,7.778C23.14,7.767 23.5,7.606 23.788,7.306C24.372,6.697 24.622,5.701 24.711,4.745C24.868,2.791 24.464,0.771 23.765,-1.096C23.056,-2.968 22.005,-4.715 20.645,-6.175C19.289,-7.633 17.579,-8.772 15.686,-9.39C13.797,-10.019 11.726,-10.072 9.759,-9.654C5.821,-8.818 2.172,-6.356 0,-2.862" style="fill:rgb(9,3,36);fill-rule:nonzero;"/>
        </g>
        <g transform="matrix(1,0,0,1,132.953,101.965)">
            <path d="M0,38.243C-0.113,34.128 -0.986,29.985 -2.901,26.374C-3.861,24.587 -5.132,22.935 -6.802,21.827C-8.469,20.745 -10.54,20.301 -12.479,20.615C-14.426,20.92 -16.159,22.096 -17.357,23.653C-17.964,24.43 -18.439,25.312 -18.767,26.238C-19.084,27.16 -19.263,28.154 -19.125,29.063C-19.056,29.513 -18.891,29.93 -18.621,30.208C-18.493,30.357 -18.326,30.451 -18.149,30.526C-18.064,30.571 -17.958,30.576 -17.864,30.606C-17.769,30.627 -17.706,30.597 -17.625,30.609C-16.944,30.479 -16.277,29.58 -15.825,28.748C-14.878,27.009 -14.336,25.017 -13.965,23.032C-13.254,19.051 -13.294,14.858 -14.535,11.012C-15.169,9.105 -16.095,7.278 -17.431,5.784C-18.759,4.294 -20.381,3.06 -22.271,2.304C-23.165,1.811 -24.152,1.574 -25.115,1.261C-25.59,1.075 -26.105,1.066 -26.6,0.96C-27.101,0.894 -27.595,0.749 -28.104,0.764C-30.131,0.588 -32.17,0.881 -34.148,1.361C-38.103,2.41 -41.759,4.528 -44.861,7.241C-43.402,5.776 -41.728,4.53 -39.957,3.451C-38.178,2.389 -36.29,1.471 -34.28,0.889C-32.269,0.344 -30.172,0 -28.065,0.134C-27.537,0.108 -27.021,0.244 -26.499,0.302C-25.982,0.4 -25.444,0.401 -24.945,0.581C-23.937,0.882 -22.899,1.113 -21.959,1.6C-19.985,2.333 -18.193,3.627 -16.781,5.213C-15.345,6.798 -14.351,8.728 -13.671,10.725C-12.342,14.757 -12.273,19.08 -12.982,23.212C-13.387,25.273 -13.949,27.322 -14.993,29.214C-15.249,29.688 -15.564,30.142 -15.934,30.57C-16.329,30.972 -16.783,31.415 -17.5,31.532C-17.884,31.567 -18.198,31.504 -18.49,31.386C-18.787,31.263 -19.075,31.084 -19.287,30.842C-19.732,30.368 -19.937,29.768 -20.022,29.203C-20.182,28.059 -19.957,26.963 -19.602,25.943C-19.233,24.925 -18.708,23.97 -18.038,23.123C-16.729,21.42 -14.762,20.143 -12.597,19.858C-10.452,19.558 -8.222,20.1 -6.453,21.305C-4.69,22.534 -3.406,24.288 -2.469,26.15C-1.541,28.027 -0.926,30.033 -0.52,32.066C-0.116,34.1 0.073,36.178 0,38.243" style="fill:rgb(9,3,36);fill-rule:nonzero;"/>
        </g>
        <g transform="matrix(1,0,0,1,353.77,227.744)">
            <path d="M0,-35.373C-4.028,-36.224 -8.261,-36.341 -12.219,-35.321C-14.181,-34.806 -16.084,-33.955 -17.55,-32.589C-18.991,-31.221 -19.906,-29.311 -20.054,-27.352C-20.211,-25.388 -19.473,-23.428 -18.237,-21.9C-17.623,-21.128 -16.877,-20.461 -16.054,-19.926C-15.23,-19.402 -14.306,-18.997 -13.39,-18.918C-12.937,-18.881 -12.492,-18.944 -12.158,-19.141C-11.984,-19.23 -11.854,-19.372 -11.739,-19.526C-11.676,-19.598 -11.646,-19.701 -11.595,-19.784C-11.553,-19.872 -11.566,-19.94 -11.536,-20.016C-11.504,-20.708 -12.222,-21.567 -12.926,-22.201C-14.396,-23.527 -16.206,-24.519 -18.05,-25.343C-21.755,-26.963 -25.843,-27.903 -29.872,-27.594C-31.874,-27.422 -33.866,-26.948 -35.631,-25.998C-37.39,-25.053 -38.968,-23.764 -40.145,-22.102C-40.832,-21.349 -41.293,-20.444 -41.822,-19.581C-42.114,-19.162 -42.242,-18.663 -42.461,-18.207C-42.642,-17.735 -42.898,-17.289 -43.003,-16.79C-43.647,-14.86 -43.838,-12.81 -43.833,-10.774C-43.735,-6.684 -42.529,-2.634 -40.614,1.016C-41.699,-0.746 -42.52,-2.665 -43.156,-4.637C-43.773,-6.615 -44.226,-8.665 -44.322,-10.756C-44.383,-12.839 -44.229,-14.958 -43.606,-16.975C-43.508,-17.495 -43.255,-17.964 -43.077,-18.459C-42.862,-18.938 -42.734,-19.462 -42.443,-19.904C-41.916,-20.814 -41.449,-21.77 -40.756,-22.57C-39.583,-24.319 -37.906,-25.759 -36.034,-26.762C-34.158,-27.789 -32.05,-28.305 -29.948,-28.501C-25.718,-28.852 -21.498,-27.91 -17.646,-26.257C-15.735,-25.382 -13.875,-24.357 -12.278,-22.901C-11.877,-22.542 -11.51,-22.129 -11.18,-21.669C-10.881,-21.192 -10.557,-20.647 -10.609,-19.922C-10.665,-19.54 -10.8,-19.25 -10.982,-18.993C-11.172,-18.734 -11.413,-18.495 -11.697,-18.345C-12.263,-18.023 -12.894,-17.964 -13.462,-18.013C-14.612,-18.124 -15.626,-18.599 -16.535,-19.182C-17.439,-19.779 -18.245,-20.512 -18.912,-21.362C-20.263,-23.032 -21.046,-25.242 -20.817,-27.414C-20.608,-29.569 -19.561,-31.612 -17.977,-33.051C-16.371,-34.478 -14.365,-35.317 -12.336,-35.794C-10.294,-36.259 -8.2,-36.389 -6.129,-36.309C-4.056,-36.227 -1.992,-35.926 0,-35.373" style="fill:rgb(9,3,36);fill-rule:nonzero;"/>
        </g>
        <g transform="matrix(1,0,0,1,291.859,83.6084)">
            <path d="M0,44.063C-0.684,41.693 -0.776,39.16 -0.391,36.712C-0.008,34.266 0.822,31.858 2.176,29.75C3.51,27.64 5.371,25.815 7.622,24.652C9.867,23.48 12.425,22.971 14.943,23.048C17.469,23.117 19.95,23.77 22.234,24.813C24.51,25.87 26.648,27.298 28.303,29.262C29.093,30.251 29.854,31.403 29.9,32.852C29.92,33.566 29.63,34.331 29.117,34.848C28.609,35.334 28.055,35.729 27.355,35.932C26.668,36.143 25.902,36.091 25.247,35.841C24.588,35.593 24.033,35.186 23.552,34.736C22.593,33.821 21.913,32.716 21.353,31.58C20.239,29.294 19.653,26.817 19.371,24.33C19.096,21.839 19.167,19.311 19.601,16.839C20.436,11.912 22.977,7.152 27.021,4.105C29.027,2.608 31.284,1.396 33.72,0.778C36.14,0.117 38.686,0 41.153,0.301C43.626,0.607 46.026,1.324 48.295,2.303C50.563,3.283 52.73,4.504 54.685,6.004C50.623,3.256 45.954,1.288 41.098,0.808C38.68,0.562 36.214,0.728 33.895,1.411C31.56,2.051 29.417,3.26 27.515,4.737C25.635,6.242 24.035,8.093 22.865,10.198C21.687,12.298 20.916,14.619 20.509,16.998C19.73,21.745 20.232,26.803 22.238,31.15C22.755,32.219 23.389,33.246 24.214,34.039C25.024,34.83 26.094,35.347 27.095,35.03C27.587,34.901 28.071,34.563 28.448,34.205C28.803,33.842 28.986,33.373 28.981,32.855C28.968,31.805 28.335,30.734 27.605,29.834C26.091,28.014 24.044,26.618 21.871,25.6C19.687,24.587 17.313,23.968 14.914,23.859C12.519,23.749 10.088,24.21 7.939,25.275C5.785,26.33 3.963,28.03 2.628,30.044C-0.042,34.079 -1.088,39.256 0,44.063" style="fill:rgb(9,3,36);fill-rule:nonzero;"/>
        </g>
        <g transform="matrix(1,0,0,1,178.156,384.855)">
            <path d="M0,2.244C-0.62,4.213 -2.716,5.306 -4.683,4.685C-6.649,4.065 -7.741,1.97 -7.121,0.001C-6.501,-1.966 -4.406,-3.058 -2.437,-2.438C-0.472,-1.818 0.62,0.277 0,2.244M-2.282,-2.933C-4.523,-3.64 -6.91,-2.395 -7.616,-0.155C-8.323,2.088 -7.078,4.473 -4.837,5.179C-2.598,5.885 -0.213,4.641 0.493,2.401C1.199,0.162 -0.043,-2.228 -2.282,-2.933M0,2.244C-0.62,4.213 -2.716,5.306 -4.683,4.685C-6.649,4.065 -7.741,1.97 -7.121,0.001C-6.501,-1.966 -4.406,-3.058 -2.437,-2.438C-0.472,-1.818 0.62,0.277 0,2.244M-2.282,-2.933C-4.523,-3.64 -6.91,-2.395 -7.616,-0.155C-8.323,2.088 -7.078,4.473 -4.837,5.179C-2.598,5.885 -0.213,4.641 0.493,2.401C1.199,0.162 -0.043,-2.228 -2.282,-2.933M0,2.244C-0.62,4.213 -2.716,5.306 -4.683,4.685C-6.649,4.065 -7.741,1.97 -7.121,0.001C-6.501,-1.966 -4.406,-3.058 -2.437,-2.438C-0.472,-1.818 0.62,0.277 0,2.244M0.493,2.401C1.199,0.162 -0.043,-2.228 -2.282,-2.933C-4.523,-3.64 -6.91,-2.395 -7.616,-0.155C-8.323,2.088 -7.078,4.473 -4.837,5.179C-2.598,5.885 -0.213,4.641 0.493,2.401M1.125,2.598C0.31,5.183 -2.453,6.624 -5.037,5.81C-7.62,4.996 -9.061,2.232 -8.246,-0.353C-7.431,-2.939 -4.666,-4.376 -2.083,-3.562C0.499,-2.748 1.939,0.015 1.125,2.598M-0.865,-7.425C-5.589,-8.913 -10.621,-6.288 -12.109,-1.57C-13.596,3.149 -10.977,8.184 -6.254,9.671C-1.536,11.157 3.499,8.536 4.986,3.815C6.474,-0.902 3.854,-5.94 -0.865,-7.425M0,2.244C-0.62,4.213 -2.716,5.306 -4.683,4.685C-6.649,4.065 -7.741,1.97 -7.121,0.001C-6.501,-1.966 -4.406,-3.058 -2.437,-2.438C-0.472,-1.818 0.62,0.277 0,2.244M-2.282,-2.933C-4.523,-3.64 -6.91,-2.395 -7.616,-0.155C-8.323,2.088 -7.078,4.473 -4.837,5.179C-2.598,5.885 -0.213,4.641 0.493,2.401C1.199,0.162 -0.043,-2.228 -2.282,-2.933M0,2.244C-0.62,4.213 -2.716,5.306 -4.683,4.685C-6.649,4.065 -7.741,1.97 -7.121,0.001C-6.501,-1.966 -4.406,-3.058 -2.437,-2.438C-0.472,-1.818 0.62,0.277 0,2.244M-2.282,-2.933C-4.523,-3.64 -6.91,-2.395 -7.616,-0.155C-8.323,2.088 -7.078,4.473 -4.837,5.179C-2.598,5.885 -0.213,4.641 0.493,2.401C1.199,0.162 -0.043,-2.228 -2.282,-2.933M0,2.244C-0.62,4.213 -2.716,5.306 -4.683,4.685C-6.649,4.065 -7.741,1.97 -7.121,0.001C-6.501,-1.966 -4.406,-3.058 -2.437,-2.438C-0.472,-1.818 0.62,0.277 0,2.244M-2.282,-2.933C-4.523,-3.64 -6.91,-2.395 -7.616,-0.155C-8.323,2.088 -7.078,4.473 -4.837,5.179C-2.598,5.885 -0.213,4.641 0.493,2.401C1.199,0.162 -0.043,-2.228 -2.282,-2.933" style="fill:rgb(9,3,36);fill-rule:nonzero;"/>
        </g>
        <g transform="matrix(-0.953749,-0.300604,-0.300604,0.953749,169.722,395.317)">
            <path d="M-3.564,-1.782L-0.117,-1.782L-0.308,0.657L-3.373,0.658L-3.564,-1.782Z" style="fill:rgb(9,3,36);fill-rule:nonzero;"/>
        </g>
        <g transform="matrix(-0.462011,-0.886874,-0.886874,0.462011,166,388.45)">
            <path d="M-3.611,-0.092L-0.165,-0.092L-0.355,2.346L-3.421,2.347L-3.611,-0.092Z" style="fill:rgb(9,3,36);fill-rule:nonzero;"/>
        </g>
        <g transform="matrix(0.300604,-0.953749,-0.953749,-0.300604,167.149,383.325)">
            <path d="M-2.262,0.754L1.185,0.754L0.994,3.193L-2.071,3.194L-2.262,0.754Z" style="fill:rgb(9,3,36);fill-rule:nonzero;"/>
        </g>
        <g transform="matrix(0.886936,-0.461892,-0.461892,-0.886936,169.794,379.626)">
            <path d="M-0.728,0.692L2.718,0.692L2.527,3.131L-0.538,3.131L-0.728,0.692Z" style="fill:rgb(9,3,36);fill-rule:nonzero;"/>
        </g>
        <g transform="matrix(0.953749,0.300604,0.300604,-0.953749,175.086,376.743)">
            <path d="M0.274,-0.548L3.72,-0.548L3.529,1.891L0.465,1.891L0.274,-0.548Z" style="fill:rgb(9,3,36);fill-rule:nonzero;"/>
        </g>
        <g transform="matrix(0.461892,0.886936,0.886936,-0.461892,183.007,379.366)">
            <path d="M0.056,-2.191L3.502,-2.191L3.311,0.248L0.246,0.249L0.056,-2.191Z" style="fill:rgb(9,3,36);fill-rule:nonzero;"/>
        </g>
        <g transform="matrix(-0.300604,0.953749,0.953749,0.300604,185.722,388.689)">
            <path d="M-1.028,-3.084L2.419,-3.084L2.228,-0.645L-0.837,-0.644L-1.028,-3.084Z" style="fill:rgb(9,3,36);fill-rule:nonzero;"/>
        </g>
        <g transform="matrix(-0.886874,0.462011,0.462011,0.886874,178.878,396.633)">
            <path d="M-2.826,-2.975L0.619,-2.975L0.43,-0.536L-2.636,-0.535L-2.826,-2.975Z" style="fill:rgb(9,3,36);fill-rule:nonzero;"/>
        </g>
        <g transform="matrix(1,0,0,1,335.81,341.375)">
            <path d="M0,7.623C-2.107,10.462 -6.112,11.055 -8.949,8.949C-11.788,6.843 -12.381,2.837 -10.273,-0.002C-8.169,-2.839 -4.163,-3.432 -1.324,-1.324C1.513,0.781 2.105,4.786 0,7.623M5.863,11.975C10.371,5.9 9.101,-2.68 3.027,-7.188C-3.049,-11.697 -11.63,-10.427 -16.137,-4.354C-20.646,1.723 -19.376,10.304 -13.301,14.812C-7.227,19.32 1.354,18.051 5.863,11.975" style="fill:rgb(9,3,36);fill-rule:nonzero;"/>
        </g>
        <g transform="matrix(-0.802884,-0.596135,-0.596135,0.802884,319.453,355.158)">
            <path d="M-5.701,-1.565L-0.433,-1.565L-0.725,2.164L-5.41,2.163L-5.701,-1.565Z" style="fill:rgb(9,3,36);fill-rule:nonzero;"/>
        </g>
        <g transform="matrix(-0.146363,-0.989231,-0.989231,0.146363,317.888,344.876)">
            <path d="M-4.982,0.654L0.286,0.654L-0.005,4.383L-4.691,4.383L-4.982,0.654Z" style="fill:rgb(9,3,36);fill-rule:nonzero;"/>
        </g>
        <g transform="matrix(0.596013,-0.802975,-0.802975,-0.596013,320.818,338.592)">
            <path d="M-2.432,1.384L2.834,1.384L2.543,5.113L-2.141,5.113L-2.432,1.384Z" style="fill:rgb(9,3,36);fill-rule:nonzero;"/>
        </g>
        <g transform="matrix(0.989231,-0.146363,-0.146363,-0.989231,326.007,333.066)">
            <path d="M-0.297,0.386L4.971,0.386L4.68,4.115L-0.006,4.115L-0.297,0.386Z" style="fill:rgb(9,3,36);fill-rule:nonzero;"/>
        </g>
        <g transform="matrix(0.802975,0.596013,0.596013,-0.802975,336.543,331.194)">
            <path d="M0.518,-1.884L5.784,-1.884L5.494,1.844L0.809,1.845L0.518,-1.884Z" style="fill:rgb(9,3,36);fill-rule:nonzero;"/>
        </g>
        <g transform="matrix(0.146363,0.989231,0.989231,-0.146363,347.164,340.345)">
            <path d="M-0.565,-4.299L4.703,-4.299L4.412,-0.57L-0.274,-0.57L-0.565,-4.299Z" style="fill:rgb(9,3,36);fill-rule:nonzero;"/>
        </g>
        <g transform="matrix(-0.596044,0.802951,0.802951,0.596044,344.783,355.685)">
            <path d="M-2.752,-4.834L2.516,-4.834L2.225,-1.105L-2.461,-1.106L-2.752,-4.834Z" style="fill:rgb(9,3,36);fill-rule:nonzero;"/>
        </g>
        <g transform="matrix(-0.989227,0.14639,0.14639,0.989227,330.54,362.343)">
            <path d="M-5.248,-4.032L0.019,-4.032L-0.272,-0.302L-4.958,-0.303L-5.248,-4.032Z" style="fill:rgb(9,3,36);fill-rule:nonzero;"/>
        </g>
        <g transform="matrix(1,0,0,1,331.283,346.352)">
            <path d="M0,-2.387C0.66,-1.897 0.797,-0.969 0.308,-0.31C-0.181,0.348 -1.109,0.488 -1.77,-0.002C-2.427,-0.49 -2.564,-1.422 -2.077,-2.079C-1.587,-2.74 -0.657,-2.874 0,-2.387M-5.517,-0.509L-2.606,3.161L2.027,2.473L3.747,-1.88L0.84,-5.548L-3.795,-4.865L-5.517,-0.509Z" style="fill:rgb(9,3,36);fill-rule:nonzero;"/>
        </g>
        <g transform="matrix(1,0,0,1,353.94,89.1669)">
            <path d="M0,1.964C-0.543,3.687 -2.377,4.642 -4.098,4.1C-5.818,3.558 -6.774,1.724 -6.231,0.001C-5.688,-1.72 -3.855,-2.675 -2.133,-2.133C-0.413,-1.591 0.542,0.243 0,1.964M-1.997,-2.566C-3.958,-3.184 -6.047,-2.096 -6.664,-0.136C-7.283,1.827 -6.193,3.914 -4.232,4.532C-2.273,5.15 -0.187,4.062 0.432,2.101C1.049,0.142 -0.038,-1.949 -1.997,-2.566M0,1.964C-0.543,3.687 -2.377,4.642 -4.098,4.1C-5.818,3.558 -6.774,1.724 -6.231,0.001C-5.688,-1.72 -3.855,-2.675 -2.133,-2.133C-0.413,-1.591 0.542,0.243 0,1.964M-1.997,-2.566C-3.958,-3.184 -6.047,-2.096 -6.664,-0.136C-7.283,1.827 -6.193,3.914 -4.232,4.532C-2.273,5.15 -0.187,4.062 0.432,2.101C1.049,0.142 -0.038,-1.949 -1.997,-2.566M0,1.964C-0.543,3.687 -2.377,4.642 -4.098,4.1C-5.818,3.558 -6.774,1.724 -6.231,0.001C-5.688,-1.72 -3.855,-2.675 -2.133,-2.133C-0.413,-1.591 0.542,0.243 0,1.964M0.432,2.101C1.049,0.142 -0.038,-1.949 -1.997,-2.566C-3.958,-3.184 -6.047,-2.096 -6.664,-0.136C-7.283,1.827 -6.193,3.914 -4.232,4.532C-2.273,5.15 -0.187,4.062 0.432,2.101M0.984,2.274C0.271,4.536 -2.146,5.797 -4.407,5.084C-6.668,4.372 -7.929,1.954 -7.216,-0.309C-6.503,-2.571 -4.083,-3.829 -1.822,-3.117C0.437,-2.405 1.696,0.013 0.984,2.274M-0.757,-6.497C-4.892,-7.799 -9.294,-5.503 -10.596,-1.374C-11.896,2.756 -9.604,7.161 -5.473,8.463C-1.344,9.763 3.062,7.469 4.362,3.339C5.665,-0.789 3.372,-5.197 -0.757,-6.497M0,1.964C-0.543,3.687 -2.377,4.642 -4.098,4.1C-5.818,3.558 -6.774,1.724 -6.231,0.001C-5.688,-1.72 -3.855,-2.675 -2.133,-2.133C-0.413,-1.591 0.542,0.243 0,1.964M-1.997,-2.566C-3.958,-3.184 -6.047,-2.096 -6.664,-0.136C-7.283,1.827 -6.193,3.914 -4.232,4.532C-2.273,5.15 -0.187,4.062 0.432,2.101C1.049,0.142 -0.038,-1.949 -1.997,-2.566M0,1.964C-0.543,3.687 -2.377,4.642 -4.098,4.1C-5.818,3.558 -6.774,1.724 -6.231,0.001C-5.688,-1.72 -3.855,-2.675 -2.133,-2.133C-0.413,-1.591 0.542,0.243 0,1.964M-1.997,-2.566C-3.958,-3.184 -6.047,-2.096 -6.664,-0.136C-7.283,1.827 -6.193,3.914 -4.232,4.532C-2.273,5.15 -0.187,4.062 0.432,2.101C1.049,0.142 -0.038,-1.949 -1.997,-2.566M0,1.964C-0.543,3.687 -2.377,4.642 -4.098,4.1C-5.818,3.558 -6.774,1.724 -6.231,0.001C-5.688,-1.72 -3.855,-2.675 -2.133,-2.133C-0.413,-1.591 0.542,0.243 0,1.964M-1.997,-2.566C-3.958,-3.184 -6.047,-2.096 -6.664,-0.136C-7.283,1.827 -6.193,3.914 -4.232,4.532C-2.273,5.15 -0.187,4.062 0.432,2.101C1.049,0.142 -0.038,-1.949 -1.997,-2.566" style="fill:rgb(9,3,36);fill-rule:nonzero;"/>
        </g>
        <g transform="matrix(-0.953793,-0.300465,-0.300465,0.953793,346.56,98.3226)">
            <path d="M-3.118,-1.56L-0.103,-1.56L-0.27,0.575L-2.952,0.575L-3.118,-1.56Z" style="fill:rgb(9,3,36);fill-rule:nonzero;"/>
        </g>
        <g transform="matrix(-0.461875,-0.886945,-0.886945,0.461875,343.303,92.3123)">
            <path d="M-3.16,-0.08L-0.144,-0.08L-0.311,2.054L-2.994,2.054L-3.16,-0.08Z" style="fill:rgb(9,3,36);fill-rule:nonzero;"/>
        </g>
        <g transform="matrix(0.300465,-0.953793,-0.953793,-0.300465,344.308,87.829)">
            <path d="M-1.979,0.66L1.037,0.66L0.869,2.794L-1.812,2.794L-1.979,0.66Z" style="fill:rgb(9,3,36);fill-rule:nonzero;"/>
        </g>
        <g transform="matrix(0.886945,-0.461875,-0.461875,-0.886945,346.623,84.5919)">
            <path d="M-0.637,0.606L2.379,0.606L2.212,2.74L-0.471,2.74L-0.637,0.606Z" style="fill:rgb(9,3,36);fill-rule:nonzero;"/>
        </g>
        <g transform="matrix(0.953793,0.300465,0.300465,-0.953793,351.253,82.0697)">
            <path d="M0.24,-0.48L3.255,-0.48L3.088,1.655L0.407,1.655L0.24,-0.48Z" style="fill:rgb(9,3,36);fill-rule:nonzero;"/>
        </g>
        <g transform="matrix(0.461875,0.886945,0.886945,-0.461875,358.185,84.3642)">
            <path d="M0.049,-1.917L3.065,-1.917L2.898,0.217L0.216,0.218L0.049,-1.917Z" style="fill:rgb(9,3,36);fill-rule:nonzero;"/>
        </g>
        <g transform="matrix(-0.300465,0.953793,0.953793,0.300465,360.56,92.5214)">
            <path d="M-0.899,-2.699L2.116,-2.699L1.949,-0.564L-0.733,-0.564L-0.899,-2.699Z" style="fill:rgb(9,3,36);fill-rule:nonzero;"/>
        </g>
        <g transform="matrix(-0.886945,0.461875,0.461875,0.886945,354.571,99.4738)">
            <path d="M-2.474,-2.603L0.542,-2.603L0.375,-0.469L-2.308,-0.469L-2.474,-2.603Z" style="fill:rgb(9,3,36);fill-rule:nonzero;"/>
        </g>
        <g transform="matrix(1,0,0,1,315.725,232.032)">
            <path d="M0,1.964C-0.543,3.687 -2.377,4.642 -4.098,4.1C-5.818,3.557 -6.774,1.724 -6.231,0.001C-5.688,-1.72 -3.855,-2.676 -2.133,-2.133C-0.413,-1.591 0.542,0.243 0,1.964M-1.997,-2.566C-3.958,-3.184 -6.047,-2.096 -6.665,-0.137C-7.283,1.826 -6.193,3.914 -4.232,4.532C-2.273,5.15 -0.187,4.062 0.432,2.101C1.049,0.142 -0.038,-1.949 -1.997,-2.566M0,1.964C-0.543,3.687 -2.377,4.642 -4.098,4.1C-5.818,3.557 -6.774,1.724 -6.231,0.001C-5.688,-1.72 -3.855,-2.676 -2.133,-2.133C-0.413,-1.591 0.542,0.243 0,1.964M-1.997,-2.566C-3.958,-3.184 -6.047,-2.096 -6.665,-0.137C-7.283,1.826 -6.193,3.914 -4.232,4.532C-2.273,5.15 -0.187,4.062 0.432,2.101C1.049,0.142 -0.038,-1.949 -1.997,-2.566M0,1.964C-0.543,3.687 -2.377,4.642 -4.098,4.1C-5.818,3.557 -6.774,1.724 -6.231,0.001C-5.688,-1.72 -3.855,-2.676 -2.133,-2.133C-0.413,-1.591 0.542,0.243 0,1.964M0.432,2.101C1.049,0.142 -0.038,-1.949 -1.997,-2.566C-3.958,-3.184 -6.047,-2.096 -6.665,-0.137C-7.283,1.826 -6.193,3.914 -4.232,4.532C-2.273,5.15 -0.187,4.062 0.432,2.101M0.984,2.274C0.271,4.536 -2.147,5.797 -4.407,5.084C-6.668,4.372 -7.929,1.954 -7.216,-0.309C-6.503,-2.571 -4.083,-3.829 -1.822,-3.117C0.437,-2.405 1.696,0.013 0.984,2.274M-0.757,-6.497C-4.892,-7.799 -9.294,-5.503 -10.596,-1.374C-11.897,2.756 -9.605,7.161 -5.473,8.463C-1.344,9.763 3.062,7.469 4.362,3.339C5.665,-0.789 3.371,-5.197 -0.757,-6.497M0,1.964C-0.543,3.687 -2.377,4.642 -4.098,4.1C-5.818,3.557 -6.774,1.724 -6.231,0.001C-5.688,-1.72 -3.855,-2.676 -2.133,-2.133C-0.413,-1.591 0.542,0.243 0,1.964M-1.997,-2.566C-3.958,-3.184 -6.047,-2.096 -6.665,-0.137C-7.283,1.826 -6.193,3.914 -4.232,4.532C-2.273,5.15 -0.187,4.062 0.432,2.101C1.049,0.142 -0.038,-1.949 -1.997,-2.566M0,1.964C-0.543,3.687 -2.377,4.642 -4.098,4.1C-5.818,3.557 -6.774,1.724 -6.231,0.001C-5.688,-1.72 -3.855,-2.676 -2.133,-2.133C-0.413,-1.591 0.542,0.243 0,1.964M-1.997,-2.566C-3.958,-3.184 -6.047,-2.096 -6.665,-0.137C-7.283,1.826 -6.193,3.914 -4.232,4.532C-2.273,5.15 -0.187,4.062 0.432,2.101C1.049,0.142 -0.038,-1.949 -1.997,-2.566M0,1.964C-0.543,3.687 -2.377,4.642 -4.098,4.1C-5.818,3.557 -6.774,1.724 -6.231,0.001C-5.688,-1.72 -3.855,-2.676 -2.133,-2.133C-0.413,-1.591 0.542,0.243 0,1.964M-1.997,-2.566C-3.958,-3.184 -6.047,-2.096 -6.665,-0.137C-7.283,1.826 -6.193,3.914 -4.232,4.532C-2.273,5.15 -0.187,4.062 0.432,2.101C1.049,0.142 -0.038,-1.949 -1.997,-2.566" style="fill:rgb(9,3,36);fill-rule:nonzero;"/>
        </g>
        <g transform="matrix(-0.953793,-0.300465,-0.300465,0.953793,308.345,241.187)">
            <path d="M-3.118,-1.559L-0.103,-1.559L-0.27,0.576L-2.952,0.575L-3.118,-1.559Z" style="fill:rgb(9,3,36);fill-rule:nonzero;"/>
        </g>
        <g transform="matrix(-0.461875,-0.886945,-0.886945,0.461875,305.087,235.178)">
            <path d="M-3.16,-0.08L-0.144,-0.08L-0.311,2.054L-2.994,2.054L-3.16,-0.08Z" style="fill:rgb(9,3,36);fill-rule:nonzero;"/>
        </g>
        <g transform="matrix(0.300465,-0.953793,-0.953793,-0.300465,306.092,230.694)">
            <path d="M-1.979,0.66L1.037,0.66L0.869,2.794L-1.811,2.794L-1.979,0.66Z" style="fill:rgb(9,3,36);fill-rule:nonzero;"/>
        </g>
        <g transform="matrix(0.886874,-0.462011,-0.462011,-0.886874,308.408,227.457)">
            <path d="M-0.637,0.606L2.378,0.606L2.211,2.74L-0.47,2.74L-0.637,0.606Z" style="fill:rgb(9,3,36);fill-rule:nonzero;"/>
        </g>
        <g transform="matrix(0.953793,0.300465,0.300465,-0.953793,313.037,224.935)">
            <path d="M0.24,-0.48L3.255,-0.48L3.088,1.655L0.407,1.655L0.24,-0.48Z" style="fill:rgb(9,3,36);fill-rule:nonzero;"/>
        </g>
        <g transform="matrix(0.461875,0.886945,0.886945,-0.461875,319.969,227.229)">
            <path d="M0.049,-1.917L3.065,-1.917L2.898,0.217L0.216,0.218L0.049,-1.917Z" style="fill:rgb(9,3,36);fill-rule:nonzero;"/>
        </g>
        <g transform="matrix(-0.300465,0.953793,0.953793,0.300465,322.345,235.387)">
            <path d="M-0.899,-2.699L2.116,-2.699L1.949,-0.564L-0.733,-0.564L-0.899,-2.699Z" style="fill:rgb(9,3,36);fill-rule:nonzero;"/>
        </g>
        <g transform="matrix(-0.886945,0.461875,0.461875,0.886945,316.356,242.339)">
            <path d="M-2.474,-2.603L0.542,-2.603L0.375,-0.469L-2.308,-0.469L-2.474,-2.603Z" style="fill:rgb(9,3,36);fill-rule:nonzero;"/>
        </g>
        <g transform="matrix(1,0,0,1,88.9131,112.9)">
            <path d="M0,2.605C-0.721,5.563 -3.699,7.375 -6.655,6.654C-9.613,5.934 -11.424,2.955 -10.704,-0.003C-9.984,-2.958 -7.005,-4.77 -4.047,-4.049C-1.092,-3.329 0.72,-0.351 0,2.605M6.108,4.093C7.65,-2.234 3.769,-8.616 -2.559,-10.158C-8.889,-11.7 -15.271,-7.819 -16.812,-1.491C-18.354,4.839 -14.474,11.221 -8.143,12.763C-1.815,14.305 4.566,10.423 6.108,4.093" style="fill:rgb(9,3,36);fill-rule:nonzero;"/>
        </g>
        <g transform="matrix(-0.971565,-0.236773,-0.236773,0.971565,77.9998,127.098)">
            <path d="M-4.618,-2.541L-0.082,-2.541L-0.333,0.67L-4.368,0.67L-4.618,-2.541Z" style="fill:rgb(9,3,36);fill-rule:nonzero;"/>
        </g>
        <g transform="matrix(-0.519674,-0.854365,-0.854365,0.519674,72.3198,118.232)">
            <path d="M-4.811,-0.284L-0.275,-0.284L-0.525,2.927L-4.559,2.928L-4.811,-0.284Z" style="fill:rgb(9,3,36);fill-rule:nonzero;"/>
        </g>
        <g transform="matrix(0.236773,-0.971565,-0.971565,-0.236773,73.5149,111.181)">
            <path d="M-3.149,0.914L1.387,0.914L1.135,4.125L-2.898,4.125L-3.149,0.914Z" style="fill:rgb(9,3,36);fill-rule:nonzero;"/>
        </g>
        <g transform="matrix(0.854365,-0.519674,-0.519674,-0.854365,76.8774,106.265)">
            <path d="M-1.115,0.991L3.42,0.991L3.17,4.201L-0.864,4.202L-1.115,0.991Z" style="fill:rgb(9,3,36);fill-rule:nonzero;"/>
        </g>
        <g transform="matrix(0.971565,0.236773,0.236773,-0.971565,83.415,102.207)">
            <path d="M0.305,-0.555L4.841,-0.555L4.59,2.656L0.556,2.656L0.305,-0.555Z" style="fill:rgb(9,3,36);fill-rule:nonzero;"/>
        </g>
        <g transform="matrix(0.519674,0.854365,0.854365,-0.519674,93.8342,104.805)">
            <path d="M0.159,-2.705L4.695,-2.705L4.445,0.506L0.411,0.507L0.159,-2.705Z" style="fill:rgb(9,3,36);fill-rule:nonzero;"/>
        </g>
        <g transform="matrix(-0.236773,0.971565,0.971565,0.236773,98.4067,116.596)">
            <path d="M-1.163,-4.009L3.373,-4.009L3.121,-0.798L-0.912,-0.798L-1.163,-4.009Z" style="fill:rgb(9,3,36);fill-rule:nonzero;"/>
        </g>
        <g transform="matrix(-0.854365,0.519674,0.519674,0.854365,90.305,127.78)">
            <path d="M-3.536,-3.979L0.999,-3.979L0.749,-0.769L-3.285,-0.768L-3.536,-3.979Z" style="fill:rgb(9,3,36);fill-rule:nonzero;"/>
        </g>
        <g transform="matrix(1,0,0,1,83.6362,115.514)">
            <path d="M0,-2.485C0.687,-2.318 1.107,-1.628 0.939,-0.94C0.772,-0.256 0.082,0.167 -0.605,-0.001C-1.291,-0.168 -1.712,-0.86 -1.545,-1.546C-1.377,-2.233 -0.685,-2.652 0,-2.485M-3.748,0.852L-0.21,2.789L3.235,0.691L3.142,-3.338L-0.393,-5.274L-3.84,-3.18L-3.748,0.852Z" style="fill:rgb(9,3,36);fill-rule:nonzero;"/>
        </g>
    </g>
    <g id="Speech-Bubble" serif:id="Speech Bubble">
    </g>
</svg>
