<svg viewBox="0 0 2084 2084" xmlns="http://www.w3.org/2000/svg" xml:space="preserve" style="fill-rule:evenodd;clip-rule:evenodd;stroke-linejoin:round;stroke-miterlimit:2"><path d="M346.483 473.955c-9.28 14.516-30.102 23.57-46.214 14.539-7.844-4.397-15.294-15.472-6.648-23.152 3.904-3.468 9.384-3.498 14.168-1.53a34.462 34.462 0 0 1-2.211-1.986c-4.359-4.325-6.021-10.945-1.748-16.01 4.108-4.869 10.472-3.767 15.31-.994.904.518 1.798 1.059 2.693 1.598-1.075-1.202-2.218-2.348-3.275-3.563-3.269-3.754-5.391-8.212-3.681-13.225 3.88-11.381 16.808-8.98 24.24-3.121 14.281 11.258 16.952 32.447 7.366 47.444zM176.099 461.863c-4.765-17.611-16.095-31.96-32.94-39.333-15.708-6.875-33.799-8.084-50.225-2.958-17.95 5.602-31.451 18.081-37.725 35.862-3.856 10.927-5.149 22.887-5.411 34.415-.266 11.716-.077 24.339 2.755 35.747 2.306 9.284 15.196 6.575 15.883-2.15.683-8.666-.557-17.447-.713-26.136-.157-8.793.141-17.658 1.873-26.302 2.923-14.585 9.644-26.593 23.816-32.621 12.222-5.198 26.296-5.301 38.778-1.03 13.126 4.491 22.267 14.426 26.163 27.65 5.601 19.012 5.685 40.234 4.594 59.859-.641 11.529 17.291 11.493 17.93 0 1.15-20.696.669-42.874-4.778-63.003z" style="fill-opacity:.1;fill-rule:nonzero" transform="scale(4.16667)"/><path d="M116.023 462.208c-11.819 1.401-19.913 11.646-21.843 22.912-2.105 12.283-1.309 27.83 3.127 39.538 2.071 5.465 10.075 6.2 11.866 0 2.533-8.768 2.008-17.847 1.888-26.849-.064-4.87-.288-16.137 6.318-17.705 8.847-2.1 6.481 33.874 6.087 38.706-.394 4.832 4.402 8.965 8.964 8.965 5.179 0 8.57-4.119 8.965-8.965 1.469-18.005 3.036-59.969-25.372-56.602zM72.813 499.762c-.073 2.454.18 4.874.673 7.273.221 1.074 1.949 1.075 2.17 0 .493-2.4.746-4.818.673-7.273-.067-2.261-3.449-2.265-3.516 0zM72.989 482.56c.088 2.297.385 4.468.768 6.733.137.805 1.491.806 1.628 0 .383-2.265.679-4.435.768-6.733.079-2.036-3.243-2.04-3.164 0zM77.248 464.951c-1.152 2.024-1.408 4.626-1.534 6.917-.075 1.348 2.027 1.619 2.348.317.519-2.104 1.541-3.925 2.206-5.961.586-1.792-2.101-2.887-3.02-1.273zM87.201 449.95c-1.196.811-1.896 2.036-2.669 3.228-.776 1.196-1.511 2.388-2.184 3.646-.628 1.176.839 2.291 1.822 1.406a49.72 49.72 0 0 0 3.024-2.998c.978-1.042 1.982-2.014 2.486-3.376.504-1.36-1.297-2.707-2.479-1.906zM100.287 441.709c-2.402 1.101-5.076 2.355-7.08 4.085-.944.816.088 2.15 1.129 1.939 2.586-.522 5.286-1.95 7.619-3.17 1.91-1 .233-3.725-1.668-2.854zM120.555 440.133c-3.031-.423-7.168-.334-10.037.837-1.26.515-1.127 2.32.327 2.417 1.539.103 3.089-.167 4.631-.209 1.555-.042 3.108.112 4.659.063 1.691-.053 2.26-2.851.42-3.108zM138.456 446.023c-.886-1.603-2.443-2.54-4.171-3.037-1.484-.426-3.324-.698-4.737.044-1.14.599-.95 2.15 0 2.792.907.613 2.031.765 2.956 1.39.943.638 1.752 1.439 2.729 2.034 2.063 1.255 4.336-1.208 3.223-3.223zM150.03 458.586c-.811-1.198-1.794-1.98-2.841-2.959-.974-.912-1.849-1.953-2.758-2.931-1.075-1.155-3.096.36-2.209 1.705.734 1.112 1.538 2.207 2.192 3.367.699 1.241 1.224 2.393 2.193 3.46 1.643 1.81 4.821-.577 3.423-2.642zM156.739 476.506c-.588-2.351-1.919-4.951-3.159-7.02-.49-.819-1.985-.534-1.9.514.196 2.406.58 5.243 1.466 7.496.858 2.185 4.188 1.391 3.593-.99zM156.928 487.771c-.457-1.55-2.436-1.064-2.624.355-.348 2.614-.649 5.429-.162 8.037.457 2.452 4.137 1.761 4.212-.571.084-2.576-.703-5.367-1.426-7.821zM79.963 492.788c.139 1.824.346 3.562.701 5.358.172.872 1.59.872 1.763 0 .354-1.795.561-3.534.7-5.358.156-2.035-3.32-2.038-3.164 0zM82.429 477.33c-.977 2.102-1.28 4.775-1.46 7.068-.09 1.153 1.5 1.166 1.865.252.816-2.044 1.707-4.513 1.757-6.734.024-1.097-1.666-1.653-2.162-.586zM86.319 463.609c-1.805 1.487-2.21 4.166-2.01 6.398.159 1.774 2.896 1.832 2.813 0-.089-1.93.691-3.434 1.195-5.235.345-1.231-1.124-1.883-1.998-1.163zM96.866 454.725c-.459-.785-1.435-.985-2.212-.58-1.992 1.038-3.387 2.711-4.071 4.843-.44 1.374 1.608 2.213 2.313.976a7.21 7.21 0 0 1 3.39-3.026c.801-.349.984-1.522.58-2.213zM109.904 450.168a29.183 29.183 0 0 0-7.645 1.873c-.952.371-.605 1.805.43 1.559 2.364-.563 4.789-.894 7.215-1.041 1.546-.095 1.511-2.553 0-2.391zM125.652 451.328c-1.693-.702-3.41-1.143-5.181-1.611-1.378-.364-2.369 1.72-1.002 2.377 1.766.85 3.475 1.682 5.342 2.286.813.263 1.727-.308 1.946-1.105.25-.911-.312-1.618-1.105-1.947zM139.588 459.239c-1.737-1.335-3.53-2.591-5.311-3.866-1.297-.928-2.884 1.146-1.704 2.209 1.631 1.467 3.247 2.95 4.927 4.363 1.893 1.59 4.075-1.181 2.088-2.706zM146.201 467.32c-.95-1.333-3.413-.592-2.827 1.192.351 1.071.648 2.162.81 3.279.172 1.183.197 2.344.576 3.491.798 2.417 4.434 2.036 4.488-.607.055-2.661-1.548-5.251-3.047-7.355zM151.375 486.814c-.29-1.362-.341-2.793-.727-4.126-.367-1.267-2.02-1.133-2.441 0-.502 1.351-.547 2.923-.62 4.354-.078 1.537-.074 3.002.696 4.374.746 1.33 3.189 1.197 3.47-.453.249-1.462-.073-2.721-.378-4.149zM150.195 499.327c-.338 1.909-1.037 4.101-.763 6.025.112.78 1.035 1.342 1.763 1.342.861 0 1.465-.583 1.763-1.342.341-.868.276-1.912.328-2.84l.154-2.745c.104-1.833-2.918-2.288-3.245-.44zM310.706 523.054a322.959 322.959 0 0 1-32.857 29.249c-5.58 4.325-11.622 10.049-18.578 11.973-8.057 2.228-14.936-1.909-19.238-8.57-7.237-11.203-6.154-25.522-2.971-37.868 1.767-6.856 4.326-13.531 7.057-20.055 2.724-6.508 6.049-13.82 12.192-17.709 4.042-2.559 8.759.844 9.004 5.167.32 5.626-2.316 11.102-4.198 16.293-1.964 5.414-3.934 10.794-5.53 16.332-2.3 7.982-5.019 17.51-1.841 25.65.345.885.989 1.667 1.316 2.538.08.214.154.375.224.514 1.72-1.094 3.461-2.12 5.134-3.34a270.513 270.513 0 0 0 12.691-9.84c7.2-5.929 14.093-12.206 20.733-18.749.324-2.456 1.623-4.726 3.977-5.802 4.041-1.848 7.158-2.112 11.078.192 4.995 2.937 5.834 9.917 1.807 14.025z" style="fill-opacity:.1;fill-rule:nonzero" transform="scale(4.16667)"/><path d="M292.54 503.263c-2.13 7.624-11.215 9.949-17.345 6.013a7.953 7.953 0 0 1-2.023-.859 9.563 9.563 0 0 1-4.301-5.511 10.16 10.16 0 0 1 .987-8.02c1.79-3.059 5.58-5.608 9.06-6.306 4.846-.972 9.685.837 12.309 5.134 1.718 2.814 2.199 6.377 1.313 9.549zM441.679 470.134c-2.004-3.999-6.509-5.688-10.256-7.686a153.081 153.081 0 0 0-9.009-4.459 54.085 54.085 0 0 0-6.455-3.197c-7.522-3.104-18.057-5.869-26.059-3.149-7.098 2.414-10.612 10.312-6.124 16.715 2.414 3.444 6.331 5.557 9.817 7.737l1.29.805c-5.421-.773-10.812-2.039-16.173-2.927-7.606-1.26-19.254-3.794-24.503 3.734-4.696 6.735.568 13.037 7.04 15.407 5.379 1.969 10.969 3.547 16.589 5.026-6.867 2.12-13.61 4.602-20.035 7.869-8.133 4.134-21.495 11.482-19.732 22.513 2.185 13.678 17.278 8.019 24.787 2.856 7.061-4.855 13.677-10.428 19.851-16.432a197.867 197.867 0 0 0-1.896 17.554c-.235 3.789-1.004 8.481 2.046 11.402 2.789 2.67 6.765 1.993 9.444-.415 6.181-5.555 8.906-16.469 10.992-24.191.694-2.569 1.337-5.15 1.98-7.729a23.9 23.9 0 0 0 1.814 3.316c3.597 5.444 10.627 10.481 17.415 8.086 7.353-2.593 8.507-11.376 10.021-17.948l6.86-29.783-.02-.003c.079-.38.14-.774.18-1.189.024-.25.02-.486.004-.716.558-.881.725-2.014.132-3.196z" style="fill-opacity:.1;fill-rule:nonzero" transform="scale(4.16667)"/><path d="M63.147 423.217c-.929-.123-1.883-.139-2.846-.103.003-.674.003-1.343-.001-1.999-.02-4.004-6.202-4.011-6.222 0-.005.815-.003 1.65.003 2.491-1.891.146-3.764.329-5.627.756-1.943.446-1.945 3.487 0 3.932 1.927.442 3.858.622 5.812.771.156 2.312.43 4.604.923 6.753.453 1.976 3.546 1.978 4 0 .46-2.005.727-4.134.888-6.287 1.036.048 2.065.042 3.07-.091 3.99-.527 3.999-5.694 0-6.223z" style="fill-opacity:.1;fill-rule:nonzero" transform="translate(32.209 -67.16) scale(4.16667)"/><path d="M263.718 433.81c-2.753-.643-5.94-.763-9.19-.555.036-.291.067-.582.111-.872.789-5.102-6.895-5.135-6.102 0 .08.517.144 1.036.198 1.557a66.84 66.84 0 0 0-7.375 1.676c-2.332.676-1.891 4.23.575 4.247 2.394.017 4.78-.071 7.17-.079.102 1.657.255 3.31.602 4.939.396 1.86 3.366 1.861 3.763 0 .334-1.57.489-3.162.592-4.759 2.91.282 5.857.846 8.731.682 3.749-.213 4.93-5.901.925-6.836zM37.346 470.134c-2.005-3.999-6.51-5.688-10.257-7.686a153.081 153.081 0 0 0-9.009-4.459 54.146 54.146 0 0 0-6.454-3.197c-7.523-3.104-18.057-5.869-26.059-3.149-7.097 2.414-10.612 10.312-6.124 16.715 2.414 3.444 6.331 5.557 9.817 7.737l1.29.805c-5.421-.773-10.812-2.039-16.173-2.927-7.605-1.26-19.253-3.794-24.502 3.734-4.697 6.735.568 13.037 7.039 15.407 5.379 1.969 10.969 3.547 16.589 5.026-6.866 2.12-13.61 4.602-20.035 7.869-8.133 4.134-21.495 11.482-19.732 22.513 2.185 13.678 17.278 8.019 24.787 2.856 7.062-4.855 13.677-10.428 19.852-16.432a197.87 197.87 0 0 0-1.897 17.554c-.235 3.789-1.004 8.481 2.046 11.402 2.789 2.67 6.766 1.993 9.445-.415 6.181-5.555 8.905-16.469 10.991-24.191.694-2.569 1.336-5.15 1.979-7.729a23.9 23.9 0 0 0 1.814 3.316c3.597 5.444 10.627 10.481 17.416 8.086 7.352-2.593 8.506-11.376 10.02-17.948l6.86-29.783-.02-.003c.079-.38.141-.774.18-1.189.024-.25.02-.486.004-.716.558-.881.725-2.014.133-3.196z" style="fill-opacity:.1;fill-rule:nonzero" transform="scale(4.16667)"/><path d="M331.178 366.89c-1.315-14.575-19.002-16.546-30.155-19.311-1.682-.417-3.366-.829-5.047-1.25.181-.173.327-.31.414-.38 5.222-4.181 10.809-7.914 16.54-11.356 6.32-3.796 2.22-14.073-5.065-12.016-8.885 2.507-17.112 6.518-24.473 12.097-7.022 5.324-12.036 14.679-5.028 22.42 5.932 6.553 17.02 7.424 25.122 9.439.489.121 6.601 2.02 9.328 2.876-.036.096-.07.186-.108.293-1.188.953-2.159 2.411-3.273 3.483-11.565 11.13-27.337 16.757-39.476 27.276-3.295 2.855-6.527 6.123-7.534 10.527-1.266 5.535 1.625 10.752 6.296 13.647 4.099 2.541 8.764 3.45 13.372 4.562.904.217 3.525.78 5.048 1.512-2.812 3.078-7.067 5.857-9.907 7.848-5.343 3.743-11.057 6.84-17.043 9.422-4.447 1.917-5.448 8.449-3.217 12.265 2.687 4.593 7.804 5.144 12.266 3.216a97.322 97.322 0 0 0 20.453-11.947c5.406-4.115 12.201-8.975 15.258-15.208 3.818-7.783-1.273-16.265-7.947-20.455-3.811-2.392-8.405-3.036-12.719-4.164.24-.192.475-.39.719-.576 2.465-1.882 5.094-3.563 7.72-5.209 5.065-3.175 10.287-6.092 15.31-9.334 9.88-6.378 24.355-16.281 23.146-29.677zM188.719 395.063c-5.667 2.842-6.117 8.976-2.955 13.804a633.504 633.504 0 0 1 19.55 31.913c-.547 1.115-1.122 2.248-1.705 3.398-2.716 2.812-5.188 5.872-7.509 9.107-4.24 5.91-10.334 14.422-10.706 21.922-.526 10.588 10.144 12.45 18.263 12.828 8.075.376 16.523-.086 24.396-2.019 8.639-2.121 14.063-8.853 11.611-17.887-2.239-8.25-7.71-16.2-11.816-23.642a603.398 603.398 0 0 0-2.523-4.512c.999-2.207 1.985-4.42 2.928-6.651 5.01-11.856 8.879-24.363 9.322-37.309.158-4.609-3.057-9.458-8.068-9.646-14.198-.533-28.067 2.314-40.788 8.694zM178.004 419.497c.532-18.862 1.051-37.725 1.644-56.585.145-4.632.325-9.264.419-13.897.082-4.03.671-8.475-.903-12.291-3.322-8.048-14.854-9.459-22.272-11.537-16.232-4.547-32.72-8.147-49.405-10.572-8.565-1.246-17.184-2.233-25.819-2.843-4.103-.29-8.681-.949-12.386 1.257-4.106 2.445-5.395 6.882-6.779 11.169-6.041 18.708-11.755 38.539-13.374 58.209-.312 3.782 2.103 6.785 5.799 7.499 4.649.899 8.674-.162 13.378-.19.917-.005 1.574-.531 1.939-1.245 1.334-.779 2.489-1.914 3.252-3.392 2.712-5.256 4.016-10.994 7.189-16.111 3.152-5.083 6.964-9.963 11.408-13.983 8.967-8.11 19.304-11.173 30.757-6.443 22.832 9.43 30.083 37.025 19.286 57.962-1.546 2.997-.564 6.658 1.589 9.177.775 1.339 1.999 2.442 3.721 3.046 6.628 2.325 13.26 4.636 19.86 7.038 4.323 1.574 10.549-1.003 10.697-6.268zM440.74 442.452a1686.26 1686.26 0 0 1-52.518-16.304c-17.325-5.695-34.506-12.838-52.132-17.485-4.971-1.311-6.912 5.301-2.453 7.411 16.422 7.771 34.53 12.921 51.768 18.587a1686.26 1686.26 0 0 0 52.518 16.304c5.534 1.622 8.36-6.889 2.817-8.513zM388.628 398.687c-1.631.074-3.296.194-4.97.34a58.59 58.59 0 0 0-1.587-4.045c-.76-1.714-3.25-.712-3.309.896a50.317 50.317 0 0 0 .022 3.679c-2.641.339-5.265.75-7.785 1.257-2.252.453-1.509 3.587.509 3.764 2.506.22 5.099.335 7.698.376.146 1.256.309 2.498.498 3.693.644 4.054 7.22 2.417 6.272-1.729-.152-.667-.336-1.353-.514-2.035 1.063-.04 2.126-.08 3.166-.149 3.851-.254 3.913-6.223 0-6.047zM41.211 381.366c-7.429-14.619-23.627-23.592-38.588-28.83-7.859-2.752-16.503-4.039-24.665-1.83-7.397 2.002-14.031 6.349-19.922 11.134-5.972 4.852-11.256 10.625-15.646 16.944-4.213 6.065-9.249 14.035-9.605 21.608a2.57 2.57 0 0 0 .357 1.461c-.076.799.214 1.66.922 2.206 6.977 5.369 16.856 8.14 25.076 11.076 8.681 3.102 17.487 5.906 26.31 8.571a677.026 677.026 0 0 0 26.655 7.434c8.798 2.269 18 5.285 27.049 6.15a3.8 3.8 0 0 0 .892-.026c2.134.705 5.032-.353 5.438-3.286 2.411-17.413 3.968-36.395-4.273-52.612zM36.407 442.452a1685.425 1685.425 0 0 1-52.518-16.304c-17.325-5.695-34.506-12.838-52.132-17.485-4.971-1.311-6.912 5.301-2.452 7.411 16.421 7.771 34.529 12.921 51.767 18.587a1685.425 1685.425 0 0 0 52.518 16.304c5.533 1.622 8.36-6.889 2.817-8.513zM580.432 461.863c-4.765-17.611-16.095-31.96-32.94-39.333-15.708-6.875-33.799-8.084-50.225-2.958-17.95 5.602-31.451 18.081-37.725 35.862-3.856 10.927-5.149 22.887-5.411 34.415-.266 11.716-.077 24.339 2.755 35.747 2.306 9.284 15.196 6.575 15.883-2.15.683-8.666-.557-17.447-.713-26.136-.157-8.793.141-17.658 1.873-26.302 2.923-14.585 9.644-26.593 23.816-32.621 12.222-5.198 26.296-5.301 38.778-1.03 13.126 4.491 22.267 14.426 26.163 27.65 5.601 19.012 5.685 40.234 4.594 59.859-.641 11.529 17.291 11.493 17.93 0 1.15-20.696.669-42.874-4.778-63.003z" style="fill-opacity:.1;fill-rule:nonzero" transform="scale(4.16667)"/><path d="M520.356 462.208c-11.819 1.401-19.913 11.646-21.843 22.912-2.105 12.283-1.309 27.83 3.127 39.538 2.071 5.465 10.075 6.2 11.866 0 2.533-8.768 2.008-17.847 1.888-26.849-.064-4.87-.288-16.137 6.318-17.705 8.847-2.1 6.481 33.874 6.087 38.706-.394 4.832 4.402 8.965 8.964 8.965 5.179 0 8.57-4.119 8.965-8.965 1.469-18.005 3.036-59.969-25.372-56.602zM477.146 499.762c-.073 2.454.18 4.874.673 7.273.221 1.074 1.949 1.075 2.17 0 .493-2.4.746-4.818.673-7.273-.067-2.261-3.449-2.265-3.516 0zM477.322 482.56c.088 2.297.385 4.468.768 6.733.137.805 1.491.806 1.628 0 .383-2.265.679-4.435.768-6.733.079-2.036-3.243-2.04-3.164 0zM481.581 464.951c-1.152 2.024-1.408 4.626-1.534 6.917-.075 1.348 2.027 1.619 2.348.317.519-2.104 1.541-3.925 2.206-5.961.586-1.792-2.101-2.887-3.02-1.273zM491.534 449.95c-1.196.811-1.896 2.036-2.669 3.228-.776 1.196-1.511 2.388-2.184 3.646-.628 1.176.839 2.291 1.822 1.406a49.72 49.72 0 0 0 3.024-2.998c.978-1.042 1.982-2.014 2.486-3.376.504-1.36-1.297-2.707-2.479-1.906zM504.62 441.709c-2.402 1.101-5.076 2.355-7.08 4.085-.944.816.088 2.15 1.129 1.939 2.586-.522 5.286-1.95 7.619-3.17 1.91-1 .233-3.725-1.668-2.854zM484.296 492.788c.139 1.824.346 3.562.701 5.358.172.872 1.59.872 1.763 0 .354-1.795.561-3.534.7-5.358.156-2.035-3.32-2.038-3.164 0zM486.762 477.33c-.977 2.102-1.28 4.775-1.46 7.068-.09 1.153 1.5 1.166 1.865.252.816-2.044 1.707-4.513 1.757-6.734.024-1.097-1.666-1.653-2.162-.586zM490.652 463.609c-1.805 1.487-2.21 4.166-2.01 6.398.159 1.774 2.896 1.832 2.813 0-.089-1.93.691-3.434 1.195-5.235.345-1.231-1.124-1.883-1.998-1.163zM501.199 454.725c-.459-.785-1.435-.985-2.212-.58-1.992 1.038-3.387 2.711-4.071 4.843-.44 1.374 1.608 2.213 2.313.976a7.21 7.21 0 0 1 3.39-3.026c.801-.349.984-1.522.58-2.213zM467.48 423.217c-.929-.123-1.883-.139-2.846-.103.003-.674.003-1.343-.001-1.999-.02-4.004-6.202-4.011-6.222 0-.005.815-.003 1.65.003 2.491-1.891.146-3.764.329-5.627.756-1.943.446-1.945 3.487 0 3.932 1.927.442 3.858.622 5.812.771.156 2.312.43 4.604.923 6.753.453 1.976 3.546 1.978 4 0 .46-2.005.727-4.134.888-6.287 1.036.048 2.065.042 3.07-.091 3.99-.527 3.999-5.694 0-6.223zM582.337 419.497c.532-18.862 1.051-37.725 1.644-56.585.145-4.632.325-9.264.419-13.897.082-4.03.671-8.475-.903-12.291-3.322-8.048-14.854-9.459-22.272-11.537-16.232-4.547-32.72-8.147-49.405-10.572-8.565-1.246-17.184-2.233-25.819-2.843-4.103-.29-8.681-.949-12.386 1.257-4.106 2.445-5.395 6.882-6.779 11.169-6.041 18.708-11.755 38.539-13.374 58.209-.312 3.782 2.103 6.785 5.799 7.499 4.649.899 8.674-.162 13.378-.19.917-.005 1.574-.531 1.939-1.245 1.334-.779 2.489-1.914 3.252-3.392 2.712-5.256 4.016-10.994 7.189-16.111 3.152-5.083 6.964-9.963 11.408-13.983 8.967-8.11 19.304-11.173 30.757-6.443 22.832 9.43 30.083 37.025 19.286 57.962-1.546 2.997-.564 6.658 1.589 9.177.775 1.339 1.999 2.442 3.721 3.046 6.628 2.325 13.26 4.636 19.86 7.038 4.323 1.574 10.549-1.003 10.697-6.268z" style="fill-opacity:.1;fill-rule:nonzero" transform="scale(4.16667)"/><path d="M233.03 241.504c-8.063-4.374-21.804-12.256-23.513-22.333 2.285 1.763 4.768 3.319 7.047 4.865 4.732 3.209 9.457 6.43 14.2 9.623 4.015 2.702 9.366 2.692 12.614-1.299 2.829-3.476 2.753-9.922-1.298-12.613-5.034-3.344-10.086-6.659-15.13-9.985-3.247-2.141-6.593-4.549-10.185-6.256 3.356-2.929 7.438-4.625 12.349-3.992 8.891 1.146 19.1 7.07 27.904 4.133 4.488-1.497 5.192-6.885 3.02-10.427-3.529-5.76-11.607-7.373-17.691-9.068-6.078-1.692-12.488-3.128-18.843-2.586-12.22 1.041-22.238 10.242-28.093 20.494-6.009 10.52-4.379 22.793 1.683 32.859 6.488 10.773 17.855 17.113 28.576 22.939 10.156 5.518 17.447-10.882 7.36-16.354z" style="fill-opacity:.1;fill-rule:nonzero" transform="translate(0 -22.43) scale(4.16667)"/><path d="M346.483 69.622c-9.28 14.516-30.102 23.57-46.214 14.539-7.844-4.397-15.294-15.472-6.648-23.152 3.904-3.468 9.384-3.498 14.168-1.53a34.462 34.462 0 0 1-2.211-1.986c-4.359-4.325-6.021-10.945-1.748-16.01 4.108-4.869 10.472-3.767 15.31-.994.904.518 1.798 1.059 2.693 1.598-1.075-1.202-2.218-2.348-3.275-3.563-3.269-3.754-5.391-8.212-3.681-13.225 3.88-11.381 16.808-8.98 24.24-3.121 14.281 11.258 16.952 32.447 7.366 47.444zM329.132 143.155c-8.519-2.044-17.421-.129-24.929 4.176-7.199 4.126-17.584 11.98-15.167 21.348 1.875 7.27 11.281 7.642 15.116 1.975 4.21-6.22 13.101-12.022 20.927-10.064 8.176 2.045 11.506 10.679 9.493 18.285-2.955 11.166 14.348 15.932 17.289 4.766 4.543-17.25-4.764-36.174-22.729-40.486zM176.099 57.53c-4.765-17.611-16.095-31.96-32.94-39.333-15.708-6.875-33.799-8.084-50.225-2.958-17.95 5.602-31.451 18.081-37.725 35.862-3.856 10.927-5.149 22.887-5.411 34.415-.266 11.716-.077 24.339 2.755 35.747 2.306 9.284 15.196 6.575 15.883-2.15.683-8.666-.557-17.447-.713-26.136-.157-8.793.141-17.658 1.873-26.302 2.923-14.585 9.644-26.593 23.816-32.621 12.222-5.198 26.296-5.301 38.778-1.03 13.126 4.491 22.267 14.426 26.163 27.65 5.601 19.012 5.685 40.234 4.594 59.859-.641 11.529 17.291 11.493 17.93 0 1.15-20.696.669-42.874-4.778-63.003z" style="fill-opacity:.1;fill-rule:nonzero" transform="scale(4.16667)"/><path d="M116.023 57.875C104.204 59.276 96.11 69.521 94.18 80.787c-2.105 12.283-1.309 27.83 3.127 39.538 2.071 5.465 10.075 6.2 11.866 0 2.533-8.768 2.008-17.847 1.888-26.849-.064-4.87-.288-16.137 6.318-17.705 8.847-2.1 6.481 33.874 6.087 38.706-.394 4.832 4.402 8.965 8.964 8.965 5.179 0 8.57-4.119 8.965-8.965 1.469-18.005 3.036-59.969-25.372-56.602zM75.85 111.237c-.14-1.662-2.488-1.683-2.601 0-.16 2.364.627 4.755 1.845 6.752.247.406.93.252.917-.248-.059-2.158.021-4.356-.161-6.504zM72.813 95.429c-.073 2.454.18 4.874.673 7.273.221 1.074 1.949 1.075 2.17 0 .493-2.4.746-4.818.673-7.273-.067-2.261-3.449-2.265-3.516 0zM72.989 78.227c.088 2.297.385 4.468.768 6.733.137.805 1.491.806 1.628 0 .383-2.265.679-4.435.768-6.733.079-2.036-3.243-2.04-3.164 0zM77.248 60.618c-1.152 2.024-1.408 4.626-1.534 6.917-.075 1.348 2.027 1.619 2.348.317.519-2.104 1.541-3.925 2.206-5.961.586-1.792-2.101-2.887-3.02-1.273zM87.201 45.617c-1.196.811-1.896 2.036-2.669 3.228-.776 1.196-1.511 2.388-2.184 3.646-.628 1.176.839 2.291 1.822 1.406a49.72 49.72 0 0 0 3.024-2.998c.978-1.042 1.982-2.014 2.486-3.376.504-1.36-1.297-2.707-2.479-1.906zM100.287 37.376c-2.402 1.101-5.076 2.355-7.08 4.085-.944.816.088 2.15 1.129 1.939 2.586-.522 5.286-1.95 7.619-3.17 1.91-1 .233-3.725-1.668-2.854zM120.555 35.8c-3.031-.423-7.168-.334-10.037.837-1.26.515-1.127 2.32.327 2.417 1.539.103 3.089-.167 4.631-.209 1.555-.042 3.108.112 4.659.063 1.691-.053 2.26-2.851.42-3.108zM138.456 41.69c-.886-1.603-2.443-2.54-4.171-3.037-1.484-.426-3.324-.698-4.737.044-1.14.599-.95 2.15 0 2.792.907.613 2.031.765 2.956 1.39.943.638 1.752 1.439 2.729 2.034 2.063 1.255 4.336-1.208 3.223-3.223zM150.03 54.253c-.811-1.198-1.794-1.98-2.841-2.959-.974-.912-1.849-1.953-2.758-2.931-1.075-1.155-3.096.36-2.209 1.705.734 1.112 1.538 2.207 2.192 3.367.699 1.241 1.224 2.393 2.193 3.46 1.643 1.81 4.821-.577 3.423-2.642zM156.739 72.173c-.588-2.351-1.919-4.951-3.159-7.02-.49-.819-1.985-.534-1.9.514.196 2.406.58 5.243 1.466 7.496.858 2.185 4.188 1.391 3.593-.99zM156.928 83.438c-.457-1.55-2.436-1.064-2.624.355-.348 2.614-.649 5.429-.162 8.037.457 2.452 4.137 1.761 4.212-.571.084-2.576-.703-5.367-1.426-7.821zM158.222 100.17c-.502-1.329-2.208-1.331-2.712 0-.926 2.449-1.659 4.944-1.118 7.565.505 2.448 4.443 2.45 4.949 0 .541-2.621-.192-5.116-1.119-7.565zM159.325 118.824c-.247-.99-.358-2.143-1.124-2.878a1.256 1.256 0 0 0-1.74 0c-.765.735-.876 1.889-1.124 2.878-.301 1.204-.805 2.538-.311 3.743.924 2.253 3.685 2.257 4.611 0 .493-1.205-.011-2.54-.312-3.743zM83.03 117.342c-.463-1.256-2.626-1.607-2.916 0-.251 1.394-.111 2.711.17 4.087.224 1.099.526 2.27 1.462 2.961.243.18.653.097.852-.11.761-.791.849-2 .885-3.052.046-1.303.002-2.651-.453-3.886zM79.807 102.403c-.073 1.698.199 3.423.351 5.115a.457.457 0 0 0 .914 0c.152-1.691.425-3.417.352-5.115-.045-1.04-1.573-1.041-1.617 0zM79.963 88.455c.139 1.824.346 3.562.701 5.358.172.872 1.59.872 1.763 0 .354-1.795.561-3.534.7-5.358.156-2.035-3.32-2.038-3.164 0zM82.429 72.997c-.977 2.102-1.28 4.775-1.46 7.068-.09 1.153 1.5 1.166 1.865.252.816-2.044 1.707-4.513 1.757-6.734.024-1.097-1.666-1.653-2.162-.586zM86.319 59.276c-1.805 1.487-2.21 4.166-2.01 6.398.159 1.774 2.896 1.832 2.813 0-.089-1.93.691-3.434 1.195-5.235.345-1.231-1.124-1.883-1.998-1.163zM96.866 50.392c-.459-.785-1.435-.985-2.212-.58-1.992 1.038-3.387 2.711-4.071 4.843-.44 1.374 1.608 2.213 2.313.976a7.21 7.21 0 0 1 3.39-3.026c.801-.349.984-1.522.58-2.213zM109.904 45.835a29.183 29.183 0 0 0-7.645 1.873c-.952.371-.605 1.805.43 1.559 2.364-.563 4.789-.894 7.215-1.041 1.546-.095 1.511-2.553 0-2.391zM125.652 46.995c-1.693-.702-3.41-1.143-5.181-1.611-1.378-.364-2.369 1.72-1.002 2.377 1.766.85 3.475 1.682 5.342 2.286.813.263 1.727-.308 1.946-1.105.25-.911-.312-1.618-1.105-1.947zM139.588 54.906c-1.737-1.335-3.53-2.591-5.311-3.866-1.297-.928-2.884 1.146-1.704 2.209 1.631 1.467 3.247 2.95 4.927 4.363 1.893 1.59 4.075-1.181 2.088-2.706zM146.201 62.987c-.95-1.333-3.413-.592-2.827 1.192.351 1.071.648 2.162.81 3.279.172 1.183.197 2.344.576 3.491.798 2.417 4.434 2.036 4.488-.607.055-2.661-1.548-5.251-3.047-7.355zM151.375 82.481c-.29-1.362-.341-2.793-.727-4.126-.367-1.267-2.02-1.133-2.441 0-.502 1.351-.547 2.923-.62 4.354-.078 1.537-.074 3.002.696 4.374.746 1.33 3.189 1.197 3.47-.453.249-1.462-.073-2.721-.378-4.149zM150.195 94.994c-.338 1.909-1.037 4.101-.763 6.025.112.78 1.035 1.342 1.763 1.342.861 0 1.465-.583 1.763-1.342.341-.868.276-1.912.328-2.84l.154-2.745c.104-1.833-2.918-2.288-3.245-.44zM151.189 113.979c.069-1.008.333-2.117-.062-3.073-.314-.759-1.072-1.186-1.859-.756-2.287 1.248-2.598 5.308-2.739 7.597-.09 1.469 1.394 2.566 2.749 2.383 1.556-.211 2.239-1.586 2.016-3.028-.158-1.026-.176-2.088-.105-3.123zM257.45 243.706c-2.364 14.386-.408 31.107 7.374 43.675 7.8 12.6 26.028 22.98 39.201 11.388 5.792-5.096.523-13.19-6.262-12.452-7.231.787-13.34-1.474-17.334-7.686-4.327-6.732-5.986-15.507-5.973-23.399.022-14.337 5.462-32.634 20.022-38.464 11.53-4.617 25.874-.675 31.937 10.503 5.904 10.885 4.515 26.689-7.069 33.345-5.37 3.085-13.445 2.198-15.706-4.328-.923-2.664-.246-13.577 3.789-8.123 2.882 3.895 9.251 3.786 12.654.775 3.893-3.443 3.664-8.75.775-12.654-8.324-11.252-25.214-9.37-32.134 2.201-6.415 10.727-4.192 25.96 4.97 34.408 9.715 8.958 24.679 9.542 35.666 2.554 10.74-6.832 17.265-18.505 18.32-31.107 2.032-24.272-16.136-45.978-40.582-47.282-27.749-1.481-45.471 21.248-49.648 46.646zM206.17 113.497c-4.273-.922-10.236 2.018-10.657 6.872-.561 6.472-.614 12.852-.359 19.28-5.41.594-11.011 1.451-15.468 4.206-5.838 3.61-3.542 11.651 2.364 13.459 4.491 1.374 9.637.879 14.552.206.036.282.058.566.097.847.561 4.134.703 9.073 3.337 12.452 2.278 2.921 6.848 4.149 9.583.87 3.469-4.157 4.044-10.33 3.96-16.194 3.147-.345 6.292-.711 9.44-1.041 11.401-1.194 10.665-19.073-.783-17.842-3.152.339-6.3.717-9.45 1.071-.166-4.513-.192-9.027.256-13.53.479-4.811-1.759-9.554-6.872-10.656zM484.893 200.009c-.418-7.543-4.529-12.64-10.118-15.975 7.45-9.537 12.736-21.772 6.068-31.969-8.011-12.25-23.833-11.535-36.161-6.328.678-2.647.983-5.322.741-7.967-1.28-13.981-17.125-16.244-26.949-9.432-16.633 11.534-28.383 30.88-32.893 50.414-2.265 9.804-3.654 21.108-.968 30.972 3.06 11.239 12.125 17.444 22.697 20.874 18.964 6.152 41.445 6.446 59.176-3.537 9.593-5.402 19.062-15.209 18.407-27.052zM270.883 320.995l-11.388 8.089-4.881 3.466-1.118.795a142.99 142.99 0 0 1 2.378 3.196 126.524 126.524 0 0 1 4.399 6.538c3.112 4.951 5.835 10.113 8.271 15.426 3.718 8.108-3.901 16.429-12.232 12.231-8.714-4.392-16.839-9.851-24.235-16.188-6.445 8.889-13.658 17.203-21.603 24.803-5.584 5.34-15.216 1.528-15.274-6.327-.09-12.096 2.023-23.764 6.04-34.986-7.194-4.351-13.695-9.348-18.881-16.323-4.8-6.455 3.165-15.201 10.112-13.153 6.309 1.86 12.6 3.779 18.876 5.745l.013-.858c-1.103-6.921-1.188-13.893-.262-21.019.583-4.494.893-9.881 4.836-12.841 3.928-2.949 9.377-2.446 12.883.938 3.587 3.462 5.108 8.771 6.884 13.305 1.876 4.785 3.681 9.598 5.571 14.378l.004-.001c1.468-1.052 5.749-.896 7.574-1.18l15.15-2.362c10.06-1.568 15.373 10.298 6.883 16.328zM310.706 118.721a322.959 322.959 0 0 1-32.857 29.249c-5.58 4.325-11.622 10.049-18.578 11.973-8.057 2.228-14.936-1.909-19.238-8.57-7.237-11.203-6.154-25.522-2.971-37.868 1.767-6.856 4.326-13.531 7.057-20.055 2.724-6.508 6.049-13.82 12.192-17.709 4.042-2.559 8.759.844 9.004 5.167.32 5.626-2.316 11.102-4.198 16.293-1.964 5.414-3.934 10.794-5.53 16.332-2.3 7.982-5.019 17.51-1.841 25.65.345.885.989 1.667 1.316 2.538.08.214.154.375.224.515 1.72-1.095 3.461-2.121 5.134-3.341a270.513 270.513 0 0 0 12.691-9.84c7.2-5.929 14.093-12.206 20.733-18.749.324-2.456 1.623-4.726 3.977-5.802 4.041-1.848 7.158-2.112 11.078.192 4.995 2.937 5.834 9.917 1.807 14.025z" style="fill-opacity:.1;fill-rule:nonzero" transform="scale(4.16667)"/><path d="M292.54 98.93c-2.13 7.624-11.215 9.949-17.345 6.013a7.953 7.953 0 0 1-2.023-.859 9.563 9.563 0 0 1-4.301-5.511 10.16 10.16 0 0 1 .987-8.02c1.79-3.059 5.58-5.608 9.06-6.306 4.846-.972 9.685.837 12.309 5.134 1.718 2.814 2.199 6.377 1.313 9.549zM470.262 238.561c-11.907 6.645-23.56 13.281-37.46 14.559-12.565 1.154-26.171-.896-36.361-8.822-9.067-7.053-14.781-17.879-17.629-28.825-1.753-6.743-2.459-13.719-2.709-20.668-.265-7.363.819-15.242-2.589-21.986-1.394-2.758-5.682-3.248-7.73-.996-5.836 6.411-6.226 16.549-6.47 24.843-.261 8.842.85 17.936 3.301 26.447 4.174 14.495 12.535 27.69 24.812 36.606 27.623 20.058 66.938 10.898 90.887-10.723 5.715-5.159-1.592-14.04-8.052-10.435z" style="fill-opacity:.1;fill-rule:nonzero" transform="scale(4.16667)"/><path d="M193.881 267.45c-8.956 6.297-17.307 12.087-27.958 15.24a77.606 77.606 0 0 1-10.365 2.311c3.245-3.562 6.406-7.192 9.531-10.864 8.029-9.436 15.773-19.08 23.346-28.885 2.95-3.82.581-10.004-3.204-12.217-4.568-2.672-9.311-.664-12.217 3.203-6.919 9.207-13.965 18.323-21.181 27.299-3.556 4.422-7.117 8.837-10.65 13.278-.067.085-.139.171-.207.255.481-2.896.88-5.805 1.359-8.623 1.085-6.371 2.222-12.732 3.309-19.102 2.176-12.742 4.907-25.429 6.839-38.205.715-4.726-1.189-9.525-6.187-10.898-4.431-1.218-9.871 1.492-10.898 6.188-2.83 12.929-4.63 26.174-6.699 39.244-.957 6.046-1.804 12.11-2.646 18.173-1.035-3.353-2.096-6.698-3.07-10.07-3.132-10.839-5.199-22.093-8.556-32.831-1.293-4.133-5.245-6.926-9.605-6.27-3.846.578-8.156 4.228-7.591 8.597 1.532 11.841 5.331 23.798 9.284 35.044 1.903 5.411 3.9 10.786 6.238 16.026.277.621.562 1.265.86 1.925a35.72 35.72 0 0 1-5.683-5.802c-6.372-8.21-9.734-18.178-16.653-26.003-2.893-3.272-7.418-.354-7.802 3.231-1.346 12.553 4.556 25.349 12.153 35.073 8.587 10.99 20.883 17.293 34.542 19.556 25.164 4.17 55.893-2.396 74.404-21.014 6.839-6.877-2.268-19.783-10.693-13.859z" style="fill-opacity:.1;fill-rule:nonzero" transform="matrix(4.2518 0 0 4.69255 -17.622 -142.708)"/><path d="M441.679 65.801c-2.004-3.999-6.509-5.688-10.256-7.686a153.081 153.081 0 0 0-9.009-4.459 54.085 54.085 0 0 0-6.455-3.197c-7.522-3.104-18.057-5.869-26.059-3.149-7.098 2.414-10.612 10.312-6.124 16.715 2.414 3.444 6.331 5.557 9.817 7.737l1.29.805c-5.421-.773-10.812-2.039-16.173-2.927-7.606-1.26-19.254-3.794-24.503 3.734-4.696 6.735.568 13.037 7.04 15.407 5.379 1.969 10.969 3.547 16.589 5.026-6.867 2.12-13.61 4.602-20.035 7.869-8.133 4.134-21.495 11.482-19.732 22.513 2.185 13.678 17.278 8.019 24.787 2.856 7.061-4.855 13.677-10.428 19.851-16.432a197.867 197.867 0 0 0-1.896 17.554c-.235 3.789-1.004 8.481 2.046 11.402 2.789 2.67 6.765 1.993 9.444-.415 6.181-5.555 8.906-16.469 10.992-24.191.694-2.569 1.337-5.15 1.98-7.729a23.9 23.9 0 0 0 1.814 3.316c3.597 5.444 10.627 10.481 17.415 8.086 7.353-2.593 8.507-11.376 10.021-17.948l6.86-29.783-.02-.003c.079-.38.14-.774.18-1.189.024-.25.02-.486.004-.716.558-.881.725-2.014.132-3.196zM409.292 345.001c-9.251 11.951-22.512 20.602-38.125 17.704-11.706-2.174-21.903-10.012-28.292-20.002a34.456 34.456 0 0 1-4.426-6.751c-6.564-13.205-4.1-29.433 4.842-40.928 9.348-12.018 25.11-17.519 40.02-15.605 13.995 1.797 27.274 10.66 33.209 23.66 6.551 14.346 2.064 29.919-7.228 41.922z" style="fill-opacity:.1;fill-rule:nonzero" transform="scale(4.16667)"/><path d="M419.464 366.022c-3.585-2.106-7.103-2.387-10.272-1.453-11.256-5.867-21.17 12.522-19.261 22.856 2.342 12.671 18.55 18.497 28.859 11.276 10.096-7.072 12.375-25.804.674-32.679z" style="fill-opacity:.1;fill-rule:nonzero" transform="translate(46.279 60.71) scale(4.16667)"/><path d="M374.2 372.319c-1.943.165-3.701.951-5.043 2.383-.736.786-1.371 1.815-1.652 2.861l-.002.01a4.769 4.769 0 0 0-.619 4.826c.574 1.361 1.774 2.287 3.128 2.637 1.231 1 2.859 1.553 4.425 1.574 3.985.051 7.307-3.163 7.218-7.178-.086-3.878-3.453-7.455-7.455-7.113zM351.852 369.089l.093.387c.403 1.673 1.724 2.333 3.046 2.249 1.33.096 2.667-.561 3.073-2.249l.094-.387c1.268-5.266-7.582-5.298-6.306 0zM359.005 396.039c-3.665 0-3.671 5.695 0 5.695 3.664 0 3.671-5.695 0-5.695z" style="fill-opacity:.1;fill-rule:nonzero" transform="scale(4.16667)"/><path d="M103.311 374.702c-.925-2.191-2.739-3.988-5.117-4.571-1.498-.367-3.038-.456-4.548-.059-.883.233-1.72.67-2.536 1.082-1.325.668-2.456 1.939-3.185 3.389-.402.51-.77 1.038-1.009 1.601a6.506 6.506 0 0 0-.892 3.298 4.922 4.922 0 0 0 .563 2.517c.789 1.869 2.261 3.213 4.234 3.783 1.036.299 2.107.359 3.178.377.046.007.086.022.132.029.72.193 1.44.193 2.16 0a6.051 6.051 0 0 0 3.02-.965c1.44-.656 2.928-2.018 3.602-3.454a7.869 7.869 0 0 0 1.078-3.985 5.95 5.95 0 0 0-.68-3.042zM119.644 358.357a6.582 6.582 0 0 0-1.05-3.291 8.896 8.896 0 0 0-3.176-3.177c-.656-.383-1.686-.829-2.422-1.017l-2.347-.315a.967.967 0 0 0-.335.01 6.622 6.622 0 0 0-3.387.756 6.584 6.584 0 0 0-2.83 1.819 6.595 6.595 0 0 0-1.564 2.189c-2.528 3.045-2.953 7.412-.899 10.874 2.574 4.338 8.526 5.779 12.797 3.104 2.073-1.299 3.336-3.086 4.155-5.298a8.964 8.964 0 0 0 .9-2.124 6.7 6.7 0 0 0 .158-3.53zM123.215 377.2c-1.511-1.386-3.368-2.261-5.46-2.261-1.98 0-4.06.861-5.461 2.261a5.794 5.794 0 0 0-1.596 2.486 5.81 5.81 0 0 0-.665 2.975c.089 1.997.745 4.069 2.261 5.46 1.511 1.388 3.369 2.262 5.461 2.262 1.98 0 4.06-.861 5.46-2.262a5.784 5.784 0 0 0 1.597-2.485 5.82 5.82 0 0 0 .665-2.975c-.089-1.997-.745-4.069-2.262-5.461z" style="fill-opacity:.1;fill-rule:nonzero" transform="translate(18.493 48.365) scale(4.16667)"/><path d="M115.701 163.835c-1.876-7.665-11.245-10.042-17.102-6.468-2.694.775-5.023 2.832-5.858 5.631-1.436 4.809 1.389 9.995 5.546 12.4 7.867 4.551 19.791-1.852 17.414-11.563zM125.431 171.716c-1.743.414-3.188 1.592-4.04 3.128-.879.653-1.635 1.452-2.137 2.422-1.216 2.354-.904 5.311.984 7.236 3.766 3.841 10.318 2.369 12.747-2.217 2.68-5.063-1.537-11.999-7.554-10.569zM133.291 154.283c-2.437-.11-4.719 1.321-5.586 3.347a4.694 4.694 0 0 0-.488.63c-1.172 1.837-.729 4.272.752 5.803 2.799 2.896 7.528 1.929 9.494-1.398 2.059-3.484.061-8.191-4.172-8.382zM151.273 167.78c-.348-1.23-1.296-2.042-2.425-2.519-1.46-.616-3.14-.412-4.481.415-1.087.67-1.915 1.715-2.363 2.907a5.5 5.5 0 0 0-.964 2.899c-.095 2.337 2.306 3.72 4.384 3.696 2.869-.033 5.568-2.273 5.953-5.138.103-.766.111-1.5-.104-2.26z" style="fill-opacity:.1;fill-rule:nonzero" transform="translate(-116.647 -239.073) scale(5.35967)"/><path d="M335.216 46.781c-2.309-3.672-8.029-4.095-10.723-.655a6.013 6.013 0 0 0-.681 1.12c-1.098 1.335-1.665 3.141-1.414 4.894.601 4.199 5.55 6.566 9.346 4.994 3.906-1.618 5.78-6.683 3.472-10.353z" style="fill-opacity:.1;fill-rule:nonzero" transform="translate(168.533 -21.258) scale(4.16667)"/><path d="M254.568 267.444a99.025 99.025 0 0 0-6.392.087l.014-1.234c.035-4.253-6.645-4.259-6.61 0l.018 1.623c-2.395.174-4.782.366-7.141.526-2.982.203-2.988 4.438 0 4.641 2.414.164 4.859.362 7.312.539.134 2.515.365 5.023.777 7.468.39 2.316 4.288 2.317 4.678 0 .392-2.325.618-4.708.755-7.099 2.209.095 4.411.143 6.589.094 4.274-.096 4.281-6.549 0-6.645z" style="fill-opacity:.1;fill-rule:nonzero" transform="translate(-24.108 -17.2) scale(4.16667)"/><path d="M63.147 18.884c-.929-.123-1.883-.139-2.846-.103.003-.674.003-1.343-.001-1.999-.02-4.004-6.202-4.011-6.222 0-.005.815-.003 1.65.003 2.491-1.891.146-3.764.329-5.627.756-1.943.446-1.945 3.487 0 3.932 1.927.442 3.858.622 5.812.771.156 2.312.43 4.604.923 6.753.453 1.976 3.546 1.978 4 0 .46-2.005.727-4.134.888-6.287 1.036.048 2.065.042 3.07-.091 3.99-.527 3.999-5.694 0-6.223z" style="fill-opacity:.1;fill-rule:nonzero" transform="translate(20.122 -36.381) scale(4.16667)"/><path d="M263.718 29.477c-2.753-.643-5.94-.763-9.19-.555.036-.291.067-.582.111-.872.789-5.102-6.895-5.135-6.102 0 .08.517.144 1.036.198 1.557a66.84 66.84 0 0 0-7.375 1.676c-2.332.676-1.891 4.23.575 4.247 2.394.017 4.78-.071 7.17-.079.102 1.657.255 3.31.602 4.939.396 1.86 3.366 1.861 3.763 0 .334-1.57.489-3.162.592-4.759 2.91.282 5.857.846 8.731.682 3.749-.213 4.93-5.901.925-6.836z" style="fill-opacity:.1;fill-rule:nonzero" transform="scale(4.16667)"/><path d="M34.049 294.652c-1.942.41-3.866.718-5.789.958.028-1.092.057-2.178.101-3.244.17-4.117-6.57-4.124-6.399 0 .052 1.257.083 2.539.117 3.831-1.198.087-2.403.163-3.62.238-1.974.119-2.721 3.375-.5 3.694 1.412.203 2.84.348 4.277.446.142 2.71.408 5.405 1.01 7.961.446 1.893 3.385 1.894 3.831 0 .59-2.509.856-5.15 1.001-7.808 2.265-.025 4.525-.136 6.751-.309 4.233-.33 3.427-6.655-.78-5.767z" style="fill-opacity:.1;fill-rule:nonzero" transform="matrix(7.8173 0 0 7.8173 16.534 -1119.53)"/><path d="M46.761 350.436c-3.868 0-3.874 6.012 0 6.012 3.869 0 3.875-6.012 0-6.012zM80.559 200.009c-.418-7.543-4.529-12.64-10.118-15.975 7.45-9.537 12.736-21.772 6.068-31.969-8.011-12.25-23.833-11.535-36.161-6.328.678-2.647.984-5.322.741-7.967-1.279-13.981-17.125-16.244-26.949-9.432-16.632 11.534-28.381 30.88-32.892 50.414-2.264 9.804-3.654 21.108-.968 30.972 3.06 11.239 12.126 17.444 22.697 20.874 18.963 6.152 41.444 6.446 59.175-3.537 9.593-5.402 19.063-15.209 18.407-27.052z" style="fill-opacity:.1;fill-rule:nonzero" transform="scale(4.16667)"/><path d="M65.929 238.561c-11.908 6.645-23.561 13.281-37.461 14.559-12.564 1.154-26.17-.896-36.359-8.822-9.068-7.053-14.782-17.879-17.629-28.825-1.754-6.743-2.46-13.719-2.71-20.668-.265-7.363.819-15.242-2.589-21.986-1.394-2.758-5.681-3.248-7.73-.996-5.836 6.411-6.226 16.549-6.47 24.843-.261 8.842.85 17.936 3.301 26.447 4.175 14.495 12.535 27.69 24.812 36.606 27.623 20.058 66.937 10.898 90.887-10.723 5.714-5.159-1.593-14.04-8.052-10.435zM37.346 65.801c-2.005-3.999-6.51-5.688-10.257-7.686a153.081 153.081 0 0 0-9.009-4.459 54.146 54.146 0 0 0-6.454-3.197C4.103 47.355-6.431 44.59-14.433 47.31c-7.097 2.414-10.612 10.312-6.124 16.715 2.414 3.444 6.331 5.557 9.817 7.737l1.29.805c-5.421-.773-10.812-2.039-16.173-2.927-7.605-1.26-19.253-3.794-24.502 3.734-4.697 6.735.568 13.037 7.039 15.407 5.379 1.969 10.969 3.547 16.589 5.026-6.866 2.12-13.61 4.602-20.035 7.869-8.133 4.134-21.495 11.482-19.732 22.513 2.185 13.678 17.278 8.019 24.787 2.856 7.062-4.855 13.677-10.428 19.852-16.432a197.87 197.87 0 0 0-1.897 17.554c-.235 3.789-1.004 8.481 2.046 11.402 2.789 2.67 6.766 1.993 9.445-.415 6.181-5.555 8.905-16.469 10.991-24.191.694-2.569 1.336-5.15 1.979-7.729a23.9 23.9 0 0 0 1.814 3.316c3.597 5.444 10.627 10.481 17.416 8.086 7.352-2.593 8.506-11.376 10.02-17.948l6.86-29.783-.02-.003c.079-.38.141-.774.18-1.189.024-.25.02-.486.004-.716.558-.881.725-2.014.133-3.196z" style="fill-opacity:.1;fill-rule:nonzero" transform="scale(4.16667)"/><path d="M-20.969 353.62a30.214 30.214 0 0 1-9.245.287c-.073.086-.163.16-.245.239.445.066.892.126 1.341.17 2.768.269 5.501-.001 8.149-.696zm25.927-8.619c-9.25 11.951-22.511 20.602-38.123 17.704-11.707-2.174-21.904-10.012-28.293-20.002a34.456 34.456 0 0 1-4.426-6.751c-6.564-13.205-4.1-29.433 4.842-40.928 9.348-12.018 25.11-17.519 40.021-15.605 13.994 1.797 27.272 10.66 33.208 23.66 6.55 14.346 2.063 29.919-7.229 41.922z" style="fill-opacity:.1;fill-rule:nonzero" transform="translate(-19.19 -34.153) scale(4.16667)"/><path d="M24.879 351.019c-.529 1.452-1.65 2.421-3.233 2.458-1.617.039-3.072-1.261-3.283-2.831-.206-1.532.701-3.172 2.269-3.56 1.056-.261 2.219-.059 3.011.713.059.038.123.074.177.116.864.667 1.458 2.005 1.059 3.104zM37.69 324.722a7.146 7.146 0 0 0-1.039-2.441c-1.891-2.814-5.483-4.252-8.727-3.025-3.173 1.2-5.218 4.295-5.266 7.672-.108 7.703 10.836 10.953 14.587 4.015 1.062-1.964 1.186-4.26.445-6.221zM331.178-37.443c-1.315-14.575-19.002-16.546-30.155-19.311-1.682-.417-3.366-.829-5.047-1.25.181-.173.327-.31.414-.38 5.222-4.181 10.809-7.914 16.54-11.356 6.32-3.796 2.22-14.073-5.065-12.016-8.885 2.507-17.112 6.518-24.473 12.097-7.022 5.324-12.036 14.679-5.028 22.42 5.932 6.553 17.02 7.424 25.122 9.439.489.121 6.601 2.02 9.328 2.876-.036.096-.07.186-.108.293-1.188.953-2.159 2.411-3.273 3.483-11.565 11.13-27.337 16.757-39.476 27.276-3.295 2.855-6.527 6.123-7.534 10.527-1.266 5.535 1.625 10.752 6.296 13.647 4.099 2.541 8.764 3.45 13.372 4.562.904.217 3.525.78 5.048 1.512-2.812 3.078-7.067 5.857-9.907 7.848-5.343 3.743-11.057 6.84-17.043 9.422-4.447 1.917-5.448 8.449-3.217 12.265 2.687 4.593 7.804 5.144 12.266 3.216a97.322 97.322 0 0 0 20.453-11.947c5.406-4.115 12.201-8.975 15.258-15.208 3.818-7.783-1.273-16.265-7.947-20.455-3.811-2.392-8.405-3.036-12.719-4.164.24-.192.475-.39.719-.576 2.465-1.882 5.094-3.563 7.72-5.209 5.065-3.175 10.287-6.092 15.31-9.334 9.88-6.378 24.355-16.281 23.146-29.677zM178.004 15.164c.532-18.862 1.051-37.725 1.644-56.585.145-4.632.325-9.264.419-13.897.082-4.03.671-8.475-.903-12.291-3.322-8.048-14.854-9.459-22.272-11.537-16.232-4.547-32.72-8.147-49.405-10.572-8.565-1.246-17.184-2.233-25.819-2.843-4.103-.29-8.681-.949-12.386 1.257-4.106 2.445-5.395 6.882-6.779 11.169-6.041 18.708-11.755 38.539-13.374 58.209-.312 3.782 2.103 6.785 5.799 7.499 4.649.899 8.674-.162 13.378-.19.917-.005 1.574-.531 1.939-1.245 1.334-.779 2.489-1.914 3.252-3.392 2.712-5.256 4.016-10.994 7.189-16.111 3.152-5.083 6.964-9.963 11.408-13.983 8.967-8.11 19.304-11.173 30.757-6.443 22.832 9.43 30.083 37.025 19.286 57.962-1.546 2.997-.564 6.658 1.589 9.177.775 1.339 1.999 2.442 3.721 3.046 6.628 2.325 13.26 4.636 19.86 7.038 4.323 1.574 10.549-1.003 10.697-6.268zM445.545-22.967c-7.429-14.619-23.628-23.592-38.588-28.83-7.861-2.752-16.504-4.039-24.666-1.83-7.397 2.002-14.031 6.349-19.922 11.134-5.972 4.852-11.256 10.625-15.646 16.944-4.213 6.065-9.249 14.035-9.605 21.608a2.554 2.554 0 0 0 .357 1.461c-.076.799.214 1.66.922 2.206 6.977 5.369 16.856 8.14 25.076 11.076 8.681 3.102 17.487 5.906 26.31 8.571a677.508 677.508 0 0 0 26.655 7.434c8.799 2.269 18.001 5.285 27.05 6.15.318.03.611.013.891-.026 2.135.705 5.033-.353 5.439-3.286 2.41-17.413 3.968-36.395-4.273-52.612zM41.211-22.967c-7.429-14.619-23.627-23.592-38.588-28.83-7.859-2.752-16.503-4.039-24.665-1.83-7.397 2.002-14.031 6.349-19.922 11.134-5.972 4.852-11.256 10.625-15.646 16.944-4.213 6.065-9.249 14.035-9.605 21.608a2.57 2.57 0 0 0 .357 1.461c-.076.799.214 1.66.922 2.206 6.977 5.369 16.856 8.14 25.076 11.076 8.681 3.102 17.487 5.906 26.31 8.571a677.026 677.026 0 0 0 26.655 7.434c8.798 2.269 18 5.285 27.049 6.15a3.8 3.8 0 0 0 .892-.026c2.134.705 5.032-.353 5.438-3.286 2.411-17.413 3.968-36.395-4.273-52.612zM36.407 38.119a1685.425 1685.425 0 0 1-52.518-16.304C-33.436 16.12-50.617 8.977-68.243 4.33c-4.971-1.311-6.912 5.301-2.452 7.411 16.421 7.771 34.529 12.921 51.767 18.587A1685.425 1685.425 0 0 0 33.59 46.632c5.533 1.622 8.36-6.889 2.817-8.513zM580.432 57.53c-4.765-17.611-16.095-31.96-32.94-39.333-15.708-6.875-33.799-8.084-50.225-2.958-17.95 5.602-31.451 18.081-37.725 35.862-3.856 10.927-5.149 22.887-5.411 34.415-.266 11.716-.077 24.339 2.755 35.747 2.306 9.284 15.196 6.575 15.883-2.15.683-8.666-.557-17.447-.713-26.136-.157-8.793.141-17.658 1.873-26.302 2.923-14.585 9.644-26.593 23.816-32.621 12.222-5.198 26.296-5.301 38.778-1.03 13.126 4.491 22.267 14.426 26.163 27.65 5.601 19.012 5.685 40.234 4.594 59.859-.641 11.529 17.291 11.493 17.93 0 1.15-20.696.669-42.874-4.778-63.003z" style="fill-opacity:.1;fill-rule:nonzero" transform="scale(4.16667)"/><path d="M480.183 111.237c-.14-1.662-2.488-1.683-2.601 0-.16 2.364.627 4.755 1.845 6.752.247.406.93.252.917-.248-.059-2.158.021-4.356-.161-6.504zM477.146 95.429c-.073 2.454.18 4.874.673 7.273.221 1.074 1.949 1.075 2.17 0 .493-2.4.746-4.818.673-7.273-.067-2.261-3.449-2.265-3.516 0zM477.322 78.227c.088 2.297.385 4.468.768 6.733.137.805 1.491.806 1.628 0 .383-2.265.679-4.435.768-6.733.079-2.036-3.243-2.04-3.164 0zM481.581 60.618c-1.152 2.024-1.408 4.626-1.534 6.917-.075 1.348 2.027 1.619 2.348.317.519-2.104 1.541-3.925 2.206-5.961.586-1.792-2.101-2.887-3.02-1.273zM491.534 45.617c-1.196.811-1.896 2.036-2.669 3.228-.776 1.196-1.511 2.388-2.184 3.646-.628 1.176.839 2.291 1.822 1.406a49.72 49.72 0 0 0 3.024-2.998c.978-1.042 1.982-2.014 2.486-3.376.504-1.36-1.297-2.707-2.479-1.906zM504.62 37.376c-2.402 1.101-5.076 2.355-7.08 4.085-.944.816.088 2.15 1.129 1.939 2.586-.522 5.286-1.95 7.619-3.17 1.91-1 .233-3.725-1.668-2.854zM487.363 117.342c-.463-1.256-2.626-1.607-2.916 0-.251 1.394-.111 2.711.17 4.087.224 1.099.526 2.27 1.462 2.961.243.18.653.097.852-.11.761-.791.849-2 .885-3.052.046-1.303.002-2.651-.453-3.886zM484.14 102.403c-.073 1.698.199 3.423.351 5.115a.457.457 0 0 0 .914 0c.152-1.691.425-3.417.352-5.115-.045-1.04-1.573-1.041-1.617 0zM484.296 88.455c.139 1.824.346 3.562.701 5.358.172.872 1.59.872 1.763 0 .354-1.795.561-3.534.7-5.358.156-2.035-3.32-2.038-3.164 0zM486.762 72.997c-.977 2.102-1.28 4.775-1.46 7.068-.09 1.153 1.5 1.166 1.865.252.816-2.044 1.707-4.513 1.757-6.734.024-1.097-1.666-1.653-2.162-.586zM490.652 59.276c-1.805 1.487-2.21 4.166-2.01 6.398.159 1.774 2.896 1.832 2.813 0-.089-1.93.691-3.434 1.195-5.235.345-1.231-1.124-1.883-1.998-1.163zM501.199 50.392c-.459-.785-1.435-.985-2.212-.58-1.992 1.038-3.387 2.711-4.071 4.843-.44 1.374 1.608 2.213 2.313.976a7.21 7.21 0 0 1 3.39-3.026c.801-.349.984-1.522.58-2.213zM507.644 374.702c-.925-2.191-2.739-3.988-5.117-4.571-1.498-.367-3.038-.456-4.548-.059-.883.233-1.72.67-2.536 1.082-1.325.668-2.456 1.939-3.185 3.389-.402.51-.77 1.038-1.009 1.601a6.506 6.506 0 0 0-.892 3.298 4.922 4.922 0 0 0 .563 2.517c.789 1.869 2.261 3.213 4.234 3.783 1.036.299 2.107.359 3.178.377.046.007.086.022.132.029.72.193 1.44.193 2.16 0a6.051 6.051 0 0 0 3.02-.965c1.44-.656 2.928-2.018 3.602-3.454a7.869 7.869 0 0 0 1.078-3.985 5.95 5.95 0 0 0-.68-3.042zM520.034 163.835c-1.876-7.665-11.245-10.042-17.102-6.468-2.694.775-5.023 2.832-5.858 5.631-1.436 4.809 1.389 9.995 5.546 12.4 7.867 4.551 19.791-1.852 17.414-11.563zM536.374 246.889c-.641-5.668-9.614-5.733-8.965 0 .546 4.818.67 9.614.31 14.404-5.809-3.535-11.65-7.015-17.558-10.384-2.978-1.698-6.697.461-6.745 3.871l-.165 11.527c-.011.777.162 3.715.204 5.986a145.005 145.005 0 0 0-15.866-8.584c-3.267-1.511-6.365.339-6.744 3.871a196.896 196.896 0 0 1-1.77 12.515l-13.67-7.915c-2.917-1.688-6.613.465-6.644 3.814-.063 6.709.201 13.505 1.433 20.113.516 2.768 4.958 2.699 5.526 0 .867-4.122 1.347-8.344 1.607-12.572l12.714 7.429c2.353 1.375 5.964.188 6.552-2.666a212.235 212.235 0 0 0 2.374-13.94 144.908 144.908 0 0 1 14.314 8.484c1.229.828 3.3.854 4.525 0 3.526-2.455 4.209-5.675 4.314-9.811.088-3.499.133-7 .171-10.502 5.621 3.286 11.212 6.62 16.741 10.059 2.269 1.411 6.103.17 6.585-2.679 1.297-7.677 1.634-15.276.757-23.02z" style="fill-opacity:.1;fill-rule:nonzero" transform="scale(4.16667)"/><path d="M467.48 18.884c-.929-.123-1.883-.139-2.846-.103.003-.674.003-1.343-.001-1.999-.02-4.004-6.202-4.011-6.222 0-.005.815-.003 1.65.003 2.491-1.891.146-3.764.329-5.627.756-1.943.446-1.945 3.487 0 3.932 1.927.442 3.858.622 5.812.771.156 2.312.43 4.604.923 6.753.453 1.976 3.546 1.978 4 0 .46-2.005.727-4.134.888-6.287 1.036.048 2.065.042 3.07-.091 3.99-.527 3.999-5.694 0-6.223z" style="fill-opacity:.1;fill-rule:nonzero" transform="translate(25.85 -21.443) scale(4.16667)"/><path d="M438.382 294.652c-1.942.41-3.866.718-5.789.958.028-1.092.057-2.178.101-3.244.17-4.117-6.57-4.124-6.399 0 .052 1.257.083 2.539.117 3.831-1.198.087-2.403.163-3.62.238-1.974.119-2.721 3.375-.5 3.694 1.412.203 2.84.348 4.277.446.142 2.71.408 5.405 1.01 7.961.446 1.893 3.385 1.894 3.831 0 .59-2.509.856-5.15 1.001-7.808 2.265-.025 4.525-.136 6.751-.309 4.233-.33 3.427-6.655-.78-5.767zM451.094 350.436c-3.868 0-3.874 6.012 0 6.012 3.869 0 3.875-6.012 0-6.012zM429.212 351.019c-.529 1.452-1.65 2.421-3.233 2.458-1.617.039-3.072-1.261-3.283-2.831-.206-1.532.701-3.172 2.269-3.56 1.056-.261 2.219-.059 3.011.713.059.038.123.074.177.116.864.667 1.458 2.005 1.059 3.104zM442.023 324.722a7.146 7.146 0 0 0-1.039-2.441c-1.891-2.814-5.483-4.252-8.727-3.025-3.173 1.2-5.218 4.295-5.266 7.672-.108 7.703 10.836 10.953 14.587 4.015 1.062-1.964 1.186-4.26.445-6.221zM440.74 38.119a1686.32 1686.32 0 0 1-52.519-16.304C370.896 16.12 353.715 8.977 336.089 4.33c-4.97-1.311-6.912 5.301-2.452 7.411 16.421 7.771 34.529 12.921 51.767 18.587a1685.484 1685.484 0 0 0 52.519 16.304c5.533 1.622 8.36-6.889 2.817-8.513z" style="fill-opacity:.1;fill-rule:nonzero" transform="scale(4.16667)"/><path d="M188.719-9.27c-5.667 2.843-6.117 8.977-2.955 13.805a632.608 632.608 0 0 1 19.55 31.913c-.547 1.115-1.122 2.248-1.705 3.398-2.716 2.811-5.188 5.872-7.509 9.107-4.24 5.91-10.334 14.422-10.706 21.922-.526 10.588 10.144 12.45 18.263 12.828 8.075.376 16.523-.086 24.396-2.019 8.639-2.121 14.063-8.853 11.611-17.888-2.239-8.249-7.71-16.2-11.816-23.641a584.088 584.088 0 0 0-2.523-4.512c.999-2.207 1.985-4.42 2.928-6.651 5.01-11.857 8.879-24.363 9.322-37.31.158-4.609-3.057-9.458-8.068-9.646-14.198-.532-28.067 2.314-40.788 8.694z" style="fill-opacity:.1;fill-rule:nonzero" transform="translate(-4.35 -36.092) scale(4.16667)"/></svg>