<svg id="a8ee084b-65c5-4112-b6c1-5e13df5ae175" data-name="Layer 1" xmlns="http://www.w3.org/2000/svg" viewBox="0 0 341.78 214.74"><rect x="139.55" y="61.69" width="13.93" height="143.66" fill="#fff"/><rect x="156.97" y="43.49" width="13.93" height="88.85" fill="#fff"/><rect x="122.13" y="20.63" width="13.93" height="86.85" fill="#fff"/><rect x="104.71" y="82.09" width="13.93" height="90.99" fill="#fff"/><rect x="87.29" y="38.71" width="13.94" height="106.63" fill="#fff"/><rect x="69.88" y="61.69" width="13.94" height="51.1" fill="#fff"/><rect x="52.46" y="20.63" width="13.94" height="161.37" fill="#fff"/><rect x="35.04" y="61.69" width="13.93" height="73.33" fill="#fff"/><rect x="17.62" y="90.5" width="13.94" height="59.57" fill="#fff"/><path d="M178.51,38.75V20.65h3.18v18.1Z" fill="#fff"/><path d="M194.74,38.75l-6.27-12v12h-3.18V20.65h3.42l6.21,12.17V20.65h3.18v18.1Z" fill="#fff"/><path d="M202.15,38.75V20.65h3.18v18.1Z" fill="#fff"/><path d="M217,23.68V38.75h-3.18V23.68h-4.9v-3h13v3Z" fill="#fff"/><path d="M225.11,38.75V20.65h3.18v18.1Z" fill="#fff"/><path d="M243.52,38.75l-1.34-3.84h-6.87L234,38.75h-3.39l6.33-18.1h3.69l6.3,18.1Zm-4.76-14-2.45,7.14h4.88Z" fill="#fff"/><path d="M255,23.68V38.75h-3.18V23.68h-4.9v-3h13v3Z" fill="#fff"/><path d="M263.17,38.75V20.65h3.18v18.1Z" fill="#fff"/><path d="M278.22,38.75h-3.73l-6.14-18.1h3.39l4.63,14,4.63-14h3.36Z" fill="#fff"/><path d="M286.54,38.75V20.65h11.39v3h-8.21v4.57h7.72v3h-7.72v4.45h8.21v3Z" fill="#fff"/><path d="M191,61.71V49.32l-3.6,7.94h-2.09l-3.6-7.91V61.71h-3.18V43.6h3.63l4.24,8.93,4.18-8.93h3.6V61.71Z" fill="#fff"/><path d="M207.27,43.6h3.18V57.41a3.06,3.06,0,0,1-.48,1.72,10.17,10.17,0,0,1-2.21,2.18,3.72,3.72,0,0,1-1.85.55h-3.85a3.7,3.7,0,0,1-1.87-.55A10.4,10.4,0,0,1,198,59.13a3,3,0,0,1-.49-1.72V43.6h3.18V57.35s0,.12,0,.15A4.48,4.48,0,0,0,202,58.8a.44.44,0,0,0,.16,0h3.6a.33.33,0,0,0,.15,0,4.81,4.81,0,0,0,1.3-1.3.3.3,0,0,0,0-.12Z" fill="#fff"/><path d="M227.47,59.13a10,10,0,0,1-2.21,2.18,4.17,4.17,0,0,1-1.88.55h-4.81c-1.7,0-3.06-1.45-3.85-2.51a7.13,7.13,0,0,1-.54-.94l3-1a7.28,7.28,0,0,0,1.34,1.39.52.52,0,0,0,.21,0h4.51a.44.44,0,0,0,.18,0c.46-.24,1.36-1.15,1.36-1.39V55.59a.54.54,0,0,0-.36-.51L216.54,53a3.36,3.36,0,0,1-2.36-3.3V47.93a3.18,3.18,0,0,1,.45-1.73A10.33,10.33,0,0,1,216.87,44a4.18,4.18,0,0,1,1.88-.54h4.48c1.73,0,3.06,1.48,3.85,2.51a5.8,5.8,0,0,1,.6,1.06l-3.06.88a5.93,5.93,0,0,0-1.33-1.39s0,0-.18,0H218.9a.44.44,0,0,0-.18,0,3.6,3.6,0,0,0-1.36,1.39v1.6a.52.52,0,0,0,.33.52l7.9,2.15A3.37,3.37,0,0,1,228,55.5v1.91A3,3,0,0,1,227.47,59.13Z" fill="#fff"/><path d="M231.86,61.71V43.6H235V61.71Z" fill="#fff"/><path d="M248.76,61.71l-6.18-7v7H239.4V43.6h3.18v7l6.15-7h4.11l-8,9,8.08,9.15Z" fill="#fff"/><path d="M266,51.15V63.3a2.71,2.71,0,0,1-.42,1.56,7.62,7.62,0,0,1-1.33,1.42,3.23,3.23,0,0,1-1.83.57h-3a3.13,3.13,0,0,1-1.8-.57,7.13,7.13,0,0,1-1.75-2.1l1.54-.5,0,.06a4.46,4.46,0,0,0,1.39,1.45.91.91,0,0,0,.5.12h3.08a1,1,0,0,0,.53-.12,4.58,4.58,0,0,0,1.42-1.45,1.2,1.2,0,0,0,.06-.5V60.19a9.19,9.19,0,0,1-1.15,1.07,2.93,2.93,0,0,1-1.48.62h-2.49a3.3,3.3,0,0,1-1.83-.56,9.17,9.17,0,0,1-1.33-1.42,2.83,2.83,0,0,1-.41-1.57V52.42a2.81,2.81,0,0,1,.41-1.57,8.74,8.74,0,0,1,1.33-1.42,3.3,3.3,0,0,1,1.83-.56h2.49a2.85,2.85,0,0,1,1.48.62,11.34,11.34,0,0,1,1.18,1.09l.18-1.56h1.59Zm-1.6,1.3-.06-.15a8.21,8.21,0,0,0-2.22-1.8,1,1,0,0,0-.44-.09h-2.37a1.12,1.12,0,0,0-.53.11A4.49,4.49,0,0,0,257.4,52a1.2,1.2,0,0,0-.09.51v5.79a1.12,1.12,0,0,0,.09.5,4.3,4.3,0,0,0,1.39,1.45,1,1,0,0,0,.53.12h2.37a1,1,0,0,0,.44-.09,8.21,8.21,0,0,0,2.22-1.8l.06-.15Z" fill="#fff"/><path d="M281.26,61.73l-.2-1.45a6.66,6.66,0,0,1-1,1.13,3.15,3.15,0,0,1-1.51.47H274a3.33,3.33,0,0,1-1.54-.47,10.49,10.49,0,0,1-2-2A2.61,2.61,0,0,1,270,58V47.86a2.66,2.66,0,0,1,.38-1.44,10.11,10.11,0,0,1,2-2.07,3.23,3.23,0,0,1,1.54-.48h4.55a3.17,3.17,0,0,1,1.54.48,8.41,8.41,0,0,1,1.83,1.89,5.94,5.94,0,0,1,.68,1.12l-1.71.5a5.81,5.81,0,0,0-2-2.24.87.87,0,0,0-.42-.09h-4.34a.75.75,0,0,0-.39.09,6.08,6.08,0,0,0-1.86,1.86,1.08,1.08,0,0,0-.09.44v10a.82.82,0,0,0,.09.38,6.08,6.08,0,0,0,1.86,1.86.87.87,0,0,0,.42.09h4.25a.75.75,0,0,0,.39-.09,6.28,6.28,0,0,0,1.89-1.89.79.79,0,0,0,.09-.38V53.57h-4.05V51.94h5.76v6.3a26.41,26.41,0,0,0,.45,3.49Z" fill="#fff"/><path d="M290.19,50.41a.91.91,0,0,0-.41.09,6.84,6.84,0,0,0-2.22,1.77v9.46H286V51.12l-.17-2.1h1.59l.18,1.5a9.31,9.31,0,0,1,1.12-1,2.75,2.75,0,0,1,1.45-.62h1.48a3.3,3.3,0,0,1,1.83.56,7.94,7.94,0,0,1,1.33,1.42l0,.06a12,12,0,0,1,1.45-1.42,2.85,2.85,0,0,1,1.48-.62h1.39a3.3,3.3,0,0,1,1.83.56,7.94,7.94,0,0,1,1.33,1.42,2.74,2.74,0,0,1,.42,1.57v9.31h-1.6V52.48A1.2,1.2,0,0,0,301,52a4.26,4.26,0,0,0-1.39-1.47,1,1,0,0,0-.53-.09h-1.27a1,1,0,0,0-.44.09,7,7,0,0,0-2.19,1.74v9.49h-1.57V52.48a1.2,1.2,0,0,0-.09-.51,4.35,4.35,0,0,0-1.42-1.47,1,1,0,0,0-.53-.09Z" fill="#fff"/><path d="M317.13,52.42v5.91a2.78,2.78,0,0,1-.45,1.57,11.47,11.47,0,0,1-1.33,1.42,3.06,3.06,0,0,1-1.8.56h-2.31a2.78,2.78,0,0,1-1.48-.62,8.22,8.22,0,0,1-1.15-1.1l-.18,1.57h-1.59l.17-2.1V44h1.6v6.56a10.46,10.46,0,0,1,1.15-1.06,2.71,2.71,0,0,1,1.48-.62h2.31a3.06,3.06,0,0,1,1.8.56,6.29,6.29,0,0,1,1.33,1.42A2.69,2.69,0,0,1,317.13,52.42Zm-1.6.06a1.2,1.2,0,0,0-.09-.51,4.39,4.39,0,0,0-1.39-1.45,1.09,1.09,0,0,0-.53-.11h-2.19a.91.91,0,0,0-.41.09,6.39,6.39,0,0,0-2.25,1.8,1.26,1.26,0,0,0-.06.15V58.3a1.26,1.26,0,0,0,.06.15,6.39,6.39,0,0,0,2.25,1.8.91.91,0,0,0,.41.09h2.19a1,1,0,0,0,.53-.12,4.2,4.2,0,0,0,1.39-1.45,1.12,1.12,0,0,0,.09-.5Z" fill="#fff"/><path d="M330.87,61.73v-8h-8.36v8h-1.72V44h1.72v8h8.36V44h1.72V61.73Z" fill="#fff"/></svg>