<svg id="Layer_1" data-name="Layer 1" xmlns="http://www.w3.org/2000/svg" viewBox="0 0 446.36 181.7"><title>Byon</title><polygon points="427.62 25.07 427.6 34.36 433.32 34.36 433.31 25.05 441.53 13.74 435.1 13.74 430.92 19.96 427.03 13.74 420.36 13.74 427.62 25.07" style="fill:#fff"/><polygon points="427.62 25.07 427.6 34.36 433.32 34.36 433.31 25.05 441.53 13.74 435.1 13.74 430.92 19.96 427.03 13.74 420.36 13.74 427.62 25.07" style="fill:#fff"/><polygon points="377.79 13.08 371.74 13.08 369.4 18.66 368.74 20.21 368.13 18.63 366 13.08 359.75 13.08 368.71 33.76 377.79 13.08" style="fill:#fff"/><path d="M386.88,34.68q.94.09,1.47.09a9.87,9.87,0,0,0,7.33-3.14,10.2,10.2,0,0,0,3.11-7.49,10,10,0,0,0-3.12-7.5,10.45,10.45,0,0,0-7.7-3.07,10.57,10.57,0,0,0-4.46,1,10.12,10.12,0,0,0-3.57,2.69,11.61,11.61,0,0,0-2.45,7.67v17.4h6.76V25.23c0-4.13,2.08-5,3.81-5a3.83,3.83,0,0,1,2.72,1.09A3.58,3.58,0,0,1,391.91,24a3.72,3.72,0,0,1-1.09,2.69,3.52,3.52,0,0,1-2.65,1.15,3.32,3.32,0,0,1-1.29-.27h0a4.57,4.57,0,0,1-.71-.47v7.52c.25,0,.5.06.71.07Z" transform="translate(-0.35 -0.37)" style="fill:#fff"/><path d="M409.64,13.71v7.51a6.21,6.21,0,0,1,.67-.4h0a3.41,3.41,0,0,1,1.36-.31,3.5,3.5,0,0,1,2.62,1.11,3.78,3.78,0,0,1,1.07,2.7A3.64,3.64,0,0,1,414.23,27a3.78,3.78,0,0,1-2.73,1.09c-1.72,0-3.78-.86-3.78-5V6H401V23.39a11.69,11.69,0,0,0,2.44,7.67A10.22,10.22,0,0,0,407,33.74a10.89,10.89,0,0,0,12.16-2.06,10.05,10.05,0,0,0,3.12-7.54,10.15,10.15,0,0,0-3.07-7.47,9.94,9.94,0,0,0-7.37-3.1c-.36,0-.61,0-1.24.06l-.26,0Z" transform="translate(-0.35 -0.37)" style="fill:#fff"/><polygon points="173.99 112.16 162.3 142.37 189.13 142.36 224.51 51.59 197.52 51.59 186.02 81.17 174.43 51.59 148.21 51.59 173.99 112.16" style="fill:#fff"/><path d="M438.32,24.57l-1.39,1.91V38H424.69V28.92A13.28,13.28,0,0,1,421.41,34a14.17,14.17,0,0,1-15.8,2.7,13.21,13.21,0,0,1-4.72-3.57,12,12,0,0,1-1.05-1.48A14.78,14.78,0,0,1,398,33.91,13.16,13.16,0,0,1,388.35,38l-.83,0v7.59H374.23V30.49l-2.18,5-3,6.84-3-6.86-4.89-11.26H273.57L282.77.42,71,.37.35,182.07h212L219,164.91H435.67c6.1,0,11-6,11-13.3V37.46C446.71,31.22,443.14,26,438.32,24.57ZM209.14,177.38H7.2l67-172.31L275.93,5Zm122.5-59.27a31.29,31.29,0,0,1-44,0,29.17,29.17,0,0,1-9.1-21.69,28.76,28.76,0,0,1,9.05-21.7c6.15-6,13.59-8.88,22.74-8.88a28.89,28.89,0,0,1,21.4,9,29.29,29.29,0,0,1,9,21.58A29.19,29.19,0,0,1,331.64,118.11Zm76.12,7.51H396.19V91.67c0-10.13-6.8-14.67-13.55-14.67s-13.46,4.54-13.46,14.67v34H357.61V92.19c0-7.6,2.4-13.78,7.35-18.9a23.54,23.54,0,0,1,17.76-7.49c8.19,0,14.54,2.83,19.38,8.66,3.77,4.49,5.66,11.22,5.66,20Z" transform="translate(-0.35 -0.37)" style="fill:#fff"/><path d="M309.6,77A18.46,18.46,0,0,0,296,82.78a19.8,19.8,0,0,0,0,27.33,18.73,18.73,0,0,0,27.11,0,19.82,19.82,0,0,0,0-27.34A18.54,18.54,0,0,0,309.6,77Z" transform="translate(-0.35 -0.37)" style="fill:#fff"/><path d="M141.75,79.14c2.3-7.88,1.43-14.53-2.54-19.93s-13.93-8.1-22-8.1c-2.56,0-32.69.29-32.69.29L73.12,81l-12.2,31.62L49.47,142.28s33.84.3,36.74.3c9.08,0,22.24-2.7,30.1-8.11s12.77-12,15.08-19.94c2-6.75,1.47-12.65-1.48-17.69A36.47,36.47,0,0,0,141.75,79.14Zm-39.33,41a14.67,14.67,0,0,1-8.4,2.73H83.72L104,70.91l7.6,0q4.13,0,6.1,2.73a7,7,0,0,1,.74,6.61,13.45,13.45,0,0,1-5,6.74,12.82,12.82,0,0,1-7.32,2.71H99.25L93.73,104h7.57v0a6.8,6.8,0,0,1,5.69,2.71c1.3,1.82,1.52,4.08.65,6.75A12.84,12.84,0,0,1,102.42,120.09Z" transform="translate(-0.35 -0.37)" style="fill:#fff"/></svg>