<?xml version="1.0" encoding="utf-8"?>
<!-- Generator: Adobe Illustrator 18.0.0, SVG Export Plug-In . SVG Version: 6.00 Build 0)  -->
<!DOCTYPE svg PUBLIC "-//W3C//DTD SVG 1.1//EN" "http://www.w3.org/Graphics/SVG/1.1/DTD/svg11.dtd">
<svg version="1.1" id="Capa_1" xmlns="http://www.w3.org/2000/svg" xmlns:xlink="http://www.w3.org/1999/xlink" x="0px" y="0px"
	 viewBox="0 0 216 146" enable-background="new 0 0 216 146" xml:space="preserve">
<path fill="#FFFFFF" d="M162.2,41.6c-5.6-9.6-13.2-17.2-22.8-22.8c-9.6-5.6-20.1-8.4-31.4-8.4c-11.4,0-21.8,2.8-31.4,8.4
	C67,24.4,59.4,32,53.8,41.6c-5.6,9.6-8.4,20.1-8.4,31.4c0,11.4,2.8,21.8,8.4,31.4c5.6,9.6,13.2,17.2,22.8,22.8
	c9.6,5.6,20.1,8.4,31.4,8.4s21.8-2.8,31.4-8.4c9.6-5.6,17.2-13.2,22.8-22.8c5.6-9.6,8.4-20.1,8.4-31.4
	C170.6,61.6,167.8,51.2,162.2,41.6z M144.5,78.2c0,1.4-0.5,2.6-1.5,3.7c-1,1-2.3,1.5-3.7,1.5h-20.9v20.9c0,1.4-0.5,2.6-1.5,3.7
	c-1,1-2.3,1.5-3.7,1.5h-10.4c-1.4,0-2.6-0.5-3.7-1.5s-1.5-2.3-1.5-3.7V83.4H76.7c-1.4,0-2.6-0.5-3.7-1.5s-1.5-2.3-1.5-3.7V67.8
	c0-1.4,0.5-2.6,1.5-3.7c1-1,2.3-1.5,3.7-1.5h20.9V41.7c0-1.4,0.5-2.6,1.5-3.7s2.3-1.5,3.7-1.5h10.4c1.4,0,2.6,0.5,3.7,1.5
	s1.5,2.3,1.5,3.7v20.9h20.9c1.4,0,2.6,0.5,3.7,1.5s1.5,2.3,1.5,3.7V78.2z"/>
</svg>
