<svg id="f251351f-7e53-4f2c-802c-7c2b9d691a78" data-name="Layer 1" xmlns="http://www.w3.org/2000/svg" viewBox="0 0 533.38 177.23"><path d="M117,32.42V11.19h4a16.32,16.32,0,0,1,4.51.55,7.71,7.71,0,0,1,3.2,1.76,7.2,7.2,0,0,1,1.89,3.12,15.38,15.38,0,0,1,.62,4.66,15.33,15.33,0,0,1-.74,5,9,9,0,0,1-2.09,3.46,8.37,8.37,0,0,1-3.31,2,14,14,0,0,1-4.39.65Zm2.68-19.11V30.2h1a10.19,10.19,0,0,0,3.27-.48,5.72,5.72,0,0,0,2.4-1.53,7,7,0,0,0,1.49-2.77,14.63,14.63,0,0,0,.51-4.14,12.34,12.34,0,0,0-.5-3.77,6.06,6.06,0,0,0-1.43-2.46,5.25,5.25,0,0,0-2.3-1.34,11.49,11.49,0,0,0-3.13-.4ZM137,32.42h-2.49V17.65H137Zm-1.23-18.34a1.6,1.6,0,0,1-1.23-.49,1.8,1.8,0,0,1-.46-1.29,1.73,1.73,0,0,1,.46-1.26,1.61,1.61,0,0,1,1.23-.5,1.58,1.58,0,0,1,1.2.5,1.73,1.73,0,0,1,.46,1.26,1.8,1.8,0,0,1-.46,1.29A1.57,1.57,0,0,1,135.78,14.08Zm14.52,8.55q0,1-.06,1.65c0,.46-.08.87-.12,1.21h-7.54a6.6,6.6,0,0,0,1.12,3.85,3.51,3.51,0,0,0,2.88,1.23,4.25,4.25,0,0,0,1.17-.15,5.21,5.21,0,0,0,.91-.37,5.44,5.44,0,0,0,.64-.43l.39-.34.92,1.75-.46.45a4.25,4.25,0,0,1-.83.58,5.5,5.5,0,0,1-1.3.51,6.84,6.84,0,0,1-1.81.22,6.53,6.53,0,0,1-2.51-.47,4.59,4.59,0,0,1-1.9-1.43,6.75,6.75,0,0,1-1.22-2.46,12.9,12.9,0,0,1-.43-3.58,11.39,11.39,0,0,1,.45-3.4,6.68,6.68,0,0,1,1.21-2.35,4.75,4.75,0,0,1,1.78-1.37,5.36,5.36,0,0,1,2.19-.45,4.24,4.24,0,0,1,3.32,1.34A5.84,5.84,0,0,1,150.3,22.63Zm-4.67-3.32a2.5,2.5,0,0,0-2.13,1.11,6,6,0,0,0-.92,3.2H148a3.17,3.17,0,0,0,0-.45c0-.19,0-.4,0-.63a4,4,0,0,0-.61-2.38A2.06,2.06,0,0,0,145.63,19.31Zm26.18-2.71a6.25,6.25,0,0,1-.28,1.94,4.63,4.63,0,0,1-.76,1.43,3.76,3.76,0,0,1-1.1,1,5.56,5.56,0,0,1-1.31.56v.06a4.55,4.55,0,0,1,1.55.58,4.69,4.69,0,0,1,1.26,1.08,5.25,5.25,0,0,1,.87,1.52,5.69,5.69,0,0,1,.32,1.92,6,6,0,0,1-.43,2.31,4.74,4.74,0,0,1-1.34,1.82A6.54,6.54,0,0,1,168.3,32a11.37,11.37,0,0,1-3.29.43h-4.34V11.19h4.09a12.1,12.1,0,0,1,3.22.38,5.93,5.93,0,0,1,2.19,1.1,4.08,4.08,0,0,1,1.25,1.7A6.1,6.1,0,0,1,171.81,16.6Zm-2.71.1a3.12,3.12,0,0,0-1-2.43,4.75,4.75,0,0,0-3.29-1h-1.41v7.32h1.38a4.56,4.56,0,0,0,3.26-1A3.78,3.78,0,0,0,169.1,16.7Zm.4,9.78a3.47,3.47,0,0,0-1.12-2.72,4.67,4.67,0,0,0-3.22-1h-1.81V30.2H165a5.1,5.1,0,0,0,3.43-.94A3.53,3.53,0,0,0,169.5,26.48Zm15.63-3.85a15.7,15.7,0,0,1-.07,1.65c0,.46-.08.87-.12,1.21H177.4a6.59,6.59,0,0,0,1.13,3.85,3.47,3.47,0,0,0,2.87,1.23,4.25,4.25,0,0,0,1.17-.15,5.21,5.21,0,0,0,.91-.37,5.64,5.64,0,0,0,.65-.43l.38-.34.92,1.75-.46.45a4,4,0,0,1-.83.58,5.59,5.59,0,0,1-1.29.51,6.92,6.92,0,0,1-1.82.22,6.47,6.47,0,0,1-2.5-.47,4.62,4.62,0,0,1-1.91-1.43,6.91,6.91,0,0,1-1.22-2.46,13.29,13.29,0,0,1-.43-3.58,11.39,11.39,0,0,1,.45-3.4,6.69,6.69,0,0,1,1.22-2.35,4.67,4.67,0,0,1,1.78-1.37,5.32,5.32,0,0,1,2.18-.45,4.25,4.25,0,0,1,3.33,1.34A5.84,5.84,0,0,1,185.13,22.63Zm-4.68-3.32a2.49,2.49,0,0,0-2.12,1.11,6,6,0,0,0-.93,3.2h5.39a3.52,3.52,0,0,0,0-.45c0-.19,0-.4,0-.63a4,4,0,0,0-.62-2.38A2,2,0,0,0,180.45,19.31Zm7.14,9.35a4.25,4.25,0,0,1,.49-2.15,4.11,4.11,0,0,1,1.32-1.4,5.62,5.62,0,0,1,2-.77,12,12,0,0,1,2.38-.23h.77V22.69a3.81,3.81,0,0,0-.66-2.58A2.43,2.43,0,0,0,192,19.4a3.33,3.33,0,0,0-1.85.48,11.33,11.33,0,0,0-1.17.85l-1-1.67a8.22,8.22,0,0,1,.63-.55,5.32,5.32,0,0,1,.93-.58,5.9,5.9,0,0,1,1.27-.46,6,6,0,0,1,1.6-.19,4.47,4.47,0,0,1,3.44,1.26A5.86,5.86,0,0,1,197,22.6v6.74q0,1,.06,1.86a12,12,0,0,0,.12,1.22h-2.36l-.1-1.63h-.06a3.74,3.74,0,0,1-.37.63,3.06,3.06,0,0,1-.61.64,3.64,3.64,0,0,1-.89.51,3.29,3.29,0,0,1-1.23.22,4,4,0,0,1-1.56-.31,3.92,3.92,0,0,1-1.26-.86,3.8,3.8,0,0,1-.83-1.31A4.4,4.4,0,0,1,187.59,28.66Zm4.46,2a2.61,2.61,0,0,0,.92-.15,2.8,2.8,0,0,0,.69-.37,2.29,2.29,0,0,0,.5-.48l.35-.44V26l-.8,0a5.74,5.74,0,0,0-2.71.61,1.94,1.94,0,0,0-.92,1.79,2.42,2.42,0,0,0,.52,1.7A1.87,1.87,0,0,0,192.05,30.66Zm19,1.76h-2.28V30.76h-.06a2.65,2.65,0,0,1-.4.53,3.81,3.81,0,0,1-.78.68,4.82,4.82,0,0,1-1.16.57,4.45,4.45,0,0,1-1.5.25,4.9,4.9,0,0,1-1.77-.3,3.07,3.07,0,0,1-1.34-.94,4.38,4.38,0,0,1-.85-1.67,9.65,9.65,0,0,1-.29-2.54V17.65h2.49v9.51a4.43,4.43,0,0,0,.6,2.63,2.2,2.2,0,0,0,1.86.78A3,3,0,0,0,207.4,30,6.54,6.54,0,0,0,208.57,29V17.65h2.49Zm10-12.74h-3V32.42h-2.49V19.68H213.8V18l1.78-.34V14.73a5.73,5.73,0,0,1,.34-2.06,4.1,4.1,0,0,1,.89-1.42,3.3,3.3,0,0,1,1.3-.8,5,5,0,0,1,1.56-.25,3.83,3.83,0,0,1,1.36.22,4.61,4.61,0,0,1,.74.34l-.53,2.06a2.76,2.76,0,0,0-.52-.26,2.25,2.25,0,0,0-.83-.14,1.63,1.63,0,0,0-1.35.55,3.26,3.26,0,0,0-.47,2v2.65h3.33Zm8.77,0h-3.23v8.18A4,4,0,0,0,227,30a1.52,1.52,0,0,0,1.35.57,2.67,2.67,0,0,0,1-.15,3.72,3.72,0,0,0,.59-.28l.34,2a4.5,4.5,0,0,1-.74.38,3.79,3.79,0,0,1-1.57.27,3.64,3.64,0,0,1-2.86-1.07,5.18,5.18,0,0,1-1-3.52V19.68h-1.78V18l1.78-.37.28-4.12h2.22v4.12h3.53Zm9.32.15a1.89,1.89,0,0,0-.4-.15,3.08,3.08,0,0,0-.83-.09,2.54,2.54,0,0,0-1.83.63,3.66,3.66,0,0,0-.94,1.37V32.42h-2.49V17.65H235v2H235a4.36,4.36,0,0,1,.4-.85,3,3,0,0,1,.61-.74,2.8,2.8,0,0,1,.88-.5,3.38,3.38,0,0,1,1.21-.19,2.87,2.87,0,0,1,.85.1l.51.15Zm1.44,8.83a4.25,4.25,0,0,1,.5-2.15,4,4,0,0,1,1.32-1.4,5.49,5.49,0,0,1,1.95-.77,12.19,12.19,0,0,1,2.39-.23h.77V22.69a3.75,3.75,0,0,0-.67-2.58A2.43,2.43,0,0,0,245,19.4a3.31,3.31,0,0,0-1.84.48,11.33,11.33,0,0,0-1.17.85l-1-1.67c.17-.16.38-.34.63-.55a5.43,5.43,0,0,1,.94-.58,6.38,6.38,0,0,1,2.86-.65,4.48,4.48,0,0,1,3.45,1.26A5.86,5.86,0,0,1,250,22.6v6.74q0,1,.06,1.86a12,12,0,0,0,.12,1.22h-2.37l-.09-1.63h-.06a4.58,4.58,0,0,1-.37.63,2.88,2.88,0,0,1-.62.64,3.33,3.33,0,0,1-2.12.73,4,4,0,0,1-1.55-.31,3.92,3.92,0,0,1-1.26-.86,3.8,3.8,0,0,1-.83-1.31A4.4,4.4,0,0,1,240.62,28.66Zm4.47,2a2.65,2.65,0,0,0,.92-.15,3,3,0,0,0,.69-.37,2,2,0,0,0,.49-.48c.14-.17.25-.32.36-.44V26l-.8,0a5.71,5.71,0,0,0-2.71.61,1.92,1.92,0,0,0-.92,1.79,2.42,2.42,0,0,0,.52,1.7A1.87,1.87,0,0,0,245.09,30.66Zm19.25-11.07H262.5a5,5,0,0,1,.71,2.64,5.44,5.44,0,0,1-.39,2.11,4.44,4.44,0,0,1-1.08,1.59,4.7,4.7,0,0,1-1.63,1,5.73,5.73,0,0,1-2,.34h-.4l-.4,0a2.81,2.81,0,0,0-.77.49,1.1,1.1,0,0,0-.4.89,1,1,0,0,0,.35.76,1.86,1.86,0,0,0,1.16.29h1.87a8.42,8.42,0,0,1,1.94.21,4.54,4.54,0,0,1,1.56.7,3.27,3.27,0,0,1,1,1.21,4,4,0,0,1,.36,1.78,4.7,4.7,0,0,1-.5,2.19,5,5,0,0,1-1.43,1.69,7.17,7.17,0,0,1-2.25,1.11,10.42,10.42,0,0,1-3,.4,5.52,5.52,0,0,1-3.6-1,3.66,3.66,0,0,1-1.23-3,3.32,3.32,0,0,1,.29-1.43,4.66,4.66,0,0,1,.69-1,4.38,4.38,0,0,1,.82-.71l.66-.41v-.06a2.39,2.39,0,0,1-1-2.06,2.08,2.08,0,0,1,.23-1,2.61,2.61,0,0,1,.52-.71,3.17,3.17,0,0,1,.58-.44,4.9,4.9,0,0,1,.45-.23v-.06a4.16,4.16,0,0,1-1.83-1.65,5.43,5.43,0,0,1-.69-2.88,5.46,5.46,0,0,1,.4-2.17,4.24,4.24,0,0,1,2.66-2.47,5.86,5.86,0,0,1,2-.31,5.19,5.19,0,0,1,2,.37h4.49ZM257.48,32a6.43,6.43,0,0,1-1.14-.09,4.6,4.6,0,0,0-.53.37,2.65,2.65,0,0,0-.48.52,2.91,2.91,0,0,0-.35.73,2.84,2.84,0,0,0-.14,1q0,2.37,2.61,2.37a5.21,5.21,0,0,0,3.32-.88,2.57,2.57,0,0,0,1.08-2,1.67,1.67,0,0,0-.68-1.52,3.21,3.21,0,0,0-1.81-.45Zm3.29-9.72A2.94,2.94,0,0,0,260,20a2.56,2.56,0,0,0-1.77-.68,2.68,2.68,0,0,0-1.84.68,2.87,2.87,0,0,0-.77,2.27,2.88,2.88,0,0,0,.77,2.28,2.61,2.61,0,0,0,1.78.68,2.64,2.64,0,0,0,1.83-.68A3,3,0,0,0,260.77,22.23Zm12.71-2.55h-3.23v8.18a4,4,0,0,0,.4,2.14,1.54,1.54,0,0,0,1.35.57,2.76,2.76,0,0,0,1-.15,4,4,0,0,0,.58-.28l.34,2a4.09,4.09,0,0,1-.74.38,3.79,3.79,0,0,1-1.57.27,3.65,3.65,0,0,1-2.86-1.07,5.24,5.24,0,0,1-.95-3.52V19.68H266V18l1.79-.37.28-4.12h2.21v4.12h3.54Zm12.09,2.95q0,1-.06,1.65c0,.46-.08.87-.12,1.21h-7.54A6.6,6.6,0,0,0,279,29.34a3.51,3.51,0,0,0,2.88,1.23,4.25,4.25,0,0,0,1.17-.15,4.79,4.79,0,0,0,.9-.37,4.88,4.88,0,0,0,.65-.43l.39-.34.92,1.75-.46.45a4.58,4.58,0,0,1-.83.58,5.5,5.5,0,0,1-1.3.51,6.84,6.84,0,0,1-1.81.22,6.53,6.53,0,0,1-2.51-.47,4.68,4.68,0,0,1-1.91-1.43,6.9,6.9,0,0,1-1.21-2.46,12.9,12.9,0,0,1-.43-3.58,11.74,11.74,0,0,1,.44-3.4,6.85,6.85,0,0,1,1.22-2.35,4.75,4.75,0,0,1,1.78-1.37,5.36,5.36,0,0,1,2.19-.45,4.24,4.24,0,0,1,3.32,1.34A5.84,5.84,0,0,1,285.57,22.63Zm-4.68-3.32a2.49,2.49,0,0,0-2.12,1.11,6,6,0,0,0-.92,3.2h5.38a3.17,3.17,0,0,0,0-.45c0-.19,0-.4,0-.63a4,4,0,0,0-.61-2.38A2.07,2.07,0,0,0,280.89,19.31Zm13.85,5.94a10.4,10.4,0,0,1,.58-3.75,6.9,6.9,0,0,1,1.51-2.44,5.25,5.25,0,0,1,2.09-1.3,7.36,7.36,0,0,1,2.34-.39,6.31,6.31,0,0,1,1.23.11,4,4,0,0,1,.86.26V10.67l2.49-.28v22h-2.27V30.85h-.06a5,5,0,0,1-.34.5,3.28,3.28,0,0,1-.68.65,3.9,3.9,0,0,1-1.08.55,4.29,4.29,0,0,1-1.5.24,4.83,4.83,0,0,1-2-.42,4.36,4.36,0,0,1-1.64-1.32,6.9,6.9,0,0,1-1.13-2.34A12.82,12.82,0,0,1,294.74,25.25Zm5.84,5.32a3.41,3.41,0,0,0,1.05-.15,3.31,3.31,0,0,0,.8-.39,4,4,0,0,0,.57-.47,3.5,3.5,0,0,0,.35-.44V20a3.53,3.53,0,0,0-.78-.37,3.59,3.59,0,0,0-1.13-.15,4.3,4.3,0,0,0-1.61.29,3.15,3.15,0,0,0-1.31,1,4.86,4.86,0,0,0-.87,1.75,9.16,9.16,0,0,0-.33,2.65,10.79,10.79,0,0,0,.26,2.56,4.88,4.88,0,0,0,.73,1.67,2.66,2.66,0,0,0,1,.9A2.77,2.77,0,0,0,300.58,30.57Zm18.55-7.94q0,1-.06,1.65c0,.46-.08.87-.12,1.21h-7.54a6.52,6.52,0,0,0,1.13,3.85,3.47,3.47,0,0,0,2.87,1.23,4.25,4.25,0,0,0,1.17-.15,5.21,5.21,0,0,0,.91-.37,5.44,5.44,0,0,0,.64-.43c.18-.15.31-.26.39-.34l.92,1.75-.46.45a4,4,0,0,1-.83.58,5.59,5.59,0,0,1-1.29.51,7,7,0,0,1-1.82.22,6.44,6.44,0,0,1-2.5-.47,4.62,4.62,0,0,1-1.91-1.43,6.75,6.75,0,0,1-1.22-2.46,13.29,13.29,0,0,1-.43-3.58,11.39,11.39,0,0,1,.45-3.4,6.84,6.84,0,0,1,1.21-2.35,4.78,4.78,0,0,1,1.79-1.37,5.28,5.28,0,0,1,2.18-.45,4.23,4.23,0,0,1,3.32,1.34A5.84,5.84,0,0,1,319.13,22.63Zm-4.67-3.32a2.49,2.49,0,0,0-2.12,1.11,6,6,0,0,0-.93,3.2h5.39a3.52,3.52,0,0,0,0-.45c0-.19,0-.4,0-.63a4,4,0,0,0-.62-2.38A2,2,0,0,0,314.46,19.31Zm14.49.52a1.89,1.89,0,0,0-.4-.15,3.08,3.08,0,0,0-.83-.09,2.54,2.54,0,0,0-1.83.63,3.66,3.66,0,0,0-.94,1.37V32.42h-2.49V17.65h2.27v2h.06a6,6,0,0,1,.4-.85,3.34,3.34,0,0,1,.62-.74,2.8,2.8,0,0,1,.88-.5,3.38,3.38,0,0,1,1.21-.19,2.87,2.87,0,0,1,.85.1l.51.15Zm19.93-3.23a6.27,6.27,0,0,1-.27,1.94,4.63,4.63,0,0,1-.76,1.43,3.79,3.79,0,0,1-1.11,1,5.49,5.49,0,0,1-1.3.56v.06a4.55,4.55,0,0,1,1.55.58,4.93,4.93,0,0,1,2.12,2.6,5.45,5.45,0,0,1,.33,1.92A6.17,6.17,0,0,1,349,29a4.84,4.84,0,0,1-1.34,1.82,6.62,6.62,0,0,1-2.29,1.2,11.44,11.44,0,0,1-3.3.43h-4.33V11.19h4.09a12,12,0,0,1,3.21.38,6,6,0,0,1,2.2,1.1,4.08,4.08,0,0,1,1.25,1.7A6.32,6.32,0,0,1,348.88,16.6Zm-2.7.1a3.12,3.12,0,0,0-1.05-2.43,4.77,4.77,0,0,0-3.29-1h-1.42v7.32h1.39a4.58,4.58,0,0,0,3.26-1A3.78,3.78,0,0,0,346.18,16.7Zm.4,9.78a3.44,3.44,0,0,0-1.13-2.72,4.66,4.66,0,0,0-3.21-1h-1.82V30.2h1.66a5.08,5.08,0,0,0,3.43-.94A3.5,3.5,0,0,0,346.58,26.48Zm16.48,5.94h-2.27V30.76h-.06a3.12,3.12,0,0,1-.4.53,4.17,4.17,0,0,1-.79.68,4.93,4.93,0,0,1-1.15.57,4.47,4.47,0,0,1-1.51.25,5,5,0,0,1-1.77-.3,3.13,3.13,0,0,1-1.34-.94,4.37,4.37,0,0,1-.84-1.67,9.25,9.25,0,0,1-.29-2.54V17.65h2.49v9.51a4.43,4.43,0,0,0,.6,2.63,2.2,2.2,0,0,0,1.86.78A3,3,0,0,0,359.4,30,5.91,5.91,0,0,0,360.57,29V17.65h2.49Zm11.88,0V22.91a4.45,4.45,0,0,0-.63-2.69,2.26,2.26,0,0,0-1.92-.82,3,3,0,0,0-1.85.56A7,7,0,0,0,369.37,21V32.42h-2.49V17.65h2.28v1.66h.06a2.94,2.94,0,0,1,.4-.54,3.68,3.68,0,0,1,.8-.67,5.31,5.31,0,0,1,1.17-.57,4.31,4.31,0,0,1,1.53-.25,5.29,5.29,0,0,1,1.79.29,3.27,3.27,0,0,1,1.35.94,4.44,4.44,0,0,1,.86,1.68,8.76,8.76,0,0,1,.31,2.54v9.69Zm5.54-7.17a10.4,10.4,0,0,1,.58-3.75,6.9,6.9,0,0,1,1.51-2.44,5.18,5.18,0,0,1,2.09-1.3,7.36,7.36,0,0,1,2.34-.39,6.31,6.31,0,0,1,1.23.11,4,4,0,0,1,.86.26V10.67l2.49-.28v22h-2.27V30.85h-.06a5,5,0,0,1-.34.5,3.28,3.28,0,0,1-.68.65,3.9,3.9,0,0,1-1.08.55,4.29,4.29,0,0,1-1.5.24,4.83,4.83,0,0,1-2-.42A4.36,4.36,0,0,1,382,31.05a6.9,6.9,0,0,1-1.13-2.34A12.82,12.82,0,0,1,380.48,25.25Zm5.84,5.32a3.41,3.41,0,0,0,1.05-.15,3.31,3.31,0,0,0,.8-.39,4,4,0,0,0,.57-.47,3.5,3.5,0,0,0,.35-.44V20a3.76,3.76,0,0,0-.78-.37,3.59,3.59,0,0,0-1.13-.15,4.3,4.3,0,0,0-1.61.29,3.15,3.15,0,0,0-1.31,1,5,5,0,0,0-.88,1.75,9.55,9.55,0,0,0-.32,2.65,10.79,10.79,0,0,0,.26,2.56,4.88,4.88,0,0,0,.73,1.67,2.66,2.66,0,0,0,1,.9A2.77,2.77,0,0,0,386.32,30.57Zm18.55-7.94q0,1-.06,1.65c0,.46-.08.87-.12,1.21h-7.54a6.6,6.6,0,0,0,1.12,3.85,3.51,3.51,0,0,0,2.88,1.23,4.25,4.25,0,0,0,1.17-.15,5.21,5.21,0,0,0,.91-.37,5.44,5.44,0,0,0,.64-.43c.18-.15.31-.26.39-.34l.92,1.75-.46.45a4.25,4.25,0,0,1-.83.58,5.59,5.59,0,0,1-1.29.51,7,7,0,0,1-1.82.22,6.53,6.53,0,0,1-2.51-.47,4.65,4.65,0,0,1-1.9-1.43,6.75,6.75,0,0,1-1.22-2.46,12.9,12.9,0,0,1-.43-3.58,11.39,11.39,0,0,1,.45-3.4,6.68,6.68,0,0,1,1.21-2.35,4.7,4.7,0,0,1,1.79-1.37,5.28,5.28,0,0,1,2.18-.45,4.23,4.23,0,0,1,3.32,1.34A5.84,5.84,0,0,1,404.87,22.63Zm-4.67-3.32a2.52,2.52,0,0,0-2.13,1.11,6,6,0,0,0-.92,3.2h5.39a3.52,3.52,0,0,0,0-.45c0-.19,0-.4,0-.63a4,4,0,0,0-.62-2.38A2,2,0,0,0,400.2,19.31Zm14.36,1.32a6.51,6.51,0,0,0-.89-.75A2.75,2.75,0,0,0,412,19.4a2.25,2.25,0,0,0-1.51.46A1.43,1.43,0,0,0,410,21a2,2,0,0,0,.48,1.37,6.43,6.43,0,0,0,1.46,1.15l.92.56A8.93,8.93,0,0,1,415.18,26a4,4,0,0,1,.86,2.66,4,4,0,0,1-1.21,3,4.78,4.78,0,0,1-3.5,1.2,6.19,6.19,0,0,1-1.57-.19,7,7,0,0,1-1.18-.43,3.65,3.65,0,0,1-.85-.54,4.73,4.73,0,0,1-.55-.54l1.2-2c.12.13.27.27.45.44a3.69,3.69,0,0,0,.63.47,3.75,3.75,0,0,0,.83.39,3.46,3.46,0,0,0,1.07.15,2.57,2.57,0,0,0,1.7-.49,1.51,1.51,0,0,0,.58-1.2,2.76,2.76,0,0,0-.14-.91,2,2,0,0,0-.41-.69,4,4,0,0,0-.68-.59c-.27-.18-.57-.39-.92-.61l-.93-.59a8.87,8.87,0,0,1-2.16-1.87,3.9,3.9,0,0,1-.79-2.52,3.5,3.5,0,0,1,1.23-2.73,4.53,4.53,0,0,1,1.37-.8,4.86,4.86,0,0,1,1.68-.29,5.71,5.71,0,0,1,1.47.17,4.34,4.34,0,0,1,1.8.95l.48.45Zm10.89-.8a1.68,1.68,0,0,0-.4-.15,3,3,0,0,0-.83-.09,2.54,2.54,0,0,0-1.83.63,3.79,3.79,0,0,0-.94,1.37V32.42H419V17.65h2.28v2h.06a5,5,0,0,1,.4-.85,3.34,3.34,0,0,1,.62-.74,2.65,2.65,0,0,1,.87-.5,3.44,3.44,0,0,1,1.22-.19,2.75,2.75,0,0,1,.84.1l.51.15ZM437,22.63q0,1-.06,1.65c0,.46-.08.87-.12,1.21H429.3a6.6,6.6,0,0,0,1.12,3.85,3.51,3.51,0,0,0,2.88,1.23,4.25,4.25,0,0,0,1.17-.15,5.21,5.21,0,0,0,.91-.37,5.44,5.44,0,0,0,.64-.43l.39-.34.92,1.75-.46.45a4.25,4.25,0,0,1-.83.58,5.59,5.59,0,0,1-1.29.51,7,7,0,0,1-1.82.22,6.53,6.53,0,0,1-2.51-.47,4.59,4.59,0,0,1-1.9-1.43,6.75,6.75,0,0,1-1.22-2.46,12.9,12.9,0,0,1-.43-3.58,11.39,11.39,0,0,1,.45-3.4,6.68,6.68,0,0,1,1.21-2.35,4.7,4.7,0,0,1,1.79-1.37,5.28,5.28,0,0,1,2.18-.45,4.24,4.24,0,0,1,3.32,1.34A5.84,5.84,0,0,1,437,22.63Zm-4.67-3.32a2.5,2.5,0,0,0-2.13,1.11,6,6,0,0,0-.92,3.2h5.38a3.17,3.17,0,0,0,.05-.45c0-.19,0-.4,0-.63a4,4,0,0,0-.62-2.38A2.06,2.06,0,0,0,432.35,19.31Zm18.58.28h-1.85a5,5,0,0,1,.71,2.64,5.44,5.44,0,0,1-.39,2.11,4.42,4.42,0,0,1-1.07,1.59,4.8,4.8,0,0,1-1.63,1,5.83,5.83,0,0,1-2,.34h-.4l-.4,0a3,3,0,0,0-.77.49,1.13,1.13,0,0,0-.4.89.94.94,0,0,0,.36.76,1.83,1.83,0,0,0,1.15.29h1.88a8.55,8.55,0,0,1,1.94.21,4.49,4.49,0,0,1,1.55.7,3.27,3.27,0,0,1,1,1.21,3.9,3.9,0,0,1,.37,1.78,4.71,4.71,0,0,1-.51,2.19,4.92,4.92,0,0,1-1.43,1.69,7.06,7.06,0,0,1-2.25,1.11,10.37,10.37,0,0,1-2.95.4,5.52,5.52,0,0,1-3.6-1,3.66,3.66,0,0,1-1.23-3,3.32,3.32,0,0,1,.29-1.43,4.69,4.69,0,0,1,.7-1,4,4,0,0,1,.81-.71l.66-.41v-.06a2.42,2.42,0,0,1-1-2.06,2.19,2.19,0,0,1,.23-1,2.84,2.84,0,0,1,.52-.71,3.22,3.22,0,0,1,.59-.44,3.93,3.93,0,0,1,.44-.23v-.06a4.16,4.16,0,0,1-1.83-1.65,5.43,5.43,0,0,1-.69-2.88,5.46,5.46,0,0,1,.4-2.17,4.49,4.49,0,0,1,1.08-1.55,4.38,4.38,0,0,1,1.58-.92,6,6,0,0,1,1.95-.31,5.15,5.15,0,0,1,2,.37h4.5ZM444.07,32a6.43,6.43,0,0,1-1.14-.09,4,4,0,0,0-.54.37,3.44,3.44,0,0,0-.48.52,2.91,2.91,0,0,0-.35.73,3.1,3.1,0,0,0-.14,1c0,1.58.87,2.37,2.62,2.37a5.25,5.25,0,0,0,3.32-.88,2.56,2.56,0,0,0,1.07-2,1.69,1.69,0,0,0-.67-1.52,3.25,3.25,0,0,0-1.82-.45Zm3.29-9.72A2.9,2.9,0,0,0,446.6,20a2.56,2.56,0,0,0-1.76-.68A2.71,2.71,0,0,0,443,20a2.91,2.91,0,0,0-.77,2.27,2.91,2.91,0,0,0,.77,2.28,2.74,2.74,0,0,0,3.61,0A2.91,2.91,0,0,0,447.36,22.23Zm8.89,10.19h-2.49V17.65h2.49ZM455,14.08a1.6,1.6,0,0,1-1.23-.49,1.8,1.8,0,0,1-.46-1.29,1.73,1.73,0,0,1,.46-1.26,1.61,1.61,0,0,1,1.23-.5,1.58,1.58,0,0,1,1.2.5,1.73,1.73,0,0,1,.46,1.26,1.8,1.8,0,0,1-.46,1.29A1.57,1.57,0,0,1,455,14.08Zm14.52,8.55q0,1-.06,1.65c0,.46-.08.87-.13,1.21h-7.53a6.53,6.53,0,0,0,1.12,3.85,3.51,3.51,0,0,0,2.88,1.23,4.25,4.25,0,0,0,1.17-.15,5.09,5.09,0,0,0,.9-.37,5.64,5.64,0,0,0,.65-.43l.38-.34.93,1.75-.46.45a4.35,4.35,0,0,1-.84.58,5.25,5.25,0,0,1-1.29.51,6.9,6.9,0,0,1-1.81.22,6.49,6.49,0,0,1-2.51-.47A4.68,4.68,0,0,1,461,30.89a6.74,6.74,0,0,1-1.21-2.46,12.9,12.9,0,0,1-.43-3.58,11.74,11.74,0,0,1,.44-3.4,6.85,6.85,0,0,1,1.22-2.35,4.75,4.75,0,0,1,1.78-1.37,5.36,5.36,0,0,1,2.19-.45,4.24,4.24,0,0,1,3.32,1.34A5.84,5.84,0,0,1,469.54,22.63Zm-4.68-3.32a2.49,2.49,0,0,0-2.12,1.11,6,6,0,0,0-.92,3.2h5.38a3.17,3.17,0,0,0,.05-.45c0-.19,0-.4,0-.63a4,4,0,0,0-.61-2.38A2.07,2.07,0,0,0,464.86,19.31Zm14.49.52a1.68,1.68,0,0,0-.4-.15,3,3,0,0,0-.83-.09,2.54,2.54,0,0,0-1.83.63,3.79,3.79,0,0,0-.94,1.37V32.42h-2.49V17.65h2.28v2h.06a5,5,0,0,1,.4-.85,3.29,3.29,0,0,1,.61-.74,2.8,2.8,0,0,1,.88-.5,3.44,3.44,0,0,1,1.22-.19,2.75,2.75,0,0,1,.84.1l.51.15Zm12.8,12.59h-2.28V30.76h-.06a2.65,2.65,0,0,1-.4.53,3.81,3.81,0,0,1-.78.68,4.82,4.82,0,0,1-1.16.57,4.45,4.45,0,0,1-1.5.25,4.9,4.9,0,0,1-1.77-.3,3.13,3.13,0,0,1-1.34-.94,4.38,4.38,0,0,1-.85-1.67,9.65,9.65,0,0,1-.29-2.54V17.65h2.49v9.51a4.43,4.43,0,0,0,.6,2.63,2.2,2.2,0,0,0,1.86.78,3,3,0,0,0,1.82-.54A6.54,6.54,0,0,0,489.66,29V17.65h2.49Zm11.88,0V22.91a4.38,4.38,0,0,0-.64-2.69,2.26,2.26,0,0,0-1.92-.82,3,3,0,0,0-1.84.56A6.25,6.25,0,0,0,498.46,21V32.42H496V17.65h2.27v1.66h.06a3.53,3.53,0,0,1,.4-.54,4.23,4.23,0,0,1,.8-.67,5.31,5.31,0,0,1,1.17-.57,4.36,4.36,0,0,1,1.54-.25,5.23,5.23,0,0,1,1.78.29,3.24,3.24,0,0,1,1.36.94,4.58,4.58,0,0,1,.86,1.68,9.12,9.12,0,0,1,.31,2.54v9.69Zm16.79-12.83H519a5,5,0,0,1,.7,2.64,5.44,5.44,0,0,1-.38,2.11,4.57,4.57,0,0,1-1.08,1.59,4.7,4.7,0,0,1-1.63,1,5.73,5.73,0,0,1-2,.34h-.4l-.4,0a2.81,2.81,0,0,0-.77.49,1.1,1.1,0,0,0-.4.89,1,1,0,0,0,.35.76,1.86,1.86,0,0,0,1.16.29H516a8.42,8.42,0,0,1,1.94.21,4.4,4.4,0,0,1,1.55.7,3.09,3.09,0,0,1,1,1.21,3.9,3.9,0,0,1,.37,1.78,4.7,4.7,0,0,1-.5,2.19A5,5,0,0,1,519,37.43a7.17,7.17,0,0,1-2.25,1.11,10.42,10.42,0,0,1-3,.4,5.52,5.52,0,0,1-3.6-1,3.66,3.66,0,0,1-1.23-3,3.18,3.18,0,0,1,.29-1.43,4.26,4.26,0,0,1,1.51-1.76l.66-.41v-.06a2.4,2.4,0,0,1-1-2.06,2.08,2.08,0,0,1,.24-1,2.61,2.61,0,0,1,.52-.71,3.17,3.17,0,0,1,.58-.44,4.9,4.9,0,0,1,.45-.23v-.06a4.16,4.16,0,0,1-1.83-1.65,5.43,5.43,0,0,1-.69-2.88,5.46,5.46,0,0,1,.4-2.17,4.24,4.24,0,0,1,2.66-2.47,5.86,5.86,0,0,1,2-.31,5.19,5.19,0,0,1,2,.37h4.49ZM514,32a6.43,6.43,0,0,1-1.14-.09,4.6,4.6,0,0,0-.53.37,2.65,2.65,0,0,0-.48.52,2.91,2.91,0,0,0-.35.73,2.84,2.84,0,0,0-.14,1q0,2.37,2.61,2.37a5.21,5.21,0,0,0,3.32-.88,2.57,2.57,0,0,0,1.08-2,1.67,1.67,0,0,0-.68-1.52,3.21,3.21,0,0,0-1.81-.45Zm3.29-9.72A2.94,2.94,0,0,0,516.5,20a2.56,2.56,0,0,0-1.77-.68,2.68,2.68,0,0,0-1.84.68,2.87,2.87,0,0,0-.77,2.27,2.88,2.88,0,0,0,.77,2.28,2.61,2.61,0,0,0,1.78.68,2.64,2.64,0,0,0,1.83-.68A3,3,0,0,0,517.25,22.23ZM122.64,50.7h-3V63.44h-2.49V50.7h-1.79V49l1.79-.34v-3a5.52,5.52,0,0,1,.34-2.06,4,4,0,0,1,.89-1.42,3.34,3.34,0,0,1,1.29-.8,5.06,5.06,0,0,1,1.57-.24,3.83,3.83,0,0,1,1.35.21,5.13,5.13,0,0,1,.74.34l-.52,2.06a3.11,3.11,0,0,0-.52-.26,2.3,2.3,0,0,0-.84-.14,1.66,1.66,0,0,0-1.35.56,3.25,3.25,0,0,0-.46,2v2.64H123Zm12.8,12.74h-2.27V61.78h-.07a2.94,2.94,0,0,1-.4.54,3.78,3.78,0,0,1-.78.67,4.93,4.93,0,0,1-1.15.57,4.27,4.27,0,0,1-1.51.25,5.13,5.13,0,0,1-1.77-.29,3.31,3.31,0,0,1-1.34-.94,4.28,4.28,0,0,1-.84-1.68,9.21,9.21,0,0,1-.3-2.54V48.67h2.5v9.51a4.41,4.41,0,0,0,.6,2.63,2.2,2.2,0,0,0,1.86.78,3,3,0,0,0,1.81-.54A6.18,6.18,0,0,0,133,60V48.67h2.49Zm-6.12-19a1.54,1.54,0,0,1-.43,1.14,1.47,1.47,0,0,1-1,.43,1.43,1.43,0,0,1-1-.43,1.54,1.54,0,0,1-.43-1.14,1.52,1.52,0,0,1,.43-1.14,1.39,1.39,0,0,1,1-.43,1.43,1.43,0,0,1,1,.43A1.52,1.52,0,0,1,129.32,44.43Zm4.74,0a1.58,1.58,0,0,1-.43,1.14,1.47,1.47,0,0,1-1,.43,1.43,1.43,0,0,1-1-.43,1.54,1.54,0,0,1-.44-1.14,1.53,1.53,0,0,1,.44-1.14,1.39,1.39,0,0,1,1-.43,1.43,1.43,0,0,1,1,.43A1.56,1.56,0,0,1,134.06,44.43Zm11.69,6.43a1.75,1.75,0,0,0-.4-.16,3.08,3.08,0,0,0-.83-.09,2.54,2.54,0,0,0-1.83.63,3.66,3.66,0,0,0-.94,1.37V63.44h-2.49V48.67h2.27v2h.07a4,4,0,0,1,.4-.84,2.71,2.71,0,0,1,.61-.74,2.64,2.64,0,0,1,.88-.51,3.63,3.63,0,0,1,1.21-.18,3.3,3.3,0,0,1,.85.09l.51.15Zm15.32,1.72,7.2,10.86H165l-6.16-9.66h-1.6v9.66h-2.67V42.21h2.67v9.45h1.63l5.94-9.45h3Zm19.29,10.86h-2.28V61.78H178a3.53,3.53,0,0,1-.4.54,4.39,4.39,0,0,1-.78.67,5,5,0,0,1-1.16.57,4.23,4.23,0,0,1-1.51.25,5.11,5.11,0,0,1-1.76-.29,3.24,3.24,0,0,1-1.34-.94,4.43,4.43,0,0,1-.85-1.68,9.65,9.65,0,0,1-.29-2.54V48.67h2.49v9.51a4.41,4.41,0,0,0,.6,2.63,2.2,2.2,0,0,0,1.86.78,3,3,0,0,0,1.82-.54A6.18,6.18,0,0,0,177.87,60V48.67h2.49ZM186.63,60a2.31,2.31,0,0,0,.27,1.3,1,1,0,0,0,.9.36,2.26,2.26,0,0,0,.57-.06,2.14,2.14,0,0,0,.36-.12l.21,1.85a5.13,5.13,0,0,1-.68.24,4.6,4.6,0,0,1-1.32.16,2.75,2.75,0,0,1-2-.77,3.87,3.87,0,0,1-.77-2.74V41.69l2.49-.28Zm10.86-9.29h-3.23v8.19a4,4,0,0,0,.4,2.13,1.55,1.55,0,0,0,1.36.57,2.71,2.71,0,0,0,.95-.15,2.86,2.86,0,0,0,.58-.28l.34,2a4.63,4.63,0,0,1-.74.39,3.92,3.92,0,0,1-1.56.26,3.69,3.69,0,0,1-2.87-1.06,5.27,5.27,0,0,1-.95-3.53V50.7H190V49l1.78-.37.28-4.12h2.21v4.12h3.54Zm13.17,12.74h-2.28V61.78h-.06a2.94,2.94,0,0,1-.4.54,3.78,3.78,0,0,1-.78.67,4.82,4.82,0,0,1-1.16.57,4.22,4.22,0,0,1-1.5.25,5.13,5.13,0,0,1-1.77-.29,3.24,3.24,0,0,1-1.34-.94,4.43,4.43,0,0,1-.85-1.68,9.65,9.65,0,0,1-.29-2.54V48.67h2.49v9.51a4.41,4.41,0,0,0,.6,2.63,2.2,2.2,0,0,0,1.86.78,3,3,0,0,0,1.82-.54A6.18,6.18,0,0,0,208.17,60V48.67h2.49ZM221,50.86a2,2,0,0,0-.4-.16,3.13,3.13,0,0,0-.83-.09,2.54,2.54,0,0,0-1.83.63,3.55,3.55,0,0,0-.94,1.37V63.44h-2.5V48.67h2.28v2h.06a5.38,5.38,0,0,1,.4-.84,2.94,2.94,0,0,1,.62-.74,2.6,2.6,0,0,1,.87-.51,3.69,3.69,0,0,1,1.22-.18,3.3,3.3,0,0,1,.85.09l.5.15Zm18.61,12.58H237.3V61.78h-.06a2.94,2.94,0,0,1-.4.54,4.06,4.06,0,0,1-.78.67,5,5,0,0,1-1.16.57,4.23,4.23,0,0,1-1.51.25,5.11,5.11,0,0,1-1.76-.29,3.24,3.24,0,0,1-1.34-.94,4.43,4.43,0,0,1-.85-1.68,9.65,9.65,0,0,1-.29-2.54V48.67h2.49v9.51a4.41,4.41,0,0,0,.6,2.63,2.2,2.2,0,0,0,1.86.78,3,3,0,0,0,1.82-.54A6.18,6.18,0,0,0,237.09,60V48.67h2.49Zm11.87,0V53.93a4.45,4.45,0,0,0-.63-2.69,2.28,2.28,0,0,0-1.92-.81,3,3,0,0,0-1.85.55,7,7,0,0,0-1.17,1.08V63.44h-2.49V48.67h2.28v1.66h.06a3.53,3.53,0,0,1,.4-.54,3.93,3.93,0,0,1,.8-.67,5.31,5.31,0,0,1,1.17-.57,4.33,4.33,0,0,1,1.54-.25,5,5,0,0,1,1.78.3,3.13,3.13,0,0,1,1.36.93,4.58,4.58,0,0,1,.86,1.68,9.17,9.17,0,0,1,.31,2.54v9.69ZM257,56.27a10.39,10.39,0,0,1,.59-3.75,6.75,6.75,0,0,1,1.5-2.43,5.34,5.34,0,0,1,2.09-1.31,7.35,7.35,0,0,1,2.34-.38,6.37,6.37,0,0,1,1.23.1,4,4,0,0,1,.86.26V41.69l2.5-.28v22h-2.28V61.87h-.06a4.39,4.39,0,0,1-.34.51,3.26,3.26,0,0,1-.68.64,4,4,0,0,1-1.07.56,4.61,4.61,0,0,1-1.51.23,4.83,4.83,0,0,1-2-.42,4.27,4.27,0,0,1-1.64-1.32,6.8,6.8,0,0,1-1.12-2.34A12.4,12.4,0,0,1,257,56.27Zm5.85,5.32a3.35,3.35,0,0,0,1-.15,2.84,2.84,0,0,0,.8-.39,3.11,3.11,0,0,0,.57-.47,4.46,4.46,0,0,0,.35-.43V51a3.53,3.53,0,0,0-.78-.37,3.57,3.57,0,0,0-1.12-.15,4.52,4.52,0,0,0-1.62.29,3.23,3.23,0,0,0-1.31,1,5,5,0,0,0-.87,1.75,9.16,9.16,0,0,0-.33,2.65,10.38,10.38,0,0,0,.27,2.57,4.72,4.72,0,0,0,.72,1.66,2.69,2.69,0,0,0,2.28,1.18Zm33.81-19.38V63.44h-2.59v-12c0-.61,0-1.19,0-1.72s0-1,0-1.42,0-.72.06-.95h-.09c-.1.47-.31,1.24-.63,2.29s-.68,2.19-1.09,3.4l-3.51,10.37h-2.12l-3.51-10.37c-.41-1.21-.77-2.34-1.09-3.4s-.53-1.82-.63-2.29h-.09c0,.25,0,.57.06,1s0,.88,0,1.4,0,1.1,0,1.71v12H279V42.21h3l5,14.65q.35,1,.6,2a9.29,9.29,0,0,1,.33,1.68h.06a7.74,7.74,0,0,1,.29-1.66c.18-.64.38-1.3.6-2l5-14.68Zm13.69,11.45a15.62,15.62,0,0,1-.07,1.64c0,.46-.08.87-.12,1.22h-7.54a6.58,6.58,0,0,0,1.13,3.84,3.47,3.47,0,0,0,2.87,1.23,4.25,4.25,0,0,0,1.17-.15,4.45,4.45,0,0,0,1.56-.8c.17-.14.3-.26.38-.34l.92,1.75c-.1.11-.25.26-.46.45a4,4,0,0,1-.83.59,6.1,6.1,0,0,1-1.29.5,6.52,6.52,0,0,1-1.82.22,6.66,6.66,0,0,1-2.5-.46,4.8,4.8,0,0,1-1.91-1.43,7,7,0,0,1-1.22-2.47,13.24,13.24,0,0,1-.43-3.58,11.43,11.43,0,0,1,.45-3.4,6.84,6.84,0,0,1,1.21-2.35,4.88,4.88,0,0,1,1.79-1.37,5.32,5.32,0,0,1,2.18-.45,4.25,4.25,0,0,1,3.33,1.34A5.85,5.85,0,0,1,310.34,53.66Zm-4.68-3.33a2.49,2.49,0,0,0-2.12,1.11,6.08,6.08,0,0,0-.93,3.2H308a3.52,3.52,0,0,0,0-.45c0-.19,0-.4,0-.63a4,4,0,0,0-.62-2.38A2.07,2.07,0,0,0,305.66,50.33ZM313,56.27a10.39,10.39,0,0,1,.59-3.75,6.89,6.89,0,0,1,1.5-2.43,5.31,5.31,0,0,1,2.1-1.31,7.24,7.24,0,0,1,2.33-.38,6.37,6.37,0,0,1,1.23.1,4.33,4.33,0,0,1,.87.26V41.69l2.49-.28v22h-2.28V61.87h-.06a4.39,4.39,0,0,1-.34.51,3.26,3.26,0,0,1-.68.64,4,4,0,0,1-1.07.56,4.61,4.61,0,0,1-1.51.23,4.75,4.75,0,0,1-2-.42,4.23,4.23,0,0,1-1.65-1.32,6.8,6.8,0,0,1-1.12-2.34A12.4,12.4,0,0,1,313,56.27Zm5.85,5.32a3.35,3.35,0,0,0,1-.15,2.84,2.84,0,0,0,.8-.39,3.11,3.11,0,0,0,.57-.47,4.8,4.8,0,0,0,.36-.43V51a3.85,3.85,0,0,0-.79-.37,3.57,3.57,0,0,0-1.12-.15,4.56,4.56,0,0,0-1.62.29,3.14,3.14,0,0,0-1.3,1,4.87,4.87,0,0,0-.88,1.75,9.19,9.19,0,0,0-.32,2.65,10.43,10.43,0,0,0,.26,2.57,4.72,4.72,0,0,0,.72,1.66,2.69,2.69,0,0,0,2.28,1.18Zm11.56,1.85H327.9V48.67h2.49ZM329.16,45.1a1.6,1.6,0,0,1-1.23-.49,1.8,1.8,0,0,1-.46-1.29,1.76,1.76,0,0,1,.46-1.26,1.6,1.6,0,0,1,1.23-.49,1.54,1.54,0,0,1,1.2.49,1.76,1.76,0,0,1,.46,1.26,1.8,1.8,0,0,1-.46,1.29A1.54,1.54,0,0,1,329.16,45.1Zm14.52,8.56c0,.63,0,1.18-.06,1.64s-.08.87-.12,1.22H336a6.59,6.59,0,0,0,1.12,3.84A3.51,3.51,0,0,0,340,61.59a4.25,4.25,0,0,0,1.17-.15,4.53,4.53,0,0,0,.91-.37,4.43,4.43,0,0,0,.64-.43,4.24,4.24,0,0,0,.39-.34l.92,1.75c-.1.11-.26.26-.46.45a4.25,4.25,0,0,1-.83.59,6.1,6.1,0,0,1-1.29.5,6.57,6.57,0,0,1-1.82.22,6.72,6.72,0,0,1-2.51-.46,4.83,4.83,0,0,1-1.9-1.43A6.88,6.88,0,0,1,334,59.45a13.24,13.24,0,0,1-.43-3.58,11.43,11.43,0,0,1,.45-3.4,6.84,6.84,0,0,1,1.21-2.35A4.88,4.88,0,0,1,337,48.75a5.28,5.28,0,0,1,2.18-.45,4.23,4.23,0,0,1,3.32,1.34A5.85,5.85,0,0,1,343.68,53.66ZM339,50.33a2.52,2.52,0,0,0-2.13,1.11,6.08,6.08,0,0,0-.92,3.2h5.39a3.52,3.52,0,0,0,0-.45c0-.19,0-.4,0-.63a4,4,0,0,0-.62-2.38A2.07,2.07,0,0,0,339,50.33Zm16.06,13.11V53.93a4.45,4.45,0,0,0-.63-2.69,2.3,2.3,0,0,0-1.93-.81,3,3,0,0,0-1.84.55,6.6,6.6,0,0,0-1.17,1.08V63.44H347V48.67h2.27v1.66h.06a4.39,4.39,0,0,1,.4-.54,4.23,4.23,0,0,1,.8-.67,5.31,5.31,0,0,1,1.17-.57,4.36,4.36,0,0,1,1.54-.25,5.09,5.09,0,0,1,1.79.3,3.16,3.16,0,0,1,1.35.93,4.44,4.44,0,0,1,.86,1.68,8.81,8.81,0,0,1,.31,2.54v9.69Z" fill="#fff"/><polygon points="97.72 11.73 97.72 63.44 93.84 63.44 88.67 63.44 88.67 11.73 88.67 11.73 97.72 11.73" fill="#fff"/><polygon points="92.55 63.44 97.72 63.44 97.72 115.14 88.67 115.14 88.67 63.44 88.67 63.44 92.55 63.44" fill="#fff" opacity="0.5"/><polygon points="93.84 115.14 97.72 115.14 97.72 166.85 88.67 166.85 88.67 115.14 88.67 115.14 93.84 115.14" fill="#fff" opacity="0.25"/><path d="M65.12,29.81C67.77,34,69.84,33.92,73,33.92a22.07,22.07,0,0,1-5.11-5.82L63,20.37a11.45,11.45,0,0,0-3.56-6.29,5.88,5.88,0,0,0,1.45-.72c-3.15,0-6.28-1.6-8-1.6a1.62,1.62,0,0,0-1.82,1.54c.07,1,1.07,2,2.93,2a9.55,9.55,0,0,0,1.54-.15,7.31,7.31,0,0,1,1.81,4.46c0,3.39-4,6-8.13,6-.23,0-.45,0-.68,0-.38-.83-1.61-2.24-1.61-3.85,0-2.69,1.76-4.89,1.76-7.55a5,5,0,0,0-1.12-3.11,4.86,4.86,0,0,0,1.18-1.43,2.83,2.83,0,0,1-1.14.14c-2,0-3.56-.51-5.12-.51-.88,0-1.12.28-1.12.54a.55.55,0,0,0,0,.24,5,5,0,0,0-1-.28,7.59,7.59,0,0,0-1.48-.14c-1.89,0-2.56.8-2.56,1.48a5.7,5.7,0,0,0,1,2.42,5.71,5.71,0,0,1,2-.62c1,0,1.9,1,2.37,2.09a9.13,9.13,0,0,1-1.48.11,11.34,11.34,0,0,1-3.36-.66s-.07,0-.07.05c0,.26.52.95,1.55,1.32a19.47,19.47,0,0,0,3.73.76,1.68,1.68,0,0,1-.73.83.64.64,0,0,1-.24,0,17.25,17.25,0,0,1-3.61-1.09c-.06,0-.09,0-.09.07,0,.71,1.84,2.28,3.49,2.88-1.38,1.76-3.1,3.56-3.91,6.3-.23,0-.45,0-.68,0-4.09,0-8.14-2.64-8.14-6A7.32,7.32,0,0,1,30,15.11a9.55,9.55,0,0,0,1.54.15c1.86,0,2.86-1,2.93-2a1.62,1.62,0,0,0-1.82-1.54c-1.72,0-4.85,1.6-8,1.6a6.07,6.07,0,0,0,1.45.72,11.5,11.5,0,0,0-3.55,6.29L17.71,28.1a22.26,22.26,0,0,1-5.11,5.82c3.12,0,5.2.07,7.84-4.11l2.48-4a10.74,10.74,0,0,0,.68,1.51l-4.93,7.89a22.47,22.47,0,0,1-5.12,5.82c3.13,0,5.2.07,7.85-4.11l4.24-6.8c.32.34.65.67,1,1l-6,9.58a22.18,22.18,0,0,1-5.12,5.82c3.13,0,5.2.08,7.85-4.11l5.83-9.34c.39.24.78.47,1.19.7l-7.13,11.4A22.23,22.23,0,0,1,18.17,51c3.13,0,5.2.07,7.84-4.11l7.34-11.75c.44.17.88.33,1.32.47L26.38,48.89a22.62,22.62,0,0,1-5.11,5.82c3.13,0,5.2.07,7.85-4.11L38,36.45l.27,0a7.39,7.39,0,0,1,.41,2.19c0,4.44-2.92,8.37-6.42,11.4a2.71,2.71,0,0,0,1,.13,8.66,8.66,0,0,0,1.52-.1,35.58,35.58,0,0,1-3.43,5.46,25.19,25.19,0,0,0-3.91-.37c-1.14,0-1.27.67-1.27,1.27a3,3,0,0,0,1.05,2.32c.21-.53.64-1.24,2.75-1.24h.21c-.61.69-2.55,2.25-2.55,3.51a2.31,2.31,0,0,0,2.12,2.08,2.64,2.64,0,0,1-.06-.7,5.47,5.47,0,0,1,1.66-3.05,4.21,4.21,0,0,0,0,.51c0,2.41.22,3.52,1.75,3.52a2.35,2.35,0,0,0,1.44-.54c-1-.91-1-1.63-1-3,0-.35,0-.69,0-1.17a6.84,6.84,0,0,0-.05-1,7.5,7.5,0,0,1,1.19-.07s2.17-.18,2.69.95c.59-.54,1.44-1.3,1.44-2.14,0-.56-.26-1.19-1.38-1.19-.42,0-1.75.26-2.87.26a28.7,28.7,0,0,1,2.79-4,3.22,3.22,0,0,0,1.05,1.62,11.55,11.55,0,0,1,2-5.47,26.43,26.43,0,0,1,.39,4.76c0,6-1.44,10.4-4.49,11.25A2.62,2.62,0,0,0,38.33,65c1.11,0,1.72-1.26,2.34-2.45.33.87,1.22,3,2.11,3s1.79-2.16,2.11-3c.62,1.19,1.23,2.45,2.35,2.45a2.62,2.62,0,0,0,2.11-1.31c-3.05-.85-4.49-5.27-4.49-11.25a27.68,27.68,0,0,1,.38-4.76,11.34,11.34,0,0,1,2,5.47,3.24,3.24,0,0,0,1.06-1.62,28.7,28.7,0,0,1,2.79,4c-1.12,0-2.45-.26-2.87-.26-1.12,0-1.39.63-1.39,1.19,0,.84.86,1.6,1.45,2.14.52-1.13,2.69-.95,2.69-.95a7.57,7.57,0,0,1,1.19.07,6.84,6.84,0,0,0-.05,1c0,.48,0,.82,0,1.17,0,1.35,0,2.07-1,3a2.35,2.35,0,0,0,1.44.54c1.53,0,1.75-1.11,1.75-3.52a4.21,4.21,0,0,0,0-.51A5.47,5.47,0,0,1,56,62.46a2.64,2.64,0,0,1-.06.7A2.3,2.3,0,0,0,58,61.08c0-1.26-1.93-2.82-2.55-3.51h.22c2.11,0,2.53.71,2.75,1.24a3,3,0,0,0,1-2.32c0-.6-.12-1.27-1.27-1.27a25.18,25.18,0,0,0-3.9.37,35.58,35.58,0,0,1-3.43-5.46,8.52,8.52,0,0,0,1.51.1,2.77,2.77,0,0,0,1-.13c-3.5-3-6.42-7-6.42-11.4a7.39,7.39,0,0,1,.41-2.19l.27,0L56.45,50.6c2.65,4.18,4.72,4.11,7.85,4.11a22.23,22.23,0,0,1-5.11-5.82l-8.3-13.27c.45-.14.89-.3,1.33-.47L59.55,46.9C62.2,51.08,64.27,51,67.4,51a22.23,22.23,0,0,1-5.11-5.82l-7.13-11.4c.41-.23.8-.46,1.18-.7l5.84,9.34c2.65,4.19,4.72,4.11,7.85,4.11a22.18,22.18,0,0,1-5.12-5.82l-6-9.58c.36-.32.69-.65,1-1L64.17,37c2.65,4.18,4.72,4.11,7.85,4.11a22.47,22.47,0,0,1-5.12-5.82L62,27.35a10.74,10.74,0,0,0,.68-1.51ZM25.56,20.73a8.68,8.68,0,0,1,2.89-5.94l.55.13c-.81,1-2.22,2.62-2.22,4.79,0,4.31,4.61,8.05,9.82,8.05,0,.37-.05.76-.05,1.16a16.64,16.64,0,0,0,.1,1.79C30.75,30.67,25.56,25.88,25.56,20.73Zm8,35.34,0,.11h.1a17.9,17.9,0,0,0,3-.2,5,5,0,0,1,.7-.07c.43,0,.76,0,.76.57a2.18,2.18,0,0,1-.82,1.24A3.66,3.66,0,0,0,34.56,57a13.46,13.46,0,0,0-1.75.16h-.14l0,.2a10.4,10.4,0,0,1,.1,1.34v1.17a4.23,4.23,0,0,0,.68,2.82,1.44,1.44,0,0,1-.46.08c-.87,0-1.13-.38-1.13-2.9,0-.5,0-1,0-1.29l0-.47-.11.09c-1.3,1-2.63,2.76-2.71,4.08a1.8,1.8,0,0,1-.82-1.25c0-.73,1.09-1.81,2.34-3.06l.73-.73.09-.09-.24-.06a5.2,5.2,0,0,0-1.2-.19,3.63,3.63,0,0,0-2.83.85,2.89,2.89,0,0,1-.36-1.32.75.75,0,0,1,.15-.53.66.66,0,0,1,.48-.12h0a28.35,28.35,0,0,1,4.14.4h0l0,0c.12-.17,3.08-4.11,3.85-6.2a1.51,1.51,0,0,1,.64-.12c.58,0,.74.4.91,1A20.18,20.18,0,0,0,33.55,56.07Zm16-6.19a1.51,1.51,0,0,1,.64.12c.77,2.09,3.73,6,3.85,6.2l0,0h0a28.34,28.34,0,0,1,4.13-.4h0a.66.66,0,0,1,.48.12.75.75,0,0,1,.15.53,2.89,2.89,0,0,1-.36,1.32A3.63,3.63,0,0,0,55.68,57a5.2,5.2,0,0,0-1.2.19l-.11,0-.13,0,.82.82c1.25,1.25,2.34,2.33,2.34,3.06a1.83,1.83,0,0,1-.82,1.25c-.08-1.32-1.41-3.09-2.71-4.08l-.11-.08,0,.46c0,.32,0,.79,0,1.29,0,2.52-.26,2.9-1.13,2.9a1.55,1.55,0,0,1-.47-.08,4.17,4.17,0,0,0,.69-2.82V58.75a10.4,10.4,0,0,1,.1-1.34l0-.2-.14,0A13.63,13.63,0,0,0,51,57a3.66,3.66,0,0,0-2.69.69,2.13,2.13,0,0,1-.82-1.24c0-.53.33-.57.76-.57A4.87,4.87,0,0,1,49,56a18.06,18.06,0,0,0,3,.2h.1l0-.11a20.18,20.18,0,0,0-3.42-5.19C48.77,50.28,48.93,49.88,49.51,49.88ZM42.66,15.5a5.49,5.49,0,0,0-1.08-2.14,3,3,0,0,0-2.22-1.18,5.48,5.48,0,0,0-1.73.43,4.9,4.9,0,0,1-.54-1.51c0-.38.63-.76,1.84-.76,2.67,0,4.26,1.21,4.26,3.23A4.85,4.85,0,0,1,42.66,15.5Zm1.2-2.63a3.56,3.56,0,0,0-.65-1.53c0-.52.23-1,1.07-.61-.45.46-.1,1.29-.1,1.29s.93-.43.74-1C46.3,11.3,45.31,13.16,43.86,12.87Zm5.19,17.84a15,15,0,0,0,.11-1.79c0-.33,0-.72,0-1.16,5.15-.07,9.67-3.78,9.67-8,0-2.17-1.42-3.81-2.22-4.79l.55-.13A8.68,8.68,0,0,1,60,20.73C60,25.85,54.89,30.6,49.05,30.71Z" fill="#fff"/></svg>