<?xml version="1.0" encoding="utf-8"?>
<!DOCTYPE svg PUBLIC "-//W3C//DTD SVG 1.1//EN" "http://www.w3.org/Graphics/SVG/1.1/DTD/svg11.dtd">
<svg version="1.1" id="Layer_1" xmlns="http://www.w3.org/2000/svg" xmlns:xlink="http://www.w3.org/1999/xlink" x="0px" y="0px"
	 viewBox="0 0 1005.3 328.8" enable-background="new 0 0 1005.3 328.8" xml:space="preserve">
<rect fill="#FFFFFF" width="328.8" height="328.8"/>
<path fill="#E12E2E" d="M0,0v328.8h328.8V0H0z M255.8,260.9h-67.6l-55.1-64.2v64.2H78.6v-193h54.6v63.4l50.7-63.4h65.3v3.3
	l-78.3,91.3l84.9,95.1V260.9z"/>
<g>
	<g>
		<path d="M473.6,0.8L423.2,55l54.5,57.1v1.3h-26.4L404,63.3v50.2h-21.4V0.2H404v47.9L447,0.2h26.5V0.8z"/>
		<path d="M582.8,0.3v64.9c0,33.5-20.6,50.7-49,50.7c-27.2,0-50.3-16.5-50.3-50.7V0.3h21.2v64.9c0,20.4,11.7,31.2,29.3,31.2
			c17.6,0,27.7-11.8,27.7-31.2V0.3H582.8z"/>
		<path d="M625.1,0.2v93.6h58.3v19.7h-79.6V0.2H625.1z"/>
		<path d="M710.8,19.6h-35.9V0.2c32.7,0,60.4,0,93.2,0v19.4h-35.9v93.9h-21.4V19.6z"/>
		<path d="M883.9,0.3v64.9c0,33.5-20.6,50.7-49,50.7c-27.2,0-50.3-16.5-50.3-50.7V0.3h21.2v64.9c0,20.4,11.7,31.2,29.3,31.2
			c17.6,0,27.7-11.8,27.7-31.2V0.3H883.9z"/>
		<path d="M1005.3,113.5h-25.4l-33-37.9h-20.6v37.9h-21.4V0c18,0,35.9,0.2,53.9,0.2c26.7,0.2,40.8,18,40.8,37.6
			c0,15.5-7.1,31.2-28.6,35.6l34.3,38.7V113.5z M926.3,20.1v36.3h32.5c13.6,0,19.4-9.1,19.4-18.1c0-9.1-6-18.1-19.4-18.1H926.3z"/>
	</g>
	<g>
		<path d="M433.3,149c-2.6-4.3-9.7-8.4-17.8-8.4c-10.5,0-15.6,4.4-15.6,10c0,6.6,7.7,8.4,16.8,9.5c15.7,1.9,30.3,6,30.3,24
			c0,16.8-14.8,24-31.6,24c-15.4,0-27.2-4.7-32.8-18.5l11.8-6.1c3.3,8.3,12,11.9,21.2,11.9c8.9,0,17.3-3.1,17.3-11.3
			c0-7.1-7.4-10-17.4-11.1c-15.4-1.8-29.5-5.9-29.5-22.8c0-15.5,15.3-21.8,29.1-21.9c11.7,0,23.9,3.3,29.5,14.9L433.3,149z"/>
		<path d="M493.4,183.9h-21.3V206h-14.2v-75.2c11.8,0,23.6-0.1,35.5-0.1C530.1,130.7,530.2,183.9,493.4,183.9z M472.1,170.9h21.3
			c18.2,0,18-26.6,0-26.6h-21.3V170.9z"/>
		<path d="M586.6,206h-56.3c0-25,0-50.2,0-75.2h56.3v13.8h-42.2v17.3h40.7v13.2h-40.7v17h42.2V206z"/>
		<path d="M658,131.2l-33.4,36l36.2,37.9v0.9h-17.5l-31.5-33.3V206h-14.2v-75.2h14.2v31.8l28.6-31.8H658V131.2z"/>
		<path d="M687.4,143.7h-23.9v-12.9c21.7,0,40.1,0,61.9,0v12.9h-23.9V206h-14.2V143.7z"/>
		<path d="M787.4,191.8h-39.3l-6.4,14.2h-15.4l33.7-75.2h15.5l33.7,75.2h-15.5L787.4,191.8z M767.8,146.6l-14,32h27.9L767.8,146.6z"
			/>
		<path d="M874.9,131.2l-33.4,36l36.2,37.9v0.9h-17.5l-31.5-33.3V206h-14.2v-75.2h14.2v31.8l28.6-31.8h17.6V131.2z"/>
		<path d="M941,206h-56.3c0-25,0-50.2,0-75.2H941v13.8h-42.2v17.3h40.7v13.2h-40.7v17H941V206z"/>
		<path d="M966.1,130.8v62.1h38.7V206h-52.9v-75.2H966.1z"/>
	</g>
	<g>
		<path d="M469.5,243.1c-9-8.9-21.5-13.3-33.2-13.3c-30.3,0-45.7,22.1-45.6,46c0,24.4,15.5,45.3,45.6,45.3c11.1,0,22.6-3.8,31.4-12
			v-28.9h-36v-6.9h43.5V312c-10.8,10.8-23.6,16.7-39,16.7c-35.1,0-53.3-24.5-53.3-52.7c-0.1-32.3,21.8-53.4,53.3-53.4
			c13.6,0,27.3,5.2,37.8,15.5L469.5,243.1z"/>
		<path d="M579,327.4L567.6,302h-61.7l-11.2,25.4h-8.6l46.3-103.3h8.7l46.3,103.3H579z M564.5,294.6l-27.7-62.9L509,294.6H564.5z"/>
		<path d="M672.1,224.1v64.2c0,54-79.1,54.2-79.1,0v-64.2h7.8v64.2c0,44.4,63.5,44.3,63.5,0v-64.2H672.1z"/>
		<path d="M723.1,231.3h-37.3v-7.1h82.6v7.1h-37.3v96.1h-8V231.3z"/>
		<path d="M783.6,327.4V224.1h7.8v103.3H783.6z"/>
		<path d="M817.7,224.1l69.5,85.4v-85.4h7.8v103.3h-3.1l-69.6-85.3v85.3h-8V224.1H817.7z"/>
		<path d="M999.4,243.1c-9-8.9-21.5-13.3-33.2-13.3c-30.2,0-45.7,22.1-45.6,46c0,24.4,15.5,45.3,45.6,45.3c11.1,0,22.6-3.8,31.4-12
			v-28.9h-36v-6.9h43.5V312c-10.8,10.8-23.6,16.7-39,16.7c-35.1,0-53.3-24.5-53.3-52.7c-0.1-32.3,21.8-53.4,53.3-53.4
			c13.6,0,27.3,5.2,37.8,15.5L999.4,243.1z"/>
	</g>
</g>
</svg>
