<?xml version="1.0" encoding="utf-8"?>
<!DOCTYPE svg PUBLIC "-//W3C//DTD SVG 1.1//EN" "http://www.w3.org/Graphics/SVG/1.1/DTD/svg11.dtd">
<svg version="1.1" id="Layer_1" xmlns="http://www.w3.org/2000/svg" xmlns:xlink="http://www.w3.org/1999/xlink" x="0px" y="0px"
	 viewBox="0 0 328.8 526.4" enable-background="new 0 0 328.8 526.4" xml:space="preserve">
<rect x="0.1" fill="#FFFFFF" width="328.8" height="328.8"/>
<path fill="#E12E2E" d="M0.1,0v328.8h328.8V0H0.1z M256,260.9h-67.6l-55.1-64.2v64.2H78.7v-193h54.6v63.4L184,67.9h65.3v3.3
	L171,162.5l84.9,95.1V260.9z"/>
<g>
	<g>
		<path d="M48.2,353.2l-26.6,28.6L50.4,412v0.7H36.5l-25-26.5v26.5H0.1v-59.8h11.3v25.3l22.7-25.3h14V353.2z"/>
		<path d="M105.9,353v34.3C105.9,404.9,95,414,80,414c-14.4,0-26.6-8.7-26.6-26.8V353h11.2v34.3c0,10.8,6.2,16.5,15.5,16.5
			c9.3,0,14.6-6.2,14.6-16.5V353H105.9z"/>
		<path d="M128.2,352.9v49.4h30.8v10.4h-42.1v-59.8H128.2z"/>
		<path d="M173.5,363.2h-19v-10.3c17.3,0,31.9,0,49.2,0v10.3h-19v49.6h-11.3V363.2z"/>
		<path d="M264.8,353v34.3c0,17.7-10.9,26.8-25.9,26.8c-14.4,0-26.6-8.7-26.6-26.8V353h11.2v34.3c0,10.8,6.2,16.5,15.5,16.5
			c9.3,0,14.6-6.2,14.6-16.5V353H264.8z"/>
		<path d="M328.9,412.7h-13.4l-17.4-20h-10.9v20h-11.3v-59.9c9.5,0,19,0.1,28.5,0.1c14.1,0.1,21.5,9.5,21.5,19.8
			c0,8.2-3.8,16.5-15.1,18.8l18.1,20.4V412.7z M287.2,363.4v19.1h17.2c7.2,0,10.3-4.8,10.3-9.6c0-4.8-3.2-9.6-10.3-9.6H287.2z"/>
	</g>
	<g>
		<path d="M26.9,431.5c-1.4-2.3-5.1-4.4-9.4-4.4c-5.6,0-8.2,2.3-8.2,5.3c0,3.5,4.1,4.4,8.9,5c8.3,1,16,3.2,16,12.7
			c0,8.9-7.8,12.7-16.7,12.7c-8.1,0-14.4-2.5-17.3-9.8l6.2-3.2c1.8,4.4,6.4,6.3,11.2,6.3c4.7,0,9.1-1.6,9.1-6c0-3.7-3.9-5.3-9.2-5.8
			c-8.1-1-15.6-3.1-15.6-12c0-8.2,8.1-11.5,15.4-11.6c6.2,0,12.6,1.8,15.6,7.9L26.9,431.5z"/>
		<path d="M58.6,449.9H47.4v11.7h-7.5v-39.7c6.2,0,12.5-0.1,18.7-0.1C78,421.8,78.1,449.9,58.6,449.9z M47.4,443.1h11.2
			c9.6,0,9.5-14.1,0-14.1H47.4V443.1z"/>
		<path d="M107.9,461.6H78.1c0-13.2,0-26.5,0-39.7h29.7v7.3H85.6v9.1h21.5v7H85.6v9h22.3V461.6z"/>
		<path d="M145.5,422.1l-17.6,19l19.1,20v0.5h-9.2L121.1,444v17.6h-7.5v-39.7h7.5v16.8l15.1-16.8h9.3V422.1z"/>
		<path d="M161.1,428.7h-12.6v-6.8c11.5,0,21.2,0,32.7,0v6.8h-12.6v32.9h-7.5V428.7z"/>
		<path d="M213.9,454.1h-20.8l-3.4,7.5h-8.1l17.8-39.7h8.2l17.8,39.7h-8.2L213.9,454.1z M203.5,430.2l-7.4,16.9h14.8L203.5,430.2z"
			/>
		<path d="M260.1,422.1l-17.6,19l19.1,20v0.5h-9.2L235.7,444v17.6h-7.5v-39.7h7.5v16.8l15.1-16.8h9.3V422.1z"/>
		<path d="M295,461.6h-29.7c0-13.2,0-26.5,0-39.7H295v7.3h-22.3v9.1h21.5v7h-21.5v9H295V461.6z"/>
		<path d="M308.3,421.9v32.8h20.4v6.9h-27.9v-39.7H308.3z"/>
	</g>
	<g>
		<path d="M46,481.2c-4.8-4.7-11.4-7-17.5-7c-16,0-24.2,11.7-24.1,24.3c0,12.9,8.2,23.9,24.1,23.9c5.8,0,11.9-2,16.6-6.3v-15.3H26
			v-3.7h23v20.4c-5.7,5.7-12.5,8.8-20.6,8.8c-18.5,0-28.1-12.9-28.1-27.8c-0.1-17.1,11.5-28.2,28.1-28.2c7.2,0,14.4,2.7,19.9,8.2
			L46,481.2z"/>
		<path d="M103.8,525.7l-6-13.4H65.2l-5.9,13.4h-4.5l24.5-54.5h4.6l24.5,54.5H103.8z M96.2,508.4l-14.6-33.2l-14.7,33.2H96.2z"/>
		<path d="M153,471.1V505c0,28.5-41.8,28.6-41.8,0v-33.9h4.1V505c0,23.5,33.5,23.4,33.5,0v-33.9H153z"/>
		<path d="M180,474.9h-19.7v-3.7h43.6v3.7h-19.7v50.7H180V474.9z"/>
		<path d="M211.9,525.7v-54.5h4.1v54.5H211.9z"/>
		<path d="M229.9,471.1l36.7,45.1v-45.1h4.1v54.5h-1.6l-36.8-45v45h-4.2v-54.5H229.9z"/>
		<path d="M325.8,481.2c-4.8-4.7-11.4-7-17.5-7c-16,0-24.2,11.7-24.1,24.3c0,12.9,8.2,23.9,24.1,23.9c5.8,0,11.9-2,16.6-6.3v-15.3
			h-19v-3.7h23v20.4c-5.7,5.7-12.5,8.8-20.6,8.8c-18.5,0-28.1-12.9-28.1-27.8c-0.1-17.1,11.5-28.2,28.1-28.2
			c7.2,0,14.4,2.7,19.9,8.2L325.8,481.2z"/>
	</g>
</g>
</svg>
