<?xml version="1.0" encoding="utf-8"?>
<!-- Generator: Adobe Illustrator 18.0.0, SVG Export Plug-In . SVG Version: 6.00 Build 0)  -->
<!DOCTYPE svg PUBLIC "-//W3C//DTD SVG 1.1//EN" "http://www.w3.org/Graphics/SVG/1.1/DTD/svg11.dtd">
<svg version="1.1" id="Layer_1" xmlns="http://www.w3.org/2000/svg" xmlns:xlink="http://www.w3.org/1999/xlink" x="0px" y="0px"
	 viewBox="0 110.8 328.8 107.4" enable-background="new 0 110.8 328.8 107.4" xml:space="preserve">
<rect y="110.6" fill="#FFFFFF" width="107.5" height="107.5"/>
<path fill="#E12E2E" d="M0,110.6v107.5h107.5V110.6H0z M83.7,196H61.6l-18-21v21H25.7v-63.1h17.9v20.7l16.6-20.7h21.4v1.1L56,163.9
	L83.8,195C83.7,194.9,83.7,196,83.7,196z"/>
<g>
	<g>
		<path fill="#FFFFFF" d="M154.9,110.9l-16.5,17.7l17.8,18.7v0.4h-8.6l-15.5-16.4v16.4h-7v-37.1h7v15.7l14.1-15.7h8.7V110.9
			L154.9,110.9z"/>
		<path fill="#FFFFFF" d="M190.6,110.7V132c0,11-6.7,16.6-16,16.6c-8.9,0-16.5-5.4-16.5-16.6v-21.2h6.9V132c0,6.7,3.8,10.2,9.6,10.2
			s9.1-3.9,9.1-10.2v-21.2h6.9V110.7z"/>
		<path fill="#FFFFFF" d="M204.5,110.7v30.6h19.1v6.4h-26v-37.1h6.9V110.7z"/>
		<path fill="#FFFFFF" d="M232.5,117h-11.7v-6.3c10.7,0,19.8,0,30.5,0v6.3h-11.7v30.7h-7L232.5,117L232.5,117z"/>
		<path fill="#FFFFFF" d="M289.1,110.7V132c0,11-6.7,16.6-16,16.6c-8.9,0-16.5-5.4-16.5-16.6v-21.2h6.9V132c0,6.7,3.8,10.2,9.6,10.2
			c5.8,0,9.1-3.9,9.1-10.2v-21.2h6.9V110.7z"/>
		<path fill="#FFFFFF" d="M328.8,147.8h-8.3l-10.8-12.4H303v12.4h-7v-37.1c5.9,0,11.7,0.1,17.6,0.1c8.7,0.1,13.3,5.9,13.3,12.3
			c0,5.1-2.3,10.2-9.4,11.6l11.2,12.7L328.8,147.8L328.8,147.8z M303,117.2v11.9h10.6c4.4,0,6.3-3,6.3-5.9c0-3-2-5.9-6.3-5.9
			L303,117.2L303,117.2z"/>
	</g>
	<g>
		<path fill="#FFFFFF" d="M141.7,159.4c-0.9-1.4-3.2-2.7-5.8-2.7c-3.4,0-5.1,1.4-5.1,3.3c0,2.2,2.5,2.7,5.5,3.1
			c5.1,0.6,9.9,2,9.9,7.9c0,5.5-4.8,7.9-10.3,7.9c-5,0-8.9-1.5-10.7-6.1l3.9-2c1.1,2.7,3.9,3.9,6.9,3.9c2.9,0,5.7-1,5.7-3.7
			c0-2.3-2.4-3.3-5.7-3.6c-5-0.6-9.6-1.9-9.6-7.5c0-5.1,5-7.1,9.5-7.2c3.8,0,7.8,1.1,9.6,4.9L141.7,159.4z"/>
		<path fill="#FFFFFF" d="M161.4,170.8h-7v7.2h-4.6v-24.6c3.9,0,7.7,0,11.6,0C173.4,153.4,173.4,170.8,161.4,170.8z M154.4,166.5h7
			c6,0,5.9-8.7,0-8.7h-7V166.5z"/>
		<path fill="#FFFFFF" d="M191.9,178h-18.4c0-8.2,0-16.4,0-24.6h18.4v4.5h-13.8v5.7h13.3v4.3h-13.3v5.6h13.8V178z"/>
		<path fill="#FFFFFF" d="M215.2,153.6l-10.9,11.8l11.8,12.4v0.3h-5.7l-10.3-10.9V178h-4.6v-24.6h4.6v10.4l9.4-10.4h5.8v0.2H215.2z"
			/>
		<path fill="#FFFFFF" d="M224.8,157.6H217v-4.2c7.1,0,13.1,0,20.2,0v4.2h-7.8V178h-4.6L224.8,157.6L224.8,157.6z"/>
		<path fill="#FFFFFF" d="M257.5,173.4h-12.9l-2.1,4.6h-5l11-24.6h5.1l11,24.6h-5.1L257.5,173.4z M251.1,158.6l-4.6,10.5h9.1
			L251.1,158.6z"/>
		<path fill="#FFFFFF" d="M286.2,153.6l-10.9,11.8l11.8,12.4v0.3h-5.7l-10.3-10.9V178h-4.6v-24.6h4.6v10.4l9.4-10.4h5.8L286.2,153.6
			L286.2,153.6z"/>
		<path fill="#FFFFFF" d="M307.8,178h-18.4c0-8.2,0-16.4,0-24.6h18.4v4.5H294v5.7h13.3v4.3H294v5.6h13.8V178z"/>
		<path fill="#FFFFFF" d="M316,153.4v20.3h12.7v4.3h-17.3v-24.6H316z"/>
	</g>
	<g>
		<path fill="#FFFFFF" d="M153.6,190.2c-2.9-2.9-7-4.4-10.9-4.4c-9.9,0-14.9,7.2-14.9,15c0,8,5.1,14.8,14.9,14.8
			c3.6,0,7.4-1.2,10.3-3.9v-9.5h-11.8V200h14.2v12.7c-3.5,3.5-7.7,5.5-12.8,5.5c-11.5,0-17.4-8-17.4-17.2c0-10.6,7.1-17.5,17.4-17.5
			c4.4,0,8.9,1.7,12.4,5.1L153.6,190.2z"/>
		<path fill="#FFFFFF" d="M189.4,217.7l-3.7-8.3h-20.2l-3.7,8.3H159l15.1-33.8h2.8l15.1,33.8H189.4z M184.6,207l-9.1-20.6l-9.1,20.6
			H184.6z"/>
		<path fill="#FFFFFF" d="M219.8,183.9v21c0,17.7-25.9,17.7-25.9,0v-21h2.6v21c0,14.5,20.8,14.5,20.8,0v-21
			C217.3,183.9,219.8,183.9,219.8,183.9z"/>
		<path fill="#FFFFFF" d="M236.5,186.3h-12.2V184h27v2.3h-12.2v31.4h-2.6V186.3z"/>
		<path fill="#FFFFFF" d="M256.3,217.7v-33.8h2.6v33.8H256.3z"/>
		<path fill="#FFFFFF" d="M267.5,183.9l22.7,27.9v-27.9h2.6v33.8h-1L269,189.8v27.9h-2.6v-33.8H267.5z"/>
		<path fill="#FFFFFF" d="M326.9,190.2c-2.9-2.9-7-4.4-10.9-4.4c-9.9,0-14.9,7.2-14.9,15c0,8,5.1,14.8,14.9,14.8
			c3.6,0,7.4-1.2,10.3-3.9v-9.5h-11.8V200h14.2v12.7c-3.5,3.5-7.7,5.5-12.8,5.5c-11.5,0-17.4-8-17.4-17.2c0-10.6,7.1-17.5,17.4-17.5
			c4.4,0,8.9,1.7,12.4,5.1L326.9,190.2z"/>
	</g>
</g>
</svg>
