<?xml version="1.0" encoding="UTF-8" standalone="no"?>
<!DOCTYPE svg PUBLIC "-//W3C//DTD SVG 1.1//EN" "http://www.w3.org/Graphics/SVG/1.1/DTD/svg11.dtd">
<svg width="100%" height="100%" viewBox="0 0 850 1420" version="1.1" xmlns="http://www.w3.org/2000/svg" xmlns:xlink="http://www.w3.org/1999/xlink" xml:space="preserve" xmlns:serif="http://www.serif.com/" style="fill-rule:evenodd;clip-rule:evenodd;stroke-linejoin:round;stroke-miterlimit:2;">
    <g transform="matrix(1,0,0,1,-1045.76,-1.80971)">
        <g id="tall" transform="matrix(1,0,0,0.992679,1045.76,1.80971)">
            <rect x="0" y="0" width="850" height="1430.16" style="fill:none;"/>
            <g transform="matrix(0.810466,0,0,0.822684,80.5519,78.4934)">
                <rect x="0" y="0" width="850" height="850" style="fill:white;"/>
            </g>
            <g transform="matrix(1,0,0,1.00737,0,0)">
                <path d="M0,0L0,850L850,850L850,0L0,0ZM661.3,674.5L486.5,674.5L344.1,508.5L344.1,674.5L203.2,674.5L203.2,175.5L344.3,175.5L344.3,339.4L475.4,175.5L644.2,175.5L644.2,184L441.8,420L661.3,665.8L661.3,674.5Z" style="fill:rgb(225,46,46);fill-rule:nonzero;"/>
            </g>
            <g transform="matrix(13.6476,0,0,10.5004,-20703,-7967.14)">
                <rect x="1516.97" y="844.138" width="62.268" height="50.662" style="fill:none;"/>
            </g>
            <g transform="matrix(21.5974,0,0,21.7567,-20952.9,-26483.1)">
                <path d="M976.458,1258.45L973.998,1262.41L976.458,1267.24L974.13,1267.24L972.762,1264.4L972.186,1265.33L972.186,1267.24L970.158,1267.24L970.158,1258.45L972.186,1258.45L972.186,1261.63L974.13,1258.45L976.458,1258.45Z" style="fill-rule:nonzero;"/>
            </g>
            <g transform="matrix(21.5974,0,0,21.7567,-20952.9,-26483.1)">
                <path d="M983.25,1264.87C983.234,1265.22 983.16,1265.54 983.028,1265.84C982.896,1266.15 982.706,1266.41 982.458,1266.64C982.21,1266.86 981.91,1267.04 981.558,1267.17C981.206,1267.3 980.802,1267.37 980.346,1267.37L980.058,1267.37C979.586,1267.37 979.168,1267.3 978.804,1267.16C978.44,1267.02 978.136,1266.83 977.892,1266.59C977.648,1266.35 977.462,1266.07 977.334,1265.75C977.206,1265.43 977.142,1265.09 977.142,1264.73L977.142,1258.45L979.146,1258.45L979.158,1264.73C979.158,1264.85 979.182,1264.96 979.23,1265.07C979.278,1265.18 979.344,1265.27 979.428,1265.36C979.512,1265.44 979.608,1265.51 979.716,1265.56C979.824,1265.6 979.938,1265.63 980.058,1265.63L980.346,1265.63C980.466,1265.63 980.58,1265.6 980.688,1265.56C980.796,1265.51 980.892,1265.44 980.976,1265.36C981.06,1265.27 981.126,1265.18 981.174,1265.07C981.222,1264.96 981.246,1264.85 981.246,1264.73L981.246,1258.45L983.262,1258.45L983.262,1264.87L983.25,1264.87Z" style="fill-rule:nonzero;"/>
            </g>
            <g transform="matrix(21.5974,0,0,21.7567,-20952.9,-26483.1)">
                <path d="M986.598,1265.45L989.202,1265.45L989.202,1267.24L984.582,1267.24L984.582,1258.45L986.598,1258.45L986.598,1265.45Z" style="fill-rule:nonzero;"/>
            </g>
            <g transform="matrix(21.5974,0,0,21.7567,-20952.9,-26483.1)">
                <path d="M994.722,1258.45L994.722,1260.24L992.826,1260.24L992.826,1267.24L990.798,1267.24L990.798,1260.24L988.902,1260.24L988.902,1258.45L994.722,1258.45Z" style="fill-rule:nonzero;"/>
            </g>
            <g transform="matrix(21.5974,0,0,21.7567,-20952.9,-26483.1)">
                <path d="M1001.68,1264.87C1001.67,1265.22 1001.59,1265.54 1001.46,1265.84C1001.33,1266.15 1001.14,1266.41 1000.89,1266.64C1000.64,1266.86 1000.34,1267.04 999.99,1267.17C999.638,1267.3 999.234,1267.37 998.778,1267.37L998.49,1267.37C998.018,1267.37 997.6,1267.3 997.236,1267.16C996.872,1267.02 996.568,1266.83 996.324,1266.59C996.08,1266.35 995.894,1266.07 995.766,1265.75C995.638,1265.43 995.574,1265.09 995.574,1264.73L995.574,1258.45L997.578,1258.45L997.59,1264.73C997.59,1264.85 997.614,1264.96 997.662,1265.07C997.71,1265.18 997.776,1265.27 997.86,1265.36C997.944,1265.44 998.04,1265.51 998.148,1265.56C998.256,1265.6 998.37,1265.63 998.49,1265.63L998.778,1265.63C998.898,1265.63 999.012,1265.6 999.12,1265.56C999.228,1265.51 999.324,1265.44 999.408,1265.36C999.492,1265.27 999.558,1265.18 999.606,1265.07C999.654,1264.96 999.678,1264.85 999.678,1264.73L999.678,1258.45L1001.69,1258.45L1001.69,1264.87L1001.68,1264.87Z" style="fill-rule:nonzero;"/>
            </g>
            <g transform="matrix(21.5974,0,0,21.7567,-20952.9,-26483.1)">
                <path d="M1005.95,1265.3L1005.04,1265.3L1005.04,1267.24L1003.01,1267.24L1003.01,1258.45L1006.21,1258.45C1006.62,1258.43 1007,1258.48 1007.35,1258.6C1007.7,1258.73 1008,1258.9 1008.26,1259.14C1008.51,1259.37 1008.72,1259.64 1008.86,1259.95C1009.01,1260.26 1009.1,1260.59 1009.12,1260.94L1009.12,1262.66C1009.12,1263.09 1009.03,1263.48 1008.85,1263.85C1008.67,1264.21 1008.41,1264.52 1008.08,1264.76L1009.51,1267.24L1007.17,1267.24L1005.95,1265.3ZM1007.12,1261.08C1007.12,1260.96 1007.09,1260.85 1007.04,1260.74C1006.99,1260.63 1006.92,1260.53 1006.84,1260.45C1006.75,1260.37 1006.66,1260.3 1006.55,1260.25C1006.44,1260.2 1006.33,1260.18 1006.21,1260.18L1005.04,1260.18L1005.04,1263.56L1006.21,1263.56C1006.45,1263.56 1006.66,1263.47 1006.84,1263.29C1007.03,1263.11 1007.12,1262.9 1007.12,1262.66L1007.12,1261.08Z" style="fill-rule:nonzero;"/>
            </g>
            <g transform="matrix(14.4027,0,0,14.5089,-13965.5,-17151.9)">
                <path d="M973.014,1261.88C973.398,1261.88 973.756,1261.96 974.088,1262.1C974.42,1262.24 974.712,1262.44 974.964,1262.69C975.216,1262.94 975.414,1263.23 975.558,1263.56C975.702,1263.89 975.774,1264.25 975.774,1264.63C975.774,1265.01 975.702,1265.36 975.558,1265.7C975.414,1266.04 975.216,1266.33 974.964,1266.58C974.712,1266.82 974.42,1267.02 974.088,1267.16C973.756,1267.31 973.398,1267.38 973.014,1267.38L972.402,1267.38C972.018,1267.38 971.66,1267.31 971.328,1267.16C970.996,1267.02 970.706,1266.82 970.458,1266.58C970.21,1266.33 970.014,1266.04 969.87,1265.7C969.726,1265.36 969.654,1265.01 969.654,1264.63L971.502,1264.63C971.502,1264.88 971.588,1265.09 971.76,1265.27C971.932,1265.44 972.146,1265.53 972.402,1265.53L973.014,1265.53C973.27,1265.53 973.486,1265.44 973.662,1265.27C973.838,1265.09 973.926,1264.88 973.926,1264.63C973.926,1264.38 973.838,1264.16 973.662,1263.98C973.486,1263.81 973.27,1263.72 973.014,1263.72L972.402,1263.72C972.018,1263.72 971.66,1263.65 971.328,1263.52C970.996,1263.39 970.706,1263.21 970.458,1262.98C970.21,1262.74 970.014,1262.47 969.87,1262.15C969.726,1261.83 969.654,1261.48 969.654,1261.09C969.654,1260.72 969.726,1260.36 969.87,1260.02C970.014,1259.69 970.21,1259.4 970.458,1259.15C970.706,1258.9 970.996,1258.7 971.328,1258.56C971.66,1258.42 972.018,1258.34 972.402,1258.34L973.014,1258.34C973.398,1258.34 973.756,1258.42 974.088,1258.56C974.42,1258.7 974.712,1258.9 974.964,1259.15C975.216,1259.4 975.414,1259.69 975.558,1260.02C975.702,1260.36 975.774,1260.72 975.774,1261.09L973.926,1261.09C973.926,1260.84 973.838,1260.63 973.662,1260.46C973.486,1260.28 973.27,1260.19 973.014,1260.19L972.402,1260.19C972.146,1260.19 971.932,1260.28 971.76,1260.46C971.588,1260.63 971.502,1260.84 971.502,1261.09C971.502,1261.35 971.588,1261.54 971.76,1261.68C971.932,1261.82 972.146,1261.88 972.402,1261.88L973.014,1261.88Z" style="fill-rule:nonzero;"/>
            </g>
            <g transform="matrix(14.4027,0,0,14.5089,-13965.5,-17151.9)">
                <path d="M982.986,1262.68C982.986,1263.04 982.916,1263.38 982.776,1263.71C982.636,1264.04 982.438,1264.32 982.182,1264.57C981.926,1264.81 981.62,1265 981.264,1265.14C980.908,1265.27 980.51,1265.33 980.07,1265.32L978.642,1265.32L978.642,1267.24L976.614,1267.24L976.614,1258.45L980.07,1258.45C980.486,1258.43 980.868,1258.48 981.216,1258.61C981.564,1258.74 981.866,1258.91 982.122,1259.14C982.378,1259.37 982.58,1259.64 982.728,1259.96C982.876,1260.27 982.962,1260.6 982.986,1260.95L982.986,1262.68ZM980.07,1263.58C980.31,1263.58 980.522,1263.49 980.706,1263.31C980.89,1263.13 980.982,1262.92 980.982,1262.68L980.982,1261.09C980.982,1260.85 980.89,1260.64 980.706,1260.46C980.522,1260.28 980.31,1260.19 980.07,1260.19L978.642,1260.19L978.642,1263.58L980.07,1263.58Z" style="fill-rule:nonzero;"/>
            </g>
            <g transform="matrix(14.4027,0,0,14.5089,-13965.5,-17151.9)">
                <path d="M988.89,1260.18L985.866,1260.18L985.866,1261.88L988.362,1261.88L988.362,1263.61L985.866,1263.61L985.866,1265.5L988.89,1265.5L988.89,1267.24L983.838,1267.24L983.838,1258.45L988.89,1258.45L988.89,1260.18Z" style="fill-rule:nonzero;"/>
            </g>
            <g transform="matrix(14.4027,0,0,14.5089,-13965.5,-17151.9)">
                <path d="M996.498,1258.45L994.038,1262.41L996.498,1267.24L994.17,1267.24L992.802,1264.4L992.226,1265.33L992.226,1267.24L990.198,1267.24L990.198,1258.45L992.226,1258.45L992.226,1261.63L994.17,1258.45L996.498,1258.45Z" style="fill-rule:nonzero;"/>
            </g>
            <g transform="matrix(14.4027,0,0,14.5089,-13965.5,-17151.9)">
                <path d="M1002.32,1258.45L1002.32,1260.24L1000.42,1260.24L1000.42,1267.24L998.394,1267.24L998.394,1260.24L996.498,1260.24L996.498,1258.45L1002.32,1258.45Z" style="fill-rule:nonzero;"/>
            </g>
            <g transform="matrix(14.4027,0,0,14.5089,-13965.5,-17151.9)">
                <path d="M1007.93,1267.22L1007.68,1266.26L1004.62,1266.26L1004.37,1267.22L1002.27,1267.22L1004.63,1258.45L1007.67,1258.45L1010.03,1267.22L1007.93,1267.22ZM1005.09,1264.55L1007.21,1264.55L1006.15,1260.59L1005.09,1264.55Z" style="fill-rule:nonzero;"/>
            </g>
            <g transform="matrix(14.4027,0,0,14.5089,-13965.5,-17151.9)">
                <path d="M1017.01,1258.45L1014.55,1262.41L1017.01,1267.24L1014.68,1267.24L1013.31,1264.4L1012.73,1265.33L1012.73,1267.24L1010.71,1267.24L1010.71,1258.45L1012.73,1258.45L1012.73,1261.63L1014.68,1258.45L1017.01,1258.45Z" style="fill-rule:nonzero;"/>
            </g>
            <g transform="matrix(14.4027,0,0,14.5089,-13965.5,-17151.9)">
                <path d="M1022.73,1260.18L1019.71,1260.18L1019.71,1261.88L1022.2,1261.88L1022.2,1263.61L1019.71,1263.61L1019.71,1265.5L1022.73,1265.5L1022.73,1267.24L1017.68,1267.24L1017.68,1258.45L1022.73,1258.45L1022.73,1260.18Z" style="fill-rule:nonzero;"/>
            </g>
            <g transform="matrix(14.4027,0,0,14.5089,-13965.5,-17151.9)">
                <path d="M1026.05,1265.45L1028.66,1265.45L1028.66,1267.24L1024.04,1267.24L1024.04,1258.45L1026.05,1258.45L1026.05,1265.45Z" style="fill-rule:nonzero;"/>
            </g>
            <g transform="matrix(19.1504,0,0,19.2916,-18569.8,-23021.4)">
                <path d="M969.69,1264.74L969.69,1260.85L969.702,1260.85C969.718,1260.51 969.794,1260.18 969.93,1259.88C970.066,1259.58 970.256,1259.31 970.5,1259.08C970.744,1258.85 971.044,1258.68 971.4,1258.55C971.756,1258.42 972.162,1258.36 972.618,1258.36L972.894,1258.36C973.366,1258.36 973.784,1258.42 974.148,1258.56C974.512,1258.7 974.816,1258.88 975.06,1259.12C975.304,1259.36 975.49,1259.64 975.618,1259.96C975.746,1260.28 975.81,1260.63 975.81,1261L973.794,1261C973.794,1260.76 973.704,1260.55 973.524,1260.37C973.344,1260.19 973.134,1260.1 972.894,1260.1L972.618,1260.1C972.378,1260.1 972.166,1260.19 971.982,1260.37C971.798,1260.55 971.706,1260.76 971.706,1261L971.706,1264.74C971.706,1264.98 971.798,1265.19 971.982,1265.38C972.166,1265.56 972.378,1265.65 972.618,1265.65L972.894,1265.65C973.134,1265.65 973.344,1265.56 973.524,1265.38C973.704,1265.19 973.794,1264.98 973.794,1264.74L973.794,1264.36L972.618,1264.36L972.618,1262.63L975.81,1262.63L975.81,1264.74C975.81,1265.11 975.746,1265.45 975.618,1265.77C975.49,1266.09 975.304,1266.37 975.06,1266.61C974.816,1266.85 974.512,1267.04 974.148,1267.18C973.784,1267.32 973.366,1267.39 972.894,1267.39L972.618,1267.39C972.146,1267.39 971.728,1267.32 971.364,1267.18C971,1267.04 970.694,1266.85 970.446,1266.61C970.198,1266.37 970.01,1266.09 969.882,1265.77C969.754,1265.45 969.69,1265.11 969.69,1264.74ZM969.939,1260.93L969.939,1264.74C969.939,1265.08 969.997,1265.39 970.113,1265.68C970.228,1265.97 970.397,1266.22 970.619,1266.43C970.844,1266.65 971.123,1266.82 971.453,1266.95C971.791,1267.08 972.18,1267.14 972.618,1267.14L972.894,1267.14C973.332,1267.14 973.721,1267.08 974.059,1266.95C974.389,1266.82 974.665,1266.65 974.886,1266.43C975.105,1266.22 975.272,1265.97 975.387,1265.68C975.504,1265.39 975.561,1265.08 975.561,1264.74L975.561,1262.88L972.867,1262.88L972.867,1264.11L973.794,1264.11C973.932,1264.11 974.043,1264.22 974.043,1264.36L974.043,1264.74C974.043,1265.05 973.931,1265.32 973.702,1265.55C973.472,1265.79 973.201,1265.9 972.894,1265.9L972.618,1265.9C972.312,1265.9 972.041,1265.79 971.806,1265.55C971.572,1265.32 971.457,1265.05 971.457,1264.74L971.457,1261C971.457,1260.69 971.573,1260.42 971.808,1260.19C972.042,1259.96 972.313,1259.85 972.618,1259.85L972.894,1259.85C973.201,1259.85 973.47,1259.96 973.7,1260.19C973.866,1260.36 973.971,1260.54 974.016,1260.75L975.55,1260.75C975.529,1260.51 975.474,1260.28 975.387,1260.06C975.272,1259.77 975.105,1259.52 974.886,1259.3C974.665,1259.09 974.39,1258.92 974.061,1258.79C973.722,1258.67 973.333,1258.61 972.894,1258.61L972.618,1258.61C972.194,1258.61 971.816,1258.66 971.484,1258.78C971.162,1258.9 970.891,1259.06 970.67,1259.26C970.451,1259.47 970.28,1259.71 970.157,1259.98C970.034,1260.26 969.965,1260.55 969.951,1260.86C969.95,1260.89 969.946,1260.91 969.939,1260.93Z"/>
            </g>
            <g transform="matrix(19.1504,0,0,19.2916,-18569.8,-23021.4)">
                <path d="M981.666,1267.22L981.414,1266.26L978.354,1266.26L978.102,1267.22L976.002,1267.22L978.366,1258.45L981.402,1258.45L983.766,1267.22L981.666,1267.22ZM981.858,1266.98L983.441,1266.98L981.212,1258.7L978.557,1258.7L976.327,1266.98L977.91,1266.98L978.113,1266.2C978.142,1266.09 978.241,1266.02 978.354,1266.02L981.414,1266.02C981.527,1266.02 981.626,1266.09 981.655,1266.2L981.858,1266.98ZM978.582,1264.48L979.638,1260.52C979.667,1260.41 979.765,1260.34 979.878,1260.34C979.99,1260.34 980.089,1260.41 980.118,1260.52L981.186,1264.48C981.207,1264.56 981.191,1264.64 981.144,1264.7C981.097,1264.76 981.024,1264.8 980.946,1264.8L978.822,1264.8C978.745,1264.8 978.672,1264.76 978.625,1264.7C978.578,1264.64 978.562,1264.56 978.582,1264.48ZM978.822,1264.55L980.946,1264.55L979.878,1260.59L978.822,1264.55Z"/>
            </g>
            <g transform="matrix(19.1504,0,0,19.2916,-18569.8,-23021.4)">
                <path d="M990.536,1265.12C990.503,1265.37 990.436,1265.61 990.336,1265.84C990.204,1266.15 990.014,1266.41 989.766,1266.64C989.518,1266.86 989.218,1267.04 988.866,1267.17C988.514,1267.3 988.11,1267.37 987.654,1267.37L987.366,1267.37C986.894,1267.37 986.476,1267.3 986.112,1267.16C985.748,1267.02 985.444,1266.83 985.2,1266.59C984.956,1266.35 984.77,1266.07 984.642,1265.75C984.514,1265.43 984.45,1265.09 984.45,1264.73L984.45,1258.45L986.454,1258.45L986.466,1264.73C986.466,1264.85 986.49,1264.96 986.538,1265.07C986.586,1265.18 986.652,1265.27 986.736,1265.36C986.82,1265.44 986.916,1265.51 987.024,1265.56C987.132,1265.6 987.246,1265.63 987.366,1265.63L987.654,1265.63C987.774,1265.63 987.888,1265.6 987.996,1265.56C988.104,1265.51 988.2,1265.44 988.284,1265.36C988.368,1265.27 988.434,1265.18 988.482,1265.07C988.53,1264.96 988.554,1264.85 988.554,1264.73L988.554,1258.45L990.57,1258.45L990.57,1264.87L990.558,1264.87C990.554,1264.96 990.547,1265.04 990.536,1265.12C990.415,1265.1 990.321,1265 990.321,1264.87L990.321,1258.7L988.803,1258.7L988.803,1264.73C988.803,1264.88 988.772,1265.03 988.71,1265.17C988.649,1265.31 988.566,1265.43 988.46,1265.53C988.354,1265.64 988.233,1265.72 988.097,1265.78C987.957,1265.85 987.81,1265.88 987.654,1265.88L987.366,1265.88C987.211,1265.88 987.063,1265.85 986.923,1265.78C986.787,1265.72 986.666,1265.64 986.56,1265.53C986.454,1265.43 986.371,1265.31 986.311,1265.17C986.249,1265.03 986.217,1264.88 986.217,1264.73L986.206,1258.7L984.699,1258.7L984.699,1264.73C984.699,1265.06 984.757,1265.37 984.873,1265.66C984.988,1265.94 985.155,1266.19 985.375,1266.41C985.596,1266.63 985.872,1266.8 986.201,1266.93C986.539,1267.06 986.928,1267.12 987.366,1267.12L987.654,1267.12C988.077,1267.12 988.452,1267.06 988.779,1266.94C989.1,1266.82 989.373,1266.66 989.599,1266.45C989.821,1266.25 989.99,1266.02 990.108,1265.75C990.228,1265.47 990.295,1265.17 990.31,1264.86C990.306,1264.93 990.331,1265 990.378,1265.04C990.42,1265.09 990.476,1265.12 990.536,1265.12Z"/>
            </g>
            <g transform="matrix(19.1504,0,0,19.2916,-18569.8,-23021.4)">
                <path d="M997.038,1258.45L997.038,1260.24L995.142,1260.24L995.142,1267.24L993.114,1267.24L993.114,1260.24L991.218,1260.24L991.218,1258.45L997.038,1258.45ZM996.789,1258.7L991.467,1258.7L991.467,1259.99L993.114,1259.99C993.252,1259.99 993.363,1260.1 993.363,1260.24L993.363,1266.99L994.893,1266.99L994.893,1260.24C994.893,1260.1 995.005,1259.99 995.142,1259.99L996.789,1259.99L996.789,1258.7Z"/>
            </g>
            <g transform="matrix(19.1504,0,0,19.2916,-18569.8,-23021.4)">
                <path d="M999.654,1267.24L997.638,1267.24L997.638,1258.45L999.654,1258.45L999.654,1267.24ZM999.405,1266.99L999.405,1258.7L997.887,1258.7L997.887,1266.99L999.405,1266.99Z"/>
            </g>
            <g transform="matrix(19.1504,0,0,19.2916,-18569.8,-23021.4)">
                <path d="M1003.08,1258.6L1005.08,1262.87L1005.08,1258.45L1007.11,1258.45L1007.11,1267.24L1005.08,1267.24L1003,1263L1003,1267.24L1000.97,1267.24L1000.97,1258.45L1003.01,1258.45L1003.04,1258.5C1003.03,1258.61 1003.01,1258.7 1003.01,1258.7L1003.08,1258.6ZM1002.86,1258.7L1001.22,1258.7L1001.22,1266.99L1002.75,1266.99L1002.75,1263C1002.75,1262.88 1002.83,1262.78 1002.95,1262.76C1003.06,1262.73 1003.18,1262.79 1003.23,1262.89L1005.23,1266.99L1006.86,1266.99L1006.86,1258.7L1005.33,1258.7L1005.33,1262.87C1005.33,1262.99 1005.25,1263.09 1005.13,1263.11C1005.02,1263.14 1004.9,1263.08 1004.85,1262.97L1002.86,1258.7Z"/>
            </g>
            <g transform="matrix(19.1504,0,0,19.2916,-18569.8,-23021.4)">
                <path d="M1007.95,1264.74L1007.95,1260.85L1007.96,1260.85C1007.97,1260.51 1008.05,1260.18 1008.19,1259.88C1008.32,1259.58 1008.51,1259.31 1008.76,1259.08C1009,1258.85 1009.3,1258.68 1009.66,1258.55C1010.01,1258.42 1010.42,1258.36 1010.87,1258.36L1011.15,1258.36C1011.62,1258.36 1012.04,1258.42 1012.4,1258.56C1012.77,1258.7 1013.07,1258.88 1013.32,1259.12C1013.56,1259.36 1013.75,1259.64 1013.87,1259.96C1014,1260.28 1014.07,1260.63 1014.07,1261L1012.05,1261C1012.05,1260.76 1011.96,1260.55 1011.78,1260.37C1011.6,1260.19 1011.39,1260.1 1011.15,1260.1L1010.87,1260.1C1010.63,1260.1 1010.42,1260.19 1010.24,1260.37C1010.05,1260.55 1009.96,1260.76 1009.96,1261L1009.96,1264.74C1009.96,1264.98 1010.05,1265.19 1010.24,1265.38C1010.42,1265.56 1010.63,1265.65 1010.87,1265.65L1011.15,1265.65C1011.39,1265.65 1011.6,1265.56 1011.78,1265.38C1011.96,1265.19 1012.05,1264.98 1012.05,1264.74L1012.05,1264.36L1010.87,1264.36L1010.87,1262.63L1014.07,1262.63L1014.07,1264.74C1014.07,1265.11 1014,1265.45 1013.87,1265.77C1013.75,1266.09 1013.56,1266.37 1013.32,1266.61C1013.07,1266.85 1012.77,1267.04 1012.4,1267.18C1012.04,1267.32 1011.62,1267.39 1011.15,1267.39L1010.87,1267.39C1010.4,1267.39 1009.98,1267.32 1009.62,1267.18C1009.26,1267.04 1008.95,1266.85 1008.7,1266.61C1008.45,1266.37 1008.27,1266.09 1008.14,1265.77C1008.01,1265.45 1007.95,1265.11 1007.95,1264.74ZM1008.2,1260.93L1008.2,1264.74C1008.2,1265.08 1008.25,1265.39 1008.37,1265.68C1008.48,1265.97 1008.65,1266.22 1008.88,1266.43C1009.1,1266.65 1009.38,1266.82 1009.71,1266.95C1010.05,1267.08 1010.44,1267.14 1010.87,1267.14L1011.15,1267.14C1011.59,1267.14 1011.98,1267.08 1012.32,1266.95C1012.64,1266.82 1012.92,1266.65 1013.14,1266.43C1013.36,1266.22 1013.53,1265.97 1013.64,1265.68C1013.76,1265.39 1013.82,1265.08 1013.82,1264.74L1013.82,1262.88L1011.12,1262.88L1011.12,1264.11L1012.05,1264.11C1012.19,1264.11 1012.3,1264.22 1012.3,1264.36L1012.3,1264.74C1012.3,1265.05 1012.19,1265.32 1011.96,1265.55C1011.73,1265.79 1011.46,1265.9 1011.15,1265.9L1010.87,1265.9C1010.57,1265.9 1010.3,1265.79 1010.06,1265.55C1009.83,1265.32 1009.71,1265.05 1009.71,1264.74L1009.71,1261C1009.71,1260.69 1009.83,1260.42 1010.06,1260.19C1010.3,1259.96 1010.57,1259.85 1010.87,1259.85L1011.15,1259.85C1011.46,1259.85 1011.73,1259.96 1011.96,1260.19C1012.12,1260.36 1012.23,1260.54 1012.27,1260.75L1013.81,1260.75C1013.78,1260.51 1013.73,1260.28 1013.64,1260.06C1013.53,1259.77 1013.36,1259.52 1013.14,1259.3C1012.92,1259.09 1012.65,1258.92 1012.32,1258.79C1011.98,1258.67 1011.59,1258.61 1011.15,1258.61L1010.87,1258.61C1010.45,1258.61 1010.07,1258.66 1009.74,1258.78C1009.42,1258.9 1009.15,1259.06 1008.93,1259.26C1008.71,1259.47 1008.54,1259.71 1008.41,1259.98C1008.29,1260.26 1008.22,1260.55 1008.21,1260.86C1008.21,1260.89 1008.2,1260.91 1008.2,1260.93Z"/>
            </g>
        </g>
    </g>
</svg>
