<?xml version="1.0" encoding="utf-8"?>
<!-- Generator: Adobe Illustrator 18.0.0, SVG Export Plug-In . SVG Version: 6.00 Build 0)  -->
<!DOCTYPE svg PUBLIC "-//W3C//DTD SVG 1.1//EN" "http://www.w3.org/Graphics/SVG/1.1/DTD/svg11.dtd">
<svg version="1.1" id="Layer_1" xmlns="http://www.w3.org/2000/svg" xmlns:xlink="http://www.w3.org/1999/xlink" x="0px" y="0px"
	 viewBox="0 0 2508.6 850" enable-background="new 0 0 2508.6 850" xml:space="preserve">
<rect fill="#FFFFFF" width="850" height="850"/>
<path fill="#E02E2D" d="M0,0v850h850V0H0z M661.3,674.5H486.5l-142.4-166v166H203.2V175.5h141.1v163.9l131.1-163.9h168.8v8.5
	l-202.4,236l219.5,245.8L661.3,674.5L661.3,674.5z"/>
<g>
	<g>
		<path d="M1195.1,2.4l-124.6,139.8l134.4,147.7v3.2h-65l-117.1-129.6v129.6H970V0h52.9v124L1129.4,0h65.7V2.4L1195.1,2.4z"/>
		<path d="M1464.7,0.8v168.3c0,86.9-50.6,131.1-120.9,131.1c-67.2,0-124.6-42.7-124.6-131.1V1.6h52.1v167.5
			c0,52.9,28.7,80.6,72.5,80.6c43.8,0,68.7-30.8,68.7-80.6V1.6h52.1V0.8z"/>
		<path d="M1569.7,0.8v241.7H1714v50.6h-196.4V0h52.1V0.8z"/>
		<path d="M1781.2,50.6h-88.4V0.8c80.8,0,149.6,0,230.4,0v49.8h-88.4v242.5H1782L1781.2,50.6L1781.2,50.6z"/>
		<path d="M2208.7,0.8v168.3c0,86.9-50.6,131.1-120.9,131.1c-67.2,0-124.6-42.7-124.6-131.1V1.6h52.1v167.5
			c0,52.9,28.7,80.6,72.5,80.6c43.8,0,68.7-30.8,68.7-80.6V1.6h52.1V0.8z"/>
		<path d="M2508.6,293.9h-62.7l-81.6-98h-50.6v98h-52.9V0.8c44.6,0,88.4,0.8,132.9,0.8c65.7,0.8,100.5,46.6,100.5,97.2
			c0,40.3-17.4,80.6-71,91.6l84.6,100.3L2508.6,293.9L2508.6,293.9z M2313.7,52.1v94h80.1c33.2,0,47.6-23.7,47.6-46.6
			c0-23.7-15.1-46.6-47.6-46.6L2313.7,52.1L2313.7,52.1z"/>
	</g>
	<g>
		<path d="M1095.4,385.5c-6.8-11.1-24.2-21.3-43.8-21.3c-25.7,0-38.5,11.1-38.5,26.1c0,17.4,18.9,21.3,41.5,24.5
			c38.5,4.7,74.8,15.8,74.8,62.4c0,43.4-36.3,62.4-77.8,62.4c-37.8,0-67.2-11.8-80.8-48.2l29.5-15.8c8.3,21.3,29.5,30.8,52.1,30.8
			c21.9,0,43.1-7.9,43.1-29.2c0-18.2-18.1-26.1-43.1-28.4c-37.8-4.7-72.5-15-72.5-59.2c0-40.3,37.8-56.1,71.8-56.9
			c28.7,0,58.9,8.7,72.5,38.7L1095.4,385.5z"/>
		<path d="M1244.2,475.6h-52.9v56.9h-34.7V338.1c29.5,0,58.2,0,87.6,0C1334.8,338.1,1334.8,475.6,1244.2,475.6z M1191.3,441.6h52.9
			c45.3,0,44.6-68.7,0-68.7h-52.9V441.6z"/>
		<path d="M1474.6,532.4h-139c0-64.8,0-129.6,0-194.3h139v35.5h-104.2v45h100.5v34h-100.5v44.2h104.2V532.4z"/>
		<path d="M1650.5,339.7l-82.3,93.2l89.1,98v2.4h-43.1l-77.8-86.1v85.3h-34.7V338.1h34.7v82.2l71-82.2h43.8v1.6L1650.5,339.7
			L1650.5,339.7z"/>
		<path d="M1723.1,371.3h-58.9v-33.2c53.6,0,98.9,0,152.6,0v33.2h-58.9v161.2h-34.7L1723.1,371.3L1723.1,371.3z"/>
		<path d="M1970.1,496.1h-97.4l-15.9,36.3H1819l83.1-194.3h38.5l83.1,194.3h-38.5L1970.1,496.1z M1921.7,379.2l-34.7,82.9h68.7
			L1921.7,379.2z"/>
		<path d="M2186.8,339.7l-82.3,93.2l89.1,98v2.4h-43.1l-77.8-86.1v85.3H2038V338.1h34.7v82.2l71-82.2h43.8L2186.8,339.7
			L2186.8,339.7z"/>
		<path d="M2350,532.4h-139c0-64.8,0-129.6,0-194.3h139v35.5h-104.2v45h100.5v34h-100.5v44.2H2350V532.4z"/>
		<path d="M2411.9,338.1v160.4h95.9v34h-130.7V338.1H2411.9z"/>
	</g>
	<g>
		<path d="M1185.3,628.8c-21.9-22.9-52.9-34.8-82.3-34.8c-74.8,0-112.5,56.9-112.5,118.5c0,63.2,38.5,116.9,112.5,116.9
			c27.2,0,55.9-9.5,77.8-30.8v-75h-89.1v-17.4h107.3v100.3c-26.4,27.6-58.2,43.4-96.7,43.4c-86.9,0-131.4-63.2-131.4-135.9
			c0-83.7,53.6-138.2,131.4-138.2c33.2,0,67.2,13.4,93.7,40.3L1185.3,628.8z"/>
		<path d="M1455.7,846.1l-27.9-65.6h-152.6l-27.9,65.6h-21.1l114.1-267h21.1l114.1,267H1455.7z M1419.4,761.5l-68.7-162.7
			l-68.7,162.7H1419.4z"/>
		<path d="M1685.3,579v165.9c0,139.8-195.6,139.8-195.6,0V579h19.6v165.9c0,114.5,157.1,114.5,157.1,0V579
			C1666.4,579,1685.3,579,1685.3,579z"/>
		<path d="M1811.4,598h-92.1v-18.2h203.9V598h-92.1v248h-19.6V598z"/>
		<path d="M1961,846.1V579h19.6v267H1961z"/>
		<path d="M2045.6,579L2217,799.4V579h19.6v267h-7.6l-172.2-220.4v220.4h-19.6V579H2045.6z"/>
		<path d="M2494.2,628.8c-21.9-22.9-52.9-34.8-82.3-34.8c-74.8,0-112.5,56.9-112.5,118.5c0,63.2,38.5,116.9,112.5,116.9
			c27.2,0,55.9-9.5,77.8-30.8v-75h-89.1v-17.4h107.3v100.3c-26.4,27.6-58.2,43.4-96.7,43.4c-86.9,0-131.4-63.2-131.4-135.9
			c0-83.7,53.6-138.2,131.4-138.2c33.2,0,67.2,13.4,93.7,40.3L2494.2,628.8z"/>
	</g>
</g>
</svg>
