<?xml version="1.0" encoding="utf-8"?>
<!-- Generator: Adobe Illustrator 18.0.0, SVG Export Plug-In . SVG Version: 6.00 Build 0)  -->
<!DOCTYPE svg PUBLIC "-//W3C//DTD SVG 1.1//EN" "http://www.w3.org/Graphics/SVG/1.1/DTD/svg11.dtd">
<svg version="1.1" id="Layer_1" xmlns="http://www.w3.org/2000/svg" xmlns:xlink="http://www.w3.org/1999/xlink" x="0px" y="0px"
	 viewBox="0 0 850 1369.6" enable-background="new 0 0 850 1369.6" xml:space="preserve">
<rect fill="#FFFFFF" width="850" height="850"/>
<path fill="#E02E2D" d="M0,0v850h850V0H0z M661.3,674.5H486.5l-142.4-166v166H203.2V175.5h141.1v163.9l131.1-163.9h168.8v8.5
	l-202.4,236l219.5,245.8L661.3,674.5L661.3,674.5z"/>
<g>
	<g>
		<path d="M124.3,901.3l-68.9,77.2l74.3,81.6v1.7H93.9l-64.7-71.6v71.6H0V900h29.2v68.5L88,900h36.3V901.3L124.3,901.3z"/>
		<path d="M273.3,900.4v93c0,48-28,72.4-66.8,72.4c-37.1,0-68.9-23.6-68.9-72.4v-92.5h28.8v92.5c0,29.2,15.9,44.5,40.1,44.5
			s38-17,38-44.5v-92.5h28.8V900.4z"/>
		<path d="M331.3,900.4V1034H411v27.9H302.5V900h28.8V900.4z"/>
		<path d="M448.2,927.9h-48.8v-27.5c44.6,0,82.6,0,127.3,0v27.5h-48.8v134h-29.2L448.2,927.9L448.2,927.9z"/>
		<path d="M684.3,900.4v93c0,48-28,72.4-66.8,72.4c-37.1,0-68.9-23.6-68.9-72.4v-92.5h28.8v92.5c0,29.2,15.9,44.5,40.1,44.5
			c24.2,0,38-17,38-44.5v-92.5h28.8V900.4z"/>
		<path d="M850,1062.3h-34.6l-45.1-54.1h-28v54.1h-29.2V900.4c24.6,0,48.8,0.4,73.4,0.4c36.3,0.4,55.5,25.7,55.5,53.7
			c0,22.3-9.6,44.5-39.2,50.6l46.7,55.4L850,1062.3L850,1062.3z M742.3,928.8v51.9h44.2c18.4,0,26.3-13.1,26.3-25.7
			c0-13.1-8.3-25.7-26.3-25.7L742.3,928.8L742.3,928.8z"/>
	</g>
	<g>
		<path d="M69.3,1113c-3.8-6.1-13.4-11.8-24.2-11.8c-14.2,0-21.3,6.1-21.3,14.4c0,9.6,10.4,11.8,23,13.5
			c21.3,2.6,41.3,8.7,41.3,34.5c0,24-20,34.5-43,34.5c-20.9,0-37.1-6.5-44.6-26.6l16.3-8.7c4.6,11.8,16.3,17,28.8,17
			c12.1,0,23.8-4.4,23.8-16.1c0-10-10-14.4-23.8-15.7c-20.9-2.6-40.1-8.3-40.1-32.7c0-22.3,20.9-31,39.6-31.4
			c15.9,0,32.5,4.8,40.1,21.4L69.3,1113z"/>
		<path d="M151.5,1162.7h-29.2v31.4h-19.2v-107.4c16.3,0,32.1,0,48.4,0C201.5,1086.8,201.5,1162.7,151.5,1162.7z M122.3,1144h29.2
			c25,0,24.6-38,0-38h-29.2V1144z"/>
		<path d="M278.7,1194.1H202c0-35.8,0-71.6,0-107.4h76.8v19.6h-57.6v24.9h55.5v18.8h-55.5v24.4h57.6V1194.1z"/>
		<path d="M376,1087.7l-45.5,51.5l49.2,54.1v1.3h-23.8l-43-47.6v47.1h-19.2v-107.4H313v45.4l39.2-45.4h24.2v0.9H376L376,1087.7z"/>
		<path d="M416,1105.1h-32.5v-18.3c29.6,0,54.7,0,84.3,0v18.3h-32.5v89H416L416,1105.1L416,1105.1z"/>
		<path d="M552.5,1174.1h-53.8l-8.8,20.1H469l45.9-107.4h21.3l45.9,107.4h-21.3L552.5,1174.1z M525.8,1109.5l-19.2,45.8h38
			L525.8,1109.5z"/>
		<path d="M672.2,1087.7l-45.5,51.5l49.2,54.1v1.3h-23.8l-43-47.6v47.1H590v-107.4h19.2v45.4l39.2-45.4h24.2L672.2,1087.7
			L672.2,1087.7z"/>
		<path d="M762.4,1194.1h-76.8c0-35.8,0-71.6,0-107.4h76.8v19.6h-57.6v24.9h55.5v18.8h-55.5v24.4h57.6V1194.1z"/>
		<path d="M796.6,1086.8v88.6h53v18.8h-72.2v-107.4H796.6z"/>
	</g>
	<g>
		<path d="M118.9,1247.4c-12.1-12.7-29.2-19.2-45.5-19.2c-41.3,0-62.2,31.4-62.2,65.5c0,34.9,21.3,64.6,62.2,64.6
			c15,0,30.9-5.2,43-17v-41.5H67.2v-9.6h59.3v55.4c-14.6,15.3-32.1,24-53.4,24c-48,0-72.6-34.9-72.6-75.1
			c0-46.3,29.6-76.4,72.6-76.4c18.4,0,37.1,7.4,51.7,22.3L118.9,1247.4z"/>
		<path d="M268.3,1367.4l-15.4-36.2h-84.3l-15.4,36.2h-11.7l63-147.5h11.7l63,147.5H268.3z M248.3,1320.7l-38-89.9l-38,89.9H248.3z"
			/>
		<path d="M395.2,1219.9v91.6c0,77.2-108.1,77.2-108.1,0v-91.6h10.8v91.6c0,63.3,86.8,63.3,86.8,0v-91.6
			C384.7,1219.9,395.2,1219.9,395.2,1219.9z"/>
		<path d="M464.9,1230.4h-50.9v-10h112.7v10h-50.9v137h-10.8V1230.4z"/>
		<path d="M547.5,1367.4v-147.5h10.8v147.5H547.5z"/>
		<path d="M594.2,1219.9l94.7,121.8v-121.8h10.8v147.5h-4.2l-95.1-121.8v121.8h-10.8v-147.5H594.2z"/>
		<path d="M842.1,1247.4c-12.1-12.7-29.2-19.2-45.5-19.2c-41.3,0-62.2,31.4-62.2,65.5c0,34.9,21.3,64.6,62.2,64.6
			c15,0,30.9-5.2,43-17v-41.5h-49.2v-9.6h59.3v55.4c-14.6,15.3-32.1,24-53.4,24c-48,0-72.6-34.9-72.6-75.1
			c0-46.3,29.6-76.4,72.6-76.4c18.4,0,37.1,7.4,51.7,22.3L842.1,1247.4z"/>
	</g>
</g>
</svg>
