<?xml version="1.0" encoding="UTF-8" standalone="no"?>
<!DOCTYPE svg PUBLIC "-//W3C//DTD SVG 1.1//EN" "http://www.w3.org/Graphics/SVG/1.1/DTD/svg11.dtd">
<svg width="100%" height="100%" viewBox="0 0 6040 2958" version="1.1" xmlns="http://www.w3.org/2000/svg" xmlns:xlink="http://www.w3.org/1999/xlink" xml:space="preserve" xmlns:serif="http://www.serif.com/" style="fill-rule:evenodd;clip-rule:evenodd;stroke-linejoin:round;stroke-miterlimit:2;">
    <g transform="matrix(1,0,0,1,-8878,-1331.13)">
        <g id="Artboard2" transform="matrix(1,0,0,0.999282,-0.197658,2.41057)">
            <rect x="8878.2" y="1329.67" width="6039.41" height="2959.23" style="fill:none;"/>
            <g transform="matrix(5.50165,0,0,5.5056,18613.6,9392.06)">
                <path d="M-1585.17,-1249.4L-1646.01,-1249.4L-1707.47,-1331.76L-1714.95,-1324.28L-1714.95,-1249.4L-1763.93,-1249.4L-1763.93,-1458.11L-1714.95,-1458.11L-1714.95,-1393.38L-1650.22,-1458.11L-1581.12,-1458.11L-1672.52,-1366.7L-1585.17,-1249.4Z" style="fill:white;fill-rule:nonzero;"/>
                <path d="M-1450.71,-1249.4L-1500.94,-1249.4C-1533.69,-1249.4 -1560.52,-1276.23 -1560.52,-1308.99L-1560.52,-1458.11L-1511.7,-1458.11L-1511.7,-1308.99C-1511.7,-1303.22 -1506.87,-1298.38 -1500.94,-1298.38L-1450.87,-1298.38C-1444.94,-1298.38 -1440.1,-1303.22 -1440.1,-1308.99L-1440.1,-1458.11L-1391.28,-1458.11L-1391.28,-1308.99C-1391.28,-1276.23 -1417.95,-1249.56 -1450.71,-1249.4Z" style="fill:white;fill-rule:nonzero;"/>
                <path d="M-1198.48,-1249.4L-1367.88,-1249.4L-1367.88,-1458.11L-1318.9,-1458.11L-1318.9,-1298.38L-1198.48,-1298.38L-1198.48,-1249.4Z" style="fill:white;fill-rule:nonzero;"/>
                <path d="M-1121.26,-1249.4L-1170.09,-1249.4L-1170.09,-1409.29L-1230.3,-1409.29L-1230.3,-1458.11L-1061.05,-1458.11L-1061.05,-1409.29L-1121.26,-1409.29L-1121.26,-1249.4Z" style="fill:white;fill-rule:nonzero;"/>
                <path d="M-927.84,-1249.4L-978.068,-1249.4C-1010.83,-1249.4 -1037.65,-1276.23 -1037.65,-1308.99L-1037.65,-1458.11L-988.831,-1458.11L-988.831,-1308.99C-988.831,-1303.22 -983.995,-1298.38 -978.068,-1298.38L-927.996,-1298.38C-922.068,-1298.38 -917.233,-1303.22 -917.233,-1308.99L-917.233,-1458.11L-868.409,-1458.11L-868.409,-1308.99C-868.409,-1276.23 -895.082,-1249.56 -927.84,-1249.4Z" style="fill:white;fill-rule:nonzero;"/>
                <path d="M-675.764,-1249.4L-724.588,-1249.4L-724.588,-1318.66C-724.588,-1324.43 -729.424,-1329.42 -735.351,-1329.42L-796.186,-1329.42L-796.186,-1249.4L-845.01,-1249.4L-845.01,-1458.11L-735.351,-1458.11C-702.438,-1458.11 -675.764,-1431.28 -675.764,-1398.53L-675.764,-1389.01C-675.764,-1376.22 -679.82,-1363.9 -687.307,-1353.76C-679.82,-1343.62 -675.764,-1331.45 -675.764,-1318.66L-675.764,-1249.4ZM-735.351,-1378.25C-729.424,-1378.25 -724.588,-1383.08 -724.588,-1389.01L-724.588,-1398.53C-724.588,-1404.3 -729.424,-1409.29 -735.351,-1409.29L-796.186,-1409.29L-796.186,-1378.25L-735.351,-1378.25Z" style="fill:white;fill-rule:nonzero;"/>
            </g>
            <g transform="matrix(3.45077,0,0,3.45325,14996,7656.13)">
                <path d="M-1654.12,-1249.4L-1704.19,-1249.4C-1737.1,-1249.4 -1763.93,-1276.23 -1763.93,-1308.99L-1763.93,-1325.99L-1714.95,-1325.99L-1714.95,-1308.99C-1714.95,-1303.22 -1710.12,-1298.38 -1704.19,-1298.38L-1654.12,-1298.38C-1648.19,-1298.38 -1643.35,-1303.22 -1643.35,-1308.99L-1643.35,-1318.66C-1643.35,-1324.43 -1648.19,-1329.42 -1654.12,-1329.42L-1704.19,-1329.42C-1737.88,-1329.42 -1763.93,-1357.03 -1763.93,-1389.01L-1763.93,-1398.53C-1763.93,-1431.28 -1737.1,-1458.11 -1704.19,-1458.11L-1654.12,-1458.11C-1621.36,-1458.11 -1594.53,-1431.28 -1594.53,-1398.53L-1594.53,-1381.68L-1643.35,-1381.68L-1643.35,-1398.53C-1643.35,-1404.45 -1648.19,-1409.29 -1654.12,-1409.29L-1704.19,-1409.29C-1710.12,-1409.29 -1714.95,-1404.45 -1714.95,-1398.53L-1714.95,-1389.01C-1714.95,-1383.08 -1710.12,-1378.25 -1704.19,-1378.25L-1654.12,-1378.25C-1620.58,-1378.25 -1594.53,-1350.64 -1594.53,-1318.66L-1594.53,-1308.99C-1594.53,-1276.23 -1621.36,-1249.4 -1654.12,-1249.4Z" style="fill:white;fill-rule:nonzero;"/>
                <path d="M-1522.31,-1249.4L-1571.13,-1249.4L-1571.13,-1458.11L-1461.47,-1458.11C-1428.71,-1458.11 -1401.88,-1431.28 -1401.88,-1398.53L-1401.88,-1389.01C-1401.88,-1356.1 -1428.71,-1329.42 -1461.47,-1329.42L-1522.31,-1329.42L-1522.31,-1249.4ZM-1461.47,-1378.25C-1455.7,-1378.25 -1450.71,-1383.08 -1450.71,-1389.01L-1450.71,-1398.53C-1450.71,-1404.3 -1455.7,-1409.29 -1461.47,-1409.29L-1522.31,-1409.29L-1522.31,-1378.25L-1461.47,-1378.25Z" style="fill:white;fill-rule:nonzero;"/>
                <path d="M-1209.09,-1249.4L-1378.49,-1249.4L-1378.49,-1458.11L-1209.09,-1458.11L-1209.09,-1409.29L-1329.51,-1409.29L-1329.51,-1378.25L-1219.38,-1378.25L-1219.38,-1329.42L-1329.51,-1329.42L-1329.51,-1298.38L-1209.09,-1298.38L-1209.09,-1249.4Z" style="fill:white;fill-rule:nonzero;"/>
                <path d="M-1006.93,-1249.4L-1067.76,-1249.4L-1129.22,-1331.76L-1136.71,-1324.28L-1136.71,-1249.4L-1185.69,-1249.4L-1185.69,-1458.11L-1136.71,-1458.11L-1136.71,-1393.38L-1071.97,-1458.11L-1002.87,-1458.11L-1094.28,-1366.7L-1006.93,-1249.4Z" style="fill:white;fill-rule:nonzero;"/>
                <path d="M-872.776,-1249.4L-921.6,-1249.4L-921.6,-1409.29L-981.811,-1409.29L-981.811,-1458.11L-812.565,-1458.11L-812.565,-1409.29L-872.776,-1409.29L-872.776,-1249.4Z" style="fill:white;fill-rule:nonzero;"/>
                <path d="M-618.517,-1249.4L-668.589,-1249.4L-683.876,-1317.57L-757.814,-1317.57L-773.1,-1249.4L-823.172,-1249.4L-776.22,-1458.11L-665.469,-1458.11L-618.517,-1249.4ZM-694.951,-1366.39L-704.622,-1409.29L-737.067,-1409.29L-746.738,-1366.39L-694.951,-1366.39Z" style="fill:white;fill-rule:nonzero;"/>
                <path d="M-418.697,-1249.4L-479.532,-1249.4L-540.991,-1331.76L-548.479,-1324.28L-548.479,-1249.4L-597.459,-1249.4L-597.459,-1458.11L-548.479,-1458.11L-548.479,-1393.38L-483.744,-1458.11L-414.641,-1458.11L-506.05,-1366.7L-418.697,-1249.4Z" style="fill:white;fill-rule:nonzero;"/>
                <path d="M-221.841,-1249.4L-391.243,-1249.4L-391.243,-1458.11L-221.841,-1458.11L-221.841,-1409.29L-342.263,-1409.29L-342.263,-1378.25L-232.136,-1378.25L-232.136,-1329.42L-342.263,-1329.42L-342.263,-1298.38L-221.841,-1298.38L-221.841,-1249.4Z" style="fill:white;fill-rule:nonzero;"/>
                <path d="M-29.041,-1249.4L-198.443,-1249.4L-198.443,-1458.11L-149.463,-1458.11L-149.463,-1298.38L-29.041,-1298.38L-29.041,-1249.4Z" style="fill:white;fill-rule:nonzero;"/>
            </g>
            <g transform="matrix(3.84462,0,0,3.84738,15697.7,9066.47)">
                <path d="M-267.701,-1249.4L-332.748,-1249.4C-365.505,-1249.4 -392.335,-1276.23 -392.335,-1308.99L-392.335,-1398.53C-392.335,-1431.28 -365.505,-1458.11 -332.748,-1458.11L-267.701,-1458.11C-234.788,-1458.11 -207.958,-1431.28 -207.958,-1398.53L-207.958,-1385.73L-256.938,-1385.73L-256.938,-1398.53C-256.938,-1404.45 -261.774,-1409.29 -267.701,-1409.29L-332.748,-1409.29C-338.52,-1409.29 -343.355,-1404.45 -343.355,-1398.53L-343.355,-1308.99C-343.355,-1303.22 -338.52,-1298.38 -332.748,-1298.38L-267.701,-1298.38C-261.774,-1298.38 -256.938,-1303.22 -256.938,-1308.99L-256.938,-1329.42L-309.662,-1329.42L-309.662,-1378.25L-207.958,-1378.25L-207.958,-1308.99C-207.958,-1276.23 -234.788,-1249.4 -267.701,-1249.4ZM-267.701,-1258.65C-239.89,-1258.65 -217.207,-1281.31 -217.207,-1308.99L-217.207,-1369L-300.413,-1369L-300.413,-1338.67L-247.689,-1338.67L-247.689,-1308.99C-247.689,-1298.22 -256.643,-1289.13 -267.701,-1289.13L-332.748,-1289.13C-343.552,-1289.13 -352.604,-1298.18 -352.604,-1308.99L-352.604,-1398.53C-352.604,-1409.58 -343.515,-1418.54 -332.748,-1418.54L-267.701,-1418.54C-256.68,-1418.54 -247.689,-1409.55 -247.689,-1398.53L-247.689,-1394.98L-217.207,-1394.98L-217.207,-1398.53C-217.207,-1426.2 -239.89,-1448.86 -267.701,-1448.86L-332.748,-1448.86C-360.421,-1448.86 -383.086,-1426.2 -383.086,-1398.53L-383.086,-1308.99C-383.086,-1281.32 -360.421,-1258.65 -332.748,-1258.65L-267.701,-1258.65Z" style="fill:white;"/>
            </g>
            <g transform="matrix(3.84462,0,0,3.84738,15697.7,9066.47)">
                <path d="M-415.733,-1249.4L-456.914,-1249.4L-837.367,-1402.42L-837.367,-1249.4L-886.191,-1249.4L-886.191,-1458.11L-845.01,-1458.11L-464.713,-1305.24L-464.713,-1458.11L-415.733,-1458.11L-415.733,-1249.4ZM-424.982,-1258.65L-424.982,-1448.86L-455.465,-1448.86L-455.465,-1291.56L-846.8,-1448.86L-876.942,-1448.86L-876.942,-1258.65L-846.616,-1258.65L-846.616,-1416.11L-455.124,-1258.65L-424.982,-1258.65Z" style="fill:white;"/>
            </g>
            <g transform="matrix(3.84462,0,0,3.84738,15697.7,9066.47)">
                <path d="M-909.589,-1249.4L-958.413,-1249.4L-958.413,-1458.11L-909.589,-1458.11L-909.589,-1249.4ZM-918.838,-1258.65L-918.838,-1448.86L-949.165,-1448.86L-949.165,-1258.65L-918.838,-1258.65Z" style="fill:white;"/>
            </g>
            <g transform="matrix(3.84462,0,0,3.84738,15697.7,9066.47)">
                <path d="M-1042.02,-1249.4L-1090.85,-1249.4L-1090.85,-1409.29L-1151.06,-1409.29L-1151.06,-1458.11L-981.811,-1458.11L-981.811,-1409.29L-1042.02,-1409.29L-1042.02,-1249.4ZM-1051.27,-1258.65L-1051.27,-1418.54L-991.06,-1418.54L-991.06,-1448.86L-1141.81,-1448.86L-1141.81,-1418.54L-1081.6,-1418.54L-1081.6,-1258.65L-1051.27,-1258.65Z" style="fill:white;"/>
            </g>
            <g transform="matrix(3.84462,0,0,3.84738,15697.7,9066.47)">
                <path d="M-1233.89,-1249.4L-1284.12,-1249.4C-1316.87,-1249.4 -1343.7,-1276.23 -1343.7,-1308.99L-1343.7,-1458.11L-1294.88,-1458.11L-1294.88,-1308.99C-1294.88,-1303.22 -1290.04,-1298.38 -1284.12,-1298.38L-1234.04,-1298.38C-1228.12,-1298.38 -1223.28,-1303.22 -1223.28,-1308.99L-1223.28,-1458.11L-1174.46,-1458.11L-1174.46,-1308.99C-1174.46,-1276.23 -1201.13,-1249.56 -1233.89,-1249.4ZM-1233.91,-1258.65L-1233.9,-1258.65C-1206.24,-1258.8 -1183.7,-1281.32 -1183.7,-1308.99L-1183.7,-1448.86L-1214.03,-1448.86L-1214.03,-1308.99C-1214.03,-1298.22 -1222.99,-1289.13 -1234.04,-1289.13L-1284.12,-1289.13C-1295.17,-1289.13 -1304.13,-1298.22 -1304.13,-1308.99L-1304.13,-1448.86L-1334.45,-1448.86L-1334.45,-1308.99C-1334.45,-1281.32 -1311.79,-1258.65 -1284.12,-1258.65L-1233.91,-1258.65Z" style="fill:white;"/>
            </g>
            <g transform="matrix(3.84462,0,0,3.84738,15697.7,9066.47)">
                <path d="M-1359.46,-1249.4L-1409.53,-1249.4L-1424.82,-1317.57L-1498.75,-1317.57L-1514.04,-1249.4L-1564.11,-1249.4L-1517.16,-1458.11L-1406.41,-1458.11L-1359.46,-1249.4ZM-1371.02,-1258.65L-1413.81,-1448.86L-1509.76,-1448.86L-1552.55,-1258.65L-1521.44,-1258.65L-1506.16,-1326.82L-1417.41,-1326.82L-1415.79,-1319.59L-1402.12,-1258.65L-1371.02,-1258.65ZM-1499.24,-1357.14L-1485.4,-1418.54L-1438.17,-1418.54L-1424.33,-1357.14L-1499.24,-1357.14ZM-1435.89,-1366.39L-1445.56,-1409.29L-1478.01,-1409.29L-1487.68,-1366.39L-1435.89,-1366.39Z" style="fill:white;"/>
            </g>
            <g transform="matrix(3.84462,0,0,3.84738,15697.7,9066.47)">
                <path d="M-1639.3,-1249.4L-1704.35,-1249.4C-1737.1,-1249.4 -1763.93,-1276.23 -1763.93,-1308.99L-1763.93,-1398.53C-1763.93,-1431.28 -1737.1,-1458.11 -1704.35,-1458.11L-1639.3,-1458.11C-1606.38,-1458.11 -1579.71,-1431.28 -1579.71,-1398.53L-1579.71,-1385.73L-1628.54,-1385.73L-1628.54,-1398.53C-1628.54,-1404.45 -1633.37,-1409.29 -1639.3,-1409.29L-1704.35,-1409.29C-1710.12,-1409.29 -1715.11,-1404.45 -1715.11,-1398.53L-1715.11,-1308.99C-1715.11,-1303.22 -1710.12,-1298.38 -1704.35,-1298.38L-1639.3,-1298.38C-1633.37,-1298.38 -1628.54,-1303.22 -1628.54,-1308.99L-1628.54,-1329.42L-1681.26,-1329.42L-1681.26,-1378.25L-1579.71,-1378.25L-1579.71,-1308.99C-1579.71,-1276.23 -1606.38,-1249.4 -1639.3,-1249.4ZM-1639.3,-1258.65C-1611.49,-1258.65 -1588.96,-1281.32 -1588.96,-1308.99L-1588.96,-1369L-1672.01,-1369L-1672.01,-1338.67L-1619.29,-1338.67L-1619.29,-1308.99C-1619.29,-1298.22 -1628.24,-1289.13 -1639.3,-1289.13L-1704.35,-1289.13C-1715.11,-1289.13 -1724.36,-1298.22 -1724.36,-1308.99L-1724.36,-1398.53C-1724.36,-1409.55 -1715.08,-1418.54 -1704.35,-1418.54L-1639.3,-1418.54C-1628.28,-1418.54 -1619.29,-1409.55 -1619.29,-1398.53L-1619.29,-1394.98L-1588.96,-1394.98L-1588.96,-1398.53C-1588.96,-1426.2 -1611.49,-1448.86 -1639.3,-1448.86L-1704.35,-1448.86C-1732.02,-1448.86 -1754.68,-1426.2 -1754.68,-1398.53L-1754.68,-1308.99C-1754.68,-1281.32 -1732.02,-1258.65 -1704.35,-1258.65L-1639.3,-1258.65Z" style="fill:white;"/>
            </g>
        </g>
    </g>
</svg>
