<?xml version="1.0" encoding="UTF-8" standalone="no"?>
<!DOCTYPE svg PUBLIC "-//W3C//DTD SVG 1.1//EN" "http://www.w3.org/Graphics/SVG/1.1/DTD/svg11.dtd">
<svg width="100%" height="100%" viewBox="0 0 626 210" version="1.1" xmlns="http://www.w3.org/2000/svg" xmlns:xlink="http://www.w3.org/1999/xlink" xml:space="preserve" xmlns:serif="http://www.serif.com/" style="fill-rule:evenodd;clip-rule:evenodd;stroke-linejoin:round;stroke-miterlimit:2;">
    <g transform="matrix(1,0,0,1,-769,0)">
        <g id="bkm" transform="matrix(1,0,0,1,-0.17923,0)">
            <rect x="769.179" y="0" width="625.91" height="209.858" style="fill:none;"/>
            <g transform="matrix(0.369071,0,0,0.373666,-2731.92,-11578.3)">
                <g transform="matrix(7.98817,0,0,7.98817,9534.19,31027.3)">
                    <path d="M14.1,8.295C14.127,8.071 14.143,7.84 14.143,7.604C14.143,7.475 14.144,7.325 14.128,7.155C16.121,7.127 17.869,5.691 17.869,4.04C17.869,3.2 17.321,2.566 17.012,2.187C17.081,2.172 17.151,2.156 17.222,2.139C17.514,2.393 18.342,3.295 18.342,4.434C18.342,6.415 16.362,8.254 14.1,8.295M12.092,1.396C12.055,1.175 11.971,0.975 11.843,0.803C11.85,0.601 11.933,0.408 12.258,0.567C12.082,0.747 12.218,1.066 12.218,1.066C12.218,1.066 12.578,0.899 12.503,0.661C13.037,0.789 12.653,1.506 12.092,1.396M11.629,2.413C11.558,2.117 11.406,1.813 11.213,1.584C11.037,1.376 10.746,1.129 10.354,1.129C10.175,1.129 9.875,1.213 9.684,1.294C9.613,1.164 9.474,0.851 9.474,0.71C9.474,0.565 9.719,0.418 10.188,0.418C11.22,0.418 11.836,0.884 11.836,1.666C11.836,1.941 11.727,2.191 11.629,2.413M14.279,15.713C14.399,15.713 14.457,15.732 14.527,15.758C14.824,16.566 15.969,18.091 16.017,18.156L16.027,18.17L16.044,18.166C16.325,18.121 17.042,18.013 17.642,18.013L17.656,18.013C17.721,18.013 17.795,18.013 17.842,18.059C17.881,18.098 17.9,18.166 17.9,18.263C17.9,18.412 17.837,18.667 17.761,18.776C17.551,18.547 17.21,18.444 16.664,18.444C16.5,18.444 16.306,18.493 16.201,18.521L16.158,18.53L16.109,18.543L16.424,18.858C16.91,19.344 17.33,19.763 17.33,20.042C17.33,20.21 17.166,20.429 17.016,20.526C16.983,20.015 16.467,19.331 15.964,18.948L15.921,18.916L15.913,19.096C15.906,19.218 15.895,19.401 15.895,19.597C15.895,20.57 15.796,20.718 15.459,20.718C15.407,20.718 15.328,20.703 15.279,20.685C15.469,20.45 15.544,20.14 15.544,19.596L15.541,19.345L15.538,19.143C15.538,18.92 15.561,18.755 15.579,18.622L15.589,18.547L15.536,18.54C15.378,18.518 15.085,18.478 14.861,18.478C14.38,18.478 14.054,18.522 13.818,18.744C13.662,18.618 13.502,18.401 13.502,18.264C13.502,18.061 13.628,18.045 13.794,18.045C13.878,18.045 13.956,18.057 14.064,18.07C14.271,18.101 14.582,18.147 15.223,18.147L15.263,18.147L15.25,18.108C15.088,17.643 14.642,16.967 13.927,16.098C13.991,15.865 14.054,15.713 14.279,15.713M8.105,18.108L8.092,18.147L8.132,18.147C8.772,18.147 9.084,18.101 9.291,18.07C9.399,18.057 9.477,18.045 9.561,18.045C9.726,18.045 9.853,18.061 9.853,18.264C9.853,18.401 9.693,18.618 9.538,18.744C9.301,18.522 8.975,18.478 8.495,18.478C8.27,18.478 7.976,18.518 7.819,18.54L7.794,18.543L7.766,18.547L7.775,18.622C7.794,18.755 7.817,18.92 7.817,19.143L7.814,19.345L7.811,19.596C7.811,20.14 7.886,20.45 8.077,20.685C8.027,20.703 7.948,20.718 7.896,20.718C7.558,20.718 7.46,20.57 7.46,19.597C7.46,19.401 7.45,19.218 7.443,19.096L7.433,18.915L7.391,18.948C6.889,19.331 6.371,20.015 6.34,20.526C6.189,20.429 6.025,20.21 6.025,20.042C6.025,19.763 6.445,19.344 6.931,18.858L7.246,18.543L7.154,18.521C7.049,18.493 6.855,18.444 6.69,18.444C6.145,18.444 5.805,18.547 5.594,18.776C5.518,18.667 5.455,18.412 5.455,18.263C5.455,18.166 5.474,18.098 5.513,18.059C5.56,18.013 5.634,18.013 5.699,18.013L5.713,18.013C6.313,18.013 7.031,18.121 7.311,18.166L7.328,18.17L7.338,18.156C7.387,18.091 8.531,16.566 8.829,15.758C8.897,15.732 8.956,15.713 9.076,15.713C9.301,15.713 9.364,15.865 9.429,16.098C8.713,16.967 8.267,17.643 8.105,18.108M5.013,4.434C5.013,3.295 5.842,2.393 6.134,2.139C6.204,2.156 6.274,2.172 6.344,2.187C6.034,2.566 5.486,3.2 5.486,4.04C5.486,5.708 7.268,7.156 9.286,7.156C9.273,7.299 9.266,7.449 9.266,7.604C9.266,7.85 9.28,8.079 9.304,8.295C7.022,8.281 5.013,6.429 5.013,4.434M20.319,7.947C21.343,9.566 22.144,9.539 23.354,9.539C22.353,8.772 21.691,7.789 21.375,7.287L19.505,4.295C19.323,3.371 18.845,2.507 18.129,1.864C18.37,1.773 18.57,1.677 18.69,1.586C17.469,1.586 16.259,0.966 15.593,0.966C15.165,0.966 14.89,1.222 14.89,1.56C14.917,1.937 15.305,2.32 16.022,2.32C16.184,2.32 16.392,2.299 16.62,2.261C17.008,2.802 17.321,3.291 17.321,3.989C17.321,5.299 15.755,6.32 14.174,6.32C14.084,6.32 13.999,6.316 13.91,6.31C13.767,5.985 13.29,5.44 13.29,4.82C13.29,3.779 13.969,2.929 13.969,1.898C13.969,1.257 13.657,0.86 13.537,0.695C13.731,0.515 13.943,0.294 13.993,0.142C13.88,0.191 13.746,0.197 13.551,0.197C12.793,0.197 12.175,0 11.573,0C11.229,0 11.137,0.106 11.137,0.207C11.137,0.244 11.142,0.282 11.152,0.3C11.024,0.25 10.904,0.217 10.761,0.191C10.583,0.157 10.392,0.14 10.188,0.14C9.456,0.14 9.196,0.447 9.196,0.71C9.196,0.932 9.371,1.338 9.57,1.648C9.855,1.504 10.198,1.407 10.354,1.407C10.743,1.407 11.088,1.777 11.271,2.215C11.01,2.247 10.96,2.258 10.696,2.258C9.983,2.258 9.498,2.003 9.398,2.003C9.389,2.003 9.37,2.008 9.37,2.024C9.37,2.124 9.572,2.388 9.97,2.533C10.495,2.725 11.281,2.805 11.412,2.827C11.412,2.85 11.279,3.098 11.13,3.146C11.099,3.156 11.074,3.157 11.037,3.149C10.489,3.041 10.336,2.995 9.641,2.731C9.62,2.723 9.607,2.736 9.607,2.758C9.607,3.033 10.319,3.64 10.957,3.873C10.424,4.553 9.759,5.249 9.445,6.31C9.356,6.316 9.27,6.32 9.181,6.32C7.6,6.32 6.034,5.299 6.034,3.989C6.034,3.291 6.347,2.802 6.735,2.261C6.963,2.299 7.17,2.32 7.333,2.32C8.05,2.32 8.438,1.937 8.466,1.56C8.466,1.222 8.191,0.966 7.762,0.966C7.096,0.966 5.887,1.586 4.664,1.586C4.785,1.677 4.985,1.773 5.225,1.864C4.51,2.507 4.032,3.371 3.85,4.295L1.98,7.287C1.665,7.789 1.001,8.772 -0,9.539C1.21,9.539 2.012,9.566 3.036,7.947L3.995,6.413C4.066,6.612 4.153,6.806 4.256,6.996L2.349,10.047C2.032,10.553 1.374,11.527 0.369,12.299C1.579,12.299 2.381,12.327 3.405,10.709L5.046,8.081C5.169,8.212 5.298,8.34 5.434,8.462L3.118,12.17C2.8,12.677 2.146,13.649 1.139,14.42C2.349,14.42 3.151,14.449 4.174,12.83L6.432,9.215C6.581,9.309 6.733,9.4 6.891,9.486L4.134,13.897C3.816,14.404 3.162,15.373 2.155,16.147C3.365,16.147 4.167,16.175 5.191,14.557L8.029,10.014C8.197,10.078 8.367,10.14 8.54,10.195L5.333,15.328C5.02,15.828 4.351,16.815 3.355,17.578C4.564,17.578 5.367,17.606 6.39,15.988L9.808,10.518C9.843,10.524 9.877,10.529 9.911,10.536C10.004,10.832 10.069,11.108 10.069,11.383C10.069,13.102 8.941,14.62 7.587,15.792C7.674,15.83 7.825,15.843 7.964,15.843C8.244,15.843 8.424,15.828 8.551,15.806C8.237,16.519 7.563,17.44 7.223,17.916C6.78,17.836 6.135,17.774 5.713,17.774C5.271,17.774 5.221,18.032 5.221,18.263C5.221,18.664 5.409,18.983 5.627,19.161C5.709,18.956 5.874,18.682 6.69,18.682C6.706,18.682 6.734,18.684 6.772,18.687C6.534,18.952 5.787,19.556 5.787,20.042C5.787,20.364 6.14,20.847 6.605,20.847C6.578,20.743 6.581,20.648 6.581,20.576C6.581,20.182 6.93,19.721 7.225,19.399C7.216,19.495 7.221,19.485 7.221,19.597C7.221,20.528 7.305,20.956 7.896,20.956C8.186,20.956 8.386,20.797 8.455,20.749C8.071,20.396 8.051,20.118 8.051,19.596C8.052,19.46 8.053,19.327 8.055,19.144C8.056,19.024 8.054,18.866 8.035,18.752C8.246,18.723 8.332,18.723 8.495,18.723C8.495,18.723 9.334,18.656 9.537,19.093C9.765,18.884 10.096,18.589 10.096,18.264C10.096,18.049 9.994,17.806 9.561,17.806C9.397,17.806 8.882,17.906 8.451,17.906C8.567,17.649 9.082,16.895 9.529,16.348C9.597,16.56 9.702,16.789 9.936,16.977C9.969,16.625 10.175,15.512 10.725,14.861C10.789,15.301 10.875,15.752 10.875,16.703C10.875,19.017 10.319,20.726 9.138,21.052C9.292,21.319 9.617,21.56 9.954,21.56C10.386,21.56 10.621,21.071 10.861,20.61C10.986,20.95 11.331,21.784 11.677,21.784C12.023,21.784 12.369,20.95 12.494,20.61C12.733,21.071 12.969,21.56 13.401,21.56C13.738,21.56 14.063,21.319 14.217,21.052C13.036,20.726 12.479,19.017 12.479,16.703C12.479,15.752 12.565,15.301 12.629,14.861C13.18,15.512 13.387,16.625 13.418,16.977C13.653,16.789 13.759,16.56 13.826,16.348C14.272,16.895 14.788,17.649 14.904,17.906C14.473,17.906 13.957,17.806 13.794,17.806C13.362,17.806 13.26,18.049 13.26,18.264C13.26,18.589 13.591,18.884 13.819,19.093C14.02,18.656 14.861,18.723 14.861,18.723C15.023,18.723 15.109,18.723 15.321,18.752C15.301,18.866 15.3,19.024 15.301,19.144C15.303,19.327 15.303,19.46 15.304,19.596C15.304,20.118 15.284,20.396 14.9,20.749C14.969,20.797 15.169,20.956 15.459,20.956C16.05,20.956 16.135,20.528 16.135,19.597C16.135,19.485 16.138,19.495 16.13,19.399C16.425,19.721 16.774,20.182 16.774,20.576C16.774,20.648 16.778,20.743 16.749,20.847C17.215,20.847 17.569,20.364 17.569,20.042C17.569,19.556 16.822,18.952 16.582,18.687C16.621,18.684 16.649,18.682 16.664,18.682C17.481,18.682 17.646,18.956 17.728,19.161C17.946,18.983 18.134,18.664 18.134,18.263C18.134,18.032 18.084,17.774 17.642,17.774C17.22,17.774 16.576,17.836 16.132,17.916C15.791,17.44 15.119,16.519 14.804,15.806C14.931,15.828 15.112,15.843 15.391,15.843C15.531,15.843 15.681,15.83 15.768,15.792C14.414,14.62 13.286,13.102 13.286,11.383C13.286,11.108 13.351,10.832 13.444,10.536C13.477,10.529 13.513,10.524 13.547,10.518L16.965,15.988C17.988,17.606 18.791,17.578 20,17.578C19.004,16.815 18.335,15.828 18.022,15.328L14.814,10.195C14.988,10.14 15.159,10.078 15.327,10.014L18.164,14.557C19.188,16.175 19.99,16.147 21.2,16.147C20.193,15.373 19.539,14.404 19.221,13.897L16.465,9.486C16.621,9.4 16.774,9.309 16.922,9.215L19.181,12.83C20.205,14.449 21.006,14.42 22.216,14.42C21.209,13.649 20.556,12.677 20.237,12.17L17.921,8.462C18.057,8.34 18.187,8.212 18.308,8.081L19.951,10.709C20.974,12.327 21.776,12.299 22.986,12.299C21.98,11.527 21.324,10.553 21.006,10.047L19.1,6.996C19.202,6.806 19.289,6.612 19.361,6.413L20.319,7.947Z" style="fill:white;fill-rule:nonzero;"/>
                </g>
                <g transform="matrix(7.98817,0,0,7.98817,9769.26,31035.2)">
                    <rect x="0" y="0" width="3.5" height="20" style="fill:white;fill-rule:nonzero;"/>
                    <rect x="0" y="20" width="3.5" height="20" style="fill:white;fill-opacity:0.66;fill-rule:nonzero;"/>
                    <rect x="0" y="40" width="3.5" height="20" style="fill:white;fill-opacity:0.33;fill-rule:nonzero;"/>
                </g>
                <g transform="matrix(7.98817,0,0,7.98817,9853.13,31099.1)">
                    <path d="M2.388,0C4.92,0 6.492,-1.308 6.492,-4.344C6.492,-7.188 5.208,-8.28 2.508,-8.28L0.948,-8.28L0.948,0L2.388,0ZM2.508,-7.452C4.344,-7.452 5.376,-6.684 5.376,-4.344C5.376,-1.812 4.296,-0.864 2.388,-0.864L1.992,-0.864L1.992,-7.452L2.508,-7.452ZM9.672,-5.112C10.284,-5.112 10.608,-4.644 10.608,-3.852C10.608,-3.672 10.596,-3.516 10.584,-3.432L8.496,-3.432C8.544,-4.512 8.988,-5.112 9.672,-5.112ZM11.616,-0.54L11.256,-1.224C11.124,-1.092 10.728,-0.72 10.044,-0.72C9.072,-0.72 8.544,-1.356 8.484,-2.7L11.424,-2.7C11.46,-2.976 11.496,-3.324 11.496,-3.816C11.496,-5.196 10.824,-5.904 9.732,-5.904C8.532,-5.904 7.536,-4.992 7.536,-2.952C7.536,-0.78 8.448,0.144 9.9,0.144C10.992,0.144 11.46,-0.372 11.616,-0.54ZM15.444,-5.772C15.348,-5.808 15.192,-5.868 14.916,-5.868C14.184,-5.868 13.872,-5.436 13.704,-4.98L13.68,-4.98L13.68,-5.76L12.792,-5.76L12.792,0L13.764,0L13.764,-4.224C13.908,-4.608 14.232,-5.004 14.844,-5.004C15.108,-5.004 15.276,-4.932 15.324,-4.908L15.444,-5.772ZM23.1,-6.168C23.1,-7.452 22.32,-8.28 20.352,-8.28L18.756,-8.28L18.756,0L20.448,0C22.428,0 23.316,-0.948 23.316,-2.244C23.316,-3.348 22.608,-4.068 21.756,-4.236L21.756,-4.26C22.476,-4.452 23.1,-5.016 23.1,-6.168ZM22.044,-6.132C22.044,-5.184 21.456,-4.596 20.34,-4.596L19.8,-4.596L19.8,-7.452L20.352,-7.452C21.516,-7.452 22.044,-6.888 22.044,-6.132ZM22.2,-2.316C22.2,-1.368 21.672,-0.864 20.448,-0.864L19.8,-0.864L19.8,-3.768L20.508,-3.768C21.588,-3.768 22.2,-3.204 22.2,-2.316ZM26.472,-5.112C27.084,-5.112 27.408,-4.644 27.408,-3.852C27.408,-3.672 27.396,-3.516 27.384,-3.432L25.296,-3.432C25.344,-4.512 25.788,-5.112 26.472,-5.112ZM28.416,-0.54L28.056,-1.224C27.924,-1.092 27.528,-0.72 26.844,-0.72C25.872,-0.72 25.344,-1.356 25.284,-2.7L28.224,-2.7C28.26,-2.976 28.296,-3.324 28.296,-3.816C28.296,-5.196 27.624,-5.904 26.532,-5.904C25.332,-5.904 24.336,-4.992 24.336,-2.952C24.336,-0.78 25.248,0.144 26.7,0.144C27.792,0.144 28.26,-0.372 28.416,-0.54ZM31.956,-3.24L31.656,-3.24C30.348,-3.24 29.256,-2.796 29.256,-1.464C29.256,-0.528 29.916,0.144 30.792,0.144C31.524,0.144 31.872,-0.348 32.004,-0.636L32.028,-0.636C32.04,-0.348 32.052,-0.168 32.064,-0L32.988,-0C32.964,-0.156 32.916,-0.708 32.916,-1.2L32.916,-3.828C32.916,-5.28 32.292,-5.904 31.116,-5.904C30.192,-5.904 29.64,-5.46 29.388,-5.208L29.796,-4.56C30.012,-4.752 30.396,-5.076 30.972,-5.076C31.596,-5.076 31.956,-4.764 31.956,-3.792L31.956,-3.24ZM31.956,-2.52L31.956,-1.248C31.836,-1.068 31.56,-0.684 30.996,-0.684C30.516,-0.684 30.228,-0.984 30.228,-1.572C30.228,-2.208 30.72,-2.472 31.644,-2.508L31.956,-2.52ZM37.5,-0.648L37.524,-0.648L37.524,0L38.412,0L38.412,-5.76L37.44,-5.76L37.44,-1.356C37.248,-1.116 36.864,-0.72 36.276,-0.72C35.628,-0.72 35.316,-1.104 35.316,-2.052L35.316,-5.76L34.344,-5.76L34.344,-1.98C34.344,-0.42 34.98,0.144 36,0.144C36.876,0.144 37.392,-0.444 37.5,-0.648ZM42.324,-4.968L42.444,-5.76L41.148,-5.76L41.148,-6.792C41.148,-7.548 41.4,-7.8 41.856,-7.8C42.108,-7.8 42.288,-7.704 42.384,-7.644L42.588,-8.448C42.492,-8.508 42.18,-8.664 41.772,-8.664C40.92,-8.664 40.176,-8.16 40.176,-6.9L40.176,-5.748L39.48,-5.616L39.48,-4.968L40.176,-4.968L40.176,0L41.148,0L41.148,-4.968L42.324,-4.968ZM45.9,-0.108L45.768,-0.888C45.672,-0.828 45.456,-0.72 45.168,-0.72C44.676,-0.72 44.484,-0.96 44.484,-1.776L44.484,-4.968L45.744,-4.968L45.864,-5.76L44.484,-5.76L44.484,-7.368L43.62,-7.368L43.512,-5.76L42.816,-5.616L42.816,-4.968L43.512,-4.968L43.512,-1.644C43.512,-0.372 44.016,0.144 45,0.144C45.516,0.144 45.816,-0.048 45.9,-0.108ZM49.5,-5.772C49.404,-5.808 49.248,-5.868 48.972,-5.868C48.24,-5.868 47.928,-5.436 47.76,-4.98L47.736,-4.98L47.736,-5.76L46.848,-5.76L46.848,0L47.82,0L47.82,-4.224C47.964,-4.608 48.288,-5.004 48.9,-5.004C49.164,-5.004 49.332,-4.932 49.38,-4.908L49.5,-5.772ZM52.644,-3.24L52.344,-3.24C51.036,-3.24 49.944,-2.796 49.944,-1.464C49.944,-0.528 50.604,0.144 51.48,0.144C52.212,0.144 52.56,-0.348 52.692,-0.636L52.716,-0.636C52.728,-0.348 52.74,-0.168 52.752,-0L53.676,-0C53.652,-0.156 53.604,-0.708 53.604,-1.2L53.604,-3.828C53.604,-5.28 52.98,-5.904 51.804,-5.904C50.88,-5.904 50.328,-5.46 50.076,-5.208L50.484,-4.56C50.7,-4.752 51.084,-5.076 51.66,-5.076C52.284,-5.076 52.644,-4.764 52.644,-3.792L52.644,-3.24ZM52.644,-2.52L52.644,-1.248C52.524,-1.068 52.248,-0.684 51.684,-0.684C51.204,-0.684 50.916,-0.984 50.916,-1.572C50.916,-2.208 51.408,-2.472 52.332,-2.508L52.644,-2.52ZM57.804,-3.972C57.804,-3.144 57.348,-2.82 56.796,-2.82C56.268,-2.82 55.8,-3.144 55.8,-3.972C55.8,-4.8 56.268,-5.124 56.82,-5.124C57.348,-5.124 57.804,-4.8 57.804,-3.972ZM59.22,0.444C59.22,-0.648 58.404,-1.08 57.312,-1.08L56.58,-1.08C56.16,-1.08 55.992,-1.248 55.992,-1.488C55.992,-1.788 56.268,-1.944 56.46,-2.028C56.556,-2.016 56.652,-2.016 56.76,-2.016C57.888,-2.016 58.752,-2.748 58.752,-3.972C58.752,-4.356 58.656,-4.716 58.476,-5.004L59.196,-5.004L59.328,-5.76L57.576,-5.76C57.336,-5.856 57.084,-5.904 56.808,-5.904C55.728,-5.904 54.852,-5.268 54.852,-3.972C54.852,-3.06 55.248,-2.484 55.836,-2.208L55.836,-2.184C55.692,-2.112 55.14,-1.872 55.14,-1.248C55.14,-0.888 55.272,-0.624 55.512,-0.444L55.512,-0.42C55.248,-0.276 54.552,0.132 54.552,0.984C54.552,1.98 55.212,2.544 56.436,2.544C58.14,2.544 59.22,1.68 59.22,0.444ZM56.508,1.716C55.824,1.716 55.488,1.404 55.488,0.792C55.488,0.216 55.8,-0.06 56.076,-0.216C56.208,-0.192 56.364,-0.18 56.52,-0.18L57.252,-0.18C57.84,-0.18 58.224,0.036 58.224,0.588C58.224,1.176 57.684,1.716 56.508,1.716ZM62.916,-0.108L62.784,-0.888C62.688,-0.828 62.472,-0.72 62.184,-0.72C61.692,-0.72 61.5,-0.96 61.5,-1.776L61.5,-4.968L62.76,-4.968L62.88,-5.76L61.5,-5.76L61.5,-7.368L60.636,-7.368L60.528,-5.76L59.832,-5.616L59.832,-4.968L60.528,-4.968L60.528,-1.644C60.528,-0.372 61.032,0.144 62.016,0.144C62.532,0.144 62.832,-0.048 62.916,-0.108ZM65.652,-5.112C66.264,-5.112 66.588,-4.644 66.588,-3.852C66.588,-3.672 66.576,-3.516 66.564,-3.432L64.476,-3.432C64.524,-4.512 64.968,-5.112 65.652,-5.112ZM67.596,-0.54L67.236,-1.224C67.104,-1.092 66.708,-0.72 66.024,-0.72C65.052,-0.72 64.524,-1.356 64.464,-2.7L67.404,-2.7C67.44,-2.976 67.476,-3.324 67.476,-3.816C67.476,-5.196 66.804,-5.904 65.712,-5.904C64.512,-5.904 63.516,-4.992 63.516,-2.952C63.516,-0.78 64.428,0.144 65.88,0.144C66.972,0.144 67.44,-0.372 67.596,-0.54ZM73.332,-0.72C72.66,-0.72 72.06,-1.248 72.06,-2.832C72.06,-4.464 72.768,-5.04 73.668,-5.04C74.016,-5.04 74.244,-4.944 74.412,-4.836L74.412,-1.284C74.28,-1.092 73.944,-0.72 73.332,-0.72ZM74.472,-0.612L74.496,-0.612L74.496,0L75.384,0L75.384,-8.592L74.412,-8.484L74.412,-5.724C74.232,-5.796 73.968,-5.868 73.596,-5.868C72.372,-5.868 71.052,-5.124 71.052,-2.796C71.052,-0.696 71.976,0.144 73.068,0.144C73.98,0.144 74.364,-0.432 74.472,-0.612ZM78.744,-5.112C79.356,-5.112 79.68,-4.644 79.68,-3.852C79.68,-3.672 79.668,-3.516 79.656,-3.432L77.568,-3.432C77.616,-4.512 78.06,-5.112 78.744,-5.112ZM80.688,-0.54L80.328,-1.224C80.196,-1.092 79.8,-0.72 79.116,-0.72C78.144,-0.72 77.616,-1.356 77.556,-2.7L80.496,-2.7C80.532,-2.976 80.568,-3.324 80.568,-3.816C80.568,-5.196 79.896,-5.904 78.804,-5.904C77.604,-5.904 76.608,-4.992 76.608,-2.952C76.608,-0.78 77.52,0.144 78.972,0.144C80.064,0.144 80.532,-0.372 80.688,-0.54ZM84.516,-5.772C84.42,-5.808 84.264,-5.868 83.988,-5.868C83.256,-5.868 82.944,-5.436 82.776,-4.98L82.752,-4.98L82.752,-5.76L81.864,-5.76L81.864,0L82.836,0L82.836,-4.224C82.98,-4.608 83.304,-5.004 83.916,-5.004C84.18,-5.004 84.348,-4.932 84.396,-4.908L84.516,-5.772ZM92.172,-6.168C92.172,-7.452 91.392,-8.28 89.424,-8.28L87.828,-8.28L87.828,0L89.52,0C91.5,0 92.388,-0.948 92.388,-2.244C92.388,-3.348 91.68,-4.068 90.828,-4.236L90.828,-4.26C91.548,-4.452 92.172,-5.016 92.172,-6.168ZM91.116,-6.132C91.116,-5.184 90.528,-4.596 89.412,-4.596L88.872,-4.596L88.872,-7.452L89.424,-7.452C90.588,-7.452 91.116,-6.888 91.116,-6.132ZM91.272,-2.316C91.272,-1.368 90.744,-0.864 89.52,-0.864L88.872,-0.864L88.872,-3.768L89.58,-3.768C90.66,-3.768 91.272,-3.204 91.272,-2.316ZM96.792,-0.648L96.816,-0.648L96.816,0L97.704,0L97.704,-5.76L96.732,-5.76L96.732,-1.356C96.54,-1.116 96.156,-0.72 95.568,-0.72C94.92,-0.72 94.608,-1.104 94.608,-2.052L94.608,-5.76L93.636,-5.76L93.636,-1.98C93.636,-0.42 94.272,0.144 95.292,0.144C96.168,0.144 96.684,-0.444 96.792,-0.648ZM101.34,-5.076C102.012,-5.076 102.336,-4.68 102.336,-3.708L102.336,0L103.308,0L103.308,-3.78C103.308,-5.34 102.66,-5.904 101.628,-5.904C100.728,-5.904 100.212,-5.316 100.104,-5.112L100.08,-5.112L100.08,-5.76L99.192,-5.76L99.192,0L100.164,0L100.164,-4.44C100.356,-4.68 100.752,-5.076 101.34,-5.076ZM106.776,-0.72C106.104,-0.72 105.504,-1.248 105.504,-2.832C105.504,-4.464 106.212,-5.04 107.112,-5.04C107.46,-5.04 107.688,-4.944 107.856,-4.836L107.856,-1.284C107.724,-1.092 107.388,-0.72 106.776,-0.72ZM107.916,-0.612L107.94,-0.612L107.94,0L108.828,0L108.828,-8.592L107.856,-8.484L107.856,-5.724C107.676,-5.796 107.412,-5.868 107.04,-5.868C105.816,-5.868 104.496,-5.124 104.496,-2.796C104.496,-0.696 105.42,0.144 106.512,0.144C107.424,0.144 107.808,-0.432 107.916,-0.612ZM112.188,-5.112C112.8,-5.112 113.124,-4.644 113.124,-3.852C113.124,-3.672 113.112,-3.516 113.1,-3.432L111.012,-3.432C111.06,-4.512 111.504,-5.112 112.188,-5.112ZM114.132,-0.54L113.772,-1.224C113.64,-1.092 113.244,-0.72 112.56,-0.72C111.588,-0.72 111.06,-1.356 111,-2.7L113.94,-2.7C113.976,-2.976 114.012,-3.324 114.012,-3.816C114.012,-5.196 113.34,-5.904 112.248,-5.904C111.048,-5.904 110.052,-4.992 110.052,-2.952C110.052,-0.78 110.964,0.144 112.416,0.144C113.508,0.144 113.976,-0.372 114.132,-0.54ZM118.212,-5.292C118.02,-5.484 117.636,-5.904 116.748,-5.904C115.812,-5.904 115.08,-5.268 115.08,-4.416C115.08,-3.624 115.512,-3.156 116.232,-2.7L116.592,-2.472C117.144,-2.124 117.432,-1.932 117.432,-1.38C117.432,-1.008 117.12,-0.72 116.544,-0.72C115.92,-0.72 115.56,-1.092 115.38,-1.284L114.912,-0.516C115.14,-0.276 115.608,0.144 116.532,0.144C117.708,0.144 118.368,-0.564 118.368,-1.476C118.368,-2.328 117.888,-2.796 117.108,-3.264L116.748,-3.48C116.232,-3.792 115.992,-4.032 115.992,-4.464C115.992,-4.8 116.268,-5.076 116.784,-5.076C117.324,-5.076 117.66,-4.74 117.792,-4.596L118.212,-5.292ZM122.16,-5.772C122.064,-5.808 121.908,-5.868 121.632,-5.868C120.9,-5.868 120.588,-5.436 120.42,-4.98L120.396,-4.98L120.396,-5.76L119.508,-5.76L119.508,0L120.48,0L120.48,-4.224C120.624,-4.608 120.948,-5.004 121.56,-5.004C121.824,-5.004 121.992,-4.932 122.04,-4.908L122.16,-5.772ZM124.728,-5.112C125.34,-5.112 125.664,-4.644 125.664,-3.852C125.664,-3.672 125.652,-3.516 125.64,-3.432L123.552,-3.432C123.6,-4.512 124.044,-5.112 124.728,-5.112ZM126.672,-0.54L126.312,-1.224C126.18,-1.092 125.784,-0.72 125.1,-0.72C124.128,-0.72 123.6,-1.356 123.54,-2.7L126.48,-2.7C126.516,-2.976 126.552,-3.324 126.552,-3.816C126.552,-5.196 125.88,-5.904 124.788,-5.904C123.588,-5.904 122.592,-4.992 122.592,-2.952C122.592,-0.78 123.504,0.144 124.956,0.144C126.048,0.144 126.516,-0.372 126.672,-0.54ZM130.584,-3.972C130.584,-3.144 130.128,-2.82 129.576,-2.82C129.048,-2.82 128.58,-3.144 128.58,-3.972C128.58,-4.8 129.048,-5.124 129.6,-5.124C130.128,-5.124 130.584,-4.8 130.584,-3.972ZM132,0.444C132,-0.648 131.184,-1.08 130.092,-1.08L129.36,-1.08C128.94,-1.08 128.772,-1.248 128.772,-1.488C128.772,-1.788 129.048,-1.944 129.24,-2.028C129.336,-2.016 129.432,-2.016 129.54,-2.016C130.668,-2.016 131.532,-2.748 131.532,-3.972C131.532,-4.356 131.436,-4.716 131.256,-5.004L131.976,-5.004L132.108,-5.76L130.356,-5.76C130.116,-5.856 129.864,-5.904 129.588,-5.904C128.508,-5.904 127.632,-5.268 127.632,-3.972C127.632,-3.06 128.028,-2.484 128.616,-2.208L128.616,-2.184C128.472,-2.112 127.92,-1.872 127.92,-1.248C127.92,-0.888 128.052,-0.624 128.292,-0.444L128.292,-0.42C128.028,-0.276 127.332,0.132 127.332,0.984C127.332,1.98 127.992,2.544 129.216,2.544C130.92,2.544 132,1.68 132,0.444ZM129.288,1.716C128.604,1.716 128.268,1.404 128.268,0.792C128.268,0.216 128.58,-0.06 128.856,-0.216C128.988,-0.192 129.144,-0.18 129.3,-0.18L130.032,-0.18C130.62,-0.18 131.004,0.036 131.004,0.588C131.004,1.176 130.464,1.716 129.288,1.716ZM133.572,-7.152C133.956,-7.152 134.22,-7.44 134.22,-7.848C134.22,-8.244 133.956,-8.532 133.572,-8.532C133.176,-8.532 132.912,-8.244 132.912,-7.848C132.912,-7.44 133.176,-7.152 133.572,-7.152ZM134.052,-5.76L133.08,-5.76L133.08,0L134.052,0L134.052,-5.76ZM137.412,-5.112C138.024,-5.112 138.348,-4.644 138.348,-3.852C138.348,-3.672 138.336,-3.516 138.324,-3.432L136.236,-3.432C136.284,-4.512 136.728,-5.112 137.412,-5.112ZM139.356,-0.54L138.996,-1.224C138.864,-1.092 138.468,-0.72 137.784,-0.72C136.812,-0.72 136.284,-1.356 136.224,-2.7L139.164,-2.7C139.2,-2.976 139.236,-3.324 139.236,-3.816C139.236,-5.196 138.564,-5.904 137.472,-5.904C136.272,-5.904 135.276,-4.992 135.276,-2.952C135.276,-0.78 136.188,0.144 137.64,0.144C138.732,0.144 139.2,-0.372 139.356,-0.54ZM143.184,-5.772C143.088,-5.808 142.932,-5.868 142.656,-5.868C141.924,-5.868 141.612,-5.436 141.444,-4.98L141.42,-4.98L141.42,-5.76L140.532,-5.76L140.532,0L141.504,0L141.504,-4.224C141.648,-4.608 141.972,-5.004 142.584,-5.004C142.848,-5.004 143.016,-4.932 143.064,-4.908L143.184,-5.772ZM147.144,-0.648L147.168,-0.648L147.168,0L148.056,0L148.056,-5.76L147.084,-5.76L147.084,-1.356C146.892,-1.116 146.508,-0.72 145.92,-0.72C145.272,-0.72 144.96,-1.104 144.96,-2.052L144.96,-5.76L143.988,-5.76L143.988,-1.98C143.988,-0.42 144.624,0.144 145.644,0.144C146.52,0.144 147.036,-0.444 147.144,-0.648ZM151.692,-5.076C152.364,-5.076 152.688,-4.68 152.688,-3.708L152.688,0L153.66,0L153.66,-3.78C153.66,-5.34 153.012,-5.904 151.98,-5.904C151.08,-5.904 150.564,-5.316 150.456,-5.112L150.432,-5.112L150.432,-5.76L149.544,-5.76L149.544,0L150.516,0L150.516,-4.44C150.708,-4.68 151.104,-5.076 151.692,-5.076ZM157.847,-3.972C157.847,-3.144 157.391,-2.82 156.839,-2.82C156.311,-2.82 155.843,-3.144 155.843,-3.972C155.843,-4.8 156.311,-5.124 156.863,-5.124C157.391,-5.124 157.847,-4.8 157.847,-3.972ZM159.263,0.444C159.263,-0.648 158.447,-1.08 157.355,-1.08L156.623,-1.08C156.203,-1.08 156.035,-1.248 156.035,-1.488C156.035,-1.788 156.311,-1.944 156.503,-2.028C156.599,-2.016 156.695,-2.016 156.803,-2.016C157.931,-2.016 158.795,-2.748 158.795,-3.972C158.795,-4.356 158.699,-4.716 158.519,-5.004L159.239,-5.004L159.371,-5.76L157.619,-5.76C157.379,-5.856 157.127,-5.904 156.851,-5.904C155.771,-5.904 154.895,-5.268 154.895,-3.972C154.895,-3.06 155.291,-2.484 155.879,-2.208L155.879,-2.184C155.735,-2.112 155.183,-1.872 155.183,-1.248C155.183,-0.888 155.315,-0.624 155.555,-0.444L155.555,-0.42C155.291,-0.276 154.595,0.132 154.595,0.984C154.595,1.98 155.255,2.544 156.479,2.544C158.183,2.544 159.263,1.68 159.263,0.444ZM156.551,1.716C155.867,1.716 155.531,1.404 155.531,0.792C155.531,0.216 155.843,-0.06 156.119,-0.216C156.251,-0.192 156.407,-0.18 156.563,-0.18L157.295,-0.18C157.883,-0.18 158.267,0.036 158.267,0.588C158.267,1.176 157.727,1.716 156.551,1.716Z" style="fill:white;fill-rule:nonzero;"/>
                    <g transform="matrix(1,0,0,1,0,12)">
                        <path d="M3.168,-4.968L3.288,-5.76L1.992,-5.76L1.992,-6.792C1.992,-7.548 2.244,-7.8 2.7,-7.8C2.952,-7.8 3.132,-7.704 3.228,-7.644L3.432,-8.448C3.336,-8.508 3.024,-8.664 2.616,-8.664C1.764,-8.664 1.02,-8.16 1.02,-6.9L1.02,-5.748L0.324,-5.616L0.324,-4.968L1.02,-4.968L1.02,0L1.992,0L1.992,-4.968L3.168,-4.968ZM7.62,-7.416C7.62,-7.788 7.368,-8.028 7.044,-8.028C6.72,-8.028 6.468,-7.788 6.468,-7.416C6.468,-7.044 6.72,-6.804 7.044,-6.804C7.368,-6.804 7.62,-7.044 7.62,-7.416ZM5.772,-7.416C5.772,-7.788 5.52,-8.028 5.196,-8.028C4.872,-8.028 4.62,-7.788 4.62,-7.416C4.62,-7.044 4.872,-6.804 5.196,-6.804C5.52,-6.804 5.772,-7.044 5.772,-7.416ZM7.248,-0.648L7.272,-0.648L7.272,0L8.16,0L8.16,-5.76L7.188,-5.76L7.188,-1.356C6.996,-1.116 6.612,-0.72 6.024,-0.72C5.376,-0.72 5.064,-1.104 5.064,-2.052L5.064,-5.76L4.092,-5.76L4.092,-1.98C4.092,-0.42 4.728,0.144 5.748,0.144C6.624,0.144 7.14,-0.444 7.248,-0.648ZM12.3,-5.772C12.204,-5.808 12.048,-5.868 11.772,-5.868C11.04,-5.868 10.728,-5.436 10.56,-4.98L10.536,-4.98L10.536,-5.76L9.648,-5.76L9.648,0L10.62,0L10.62,-4.224C10.764,-4.608 11.088,-5.004 11.7,-5.004C11.964,-5.004 12.132,-4.932 12.18,-4.908L12.3,-5.772ZM20.772,-8.28L19.608,-8.28L17.292,-4.596L16.656,-4.596L16.656,-8.28L15.612,-8.28L15.612,0L16.656,0L16.656,-3.768L17.28,-3.768L19.68,0L20.964,0L18.156,-4.236L20.772,-8.28ZM24.768,-0.648L24.792,-0.648L24.792,0L25.68,0L25.68,-5.76L24.708,-5.76L24.708,-1.356C24.516,-1.116 24.132,-0.72 23.544,-0.72C22.896,-0.72 22.584,-1.104 22.584,-2.052L22.584,-5.76L21.612,-5.76L21.612,-1.98C21.612,-0.42 22.248,0.144 23.268,0.144C24.144,0.144 24.66,-0.444 24.768,-0.648ZM28.128,-8.592L27.156,-8.484L27.156,-1.26C27.156,-0.24 27.6,0.108 28.248,0.108C28.68,0.108 28.932,-0 29.028,-0.048L28.944,-0.768C28.884,-0.744 28.764,-0.696 28.584,-0.696C28.248,-0.696 28.128,-0.864 28.128,-1.344L28.128,-8.592ZM32.52,-0.108L32.388,-0.888C32.292,-0.828 32.076,-0.72 31.788,-0.72C31.296,-0.72 31.104,-0.96 31.104,-1.776L31.104,-4.968L32.364,-4.968L32.484,-5.76L31.104,-5.76L31.104,-7.368L30.24,-7.368L30.132,-5.76L29.436,-5.616L29.436,-4.968L30.132,-4.968L30.132,-1.644C30.132,-0.372 30.636,0.144 31.62,0.144C32.136,0.144 32.436,-0.048 32.52,-0.108ZM36.588,-0.648L36.612,-0.648L36.612,0L37.5,0L37.5,-5.76L36.528,-5.76L36.528,-1.356C36.336,-1.116 35.952,-0.72 35.364,-0.72C34.716,-0.72 34.404,-1.104 34.404,-2.052L34.404,-5.76L33.432,-5.76L33.432,-1.98C33.432,-0.42 34.068,0.144 35.088,0.144C35.964,0.144 36.48,-0.444 36.588,-0.648ZM41.64,-5.772C41.544,-5.808 41.388,-5.868 41.112,-5.868C40.38,-5.868 40.068,-5.436 39.9,-4.98L39.876,-4.98L39.876,-5.76L38.988,-5.76L38.988,0L39.96,0L39.96,-4.224C40.104,-4.608 40.428,-5.004 41.04,-5.004C41.304,-5.004 41.472,-4.932 41.52,-4.908L41.64,-5.772ZM47.868,-0.648L47.892,-0.648L47.892,0L48.78,0L48.78,-5.76L47.808,-5.76L47.808,-1.356C47.616,-1.116 47.232,-0.72 46.644,-0.72C45.996,-0.72 45.684,-1.104 45.684,-2.052L45.684,-5.76L44.712,-5.76L44.712,-1.98C44.712,-0.42 45.348,0.144 46.368,0.144C47.244,0.144 47.76,-0.444 47.868,-0.648ZM52.416,-5.076C53.088,-5.076 53.412,-4.68 53.412,-3.708L53.412,0L54.384,0L54.384,-3.78C54.384,-5.34 53.736,-5.904 52.704,-5.904C51.804,-5.904 51.288,-5.316 51.18,-5.112L51.156,-5.112L51.156,-5.76L50.268,-5.76L50.268,0L51.24,0L51.24,-4.44C51.432,-4.68 51.828,-5.076 52.416,-5.076ZM57.852,-0.72C57.18,-0.72 56.58,-1.248 56.58,-2.832C56.58,-4.464 57.288,-5.04 58.188,-5.04C58.536,-5.04 58.764,-4.944 58.932,-4.836L58.932,-1.284C58.8,-1.092 58.464,-0.72 57.852,-0.72ZM58.992,-0.612L59.016,-0.612L59.016,0L59.904,0L59.904,-8.592L58.932,-8.484L58.932,-5.724C58.752,-5.796 58.488,-5.868 58.116,-5.868C56.892,-5.868 55.572,-5.124 55.572,-2.796C55.572,-0.696 56.496,0.144 57.588,0.144C58.5,0.144 58.884,-0.432 58.992,-0.612ZM69.948,-8.28L67.992,-2.556C67.812,-2.028 67.656,-1.5 67.644,-1.14L67.62,-1.14C67.596,-1.5 67.44,-2.04 67.26,-2.568L65.304,-8.28L64.14,-8.28L64.14,0L65.148,0L65.148,-3.936C65.148,-4.932 65.136,-5.892 65.1,-6.264L65.136,-6.264C65.208,-5.904 65.496,-4.98 65.808,-4.044L67.176,0L68.004,0L69.372,-4.044C69.684,-4.98 69.96,-5.904 70.044,-6.264L70.08,-6.264C70.044,-5.916 70.032,-4.932 70.032,-3.936L70.032,0L71.04,0L71.04,-8.28L69.948,-8.28ZM74.556,-5.112C75.168,-5.112 75.492,-4.644 75.492,-3.852C75.492,-3.672 75.48,-3.516 75.468,-3.432L73.38,-3.432C73.428,-4.512 73.872,-5.112 74.556,-5.112ZM76.5,-0.54L76.14,-1.224C76.008,-1.092 75.612,-0.72 74.928,-0.72C73.956,-0.72 73.428,-1.356 73.368,-2.7L76.308,-2.7C76.344,-2.976 76.38,-3.324 76.38,-3.816C76.38,-5.196 75.708,-5.904 74.616,-5.904C73.416,-5.904 72.42,-4.992 72.42,-2.952C72.42,-0.78 73.332,0.144 74.784,0.144C75.876,0.144 76.344,-0.372 76.5,-0.54ZM79.692,-0.72C79.02,-0.72 78.42,-1.248 78.42,-2.832C78.42,-4.464 79.128,-5.04 80.028,-5.04C80.376,-5.04 80.604,-4.944 80.772,-4.836L80.772,-1.284C80.64,-1.092 80.304,-0.72 79.692,-0.72ZM80.832,-0.612L80.856,-0.612L80.856,0L81.744,0L81.744,-8.592L80.772,-8.484L80.772,-5.724C80.592,-5.796 80.328,-5.868 79.956,-5.868C78.732,-5.868 77.412,-5.124 77.412,-2.796C77.412,-0.696 78.336,0.144 79.428,0.144C80.34,0.144 80.724,-0.432 80.832,-0.612ZM83.724,-7.152C84.108,-7.152 84.372,-7.44 84.372,-7.848C84.372,-8.244 84.108,-8.532 83.724,-8.532C83.328,-8.532 83.064,-8.244 83.064,-7.848C83.064,-7.44 83.328,-7.152 83.724,-7.152ZM84.204,-5.76L83.232,-5.76L83.232,0L84.204,0L84.204,-5.76ZM87.564,-5.112C88.176,-5.112 88.5,-4.644 88.5,-3.852C88.5,-3.672 88.488,-3.516 88.476,-3.432L86.388,-3.432C86.436,-4.512 86.88,-5.112 87.564,-5.112ZM89.508,-0.54L89.148,-1.224C89.016,-1.092 88.62,-0.72 87.936,-0.72C86.964,-0.72 86.436,-1.356 86.376,-2.7L89.316,-2.7C89.352,-2.976 89.388,-3.324 89.388,-3.816C89.388,-5.196 88.716,-5.904 87.624,-5.904C86.424,-5.904 85.428,-4.992 85.428,-2.952C85.428,-0.78 86.34,0.144 87.792,0.144C88.884,0.144 89.352,-0.372 89.508,-0.54ZM92.832,-5.076C93.504,-5.076 93.828,-4.68 93.828,-3.708L93.828,0L94.8,0L94.8,-3.78C94.8,-5.34 94.152,-5.904 93.12,-5.904C92.22,-5.904 91.704,-5.316 91.596,-5.112L91.572,-5.112L91.572,-5.76L90.684,-5.76L90.684,0L91.656,0L91.656,-4.44C91.848,-4.68 92.244,-5.076 92.832,-5.076Z" style="fill:white;fill-rule:nonzero;"/>
                    </g>
                </g>
            </g>
        </g>
    </g>
</svg>
