<?xml version="1.0" encoding="UTF-8" standalone="no"?>
<!DOCTYPE svg PUBLIC "-//W3C//DTD SVG 1.1//EN" "http://www.w3.org/Graphics/SVG/1.1/DTD/svg11.dtd">
<svg width="100%" height="100%" viewBox="0 0 523 210" version="1.1" xmlns="http://www.w3.org/2000/svg" xmlns:xlink="http://www.w3.org/1999/xlink" xml:space="preserve" xmlns:serif="http://www.serif.com/" style="fill-rule:evenodd;clip-rule:evenodd;stroke-linejoin:round;stroke-miterlimit:2;">
    <g id="initiative-musik" transform="matrix(1,0,0,1,-145.503,-670.801)">
        <rect x="145.503" y="670.801" width="522.3" height="209.858" style="fill:none;"/>
        <g transform="matrix(1.0848,0,0,1.0983,166.913,693.878)">
            <path d="M116.724,64.553L116.724,112.087L126.446,112.087L126.446,85.211C126.446,81.78 126.16,78.349 125.659,73.845L126.803,73.702C127.732,78.277 128.376,80.636 129.519,84.067L138.526,112.087L147.675,112.087L156.754,84.067C157.54,81.565 158.541,77.991 159.327,73.702L160.542,73.845C160.042,78.277 159.827,81.494 159.827,85.497L159.827,112.087L169.549,112.087L169.549,64.553L154.967,64.553L146.746,89.428C145.388,93.36 144.316,97.22 143.53,101.079L142.672,101.079C141.957,97.22 140.956,93.717 139.527,89.428L131.235,64.553L116.724,64.553ZM198.885,112.945C211.751,112.945 218.899,105.654 218.899,93.431L218.899,64.553L208.963,64.553L208.963,93.431C208.963,100.722 205.389,105.082 199.242,105.082L198.67,105.082C192.451,105.082 188.734,100.722 188.734,93.431L188.734,64.553L178.798,64.553L178.798,93.431C178.798,105.654 185.946,112.945 198.885,112.945ZM224.995,94.861C225.567,108.299 235.717,112.874 245.939,112.945C256.733,113.017 265.596,107.441 265.596,98.435C265.596,90.643 260.092,86.569 251.944,84.782L244.081,82.923C239.792,82.066 236.933,80.279 236.933,76.919C236.933,73.131 240.935,71.201 245.224,71.201C250.514,71.201 254.588,74.632 254.946,79.635L265.525,79.635C264.596,69.485 256.232,63.695 245.224,63.695C234.788,63.695 226.568,68.341 226.568,77.562C226.568,84.353 231.571,88.785 240.078,90.786L247.369,92.573C250.871,93.36 255.16,94.36 255.16,99.007C255.16,103.009 250.442,105.297 246.082,105.297C240.435,105.297 235.789,101.794 235.717,94.861L224.995,94.861ZM272.515,112.087L282.451,112.087L282.451,64.553L272.515,64.553L272.515,112.087ZM322.43,112.087L334.153,112.087L314.281,84.21L333.152,64.553L321.072,64.553L301.629,85.139L301.629,64.553L291.693,64.553L291.693,112.087L301.629,112.087L301.629,97.005L307.419,90.715L322.43,112.087Z" style="fill:white;fill-rule:nonzero;"/>
            <path d="M116.724,48.749L126.66,48.749L126.66,1.214L116.724,1.214L116.724,48.749ZM135.843,1.214L135.843,48.749L145.421,48.749L145.421,23.159C145.421,19.799 145.064,16.368 144.635,13.937L145.636,13.723C146.851,16.868 148.066,19.37 150.425,23.016L167.009,48.749L177.016,48.749L177.016,1.214L167.438,1.214L167.509,27.233C167.509,29.878 167.866,32.951 168.367,35.596L167.295,35.882C165.579,31.808 164.292,29.449 161.862,25.589L146.136,1.214L135.843,1.214ZM186.313,48.749L196.249,48.749L196.249,1.214L186.313,1.214L186.313,48.749ZM240.844,1.214L200.672,1.214L200.672,9.22L215.826,9.22L215.826,48.749L225.761,48.749L225.761,9.22L240.844,9.22L240.844,1.214ZM245.352,48.749L255.288,48.749L255.288,1.214L245.352,1.214L245.352,48.749ZM296.402,48.749L306.695,48.749L288.968,1.214L276.673,1.214L259.803,48.749L270.025,48.749L274.171,37.097L292.113,37.097L296.402,48.749ZM276.173,30.021L280.748,16.582C281.462,14.223 281.963,12.579 282.249,10.221L283.392,10.221C283.821,12.579 284.322,14.223 285.108,16.582L289.969,30.021L276.173,30.021ZM341.483,1.214L301.31,1.214L301.31,9.22L316.464,9.22L316.464,48.749L326.4,48.749L326.4,9.22L341.483,9.22L341.483,1.214ZM345.992,48.749L355.928,48.749L355.928,1.214L345.992,1.214L345.992,48.749ZM360.571,1.214L378.012,48.749L389.878,48.749L407.248,1.214L396.812,1.214L388.163,25.732C386.805,29.592 385.304,34.596 384.517,38.884L383.445,38.884C382.516,34.524 381.086,29.663 379.8,25.803L371.079,1.214L360.571,1.214ZM421.95,40.743L421.95,28.377L444.181,28.377L444.181,20.8L421.95,20.8L421.95,9.22L446.54,9.22L446.54,1.214L412.015,1.214L412.015,48.749L446.897,48.749L446.897,40.743L421.95,40.743Z" style="fill:white;fill-rule:nonzero;"/>
            <path d="M38.911,92.588L38.912,78.823L52.675,78.823L52.676,92.588L38.911,92.588Z" style="fill:white;fill-rule:nonzero;"/>
            <path d="M38.911,73.133L38.912,59.367L52.675,59.367L52.676,73.133L38.911,73.133Z" style="fill:white;fill-rule:nonzero;"/>
            <path d="M38.911,53.677L38.912,39.911L52.675,39.911L52.676,53.677L38.911,53.677Z" style="fill:white;fill-rule:nonzero;"/>
            <path d="M38.911,34.222L38.912,20.456L52.675,20.456L52.676,34.222L38.911,34.222Z" style="fill:white;fill-rule:nonzero;"/>
            <path d="M38.911,1L38.911,14.766L52.676,14.766L52.674,1L38.911,1Z" style="fill:white;fill-rule:nonzero;"/>
            <path d="M77.822,92.588L77.823,78.823L91.586,78.823L91.588,92.588L77.822,92.588Z" style="fill:white;fill-rule:nonzero;"/>
            <path d="M77.822,73.133L77.823,59.367L91.586,59.367L91.588,73.133L77.822,73.133Z" style="fill:white;fill-rule:nonzero;"/>
            <path d="M77.822,53.677L77.823,39.911L91.586,39.911L91.588,53.677L77.822,53.677Z" style="fill:white;fill-rule:nonzero;"/>
            <path d="M77.822,34.222L77.823,20.456L91.586,20.456L91.588,34.222L77.822,34.222Z" style="fill:white;fill-rule:nonzero;"/>
            <path d="M77.822,112.089L77.823,98.324L91.586,98.324L91.588,112.089L77.822,112.089Z" style="fill:white;fill-rule:nonzero;"/>
            <path d="M0,78.822L0,92.588L13.765,92.588L13.763,78.822L0,78.822Z" style="fill:white;fill-rule:nonzero;"/>
            <path d="M0,59.367L0,73.132L13.765,73.132L13.763,59.367L0,59.367Z" style="fill:white;fill-rule:nonzero;"/>
            <path d="M0,39.911L0,53.677L13.765,53.677L13.763,39.911L0,39.911Z" style="fill:white;fill-rule:nonzero;"/>
            <path d="M0,20.456L0,34.221L13.765,34.221L13.763,20.456L0,20.456Z" style="fill:white;fill-rule:nonzero;"/>
            <path d="M0,98.324L0,112.089L13.765,112.089L13.763,98.324L0,98.324Z" style="fill:white;fill-rule:nonzero;"/>
            <path d="M58.366,131.545L58.367,117.779L72.13,117.779L72.132,131.545L58.366,131.545Z" style="fill:white;fill-rule:nonzero;"/>
            <path d="M58.366,112.089L58.367,98.324L72.13,98.324L72.132,112.089L58.366,112.089Z" style="fill:white;fill-rule:nonzero;"/>
            <path d="M58.366,92.634L58.367,78.868L72.13,78.868L72.132,92.634L58.366,92.634Z" style="fill:white;fill-rule:nonzero;"/>
            <path d="M58.366,73.179L58.367,59.413L72.13,59.413L72.132,73.179L58.366,73.179Z" style="fill:white;fill-rule:nonzero;"/>
            <path d="M58.366,53.723L58.367,39.957L72.13,39.957L72.132,53.723L58.366,53.723Z" style="fill:white;fill-rule:nonzero;"/>
            <path d="M58.367,137.234L58.366,151L72.132,151L72.13,137.234L58.367,137.234Z" style="fill:white;fill-rule:nonzero;"/>
        </g>
    </g>
</svg>
