<?xml version="1.0" encoding="UTF-8" standalone="no"?>
<!DOCTYPE svg PUBLIC "-//W3C//DTD SVG 1.1//EN" "http://www.w3.org/Graphics/SVG/1.1/DTD/svg11.dtd">
<svg width="100%" height="100%" viewBox="0 0 553 210" version="1.1" xmlns="http://www.w3.org/2000/svg" xmlns:xlink="http://www.w3.org/1999/xlink" xml:space="preserve" xmlns:serif="http://www.serif.com/" style="fill-rule:evenodd;clip-rule:evenodd;stroke-linejoin:round;stroke-miterlimit:2;">
    <g transform="matrix(1,0,0,1,-1633,0)">
        <g id="vpby" transform="matrix(1,0,0,1,-0.963659,0)">
            <rect x="1633.96" y="0" width="552.175" height="209.858" style="fill:none;"/>
            <g transform="matrix(2.30271,0,0,2.30271,1586.11,-41.515)">
                <g>
                    <path d="M96.4,64.2C96.4,82 82,96.4 64.3,96.4C46.6,96.4 32.2,82 32.2,64.3C32.2,46.6 46.6,32.2 64.3,32.2C82,32.1 96.4,46.5 96.4,64.2ZM66.2,38.1L62.3,38.1L62.3,61.8L66.2,61.8L66.2,38.1ZM60.8,45.5L56.9,45.5L56.9,61.8L60.8,61.8L60.8,45.5ZM55.3,52L51.4,52L51.4,61.8L55.3,61.8L55.3,52ZM49.7,58.8L45.8,58.8L45.8,61.7L49.7,61.7L49.7,58.8ZM71.7,45.5L67.8,45.5L67.8,61.8L71.7,61.8L71.7,45.5ZM77.2,52L73.3,52L73.3,61.8L77.2,61.8L77.2,52ZM82.7,58.9L78.8,58.9L78.8,61.8L82.7,61.8L82.7,58.9ZM66.2,65.5L62.3,65.5L62.3,89.2L66.2,89.2L66.2,65.5ZM60.8,65.5L56.9,65.5L56.9,81.8L60.8,81.8L60.8,65.5ZM55.3,65.5L51.4,65.5L51.4,75.3L55.3,75.3L55.3,65.5ZM49.8,65.5L45.8,65.5L45.8,68.4L49.8,68.4L49.8,65.5ZM71.7,65.5L67.8,65.5L67.8,81.8L71.7,81.8L71.7,65.5ZM77.2,65.5L73.3,65.5L73.3,75.3L77.2,75.3L77.2,65.5ZM82.7,65.6L78.8,65.6L78.8,68.5L82.7,68.5L82.7,65.6Z" style="fill:white;"/>
                </g>
                <g>
                    <path d="M162.3,80.2C163.2,80.3 164,80.3 164.5,80.3C168.8,80.3 172.5,78.7 175.6,75.5C178.8,72.3 180.3,68.6 180.3,64.2C180.3,59.7 178.8,55.9 175.6,52.8C172.4,49.7 168.6,48.2 163.9,48.2C161.6,48.2 159.3,48.7 157.1,49.7C154.9,50.7 153.1,52.1 151.7,53.8C149.2,56.8 148,60.7 148,65.4L148,89.3L158.3,89.3L158.3,65.9C158.3,59.6 161.4,58.3 164.1,58.3C165.7,58.3 167.1,58.9 168.2,60C169.3,61.1 169.9,62.5 169.9,64.1C169.9,65.7 169.3,67 168.2,68.2C167.1,69.3 165.7,69.9 164.2,69.9C163.5,69.9 162.9,69.8 162.2,69.5C161.8,69.3 161.5,69.1 161.1,68.8L161.1,80.2C161.6,80.1 162,80.2 162.3,80.2Z" style="fill:white;fill-rule:nonzero;"/>
                </g>
                <g>
                    <path d="M197.3,48.4L197.3,59.8C197.7,59.6 198,59.4 198.3,59.2C199,58.9 199.7,58.7 200.4,58.7C202,58.7 203.3,59.3 204.4,60.4C205.5,61.5 206,62.9 206,64.5C206,66.1 205.4,67.5 204.3,68.6C203.2,69.7 201.8,70.3 200.2,70.3C197.6,70.3 194.4,69 194.4,62.7L194.4,38.2L184.1,38.2L184.1,63.1C184.1,67.9 185.4,71.8 187.8,74.8C189.2,76.5 191,77.9 193.2,78.9C195.4,79.9 197.7,80.4 200,80.4C204.7,80.4 208.5,78.9 211.7,75.7C214.9,72.6 216.5,68.8 216.5,64.2C216.5,59.7 215,56 211.8,52.8C208.7,49.6 205,48.1 200.6,48.1C200.1,48.1 199.3,48.1 198.3,48.2" style="fill:white;fill-rule:nonzero;"/>
                </g>
                <path d="M137.3,48L130.7,66.2L124.1,48L112.2,48L125.5,80.3L135.8,80.3L149.1,48L137.3,48Z" style="fill:white;fill-rule:nonzero;"/>
                <path d="M251.1,48L239.3,48L232.7,61.1L226.1,48L214.2,48L227.5,71.2L227.6,71.2L227.6,80.4L237.8,80.4L237.8,71.2L251.1,48Z" style="fill:white;fill-rule:nonzero;"/>
            </g>
        </g>
    </g>
</svg>
